<svg width="30" height="30" viewBox="0 0 30 30" fill="none" xmlns="http://www.w3.org/2000/svg">
  <path d="M7.05915 15.4242L3.52961 18.8537L0 15.4242L3.52961 11.9948L7.05915 15.4242Z" fill="#FFBB00"/>
  <path d="M14.5635 6.93867L20.4059 12.8604L23.8288 9.39112L14.5635 0L5.2985 9.39112L8.72132 12.8604L14.5635 6.93867Z" fill="#FFBB00"/>
  <path d="M26.4704 11.9948L22.9408 15.4242L26.4704 18.8537L30 15.4242L26.4704 11.9948Z" fill="#FFBB00"/>
  <path d="M14.5636 23.0613L8.72131 17.1395L5.2985 20.6089L14.5636 30L23.8287 20.6089L20.406 17.1395L14.5636 23.0613Z" fill="#FFBB00"/>
  <path d="M15.0057 18.8537L18.5353 15.4242L15.0057 11.9948L11.4762 15.4242L15.0057 18.8537Z" fill="#FFBB00"/>
</svg>
