<svg width="30" height="30" viewBox="0 0 30 30" fill="none" xmlns="http://www.w3.org/2000/svg">
<mask id="path-1-inside-1" fill="white">
<path fill-rule="evenodd" clip-rule="evenodd" d="M0 6L14.873 24L30 6"/>
</mask>
<path d="M1.54178 4.72606C0.8382 3.87456 -0.422439 3.75465 -1.27394 4.45822C-2.12544 5.1618 -2.24535 6.42244 -1.54178 7.27394L1.54178 4.72606ZM14.873 24L13.3313 25.2739C13.7093 25.7315 14.2711 25.9975 14.8647 26C15.4583 26.0025 16.0223 25.7411 16.4042 25.2867L14.873 24ZM31.5311 7.28673C32.2418 6.44112 32.1323 5.17952 31.2867 4.46888C30.4411 3.75824 29.1795 3.86766 28.4689 4.71327L31.5311 7.28673ZM-1.54178 7.27394L13.3313 25.2739L16.4148 22.7261L1.54178 4.72606L-1.54178 7.27394ZM16.4042 25.2867L31.5311 7.28673L28.4689 4.71327L13.3419 22.7133L16.4042 25.2867Z" fill="white" mask="url(#path-1-inside-1)"/>
</svg>
