<svg width="30" height="30" viewBox="0 0 30 30" fill="none" xmlns="http://www.w3.org/2000/svg">
<path d="M0.337296 28.7113C-0.112432 28.2609 -0.112432 27.5286 0.337296 27.0782L27.041 0.335703C27.488 -0.111893 28.2105 -0.111894 28.6575 0.335703L29.6091 1.28871C30.0588 1.73909 30.0588 2.4714 29.6091 2.92179L2.90539 29.6643C2.45844 30.1119 1.73587 30.1119 1.28892 29.6643L0.337296 28.7113Z" fill="white"/>
<path d="M29.6627 28.7113C30.1124 28.2609 30.1124 27.5286 29.6627 27.0782L2.95898 0.335698C2.51203 -0.111899 1.78946 -0.111899 1.34251 0.335697L0.390891 1.2887C-0.058837 1.73908 -0.0588367 2.4714 0.390891 2.92178L27.0946 29.6643C27.5416 30.1119 28.2641 30.1119 28.7111 29.6643L29.6627 28.7113Z" fill="white"/>
</svg>
