<svg width="30" height="30" viewBox="0 0 30 30" fill="none" xmlns="http://www.w3.org/2000/svg">
<path fill-rule="evenodd" clip-rule="evenodd" d="M22.4478 26.495H5.13292C3.40374 26.495 2 25.1637 2 23.4V3.1C2 1.4275 3.40617 0.00375 5.139 0.00375L25.4994 0C27.2334 0 28.6323 1.42125 28.7149 3.09375V30C28.7149 30 21.7435 23.8488 21.6209 23.7388L22.4478 26.495ZM12.9635 7.10853C12.9635 7.10853 10.9003 7.02853 8.67449 8.69604C8.67449 8.69604 6.44865 12.6261 6.44865 17.4711C6.44865 17.4711 7.6824 19.6461 11.0655 19.7286C11.0655 19.7286 11.5597 19.0624 12.0588 18.4761C10.1584 17.8911 9.41887 16.7211 9.41887 16.7211C9.41887 16.7211 9.58402 16.8036 9.83174 16.9711H9.9046C9.94008 16.9711 9.95722 16.9878 9.97535 17.0054C9.97645 17.0065 9.97756 17.0075 9.97867 17.0086V17.0161C9.9981 17.0361 10.0151 17.0536 10.0527 17.0536C14.0928 18.7411 17.4698 19.1311 21.3228 16.6336C21.3228 16.6336 20.5821 17.8036 18.6028 18.3886C19.0108 18.9711 19.5839 19.6386 19.5839 19.6386C22.3569 19.5772 23.7407 18.1059 24.1909 17.6272C24.2902 17.5217 24.344 17.4644 24.3574 17.4811C24.3574 12.6436 22.1182 8.70605 22.1182 8.70605C20.117 7.19978 18.247 7.13228 17.8936 7.13103L17.6677 7.35978C20.2239 8.10979 21.4613 9.28105 21.4613 9.28105C15.2521 6.13528 10.0538 8.75601 9.27082 9.15077C9.21344 9.1797 9.17977 9.19667 9.17115 9.19855C9.17115 9.19855 10.4061 7.94604 13.1298 7.27728L12.9635 7.10853Z" fill="#7A7A7A"/>
<path d="M18.6968 16.4526C19.4856 16.4526 20.128 15.8014 20.128 14.9982C20.128 14.2005 19.4889 13.5493 18.6968 13.5493V13.5526C17.9113 13.5526 17.2678 14.2016 17.2656 15.0048C17.2656 15.8014 17.908 16.4526 18.6968 16.4526Z" fill="#7A7A7A"/>
<path d="M13.4483 14.9982C13.4483 14.2005 12.8104 13.5493 12.0215 13.5493C11.2283 13.5526 10.5859 14.2016 10.5859 15.0048C10.5859 15.8014 11.2283 16.4526 12.0171 16.4526C12.8059 16.4526 13.4483 15.8014 13.4483 14.9982Z" fill="#7A7A7A"/>
</svg>
