<svg width="20" height="24" viewBox="0 0 20 24" fill="none" xmlns="http://www.w3.org/2000/svg">
<path d="M9.17643 0.327595C9.76645 0.0236143 10.6642 0.0236143 11.2542 0.327595L17.2748 3.42943C17.6302 3.61251 17.8253 3.88532 17.8603 4.16694H17.866V19.7584C17.8582 20.0656 17.6612 20.3707 17.2748 20.5698L11.2542 23.6717C10.6642 23.9757 9.76645 23.9757 9.17643 23.6717L3.15585 20.5698C2.77108 20.3716 2.58643 20.0643 2.57729 19.7584C2.57638 19.7283 2.57626 19.7032 2.57714 19.6824L2.5771 4.26708C2.57649 4.2502 2.57643 4.23334 2.57693 4.21654L2.57729 4.16694L2.57998 4.16692C2.60672 3.88221 2.79302 3.61638 3.15585 3.42943L9.17643 0.327595ZM16.9183 12.8653L11.2542 15.7835C10.6642 16.0875 9.76645 16.0875 9.17643 15.7835L3.5248 12.8718V19.7275L9.17643 22.6239C9.49557 22.7903 9.8268 22.9524 10.1507 22.9731L10.2153 22.9751C10.5528 22.9762 10.8805 22.8091 11.2127 22.6509L16.9183 19.7026V12.8653ZM1.59804 19.4194C1.59804 20.0167 1.66922 20.4094 1.81053 20.6861C1.92767 20.9153 2.10341 21.0905 2.42431 21.3037L2.44263 21.3158C2.51306 21.3621 2.59064 21.4107 2.68507 21.4675L2.79643 21.5341L3.1384 21.7355L2.64793 22.5265L2.26518 22.3009L2.20084 22.2624C2.09018 22.1957 1.99845 22.1386 1.91289 22.0823C0.998313 21.4807 0.657223 20.8251 0.650492 19.4609L0.650391 19.4194H1.59804ZM9.74138 8.68635C9.69755 8.70104 9.65647 8.71802 9.61901 8.73732L3.59843 11.8392C3.59211 11.8424 3.58608 11.8456 3.58035 11.8488L3.57525 11.8517L3.5847 11.857L3.59843 11.8642L9.61901 14.9661C9.65647 14.9854 9.69755 15.0024 9.74138 15.0171V8.68635ZM10.6893 8.68635V15.0171C10.7331 15.0024 10.7742 14.9854 10.8117 14.9661L16.8323 11.8642C16.8386 11.861 16.8446 11.8578 16.8503 11.8546L16.8554 11.8517L16.846 11.8464L16.8323 11.8392L10.8117 8.73732C10.7742 8.71802 10.7331 8.70104 10.6893 8.68635ZM16.9183 5.27295L11.5174 8.0555L16.9183 10.8381V5.27295ZM3.5248 5.27946V10.8316L8.9131 8.0555L3.5248 5.27946ZM10.8117 1.14498C10.4986 0.983673 9.93211 0.983673 9.61901 1.14498L3.59843 4.24683C3.59211 4.25009 3.58608 4.2533 3.58035 4.25648L3.57525 4.25937L3.5847 4.26465L3.59843 4.27192L9.61901 7.37376C9.93211 7.53506 10.4986 7.53506 10.8117 7.37376L16.8323 4.27192C16.8386 4.26866 16.8446 4.26545 16.8503 4.26225L16.8554 4.25937L16.846 4.25409L16.8323 4.24683L10.8117 1.14498ZM17.808 1.48513L18.1908 1.71062L18.2551 1.74914C18.3658 1.81578 18.4575 1.87303 18.5431 1.92929C19.4576 2.53074 19.7987 3.18649 19.8054 4.5506L19.8056 4.59216H18.8579C18.8579 3.99478 18.7867 3.60215 18.6454 3.32553C18.5283 3.09627 18.3525 2.92106 18.0316 2.70787L18.0133 2.69576C17.9429 2.64944 17.8653 2.60093 17.7709 2.54391L17.6595 2.47738L17.3176 2.27608L17.808 1.48513Z" fill="#0000FA"/>
</svg>
