<svg width="30" height="30" viewBox="0 0 30 30" fill="none" xmlns="http://www.w3.org/2000/svg">
<path d="M15.0001 0C6.76122 0 0 6.76117 0 15C0 22.0306 4.93336 28.4171 11.4845 30V25.0374C10.8353 25.1795 10.238 25.1836 9.57718 24.9889C8.69071 24.7272 7.97041 24.1367 7.43574 23.2363C7.09493 22.6614 6.49091 22.0379 5.86079 22.0837L5.7063 20.3327C7.06884 20.216 8.24759 21.1629 8.94729 22.3384C9.25811 22.8612 9.61586 23.1676 10.075 23.3031C10.5188 23.4338 10.9953 23.3711 11.5506 23.175C11.69 22.0633 12.1993 21.6472 12.584 21.0612C8.67698 20.4785 7.11988 18.4048 6.5019 16.7688C5.68295 14.5965 6.12241 11.8826 7.57055 10.1676C7.59871 10.1342 7.64952 10.0468 7.62983 9.98566C6.96584 7.97997 7.77495 6.3208 7.8047 6.14479C8.571 6.37138 8.69552 5.91682 11.1334 7.39792L11.5547 7.65106C11.731 7.75612 11.6756 7.69615 11.8518 7.68288C12.8697 7.40639 13.9427 7.25372 14.9999 7.23999C16.0651 7.25372 17.1313 7.40639 18.1912 7.69409L18.3276 7.70782C18.3157 7.70599 18.3647 7.69913 18.4469 7.65015C21.4922 5.80559 21.3828 6.40846 22.1994 6.14296C22.2289 6.3192 23.0273 8.00537 22.3704 9.98566C22.2818 10.2585 25.0106 12.7572 23.4981 16.7681C22.8801 18.4048 21.3233 20.4776 17.4162 21.0603C17.917 21.8237 18.5187 22.2306 18.5155 23.8053V30C25.0669 28.4171 30 22.0306 30 15C30.0002 6.76117 23.239 0 15.0001 0Z" fill="#7A7A7A"/>
</svg>
