<svg width="16" height="25" viewBox="0 0 16 25" fill="none" xmlns="http://www.w3.org/2000/svg">
<path d="M10.7395 7.71625C10.7395 4.23349 9.04271 1.23407 7.75039 0.260539C7.75039 0.260539 7.65098 0.205693 7.66126 0.346237C7.55499 7.07523 4.1168 8.89887 2.22802 11.3533C-2.13228 17.023 1.91951 23.2378 6.05357 24.3862C8.35713 25.0306 5.51882 23.2481 5.15203 19.4877C4.70297 14.9491 10.7395 11.4801 10.7395 7.71625Z" fill="#00003E"/>
<path d="M12.7219 10.0085C12.6945 9.99133 12.6568 9.97762 12.6328 10.0222C12.5608 10.8689 11.6969 12.6788 10.6 14.3448C6.88073 19.9871 8.99918 22.7089 10.1921 24.1726C10.8845 25.0193 10.1921 24.1726 11.9198 23.3053C14.0554 22.0096 15.4402 19.7677 15.6459 17.2791C15.9853 13.2684 13.5789 10.742 12.7219 10.0085Z" fill="#008CD6"/>
</svg>
