<svg width="30" height="30" viewBox="0 0 30 30" fill="none" xmlns="http://www.w3.org/2000/svg">
<g clip-path="url(#clip0)">
<path d="M28.6327 -0.000488281H17.7234C16.9703 -0.000488281 16.3597 0.610068 16.3597 1.36318C16.3597 2.1163 16.9703 2.72686 17.7234 2.72686H25.3406L11.3046 16.7628C10.7722 17.2953 10.7722 18.1588 11.3046 18.6913C11.5708 18.9575 11.9198 19.0907 12.2688 19.0907C12.6178 19.0907 12.9668 18.9575 13.233 18.6913L27.2691 4.65532V12.2724C27.2691 13.0256 27.8796 13.6361 28.6328 13.6361C29.3859 13.6361 29.9964 13.0256 29.9964 12.2724V1.36318C29.9964 0.610068 29.3858 -0.000488281 28.6327 -0.000488281Z" fill="white"/>
<path d="M23.1821 13.6357C22.429 13.6357 21.8185 14.2462 21.8185 14.9993V27.2723H2.72729V8.18102H15.0002C15.7533 8.18102 16.3639 7.57047 16.3639 6.81735C16.3639 6.06423 15.7533 5.45374 15.0002 5.45374H1.36367C0.610556 5.45374 0 6.06429 0 6.81741V28.6359C0 29.389 0.610556 29.9995 1.36367 29.9995H23.1822C23.9353 29.9995 24.5459 29.389 24.5459 28.6359V14.9993C24.5458 14.2462 23.9353 13.6357 23.1821 13.6357Z" fill="white"/>
</g>
<defs>
<clipPath id="clip0">
<rect width="30" height="30" fill="white"/>
</clipPath>
</defs>
</svg>
