<svg width="30" height="30" viewBox="0 0 30 30" fill="none" xmlns="http://www.w3.org/2000/svg">
<g clip-path="url(#clip0)">
<path d="M14.9834 30H3.74582C1.68062 30 0 28.3193 0 26.2541V3.77908C0 1.71388 1.68062 0.0332031 3.74582 0.0332031H14.9834C15.6726 0.0332031 16.232 0.592607 16.232 1.28179C16.232 1.97097 15.6726 2.53038 14.9834 2.53038H3.74582C3.05781 2.53038 2.49723 3.09101 2.49723 3.77896V26.254C2.49723 26.9432 3.05787 27.5026 3.74582 27.5026H14.9834C15.6726 27.5026 16.232 28.0607 16.232 28.7512C16.232 29.4418 15.6726 30 14.9834 30Z" fill="white"/>
<path d="M26.2212 16.2726H11.2378C10.5486 16.2726 9.98926 15.7145 9.98926 15.024C9.98926 14.3347 10.5487 13.7754 11.2378 13.7754H26.2212C26.9117 13.7754 27.4698 14.3348 27.4698 15.024C27.4698 15.7145 26.9117 16.2726 26.2212 16.2726Z" fill="white"/>
<path d="M21.2265 23.7388C20.9043 23.7388 20.5822 23.614 20.3375 23.3668C19.853 22.8761 19.858 22.0857 20.35 21.6012L27.0401 14.9985L20.35 8.39587C19.8581 7.9114 19.8543 7.12103 20.3375 6.6291C20.8207 6.13717 21.6136 6.13342 22.103 6.61789L29.6946 14.1096C29.9319 14.3443 30.0667 14.664 30.0667 14.9986C30.0667 15.3332 29.9331 15.6516 29.6946 15.8876L22.103 23.3793C21.8608 23.619 21.5436 23.7388 21.2265 23.7388Z" fill="white"/>
</g>
<defs>
<clipPath id="clip0">
<rect width="30" height="30" fill="white"/>
</clipPath>
</defs>
</svg>
