<svg width="30" height="30" viewBox="0 0 30 30" fill="none" xmlns="http://www.w3.org/2000/svg">
<path d="M11.6592 12.7387L15.0185 20.0951L20.008 17.2467H20.0176V11.5469L11.6592 12.7387Z" fill="#2BBDF7"/>
<path d="M26.4511 7.27147L23.3374 6.11484L20.0068 5.8457V11.5455V23.6053L25.0027 26.4568L28.9874 18.4277L26.4607 10.7029L26.4511 7.27147Z" fill="#2891F9"/>
<path d="M26.162 5.8457L25.0039 8.69724V26.412L29.9998 23.5605V5.8457H26.162Z" fill="#2BBDF7"/>
<path d="M25.0027 3L20.0068 5.84833L25.0027 8.69986L29.9987 5.84833L25.0027 3Z" fill="#2B6DEF"/>
<path d="M14.9919 14.3949L9.99602 8.85841L0.000976562 5.84668V23.5615L4.99689 26.413L6.4293 16.6088L9.99602 17.2464L14.9919 20.0947V14.3949Z" fill="#2891F9"/>
<path d="M4.99592 3.00024L0 5.84857L14.9909 14.3968L17.256 13.1088L19.99 11.5485L4.99592 3.00024Z" fill="#2B6DEF"/>
<path d="M4.99219 14.4023V26.4204L9.99126 23.5689V17.2539L4.99219 14.4023Z" fill="#2BBDF7"/>
</svg>
