<svg width="30" height="30" viewBox="0 0 30 30" fill="none" xmlns="http://www.w3.org/2000/svg">
  <path d="M11.6602 12.7387L15.0195 20.0951L20.009 17.2467H20.0186V11.5469L11.6602 12.7387Z" fill="#2BBDF7"/>
  <path d="M26.4521 7.27147L23.3384 6.11484L20.0078 5.8457V11.5455V23.6053L25.0037 26.4568L28.9883 18.4277L26.4616 10.7029L26.4521 7.27147Z" fill="#2891F9"/>
  <path d="M26.162 5.8457L25.0039 8.69724V26.412L29.9998 23.5605V5.8457H26.162Z" fill="#2BBDF7"/>
  <path d="M25.0037 3L20.0078 5.84833L25.0037 8.69986L29.9996 5.84833L25.0037 3Z" fill="#2B6DEF"/>
  <path d="M14.9909 14.3939L9.99505 8.85743L0 5.8457V23.5605L4.99591 26.412L6.42833 16.6078L9.99505 17.2455L14.9909 20.0938V14.3939Z" fill="#2891F9"/>
  <path d="M4.99592 3L0 5.84833L14.9909 14.3965L17.256 13.1085L19.99 11.5482L4.99592 3Z" fill="#2B6DEF"/>
  <path d="M4.99219 14.4023V26.4204L9.99126 23.5689V17.2539L4.99219 14.4023Z" fill="#2BBDF7"/>
</svg>
