<svg width="30" height="30" viewBox="0 0 30 30" fill="none" xmlns="http://www.w3.org/2000/svg">
  <path d="M27.6288 20.5L25.9876 26.0493L22.7656 25.1682L27.6288 20.5Z" fill="#E4761B" stroke="#E4761B" stroke-width="0.5"/>
  <path d="M22.7656 25.1682L25.8732 20.9103L27.6288 20.5L22.7656 25.1682Z" fill="#E4761B" stroke="#E4761B" stroke-width="0.5"/>
  <path fill-rule="evenodd" clip-rule="evenodd" d="M25.2151 16.3163L25.2149 16.3165L25.2151 16.3169L25.874 20.909L27.6289 20.4989L27.6297 20.5003L27.6294 20.4988L27.6296 20.4987L27.6293 20.4982L26.7687 15.2402L25.2155 16.316L25.2148 16.3149L25.2151 16.3163ZM25.2151 16.3163L25.2151 16.3169L27.6289 20.4989L27.6294 20.4988L27.6293 20.4982L25.2155 16.316L25.2151 16.3163Z" fill="#F6851B"/>
  <path d="M25.2149 16.3165L25.0725 16.111L24.8833 16.2421L24.9983 16.4414L25.2149 16.3165ZM25.874 20.909L25.6266 20.9445L25.6653 21.2146L25.9309 21.1525L25.874 20.909ZM27.6297 20.5003L27.4132 20.6253L27.8764 20.46L27.6297 20.5003ZM27.6296 20.4987L27.6864 20.7422L28.0147 20.6656L27.8461 20.3737L27.6296 20.4987ZM26.7687 15.2402L27.0154 15.1999L26.9515 14.8095L26.6263 15.0347L26.7687 15.2402ZM25.2148 16.3149L25.4314 16.1899L24.9674 16.3504L25.2148 16.3149ZM25.3573 16.522L25.3574 16.5218L25.0727 16.1109L25.0725 16.111L25.3573 16.522ZM25.4317 16.192L25.4314 16.1915L24.9983 16.4414L24.9986 16.4419L25.4317 16.192ZM26.1215 20.8735L25.4626 16.2814L24.9677 16.3524L25.6266 20.9445L26.1215 20.8735ZM27.572 20.2555L25.8171 20.6656L25.9309 21.1525L27.6858 20.7424L27.572 20.2555ZM27.8462 20.3753L27.8454 20.3739L27.4123 20.6239L27.4132 20.6253L27.8462 20.3753ZM27.3827 20.5391L27.3829 20.5407L27.8764 20.46L27.8761 20.4584L27.3827 20.5391ZM27.5729 20.2553L27.5727 20.2553L27.6862 20.7422L27.6864 20.7422L27.5729 20.2553ZM27.4128 20.6232L27.4131 20.6238L27.8461 20.3737L27.8458 20.3731L27.4128 20.6232ZM26.522 15.2806L27.3826 20.5386L27.876 20.4578L27.0154 15.1999L26.522 15.2806ZM25.3579 16.5215L26.911 15.4458L26.6263 15.0347L25.0732 16.1105L25.3579 16.5215ZM24.9983 16.4398L24.999 16.441L25.432 16.1911L25.4314 16.1899L24.9983 16.4398ZM25.4625 16.2808L25.4623 16.2794L24.9674 16.3504L24.9676 16.3518L25.4625 16.2808ZM25.4626 16.2814L25.4625 16.2808L24.9676 16.3518L24.9677 16.3524L25.4626 16.2814ZM27.8454 20.3739L25.4317 16.192L24.9986 16.4419L27.4123 20.6239L27.8454 20.3739ZM27.5725 20.2553L27.5719 20.2555L27.6858 20.7423L27.6863 20.7422L27.5725 20.2553ZM27.3826 20.5386L27.3827 20.5393L27.8761 20.4583L27.876 20.4577L27.3826 20.5386ZM24.999 16.441L27.4128 20.6231L27.8458 20.3732L25.432 16.1911L24.999 16.441ZM25.3574 16.5219L25.3579 16.5215L25.0732 16.1105L25.0727 16.1108L25.3574 16.5219Z" fill="#F6851B"/>
  <path fill-rule="evenodd" clip-rule="evenodd" d="M27.7008 11.3281L23.2344 13.1577L27.4788 12.3304L27.7008 11.3281ZM23.2344 13.1599L27.3375 13.5366L27.4788 12.3326L23.2344 13.1599Z" fill="#763D16"/>
  <path d="M23.2344 13.1577L23.1396 12.9264L23.2822 13.4031L23.2344 13.1577ZM27.7008 11.3281L27.9449 11.3822L28.0482 10.9156L27.606 11.0968L27.7008 11.3281ZM27.4788 12.3304L27.5266 12.5757L27.6875 12.5444L27.7229 12.3844L27.4788 12.3304ZM27.3375 13.5366L27.3147 13.7855L27.5574 13.8078L27.5858 13.5657L27.3375 13.5366ZM23.2344 13.1599L23.1865 12.9145L23.2115 13.4089L23.2344 13.1599ZM27.4788 12.3326L27.7271 12.3617L27.767 12.0217L27.4309 12.0872L27.4788 12.3326ZM23.3292 13.3891L27.7955 11.5595L27.606 11.0968L23.1396 12.9264L23.3292 13.3891ZM27.431 12.085L23.1866 12.9123L23.2822 13.4031L27.5266 12.5757L27.431 12.085ZM27.4567 11.2741L27.2347 12.2763L27.7229 12.3844L27.9449 11.3822L27.4567 11.2741ZM27.3604 13.2876L23.2572 12.911L23.2115 13.4089L27.3147 13.7855L27.3604 13.2876ZM27.2305 12.3034L27.0892 13.5075L27.5858 13.5657L27.7271 12.3617L27.2305 12.3034ZM23.2822 13.4053L27.5266 12.5779L27.4309 12.0872L23.1865 12.9145L23.2822 13.4053Z" fill="#763D16"/>
  <path fill-rule="evenodd" clip-rule="evenodd" d="M28.2322 11.7499L27.4789 12.3284L27.7008 11.3262L28.2322 11.7499ZM27.3375 13.529L26.7658 15.2376L23.2344 13.1524L27.3375 13.529ZM27.4788 12.3293L27.3375 13.5334L28.0774 12.8271L27.4788 12.3293Z" fill="#763D16"/>
  <path d="M27.4789 12.3284L27.2348 12.2744L27.0862 12.9451L27.6311 12.5267L27.4789 12.3284ZM28.2322 11.7499L28.3845 11.9482L28.6379 11.7537L28.3881 11.5545L28.2322 11.7499ZM27.7008 11.3262L27.8567 11.1307L27.5434 10.8809L27.4568 11.2721L27.7008 11.3262ZM26.7658 15.2376L26.6386 15.4528L26.9048 15.61L27.0028 15.3169L26.7658 15.2376ZM27.3375 13.529L27.5746 13.6084L27.6748 13.3089L27.3604 13.2801L27.3375 13.529ZM23.2344 13.1524L23.2572 12.9034L23.1073 13.3676L23.2344 13.1524ZM27.3375 13.5334L27.0892 13.5042L27.0084 14.1931L27.5102 13.7142L27.3375 13.5334ZM27.4788 12.3293L27.6386 12.1371L27.2842 11.8424L27.2305 12.3002L27.4788 12.3293ZM28.0774 12.8271L28.2501 13.0079L28.453 12.8142L28.2373 12.6349L28.0774 12.8271ZM27.6311 12.5267L28.3845 11.9482L28.08 11.5517L27.3266 12.1301L27.6311 12.5267ZM27.4568 11.2721L27.2348 12.2744L27.723 12.3825L27.9449 11.3802L27.4568 11.2721ZM28.3881 11.5545L27.8567 11.1307L27.545 11.5216L28.0764 11.9454L28.3881 11.5545ZM27.0028 15.3169L27.5746 13.6084L27.1004 13.4497L26.5287 15.1582L27.0028 15.3169ZM23.1073 13.3676L26.6386 15.4528L26.8929 15.0223L23.3615 12.9371L23.1073 13.3676ZM27.3604 13.2801L23.2572 12.9034L23.2115 13.4013L27.3147 13.778L27.3604 13.2801ZM27.5858 13.5625L27.7271 12.3585L27.2305 12.3002L27.0892 13.5042L27.5858 13.5625ZM27.9048 12.6463L27.1649 13.3525L27.5102 13.7142L28.2501 13.0079L27.9048 12.6463ZM27.319 12.5216L27.9176 13.0193L28.2373 12.6349L27.6386 12.1371L27.319 12.5216Z" fill="#763D16"/>
  <path d="M19.3008 23.8145L20.4174 24.171L22.7649 25.1665L19.3008 23.8145Z" fill="#E2761B" stroke="#E2761B" stroke-width="0.5"/>
  <path fill-rule="evenodd" clip-rule="evenodd" d="M22.1328 13.7165L26.7673 15.2434L23.236 13.1582L22.1328 13.7165ZM27.3391 13.5329L26.7674 15.2415L27.8302 13.9096L27.3391 13.5329Z" fill="#763D16"/>
  <path d="M26.7673 15.2434L26.6891 15.4808L26.8944 15.0281L26.7673 15.2434ZM22.1328 13.7165L22.0199 13.4934L21.4825 13.7654L22.0546 13.9539L22.1328 13.7165ZM23.236 13.1582L23.3631 12.9429L23.2452 12.8733L23.1231 12.9351L23.236 13.1582ZM26.7674 15.2415L26.5303 15.1621L26.9628 15.3974L26.7674 15.2415ZM27.3391 13.5329L27.4913 13.3346L27.2132 13.1213L27.102 13.4536L27.3391 13.5329ZM27.8302 13.9096L28.0256 14.0656L28.1845 13.8664L27.9823 13.7113L27.8302 13.9096ZM26.8456 15.006L22.211 13.4791L22.0546 13.9539L26.6891 15.4808L26.8456 15.006ZM23.1088 13.3735L26.6402 15.4587L26.8944 15.0281L23.3631 12.9429L23.1088 13.3735ZM22.2457 13.9396L23.3488 13.3813L23.1231 12.9351L22.0199 13.4934L22.2457 13.9396ZM27.0044 15.3208L27.5762 13.6123L27.102 13.4536L26.5303 15.1621L27.0044 15.3208ZM27.6347 13.7537L26.572 15.0855L26.9628 15.3974L28.0256 14.0656L27.6347 13.7537ZM27.187 13.7313L27.678 14.108L27.9823 13.7113L27.4913 13.3346L27.187 13.7313Z" fill="#763D16"/>
  <path d="M24.3391 7.91406L23.236 13.154L22.1328 13.7123L24.3391 7.91406Z" fill="#763D16" stroke="#763D16" stroke-width="0.5"/>
  <path d="M27.7007 11.3244L23.2344 13.154L24.3375 7.91406L27.7007 11.3244Z" fill="#763D16" stroke="#763D16" stroke-width="0.5"/>
  <path d="M24.3398 7.91702L29.0013 7.37891L27.7031 11.3273L24.3398 7.91702Z" fill="#763D16" stroke="#763D16" stroke-width="0.5"/>
  <path d="M26.7673 15.2437L25.2135 16.3199L22.1328 13.7168L26.7673 15.2437Z" fill="#F6851B" stroke="#F6851B" stroke-width="0.5"/>
  <path d="M28.7995 3.60352L29.0013 7.37705L24.3398 7.91517L28.7995 3.60352Z" fill="#763D16" stroke="#763D16" stroke-width="0.5"/>
  <path d="M28.7966 3.60352L19.4805 10.3771L19.3594 5.78289L28.7966 3.60352Z" fill="#E2761B" stroke="#E2761B" stroke-width="0.5"/>
  <path d="M12.4336 5.23047L19.3618 5.78204L19.4829 10.3762L12.4336 5.23047Z" fill="#F6851B" stroke="#F6851B" stroke-width="0.5"/>
  <path d="M22.1307 13.7123L19.4805 10.3759L24.337 7.91406L22.1307 13.7123Z" fill="#763D16" stroke="#763D16" stroke-width="0.5"/>
  <path d="M22.1311 13.7168L25.2118 16.3199L20.8867 16.7975L22.1311 13.7168Z" fill="#E4761B" stroke="#E4761B" stroke-width="0.5"/>
  <path d="M20.8863 16.7959L19.4805 10.3789L22.1307 13.7152L20.8863 16.7959Z" fill="#E4761B" stroke="#E4761B" stroke-width="0.5"/>
  <path d="M24.337 7.91517L19.4805 10.3771L28.7966 3.60352L24.337 7.91517Z" fill="#763D16" stroke="#763D16" stroke-width="0.5"/>
  <path d="M12.4929 25.0594L14.6925 27.3531L11.6992 24.6289L12.4929 25.0594Z" fill="#C0AD9E" stroke="#C0AD9E" stroke-width="0.5"/>
  <path d="M22.7656 25.17L23.8082 21.2081L25.8732 20.9121L22.7656 25.17Z" fill="#CD6116" stroke="#CD6116" stroke-width="0.5"/>
  <path d="M3.57422 14.0237L7.38139 10.0215L4.06525 13.5461L3.57422 14.0237Z" fill="#E2761B" stroke="#E2761B" stroke-width="0.5"/>
  <path fill-rule="evenodd" clip-rule="evenodd" d="M15.7766 10.2551L19.4829 10.3762L12.4336 5.23047L15.7766 10.2551ZM23.8079 21.2069L25.8729 20.9109L25.2137 16.3168L23.8079 21.2069Z" fill="#F6851B"/>
  <path d="M19.4829 10.3762L19.4748 10.6261L20.2855 10.6526L19.6303 10.1743L19.4829 10.3762ZM15.7766 10.2551L15.5685 10.3936L15.6398 10.5008L15.7685 10.505L15.7766 10.2551ZM12.4336 5.23047L12.581 5.02854L12.2255 5.36895L12.4336 5.23047ZM25.8729 20.9109L25.9084 21.1584L26.1559 21.1229L26.1204 20.8754L25.8729 20.9109ZM23.8079 21.2069L23.5676 21.1378L23.4609 21.5092L23.8434 21.4544L23.8079 21.2069ZM25.2137 16.3168L25.4612 16.2813L24.9735 16.2477L25.2137 16.3168ZM19.4911 10.1263L15.7848 10.0053L15.7685 10.505L19.4748 10.6261L19.4911 10.1263ZM12.2862 5.43239L19.3355 10.5781L19.6303 10.1743L12.581 5.02854L12.2862 5.43239ZM15.9848 10.1166L12.6417 5.09199L12.2255 5.36895L15.5685 10.3936L15.9848 10.1166ZM25.8375 20.6635L23.7724 20.9594L23.8434 21.4544L25.9084 21.1584L25.8375 20.6635ZM24.9663 16.3523L25.6255 20.9464L26.1204 20.8754L25.4612 16.2813L24.9663 16.3523ZM24.0482 21.276L25.454 16.3858L24.9735 16.2477L23.5676 21.1378L24.0482 21.276Z" fill="#F6851B"/>
  <path d="M25.2116 16.3145L23.8058 21.2046L23.6914 18.8167L25.2116 16.3145Z" fill="#E4751F" stroke="#E4751F" stroke-width="0.5"/>
  <path d="M20.8867 16.792L25.2118 16.3145L23.6916 18.8167L20.8867 16.792Z" fill="#CD6116" stroke="#CD6116" stroke-width="0.5"/>
  <path d="M15.7773 10.2559L19.4836 10.3769L20.8894 16.794L15.7773 10.2559Z" fill="#F6851B" stroke="#F6851B" stroke-width="0.5"/>
  <path fill-rule="evenodd" clip-rule="evenodd" d="M5.77345 1L15.7757 10.2555L12.4326 5.2309L5.77345 1ZM3.73542 29.1566L12.426 26.466L2 22.5311L3.73542 29.1566Z" fill="#E4761B"/>
  <path d="M15.7757 10.2555L15.6059 10.439L15.9838 10.117L15.7757 10.2555ZM5.77345 1L5.90751 0.788988L5.60365 1.18349L5.77345 1ZM12.4326 5.2309L12.6408 5.09242L12.6114 5.0483L12.5667 5.01989L12.4326 5.2309ZM12.426 26.466L12.4999 26.7048L13.1959 26.4894L12.5143 26.2321L12.426 26.466ZM3.73542 29.1566L3.49358 29.2199L3.55978 29.4727L3.80936 29.3954L3.73542 29.1566ZM2 22.5311L2.08828 22.2972L1.63555 22.1263L1.75816 22.5944L2 22.5311ZM15.9455 10.072L5.94324 0.816507L5.60365 1.18349L15.6059 10.439L15.9455 10.072ZM12.2245 5.36938L15.5675 10.394L15.9838 10.117L12.6408 5.09242L12.2245 5.36938ZM5.63938 1.21101L12.2986 5.44191L12.5667 5.01989L5.90751 0.788988L5.63938 1.21101ZM12.3521 26.2272L3.66149 28.9178L3.80936 29.3954L12.4999 26.7048L12.3521 26.2272ZM1.91172 22.765L12.3377 26.6999L12.5143 26.2321L2.08828 22.2972L1.91172 22.765ZM3.97727 29.0932L2.24184 22.4677L1.75816 22.5944L3.49358 29.2199L3.97727 29.0932Z" fill="#E4761B"/>
  <path d="M4.86719 15.6778L8.14969 13.1016L10.9008 13.7406L4.86719 15.6778Z" fill="#763D16" stroke="#763D16" stroke-width="0.5"/>
  <path d="M10.8996 13.7412L8.14844 13.1022L9.62153 7.02148L10.8996 13.7412Z" fill="#763D16" stroke="#763D16" stroke-width="0.5"/>
  <path d="M4.06641 13.5455L8.14936 13.1016L4.86685 15.6778L4.06641 13.5455Z" fill="#763D16" stroke="#763D16" stroke-width="0.5"/>
  <path d="M23.6916 18.8196L21.9966 17.9653L20.8867 16.7949L23.6916 18.8196Z" fill="#CD6116" stroke="#CD6116" stroke-width="0.5"/>
  <path d="M4.06658 13.5445L3.77734 12.0176L8.14954 13.1005L4.06658 13.5445Z" fill="#763D16" stroke="#763D16" stroke-width="0.5"/>
  <path d="M21.6484 19.8867L21.9982 17.9629L23.6933 18.8171L21.6484 19.8867Z" fill="#233447" stroke="#233447" stroke-width="0.5"/>
  <path d="M23.8076 21.2082L21.6484 19.8898L23.6933 18.8203L23.8076 21.2082Z" fill="#F6851B" stroke="#F6851B" stroke-width="0.5"/>
  <path fill-rule="evenodd" clip-rule="evenodd" d="M15.7745 10.255L9.61977 7.01953L10.8978 13.7393L15.7745 10.255ZM9.61975 7.02041L8.14666 13.1011L3.41797 10.7334L9.61975 7.02041ZM8.14668 13.1041L3.77449 12.0211L3.41799 10.7364L8.14668 13.1041Z" fill="#763D16"/>
  <path d="M9.61977 7.01953L9.73609 6.79824L9.27733 6.55708L9.37417 7.06624L9.61977 7.01953ZM15.7745 10.255L15.9198 10.4584L16.25 10.2225L15.8908 10.0337L15.7745 10.255ZM10.8978 13.7393L10.6522 13.786L10.7252 14.1698L11.0431 13.9427L10.8978 13.7393ZM8.14666 13.1011L8.03473 13.3247L8.31566 13.4653L8.38963 13.16L8.14666 13.1011ZM9.61975 7.02041L9.86273 7.07928L10.0032 6.49947L9.49134 6.80592L9.61975 7.02041ZM3.41797 10.7334L3.28955 10.5189L2.89863 10.753L3.30604 10.957L3.41797 10.7334ZM3.77449 12.0211L3.53359 12.088L3.57264 12.2287L3.71439 12.2638L3.77449 12.0211ZM8.14668 13.1041L8.08658 13.3467L8.25862 12.8805L8.14668 13.1041ZM3.41799 10.7364L3.52992 10.5128L3.02658 10.2608L3.17709 10.8032L3.41799 10.7364ZM9.50344 7.24082L15.6581 10.4762L15.8908 10.0337L9.73609 6.79824L9.50344 7.24082ZM11.1434 13.6925L9.86536 6.97282L9.37417 7.06624L10.6522 13.786L11.1434 13.6925ZM15.6291 10.0515L10.7525 13.5358L11.0431 13.9427L15.9198 10.4584L15.6291 10.0515ZM8.38963 13.16L9.86273 7.07928L9.37678 6.96155L7.90369 13.0423L8.38963 13.16ZM3.30604 10.957L8.03473 13.3247L8.25859 12.8776L3.5299 10.5099L3.30604 10.957ZM9.49134 6.80592L3.28955 10.5189L3.54639 10.9479L9.74817 7.23491L9.49134 6.80592ZM3.71439 12.2638L8.08658 13.3467L8.20679 12.8614L3.8346 11.7785L3.71439 12.2638ZM3.17709 10.8032L3.53359 12.088L4.01539 11.9543L3.65889 10.6695L3.17709 10.8032ZM8.25862 12.8805L3.52992 10.5128L3.30606 10.9599L8.03475 13.3276L8.25862 12.8805Z" fill="#763D16"/>
  <path fill-rule="evenodd" clip-rule="evenodd" d="M15.7751 10.2559L10.8984 13.7402L17.9478 16.8949L15.7751 10.2559ZM11.2079 16.755L17.9478 16.8962L10.8985 13.7415L11.2079 16.755Z" fill="#E4761B"/>
  <path d="M10.8984 13.7402L10.7531 13.5367L10.3983 13.7902L10.7963 13.9684L10.8984 13.7402ZM15.7751 10.2559L16.0127 10.1781L15.9068 9.85451L15.6298 10.0524L15.7751 10.2559ZM17.9478 16.8949L17.8456 17.1231L18.3609 17.3537L18.1854 16.8171L17.9478 16.8949ZM17.9478 16.8962L17.9425 17.1462L18.0499 16.668L17.9478 16.8962ZM11.2079 16.755L10.9592 16.7805L10.9818 17.0003L11.2026 17.0049L11.2079 16.755ZM10.8985 13.7415L11.0006 13.5133L10.6056 13.3366L10.6498 13.7671L10.8985 13.7415ZM11.0438 13.9436L15.9205 10.4593L15.6298 10.0524L10.7531 13.5367L11.0438 13.9436ZM18.0499 16.6667L11.0006 13.512L10.7963 13.9684L17.8456 17.1231L18.0499 16.6667ZM15.5375 10.3336L17.7102 16.9726L18.1854 16.8171L16.0127 10.1781L15.5375 10.3336ZM17.953 16.6463L11.2131 16.505L11.2026 17.0049L17.9425 17.1462L17.953 16.6463ZM10.7963 13.9697L17.8457 17.1244L18.0499 16.668L11.0006 13.5133L10.7963 13.9697ZM11.4566 16.7295L11.1472 13.716L10.6498 13.7671L10.9592 16.7805L11.4566 16.7295Z" fill="#E4761B"/>
  <path fill-rule="evenodd" clip-rule="evenodd" d="M17.9502 16.8968L20.8897 16.7959L15.7775 10.2578L17.9502 16.8968ZM10.9008 13.7414L4.86719 15.6786L11.2102 16.7548L10.9008 13.7414Z" fill="#F6851B"/>
  <path d="M20.8897 16.7959L20.8982 17.0458L21.3892 17.0289L21.0866 16.6419L20.8897 16.7959ZM17.9502 16.8968L17.7126 16.9746L17.771 17.1531L17.9588 17.1467L17.9502 16.8968ZM15.7775 10.2578L15.9745 10.1038L15.5399 10.3356L15.7775 10.2578ZM4.86719 15.6786L4.79076 15.4406L4.82537 15.9251L4.86719 15.6786ZM10.9008 13.7414L11.1495 13.7159L11.118 13.4091L10.8244 13.5034L10.9008 13.7414ZM11.2102 16.7548L11.1684 17.0013L11.4925 17.0563L11.4589 16.7293L11.2102 16.7548ZM20.8811 16.5461L17.9416 16.647L17.9588 17.1467L20.8982 17.0458L20.8811 16.5461ZM15.5806 10.4118L20.6927 16.9499L21.0866 16.6419L15.9745 10.1038L15.5806 10.4118ZM18.1878 16.8191L16.0152 10.1801L15.5399 10.3356L17.7126 16.9746L18.1878 16.8191ZM4.94361 15.9166L10.9772 13.9794L10.8244 13.5034L4.79076 15.4406L4.94361 15.9166ZM11.252 16.5084L4.90901 15.4321L4.82537 15.9251L11.1684 17.0013L11.252 16.5084ZM10.6521 13.7669L10.9615 16.7804L11.4589 16.7293L11.1495 13.7159L10.6521 13.7669Z" fill="#F6851B"/>
  <path d="M21.9966 17.9653L21.6468 19.8891L20.8867 16.7949L21.9966 17.9653Z" fill="#CD6116" stroke="#CD6116" stroke-width="0.5"/>
  <path d="M5.77344 1L15.7757 10.2556L9.62097 7.02017L5.77344 1Z" fill="#763D16" stroke="#763D16" stroke-width="0.5"/>
  <path d="M2 22.5295L10.435 22.1797L12.426 26.4644L2 22.5295Z" fill="#E4761B" stroke="#E4761B" stroke-width="0.5"/>
  <path d="M12.4246 26.4651L10.4336 22.1803L14.5771 21.9785L12.4246 26.4651Z" fill="#CD6116" stroke="#CD6116" stroke-width="0.5"/>
  <path fill-rule="evenodd" clip-rule="evenodd" d="M2.005 22.5288L2 22.532L2.00125 22.529L2.005 22.5288ZM11.2081 16.7542L10.435 22.1793L2.005 22.5288L11.2081 16.7542ZM11.2081 16.7539L11.2085 16.754L11.2081 16.7542L11.2081 16.7539ZM11.2048 16.7533L11.2085 16.751L11.2081 16.7539L11.2048 16.7533ZM11.2048 16.7533L4.86547 15.6777L2.00165 22.528L2.00002 22.5291L2.00125 22.529L2.00165 22.528L11.2048 16.7533ZM21.6481 19.8857L23.8073 21.2041L24.9979 24.009L21.6481 19.8857ZM20.888 16.7928L21.4395 18.7972L18.7759 18.9519L20.888 16.7928ZM20.8879 16.7928L18.7759 18.9519L17.9486 16.8937L20.8879 16.7928ZM20.8879 16.7928L20.888 16.7928L20.888 16.7928H20.8879ZM18.7759 18.9519L18.7759 18.9519H18.7758L18.7759 18.9519Z" fill="#F6851B"/>
  <path d="M2 22.532L1.76934 22.4356L1.46544 23.1625L2.13287 22.7438L2 22.532ZM10.435 22.1793L10.4453 22.4291L10.6531 22.4204L10.6825 22.2145L10.435 22.1793ZM11.2085 16.754L11.3414 16.9657L11.8967 16.6171L11.2503 16.5075L11.2085 16.754ZM11.2085 16.751L11.456 16.7863L11.532 16.253L11.0757 16.5393L11.2085 16.751ZM4.86547 15.6777L4.90729 15.4313L4.71143 15.398L4.63481 15.5813L4.86547 15.6777ZM2.00002 22.5291L1.86713 22.3173L1.06933 22.8179L2.0104 22.7788L2.00002 22.5291ZM23.8073 21.2041L24.0374 21.1064L24.0061 21.0325L23.9376 20.9907L23.8073 21.2041ZM21.6481 19.8857L21.7784 19.6723L21.4541 20.0433L21.6481 19.8857ZM24.9979 24.009L24.8038 24.1666L25.228 23.9113L24.9979 24.009ZM21.4395 18.7972L21.454 19.0468L21.7626 19.0289L21.6806 18.7309L21.4395 18.7972ZM18.7759 18.9519V19.2019H18.7832L18.7904 19.2015L18.7759 18.9519ZM20.8879 16.7928V16.5426L20.8794 16.5429L20.8879 16.7928ZM17.9486 16.8937L17.94 16.6438L17.5836 16.656L17.7166 16.9869L17.9486 16.8937ZM20.888 16.7928L21.068 16.9662L21.4762 16.5428H20.888V16.7928ZM18.7758 18.9519L18.5983 18.776L18.1761 19.2019H18.7758V18.9519ZM2.13287 22.7438L2.13787 22.7406L1.87213 22.3171L1.86713 22.3202L2.13287 22.7438ZM1.77059 22.4326L1.76934 22.4356L2.23066 22.6284L2.2319 22.6254L1.77059 22.4326ZM1.99466 22.2791L1.9909 22.2792L2.01159 22.7788L2.01534 22.7786L1.99466 22.2791ZM10.6825 22.2145L11.4556 16.7895L10.9606 16.719L10.1875 22.144L10.6825 22.2145ZM2.01536 22.7786L10.4453 22.4291L10.4246 21.9295L1.99464 22.2791L2.01536 22.7786ZM11.0752 16.5425L1.87213 22.3171L2.13788 22.7406L11.3409 16.966L11.0752 16.5425ZM11.2503 16.5075L11.2499 16.5074L11.1663 17.0004L11.1667 17.0004L11.2503 16.5075ZM11.341 16.966L11.3414 16.9657L11.0756 16.5422L11.0752 16.5425L11.341 16.966ZM10.9606 16.7187L10.9606 16.719L11.4556 16.7895L11.4556 16.7891L10.9606 16.7187ZM11.0757 16.5393L11.072 16.5416L11.3377 16.9651L11.3414 16.9628L11.0757 16.5393ZM11.4556 16.7892L11.456 16.7863L10.961 16.7158L10.9606 16.7186L11.4556 16.7892ZM11.163 16.9998L11.1663 17.0004L11.2499 16.5074L11.2467 16.5069L11.163 16.9998ZM11.2467 16.5069L4.90729 15.4313L4.82365 15.9242L11.163 16.9998L11.2467 16.5069ZM4.63481 15.5813L1.771 22.4316L2.23231 22.6245L5.09612 15.7742L4.63481 15.5813ZM1.86877 22.3163L1.86713 22.3173L2.1329 22.7408L2.13454 22.7398L1.86877 22.3163ZM2.0104 22.7788L2.01162 22.7788L1.99087 22.2792L1.98964 22.2793L2.0104 22.7788ZM2.2319 22.6254L2.23231 22.6245L1.771 22.4316L1.77059 22.4326L2.2319 22.6254ZM2.13453 22.7398L11.3377 16.9651L11.072 16.5416L1.86878 22.3163L2.13453 22.7398ZM23.9376 20.9907L21.7784 19.6723L21.5178 20.0991L23.677 21.4174L23.9376 20.9907ZM25.228 23.9113L24.0374 21.1064L23.5772 21.3018L24.7677 24.1067L25.228 23.9113ZM21.4541 20.0433L24.8038 24.1666L25.1919 23.8514L21.8421 19.7281L21.4541 20.0433ZM21.6806 18.7309L21.129 16.7265L20.6469 16.8591L21.1985 18.8636L21.6806 18.7309ZM18.7904 19.2015L21.454 19.0468L21.425 18.5477L18.7614 18.7024L18.7904 19.2015ZM20.7093 16.618L18.5972 18.7771L18.9546 19.1268L21.0667 16.9676L20.7093 16.618ZM20.7092 16.6179L18.5972 18.7771L18.9546 19.1267L21.0667 16.9676L20.7092 16.6179ZM19.0079 18.8587L18.1805 16.8004L17.7166 16.9869L18.5439 19.0451L19.0079 18.8587ZM17.9571 17.1435L20.8965 17.0426L20.8794 16.5429L17.94 16.6438L17.9571 17.1435ZM21.1281 16.7234L21.1281 16.7233L20.6478 16.8622L20.6478 16.8623L21.1281 16.7234ZM20.708 16.6193L20.708 16.6193L21.068 16.9663L21.068 16.9662L20.708 16.6193ZM20.8879 17.0428H20.888V16.5428H20.8879V17.0428ZM19.0089 18.8612L19.0089 18.8612L18.5429 19.0426L18.543 19.0427L19.0089 18.8612ZM18.7758 19.2019H18.7759V18.7019H18.7758V19.2019ZM18.5983 18.7759L18.5983 18.776L18.9534 19.1279L18.9535 19.1279L18.5983 18.7759Z" fill="#F6851B"/>
  <path d="M14.6926 27.3547L12.4258 26.4668L20.3092 27.7919L14.6926 27.3547Z" fill="#C0AD9E" stroke="#C0AD9E" stroke-width="0.5"/>
  <path d="M4.8657 15.6772L3.57422 14.0225L4.06525 13.5449L4.8657 15.6772Z" fill="#763D16" stroke="#763D16" stroke-width="0.5"/>
  <path d="M21.2038 26.8098L20.3092 27.7919L12.4258 26.4668L21.2038 26.8098Z" fill="#D7C1B3" stroke="#D7C1B3" stroke-width="0.5"/>
  <path d="M21.6276 24.4L12.4258 26.4651L14.5782 21.9785L21.6276 24.4Z" fill="#E4761B" stroke="#E4761B" stroke-width="0.5"/>
  <path d="M12.4258 26.4635L21.6276 24.3984L21.2038 26.8065L12.4258 26.4635Z" fill="#D7C1B3" stroke="#D7C1B3" stroke-width="0.5"/>
  <path fill-rule="evenodd" clip-rule="evenodd" d="M3.11719 5.55859L3.41988 10.7312L9.62166 7.01823L3.11719 5.55859ZM3.17097 12.6366L4.06559 13.5447L3.77635 12.0178L3.17097 12.6366Z" fill="#763D16"/>
  <path d="M3.41988 10.7312L3.1703 10.7458L3.1944 11.1576L3.5483 10.9457L3.41988 10.7312ZM3.11719 5.55859L3.17193 5.31466L2.84823 5.24202L2.86761 5.5732L3.11719 5.55859ZM9.62166 7.01823L9.75008 7.23273L10.2869 6.91131L9.6764 6.7743L9.62166 7.01823ZM4.06559 13.5447L3.8875 13.7201L4.46415 14.3054L4.31122 13.4981L4.06559 13.5447ZM3.17097 12.6366L2.99227 12.4618L2.82064 12.6372L2.99288 12.812L3.17097 12.6366ZM3.77635 12.0178L4.02199 11.9712L3.93279 11.5003L3.59765 11.8429L3.77635 12.0178ZM3.66945 10.7166L3.36676 5.54399L2.86761 5.5732L3.1703 10.7458L3.66945 10.7166ZM9.49325 6.80374L3.29146 10.5167L3.5483 10.9457L9.75008 7.23273L9.49325 6.80374ZM3.06245 5.80253L9.56692 7.26217L9.6764 6.7743L3.17193 5.31466L3.06245 5.80253ZM4.24368 13.3692L3.34907 12.4611L2.99288 12.812L3.8875 13.7201L4.24368 13.3692ZM3.53072 12.0643L3.81996 13.5912L4.31122 13.4981L4.02199 11.9712L3.53072 12.0643ZM3.34968 12.8114L3.95506 12.1926L3.59765 11.8429L2.99227 12.4618L3.34968 12.8114Z" fill="#763D16"/>
  <path d="M16.4414 18.2264L17.9481 16.8945L17.7329 20.1501L16.4414 18.2264Z" fill="#CD6116" stroke="#CD6116" stroke-width="0.5"/>
  <path d="M17.9495 16.8945L16.4428 18.2264L14.25 19.3631L17.9495 16.8945Z" fill="#CD6116" stroke="#CD6116" stroke-width="0.5"/>
  <path d="M24.9982 24.01L24.5879 23.7073L21.6484 19.8867L24.9982 24.01Z" fill="#F6851B" stroke="#F6851B" stroke-width="0.5"/>
  <path d="M14.2474 19.3618L11.207 16.752L17.9469 16.8932L14.2474 19.3618Z" fill="#CD6116" stroke="#CD6116" stroke-width="0.5"/>
  <path d="M17.7344 20.1501L17.9496 16.8945L18.777 18.9528L17.7344 20.1501Z" fill="#E4751F" stroke="#E4751F" stroke-width="0.5"/>
  <path d="M2.875 11.2456L3.41984 10.7344L3.77634 12.0191L2.875 11.2456Z" fill="#763D16" stroke="#763D16" stroke-width="0.5"/>
  <path d="M17.7343 20.1484L14.25 19.3614L16.4428 18.2246L17.7343 20.1484Z" fill="#233447" stroke="#233447" stroke-width="0.5"/>
  <path d="M9.62166 7.02017L3.11719 5.56053L5.77414 1L9.62166 7.02017Z" fill="#763D16" stroke="#763D16" stroke-width="0.5"/>
  <path d="M20.308 27.7907L20.6779 28.7997L14.6914 27.3535L20.308 27.7907Z" fill="#C0AD9E" stroke="#C0AD9E" stroke-width="0.5"/>
  <path d="M14.5796 21.9779L14.25 19.3613L17.7343 20.1483L14.5796 21.9779Z" fill="#F6851B" stroke="#F6851B" stroke-width="0.5"/>
  <path d="M11.207 16.752L14.2474 19.3618L14.577 21.9784L11.207 16.752Z" fill="#E4751F" stroke="#E4751F" stroke-width="0.5"/>
  <path fill-rule="evenodd" clip-rule="evenodd" d="M14.5771 21.9784L11.2071 16.752L10.4336 22.1802L14.5771 21.9784ZM21.4382 18.7972L18.7746 18.9519L24.5862 23.7075L21.4382 18.7972Z" fill="#F6851B"/>
  <path d="M11.2071 16.752L11.4172 16.6165L11.0542 16.0534L10.9596 16.7167L11.2071 16.752ZM14.5771 21.9784L14.5892 22.2281L15.022 22.207L14.7872 21.8429L14.5771 21.9784ZM10.4336 22.1802L10.1861 22.1449L10.1434 22.4446L10.4458 22.4299L10.4336 22.1802ZM18.7746 18.9519L18.7601 18.7023L18.1202 18.7395L18.6162 19.1454L18.7746 18.9519ZM21.4382 18.7972L21.6487 18.6623L21.5698 18.5391L21.4237 18.5476L21.4382 18.7972ZM24.5862 23.7075L24.4279 23.901L24.7967 23.5726L24.5862 23.7075ZM10.997 16.8874L14.367 22.1139L14.7872 21.8429L11.4172 16.6165L10.997 16.8874ZM10.6811 22.2155L11.4546 16.7872L10.9596 16.7167L10.1861 22.1449L10.6811 22.2155ZM14.5649 21.7287L10.4214 21.9305L10.4458 22.4299L14.5892 22.2281L14.5649 21.7287ZM18.789 19.2015L21.4527 19.0468L21.4237 18.5476L18.7601 18.7023L18.789 19.2015ZM24.7445 23.514L18.9329 18.7584L18.6162 19.1454L24.4279 23.901L24.7445 23.514ZM21.2278 18.9321L24.3757 23.8424L24.7967 23.5726L21.6487 18.6623L21.2278 18.9321Z" fill="#F6851B"/>
  <path d="M18.777 18.9531L22.0864 23.9912L17.7344 20.1504L18.777 18.9531Z" fill="#E4751F" stroke="#E4751F" stroke-width="0.5"/>
  <path d="M17.7344 20.1465L22.0864 23.9873L21.629 24.3976L17.7344 20.1465Z" fill="#F6851B" stroke="#F6851B" stroke-width="0.5"/>
  <path fill-rule="evenodd" clip-rule="evenodd" d="M22.0849 23.9932L24.5871 23.7107L18.7755 18.9551L22.0849 23.9932ZM14.5781 21.9813L21.6274 24.4028L17.7328 20.1517L14.5781 21.9813Z" fill="#F6851B"/>
  <path d="M24.5871 23.7107L24.6152 23.9591L25.2042 23.8926L24.7454 23.5172L24.5871 23.7107ZM22.0849 23.9932L21.8759 24.1304L21.9603 24.2588L22.1129 24.2416L22.0849 23.9932ZM18.7755 18.9551L18.9338 18.7616L18.5665 19.0923L18.7755 18.9551ZM21.6274 24.4028L21.5462 24.6392L21.8118 24.2339L21.6274 24.4028ZM14.5781 21.9813L14.4527 21.765L13.9789 22.0398L14.4969 22.2177L14.5781 21.9813ZM17.7328 20.1517L17.9172 19.9828L17.7813 19.8345L17.6074 19.9354L17.7328 20.1517ZM24.5591 23.4623L22.0568 23.7448L22.1129 24.2416L24.6152 23.9591L24.5591 23.4623ZM18.6172 19.1486L24.4288 23.9042L24.7454 23.5172L18.9338 18.7616L18.6172 19.1486ZM22.2938 23.8559L18.9844 18.8178L18.5665 19.0923L21.8759 24.1304L22.2938 23.8559ZM21.7087 24.1663L14.6593 21.7448L14.4969 22.2177L21.5462 24.6392L21.7087 24.1663ZM17.5485 20.3205L21.4431 24.5717L21.8118 24.2339L17.9172 19.9828L17.5485 20.3205ZM14.7035 22.1975L17.8583 20.3679L17.6074 19.9354L14.4527 21.765L14.7035 22.1975Z" fill="#F6851B"/>
  <path fill-rule="evenodd" clip-rule="evenodd" d="M24.1695 28.2354L25.2458 26.0762L20.6788 28.8002L21.2032 26.8101L20.3086 27.7921L20.6785 28.8011L20.6787 28.8003L24.1695 28.2354ZM20.6787 28.8003L20.6785 28.8004L20.6788 28.8002L20.6787 28.8003Z" fill="#C0AD9E"/>
  <path d="M25.2458 26.0762L25.4695 26.1877L25.8498 25.4248L25.1177 25.8615L25.2458 26.0762ZM24.1695 28.2354L24.2095 28.4822L24.3361 28.4617L24.3933 28.3469L24.1695 28.2354ZM21.2032 26.8101L21.445 26.8738L21.0184 26.6417L21.2032 26.8101ZM20.3086 27.7921L20.1238 27.6238L20.0217 27.7358L20.0739 27.8782L20.3086 27.7921ZM20.6785 28.8011L20.4438 28.8872L20.7176 29.6338L20.9203 28.8648L20.6785 28.8011ZM20.6785 28.8004L20.5505 28.5857L20.7183 29.0472L20.6785 28.8004ZM25.022 25.9646L23.9458 28.1238L24.3933 28.3469L25.4695 26.1877L25.022 25.9646ZM20.8068 29.0149L25.3738 26.2909L25.1177 25.8615L20.5507 28.5855L20.8068 29.0149ZM20.9615 26.7464L20.437 28.7365L20.9205 28.8639L21.445 26.8738L20.9615 26.7464ZM20.4934 27.9605L21.388 26.9784L21.0184 26.6417L20.1238 27.6238L20.4934 27.9605ZM20.9133 28.715L20.5433 27.7061L20.0739 27.8782L20.4438 28.8872L20.9133 28.715ZM20.437 28.7366L20.4368 28.7374L20.9203 28.8648L20.9205 28.8641L20.437 28.7366ZM24.1296 27.9886L20.6388 28.5536L20.7187 29.0471L24.2095 28.4822L24.1296 27.9886ZM20.6389 28.5535L20.6387 28.5536L20.7183 29.0472L20.7186 29.0472L20.6389 28.5535ZM20.8065 29.0151L20.8068 29.0149L20.5507 28.5855L20.5505 28.5857L20.8065 29.0151ZM20.437 28.7365L20.437 28.7367L20.9205 28.864L20.9205 28.8639L20.437 28.7365Z" fill="#C0AD9E"/>
  <path fill-rule="evenodd" clip-rule="evenodd" d="M21.8636 26.547L20.6797 28.8004L25.247 26.0762L21.8636 26.547ZM21.8635 26.5457L21.2044 26.808L20.6797 28.799L21.8635 26.5457Z" fill="#C0AD9E"/>
  <path d="M20.6797 28.8004L20.4584 28.6841L20.0457 29.4696L20.8078 29.0151L20.6797 28.8004ZM21.8636 26.547L21.8291 26.2994L21.7019 26.3171L21.6422 26.4308L21.8636 26.547ZM25.247 26.0762L25.375 26.2909L25.2125 25.8286L25.247 26.0762ZM21.2044 26.808L21.1119 26.5757L20.9947 26.6223L20.9626 26.7443L21.2044 26.808ZM21.8635 26.5457L22.0849 26.6619L22.3993 26.0634L21.7711 26.3134L21.8635 26.5457ZM20.6797 28.799L20.4379 28.7353L20.901 28.9153L20.6797 28.799ZM20.901 28.9167L22.0849 26.6633L21.6422 26.4308L20.4584 28.6841L20.901 28.9167ZM25.1189 25.8615L20.5516 28.5857L20.8078 29.0151L25.375 26.2909L25.1189 25.8615ZM21.898 26.7946L25.2814 26.3238L25.2125 25.8286L21.8291 26.2994L21.898 26.7946ZM21.2968 27.0403L21.956 26.7779L21.7711 26.3134L21.1119 26.5757L21.2968 27.0403ZM20.9214 28.8627L21.4461 26.8717L20.9626 26.7443L20.4379 28.7353L20.9214 28.8627ZM21.6422 26.4294L20.4584 28.6827L20.901 28.9153L22.0849 26.6619L21.6422 26.4294Z" fill="#C0AD9E"/>
  <path d="M24.5868 23.709L25.4141 24.2135L22.8984 24.5162L24.5868 23.709Z" fill="#161616" stroke="#161616" stroke-width="0.5"/>
  <path fill-rule="evenodd" clip-rule="evenodd" d="M22.0859 23.9915L22.8998 24.5162L24.5882 23.709L22.0859 23.9915ZM25.6712 24.545L22.6106 24.915L25.2474 26.0786L25.6712 24.545Z" fill="#161616"/>
  <path d="M22.8998 24.5162L22.7644 24.7263L22.8817 24.8019L23.0077 24.7417L22.8998 24.5162ZM22.0859 23.9915L22.0579 23.7431L21.3612 23.8217L21.9505 24.2016L22.0859 23.9915ZM24.5882 23.709L24.696 23.9345L24.5601 23.4606L24.5882 23.709ZM22.6106 24.915L22.5806 24.6668L21.6767 24.776L22.5097 25.1437L22.6106 24.915ZM25.6712 24.545L25.9121 24.6116L26.0115 24.2521L25.6412 24.2968L25.6712 24.545ZM25.2474 26.0786L25.1465 26.3074L25.4113 26.4242L25.4884 26.1452L25.2474 26.0786ZM23.0353 24.306L22.2214 23.7814L21.9505 24.2016L22.7644 24.7263L23.0353 24.306ZM24.4803 23.4834L22.792 24.2906L23.0077 24.7417L24.696 23.9345L24.4803 23.4834ZM22.114 24.2399L24.6162 23.9574L24.5601 23.4606L22.0579 23.7431L22.114 24.2399ZM22.6406 25.1632L25.7012 24.7932L25.6412 24.2968L22.5806 24.6668L22.6406 25.1632ZM25.3483 25.8499L22.7116 24.6862L22.5097 25.1437L25.1465 26.3074L25.3483 25.8499ZM25.4302 24.4784L25.0064 26.0121L25.4884 26.1452L25.9121 24.6116L25.4302 24.4784Z" fill="#161616"/>
  <path fill-rule="evenodd" clip-rule="evenodd" d="M21.6269 24.4025L21.627 24.4024L21.627 24.4025L21.6269 24.4025ZM21.627 24.4025L22.8982 24.5169L22.0843 23.9922L21.627 24.4024L21.6269 24.4018L21.2031 26.8099L21.8623 26.5475L21.627 24.4025ZM21.8623 26.5502L25.2457 26.0794L22.6089 24.9157L21.8623 26.5502ZM25.6695 24.5437L25.4139 24.2141L22.609 24.9136L25.6695 24.5437Z" fill="#161616"/>
  <path d="M21.6269 24.4025L21.46 24.2164L21.0324 24.6001L21.6045 24.6515L21.6269 24.4025ZM22.8982 24.5169L22.8758 24.7658L23.0337 24.3067L22.8982 24.5169ZM22.0843 23.9922L22.2198 23.7821L22.0594 23.6787L21.9174 23.8061L22.0843 23.9922ZM21.6269 24.4018L21.8754 24.3745L21.3807 24.3585L21.6269 24.4018ZM21.2031 26.8099L20.9569 26.7665L20.8793 27.2078L21.2956 27.0421L21.2031 26.8099ZM21.8623 26.5475L21.9548 26.7798L22.1316 26.7094L22.1108 26.5203L21.8623 26.5475ZM25.2457 26.0794L25.2802 26.327L26.1513 26.2058L25.3467 25.8507L25.2457 26.0794ZM21.8623 26.5502L21.6349 26.4464L21.4457 26.8606L21.8968 26.7978L21.8623 26.5502ZM22.6089 24.9157L22.7099 24.687L22.4841 24.5873L22.3815 24.8118L22.6089 24.9157ZM25.4139 24.2141L25.6114 24.0609L25.5116 23.932L25.3534 23.9715L25.4139 24.2141ZM25.6695 24.5437L25.6995 24.7918L26.1373 24.7389L25.867 24.3904L25.6695 24.5437ZM22.609 24.9136L22.5485 24.671L22.639 25.1618L22.609 24.9136ZM21.46 24.2164L21.46 24.2164L21.7939 24.5886L21.7939 24.5885L21.46 24.2164ZM21.8755 24.3752L21.8755 24.3752L21.3785 24.4297L21.3785 24.4298L21.8755 24.3752ZM21.6045 24.6515L21.6046 24.6515L21.6494 24.1535L21.6493 24.1535L21.6045 24.6515ZM22.9206 24.2679L21.6494 24.1535L21.6046 24.6515L22.8758 24.7658L22.9206 24.2679ZM21.9488 24.2023L22.7628 24.727L23.0337 24.3067L22.2198 23.7821L21.9488 24.2023ZM21.7939 24.5885L22.2512 24.1783L21.9174 23.8061L21.46 24.2164L21.7939 24.5885ZM21.3784 24.4291L21.3785 24.4297L21.8755 24.3752L21.8754 24.3745L21.3784 24.4291ZM21.4493 26.8532L21.8731 24.4451L21.3807 24.3585L20.9569 26.7665L21.4493 26.8532ZM21.7699 26.3153L21.1107 26.5776L21.2956 27.0421L21.9548 26.7798L21.7699 26.3153ZM21.3785 24.4298L21.6138 26.5748L22.1108 26.5203L21.8755 24.3752L21.3785 24.4298ZM25.2113 25.8318L21.8279 26.3026L21.8968 26.7978L25.2802 26.327L25.2113 25.8318ZM22.508 25.1444L25.1448 26.3081L25.3467 25.8507L22.7099 24.687L22.508 25.1444ZM22.0897 26.6541L22.8363 25.0196L22.3815 24.8118L21.6349 26.4464L22.0897 26.6541ZM25.2163 24.3673L25.4719 24.6969L25.867 24.3904L25.6114 24.0609L25.2163 24.3673ZM22.6695 25.1562L25.4744 24.4566L25.3534 23.9715L22.5485 24.671L22.6695 25.1562ZM25.6395 24.2955L22.579 24.6654L22.639 25.1618L25.6995 24.7918L25.6395 24.2955Z" fill="#161616"/>
  <path fill-rule="evenodd" clip-rule="evenodd" d="M22.9002 24.5156L22.611 24.9124L25.4159 24.2129L22.9002 24.5156ZM22.611 24.9099L21.6289 24.3987L21.8643 26.5445L22.611 24.9099Z" fill="#161616"/>
  <path d="M22.611 24.9124L22.4089 24.7652L22.0034 25.3216L22.6715 25.155L22.611 24.9124ZM22.9002 24.5156L22.8703 24.2674L22.7623 24.2804L22.6982 24.3683L22.9002 24.5156ZM25.4159 24.2129L25.4764 24.4555L25.386 23.9647L25.4159 24.2129ZM21.6289 24.3987L21.7443 24.177L21.3294 23.961L21.3804 24.426L21.6289 24.3987ZM22.611 24.9099L22.8384 25.0138L22.937 24.7978L22.7264 24.6882L22.611 24.9099ZM21.8643 26.5445L21.6158 26.5717L21.7148 27.4736L22.0917 26.6483L21.8643 26.5445ZM22.813 25.0597L23.1022 24.6628L22.6982 24.3683L22.4089 24.7652L22.813 25.0597ZM25.3554 23.9703L22.5505 24.6699L22.6715 25.155L25.4764 24.4555L25.3554 23.9703ZM22.9301 24.7638L25.4458 24.4611L25.386 23.9647L22.8703 24.2674L22.9301 24.7638ZM21.5135 24.6205L22.4955 25.1317L22.7264 24.6882L21.7443 24.177L21.5135 24.6205ZM22.1128 26.5172L21.8774 24.3715L21.3804 24.426L21.6158 26.5717L22.1128 26.5172ZM22.3836 24.8061L21.6369 26.4406L22.0917 26.6483L22.8384 25.0138L22.3836 24.8061Z" fill="#161616"/>
  <path d="M22.9002 24.5128L22.611 24.9096L21.6289 24.3984L22.9002 24.5128Z" fill="#161616" stroke="#161616" stroke-width="0.5"/>
</svg>
