<svg width="30" height="30" viewBox="0 0 30 30" fill="none" xmlns="http://www.w3.org/2000/svg">
<path d="M27.6279 20.5001L25.9866 26.0494L22.7646 25.1683L27.6279 20.5001Z" fill="#E4761B" stroke="#E4761B" stroke-width="0.5"/>
<path d="M22.7646 25.1683L25.8723 20.9104L27.6279 20.5001L22.7646 25.1683Z" fill="#E4761B" stroke="#E4761B" stroke-width="0.5"/>
<path fill-rule="evenodd" clip-rule="evenodd" d="M25.2131 16.3157L25.2129 16.3159L25.2132 16.3163L25.8721 20.9084L27.6269 20.4983L27.6277 20.4997L27.6275 20.4982L27.6277 20.4981L27.6274 20.4976L26.7667 15.2396L25.2136 16.3154L25.2129 16.3143L25.2131 16.3157ZM25.2131 16.3157L25.2132 16.3163L27.6269 20.4983L27.6275 20.4982L27.6274 20.4976L25.2136 16.3154L25.2131 16.3157Z" fill="#F6851B"/>
<path d="M25.2129 16.3159L25.0705 16.1104L24.8813 16.2415L24.9964 16.4408L25.2129 16.3159ZM25.8721 20.9084L25.6246 20.9439L25.6634 21.2139L25.929 21.1519L25.8721 20.9084ZM27.6277 20.4997L27.4112 20.6247L27.8744 20.4593L27.6277 20.4997ZM27.6277 20.4981L27.6845 20.7416L28.0128 20.665L27.8442 20.3731L27.6277 20.4981ZM26.7667 15.2396L27.0134 15.1992L26.9496 14.8089L26.6244 15.0341L26.7667 15.2396ZM25.2129 16.3143L25.4294 16.1893L24.9654 16.3498L25.2129 16.3143ZM25.3553 16.5213L25.3555 16.5212L25.0707 16.1102L25.0705 16.1104L25.3553 16.5213ZM25.4297 16.1914L25.4294 16.1909L24.9964 16.4408L24.9967 16.4413L25.4297 16.1914ZM26.1195 20.8729L25.4607 16.2808L24.9657 16.3518L25.6246 20.9439L26.1195 20.8729ZM27.57 20.2549L25.8152 20.665L25.929 21.1519L27.6838 20.7417L27.57 20.2549ZM27.8442 20.3747L27.8434 20.3733L27.4104 20.6233L27.4112 20.6247L27.8442 20.3747ZM27.3807 20.5385L27.381 20.5401L27.8744 20.4593L27.8742 20.4578L27.3807 20.5385ZM27.5709 20.2546L27.5707 20.2547L27.6842 20.7416L27.6845 20.7416L27.5709 20.2546ZM27.4109 20.6226L27.4112 20.6231L27.8442 20.3731L27.8439 20.3725L27.4109 20.6226ZM26.52 15.28L27.3806 20.5379L27.8741 20.4572L27.0134 15.1992L26.52 15.28ZM25.3559 16.5209L26.9091 15.4451L26.6244 15.0341L25.0712 16.1099L25.3559 16.5209ZM24.9964 16.4392L24.997 16.4404L25.4301 16.1904L25.4294 16.1893L24.9964 16.4392ZM25.4606 16.2802L25.4604 16.2788L24.9654 16.3498L24.9656 16.3512L25.4606 16.2802ZM25.4607 16.2808L25.4606 16.2802L24.9656 16.3512L24.9657 16.3518L25.4607 16.2808ZM27.8434 20.3733L25.4297 16.1913L24.9967 16.4413L27.4104 20.6233L27.8434 20.3733ZM27.5705 20.2547L27.57 20.2549L27.6838 20.7417L27.6844 20.7416L27.5705 20.2547ZM27.3807 20.538L27.3808 20.5386L27.8742 20.4577L27.8741 20.4571L27.3807 20.538ZM24.997 16.4404L27.4108 20.6225L27.8439 20.3726L25.4301 16.1904L24.997 16.4404ZM25.3554 16.5213L25.3559 16.5209L25.0712 16.1099L25.0708 16.1102L25.3554 16.5213Z" fill="#F6851B"/>
<path fill-rule="evenodd" clip-rule="evenodd" d="M27.7017 11.3275L23.2354 13.1571L27.4798 12.3298L27.7017 11.3275ZM23.2354 13.1593L27.3385 13.536L27.4797 12.3319L23.2354 13.1593Z" fill="#763D16"/>
<path d="M23.2354 13.1571L23.1406 12.9258L23.2832 13.4025L23.2354 13.1571ZM27.7017 11.3275L27.9458 11.3816L28.0492 10.915L27.607 11.0962L27.7017 11.3275ZM27.4798 12.3298L27.5276 12.5751L27.6884 12.5438L27.7239 12.3838L27.4798 12.3298ZM27.3385 13.536L27.3156 13.7849L27.5584 13.8072L27.5868 13.5651L27.3385 13.536ZM23.2354 13.1593L23.1875 12.9139L23.2125 13.4082L23.2354 13.1593ZM27.4797 12.3319L27.728 12.3611L27.7679 12.0211L27.4319 12.0866L27.4797 12.3319ZM23.3302 13.3885L27.7965 11.5589L27.607 11.0962L23.1406 12.9258L23.3302 13.3885ZM27.4319 12.0844L23.1876 12.9117L23.2832 13.4025L27.5276 12.5751L27.4319 12.0844ZM27.4577 11.2735L27.2357 12.2757L27.7239 12.3838L27.9458 11.3816L27.4577 11.2735ZM27.3613 13.287L23.2582 12.9103L23.2125 13.4082L27.3156 13.7849L27.3613 13.287ZM27.2314 12.3028L27.0902 13.5068L27.5868 13.5651L27.728 12.3611L27.2314 12.3028ZM23.2832 13.4047L27.5276 12.5773L27.4319 12.0866L23.1875 12.9139L23.2832 13.4047Z" fill="#763D16"/>
<path fill-rule="evenodd" clip-rule="evenodd" d="M28.2332 11.7502L27.4798 12.3287L27.7018 11.3264L28.2332 11.7502ZM27.3385 13.5293L26.7667 15.2378L23.2354 13.1526L27.3385 13.5293ZM27.4798 12.3296L27.3385 13.5336L28.0784 12.8273L27.4798 12.3296Z" fill="#763D16"/>
<path d="M27.4798 12.3287L27.2358 12.2746L27.0872 12.9453L27.6321 12.5269L27.4798 12.3287ZM28.2332 11.7502L28.3855 11.9485L28.6389 11.7539L28.3891 11.5547L28.2332 11.7502ZM27.7018 11.3264L27.8577 11.131L27.5444 10.8811L27.4577 11.2724L27.7018 11.3264ZM26.7667 15.2378L26.6396 15.4531L26.9057 15.6102L27.0038 15.3171L26.7667 15.2378ZM27.3385 13.5293L27.5756 13.6086L27.6758 13.3092L27.3613 13.2803L27.3385 13.5293ZM23.2354 13.1526L23.2582 12.9036L23.1082 13.3679L23.2354 13.1526ZM27.3385 13.5336L27.0902 13.5045L27.0094 14.1934L27.5111 13.7145L27.3385 13.5336ZM27.4798 12.3296L27.6396 12.1373L27.2852 11.8427L27.2315 12.3005L27.4798 12.3296ZM28.0784 12.8273L28.251 13.0082L28.454 12.8145L28.2383 12.6351L28.0784 12.8273ZM27.6321 12.5269L28.3855 11.9485L28.081 11.5519L27.3276 12.1304L27.6321 12.5269ZM27.4577 11.2724L27.2358 12.2746L27.7239 12.3827L27.9459 11.3805L27.4577 11.2724ZM28.3891 11.5547L27.8577 11.131L27.5459 11.5219L28.0773 11.9456L28.3891 11.5547ZM27.0038 15.3171L27.5756 13.6086L27.1014 13.4499L26.5297 15.1585L27.0038 15.3171ZM23.1082 13.3679L26.6396 15.4531L26.8939 15.0225L23.3625 12.9373L23.1082 13.3679ZM27.3613 13.2803L23.2582 12.9036L23.2125 13.4015L27.3156 13.7782L27.3613 13.2803ZM27.5868 13.5627L27.7281 12.3587L27.2315 12.3005L27.0902 13.5045L27.5868 13.5627ZM27.9058 12.6465L27.1659 13.3528L27.5111 13.7145L28.251 13.0082L27.9058 12.6465ZM27.3199 12.5218L27.9186 13.0196L28.2383 12.6351L27.6396 12.1373L27.3199 12.5218Z" fill="#763D16"/>
<path d="M19.3008 23.8149L20.4174 24.1714L22.7649 25.167L19.3008 23.8149Z" fill="#E2761B" stroke="#E2761B" stroke-width="0.5"/>
<path fill-rule="evenodd" clip-rule="evenodd" d="M22.1318 13.7158L26.7664 15.2427L23.235 13.1575L22.1318 13.7158ZM27.3381 13.5322L26.7664 15.2407L27.8292 13.9089L27.3381 13.5322Z" fill="#763D16"/>
<path d="M26.7664 15.2427L26.6881 15.4801L26.8935 15.0274L26.7664 15.2427ZM22.1318 13.7158L22.0189 13.4927L21.4815 13.7647L22.0536 13.9532L22.1318 13.7158ZM23.235 13.1575L23.3621 12.9422L23.2442 12.8726L23.1221 12.9344L23.235 13.1575ZM26.7664 15.2407L26.5293 15.1614L26.9618 15.3967L26.7664 15.2407ZM27.3381 13.5322L27.4903 13.3338L27.2123 13.1206L27.1011 13.4529L27.3381 13.5322ZM27.8292 13.9089L28.0246 14.0648L28.1835 13.8656L27.9813 13.7105L27.8292 13.9089ZM26.8446 15.0052L22.2101 13.4783L22.0536 13.9532L26.6881 15.4801L26.8446 15.0052ZM23.1079 13.3727L26.6392 15.4579L26.8935 15.0274L23.3621 12.9422L23.1079 13.3727ZM22.2447 13.9388L23.3479 13.3805L23.1221 12.9344L22.0189 13.4927L22.2447 13.9388ZM27.0035 15.3201L27.5752 13.6115L27.1011 13.4529L26.5293 15.1614L27.0035 15.3201ZM27.6338 13.753L26.571 15.0848L26.9618 15.3967L28.0246 14.0648L27.6338 13.753ZM27.186 13.7306L27.677 14.1072L27.9813 13.7105L27.4903 13.3338L27.186 13.7306Z" fill="#763D16"/>
<path d="M24.3381 7.91406L23.235 13.154L22.1318 13.7123L24.3381 7.91406Z" fill="#763D16" stroke="#763D16" stroke-width="0.5"/>
<path d="M27.7017 11.3244L23.2354 13.154L24.3385 7.91406L27.7017 11.3244Z" fill="#763D16" stroke="#763D16" stroke-width="0.5"/>
<path d="M24.3389 7.91739L29.0003 7.37927L27.7021 11.3277L24.3389 7.91739Z" fill="#763D16" stroke="#763D16" stroke-width="0.5"/>
<path d="M26.7664 15.2438L25.2126 16.3201L22.1318 13.7169L26.7664 15.2438Z" fill="#F6851B" stroke="#F6851B" stroke-width="0.5"/>
<path d="M28.7985 3.60364L29.0003 7.37718L24.3389 7.91529L28.7985 3.60364Z" fill="#763D16" stroke="#763D16" stroke-width="0.5"/>
<path d="M28.7985 3.60364L19.4824 10.3772L19.3613 5.78301L28.7985 3.60364Z" fill="#E2761B" stroke="#E2761B" stroke-width="0.5"/>
<path d="M12.4326 5.23071L19.3609 5.78228L19.4819 10.3764L12.4326 5.23071Z" fill="#F6851B" stroke="#F6851B" stroke-width="0.5"/>
<path d="M22.1326 13.7123L19.4824 10.3759L24.3389 7.91406L22.1326 13.7123Z" fill="#763D16" stroke="#763D16" stroke-width="0.5"/>
<path d="M22.1321 13.7169L25.2128 16.3201L20.8877 16.7976L22.1321 13.7169Z" fill="#E4761B" stroke="#E4761B" stroke-width="0.5"/>
<path d="M20.8882 16.7963L19.4824 10.3793L22.1326 13.7156L20.8882 16.7963Z" fill="#E4761B" stroke="#E4761B" stroke-width="0.5"/>
<path d="M24.3389 7.91529L19.4824 10.3772L28.7986 3.60364L24.3389 7.91529Z" fill="#763D16" stroke="#763D16" stroke-width="0.5"/>
<path d="M12.4929 25.0589L14.6925 27.3526L11.6992 24.6284L12.4929 25.0589Z" fill="#C0AD9E" stroke="#C0AD9E" stroke-width="0.5"/>
<path d="M22.7646 25.1695L23.8072 21.2076L25.8723 20.9116L22.7646 25.1695Z" fill="#CD6116" stroke="#CD6116" stroke-width="0.5"/>
<path d="M3.57422 14.0231L7.38139 10.0209L4.06525 13.5455L3.57422 14.0231Z" fill="#E2761B" stroke="#E2761B" stroke-width="0.5"/>
<path fill-rule="evenodd" clip-rule="evenodd" d="M15.7757 10.2554L19.4819 10.3764L12.4326 5.23071L15.7757 10.2554ZM23.8069 21.2071L25.8719 20.9112L25.2128 16.317L23.8069 21.2071Z" fill="#F6851B"/>
<path d="M19.4819 10.3764L19.4738 10.6263L20.2845 10.6528L19.6293 10.1745L19.4819 10.3764ZM15.7757 10.2554L15.5675 10.3939L15.6388 10.501L15.7675 10.5052L15.7757 10.2554ZM12.4326 5.23071L12.58 5.02879L12.2245 5.36919L12.4326 5.23071ZM25.8719 20.9112L25.9074 21.1587L26.1549 21.1232L26.1194 20.8757L25.8719 20.9112ZM23.8069 21.2071L23.5667 21.1381L23.4599 21.5094L23.8424 21.4546L23.8069 21.2071ZM25.2128 16.317L25.4602 16.2815L24.9725 16.2479L25.2128 16.317ZM19.4901 10.1266L15.7838 10.0055L15.7675 10.5052L19.4738 10.6263L19.4901 10.1266ZM12.2852 5.43264L19.3345 10.5784L19.6293 10.1745L12.58 5.02879L12.2852 5.43264ZM15.9838 10.1169L12.6408 5.09223L12.2245 5.36919L15.5675 10.3939L15.9838 10.1169ZM25.8365 20.6637L23.7715 20.9597L23.8424 21.4546L25.9074 21.1587L25.8365 20.6637ZM24.9653 16.3525L25.6245 20.9467L26.1194 20.8757L25.4602 16.2815L24.9653 16.3525ZM24.0472 21.2762L25.453 16.3861L24.9725 16.2479L23.5667 21.1381L24.0472 21.2762Z" fill="#F6851B"/>
<path d="M25.2126 16.3148L23.8067 21.2049L23.6924 18.8171L25.2126 16.3148Z" fill="#E4751F" stroke="#E4751F" stroke-width="0.5"/>
<path d="M20.8877 16.7924L25.2128 16.3148L23.6926 18.8171L20.8877 16.7924Z" fill="#CD6116" stroke="#CD6116" stroke-width="0.5"/>
<path d="M15.7754 10.2561L19.4817 10.3772L20.8875 16.7942L15.7754 10.2561Z" fill="#F6851B" stroke="#F6851B" stroke-width="0.5"/>
<path fill-rule="evenodd" clip-rule="evenodd" d="M5.77345 1L15.7757 10.2555L12.4326 5.2309L5.77345 1ZM3.73542 29.1566L12.426 26.466L2 22.5311L3.73542 29.1566Z" fill="#E4761B"/>
<path d="M15.7757 10.2555L15.6059 10.439L15.9838 10.117L15.7757 10.2555ZM5.77345 1L5.90751 0.788988L5.60365 1.18349L5.77345 1ZM12.4326 5.2309L12.6408 5.09242L12.6114 5.0483L12.5667 5.01989L12.4326 5.2309ZM12.426 26.466L12.4999 26.7048L13.1959 26.4894L12.5143 26.2321L12.426 26.466ZM3.73542 29.1566L3.49358 29.2199L3.55978 29.4727L3.80936 29.3954L3.73542 29.1566ZM2 22.5311L2.08828 22.2972L1.63555 22.1263L1.75816 22.5944L2 22.5311ZM15.9455 10.072L5.94324 0.816507L5.60365 1.18349L15.6059 10.439L15.9455 10.072ZM12.2245 5.36938L15.5675 10.394L15.9838 10.117L12.6408 5.09242L12.2245 5.36938ZM5.63938 1.21101L12.2986 5.44191L12.5667 5.01989L5.90751 0.788988L5.63938 1.21101ZM12.3521 26.2272L3.66149 28.9178L3.80936 29.3954L12.4999 26.7048L12.3521 26.2272ZM1.91172 22.765L12.3377 26.6999L12.5143 26.2321L2.08828 22.2972L1.91172 22.765ZM3.97727 29.0932L2.24184 22.4677L1.75816 22.5944L3.49358 29.2199L3.97727 29.0932Z" fill="#E4761B"/>
<path d="M4.86523 15.6786L8.14774 13.1024L10.8989 13.7414L4.86523 15.6786Z" fill="#763D16" stroke="#763D16" stroke-width="0.5"/>
<path d="M10.8996 13.7406L8.14844 13.1016L9.62153 7.02087L10.8996 13.7406Z" fill="#763D16" stroke="#763D16" stroke-width="0.5"/>
<path d="M4.06543 13.5464L8.14838 13.1024L4.86588 15.6786L4.06543 13.5464Z" fill="#763D16" stroke="#763D16" stroke-width="0.5"/>
<path d="M23.6926 18.8193L21.9976 17.9651L20.8877 16.7947L23.6926 18.8193Z" fill="#CD6116" stroke="#CD6116" stroke-width="0.5"/>
<path d="M4.06463 13.5446L3.77539 12.0177L8.14758 13.1007L4.06463 13.5446Z" fill="#763D16" stroke="#763D16" stroke-width="0.5"/>
<path d="M21.6484 19.8865L21.9982 17.9628L23.6933 18.817L21.6484 19.8865Z" fill="#233447" stroke="#233447" stroke-width="0.5"/>
<path d="M23.8076 21.2078L21.6484 19.8895L23.6933 18.8199L23.8076 21.2078Z" fill="#F6851B" stroke="#F6851B" stroke-width="0.5"/>
<path fill-rule="evenodd" clip-rule="evenodd" d="M15.7754 10.2542L9.62074 7.0188L10.8988 13.7385L15.7754 10.2542ZM9.62073 7.01968L8.14764 13.1004L3.41895 10.7327L9.62073 7.01968ZM8.14766 13.1033L3.77547 12.0204L3.41897 10.7356L8.14766 13.1033Z" fill="#763D16"/>
<path d="M9.62074 7.0188L9.73707 6.79751L9.27831 6.55635L9.37514 7.06551L9.62074 7.0188ZM15.7754 10.2542L15.9208 10.4576L16.2509 10.2217L15.8918 10.0329L15.7754 10.2542ZM10.8988 13.7385L10.6532 13.7852L10.7262 14.1691L11.0441 13.9419L10.8988 13.7385ZM8.14764 13.1004L8.03571 13.3239L8.31664 13.4646L8.39061 13.1593L8.14764 13.1004ZM9.62073 7.01968L9.8637 7.07854L10.0042 6.49874L9.49231 6.80519L9.62073 7.01968ZM3.41895 10.7327L3.29053 10.5182L2.8996 10.7522L3.30701 10.9562L3.41895 10.7327ZM3.77547 12.0204L3.53457 12.0872L3.57362 12.2279L3.71536 12.2631L3.77547 12.0204ZM8.14766 13.1033L8.08755 13.346L8.25959 12.8798L8.14766 13.1033ZM3.41897 10.7356L3.5309 10.5121L3.02756 10.2601L3.17807 10.8025L3.41897 10.7356ZM9.50441 7.24009L15.6591 10.4755L15.8918 10.0329L9.73707 6.79751L9.50441 7.24009ZM11.1444 13.6918L9.86634 6.97209L9.37514 7.06551L10.6532 13.7852L11.1444 13.6918ZM15.6301 10.0508L10.7534 13.5351L11.0441 13.9419L15.9208 10.4576L15.6301 10.0508ZM8.39061 13.1593L9.8637 7.07854L9.37776 6.96082L7.90467 13.0415L8.39061 13.1593ZM3.30701 10.9562L8.03571 13.3239L8.25957 12.8769L3.53088 10.5091L3.30701 10.9562ZM9.49231 6.80519L3.29053 10.5182L3.54736 10.9472L9.74915 7.23418L9.49231 6.80519ZM3.71536 12.2631L8.08755 13.346L8.20777 12.8607L3.83558 11.7777L3.71536 12.2631ZM3.17807 10.8025L3.53457 12.0872L4.01637 11.9535L3.65986 10.6688L3.17807 10.8025ZM8.25959 12.8798L3.5309 10.5121L3.30704 10.9592L8.03573 13.3269L8.25959 12.8798Z" fill="#763D16"/>
<path fill-rule="evenodd" clip-rule="evenodd" d="M15.7761 10.2561L10.8994 13.7404L17.9487 16.8951L15.7761 10.2561ZM11.2089 16.7552L17.9488 16.8965L10.8994 13.7418L11.2089 16.7552Z" fill="#E4761B"/>
<path d="M10.8994 13.7404L10.7541 13.537L10.3993 13.7905L10.7973 13.9686L10.8994 13.7404ZM15.7761 10.2561L16.0137 10.1783L15.9078 9.85475L15.6308 10.0527L15.7761 10.2561ZM17.9487 16.8951L17.8466 17.1233L18.3619 17.3539L18.1863 16.8174L17.9487 16.8951ZM17.9488 16.8965L17.9435 17.1464L18.0509 16.6683L17.9488 16.8965ZM11.2089 16.7552L10.9602 16.7808L10.9827 17.0005L11.2036 17.0052L11.2089 16.7552ZM10.8994 13.7418L11.0016 13.5136L10.6065 13.3368L10.6508 13.7673L10.8994 13.7418ZM11.0448 13.9438L15.9214 10.4595L15.6308 10.0527L10.7541 13.537L11.0448 13.9438ZM18.0509 16.6669L11.0015 13.5122L10.7973 13.9686L17.8466 17.1233L18.0509 16.6669ZM15.5385 10.3339L17.7111 16.9729L18.1863 16.8174L16.0137 10.1783L15.5385 10.3339ZM17.954 16.6465L11.2141 16.5053L11.2036 17.0052L17.9435 17.1464L17.954 16.6465ZM10.7973 13.97L17.8466 17.1247L18.0509 16.6683L11.0016 13.5136L10.7973 13.97ZM11.4576 16.7297L11.1481 13.7162L10.6508 13.7673L10.9602 16.7808L11.4576 16.7297Z" fill="#E4761B"/>
<path fill-rule="evenodd" clip-rule="evenodd" d="M17.9482 16.8971L20.8877 16.7962L15.7756 10.2581L17.9482 16.8971ZM10.8989 13.7416L4.86523 15.6789L11.2083 16.7551L10.8989 13.7416Z" fill="#F6851B"/>
<path d="M20.8877 16.7962L20.8963 17.046L21.3872 17.0292L21.0846 16.6422L20.8877 16.7962ZM17.9482 16.8971L17.7106 16.9748L17.7691 17.1534L17.9568 17.1469L17.9482 16.8971ZM15.7756 10.2581L15.9725 10.1041L15.538 10.3358L15.7756 10.2581ZM4.86523 15.6789L4.78881 15.4408L4.82341 15.9253L4.86523 15.6789ZM10.8989 13.7416L11.1476 13.7161L11.1161 13.4093L10.8224 13.5036L10.8989 13.7416ZM11.2083 16.7551L11.1665 17.0016L11.4905 17.0566L11.457 16.7296L11.2083 16.7551ZM20.8791 16.5463L17.9397 16.6472L17.9568 17.1469L20.8963 17.046L20.8791 16.5463ZM15.5787 10.412L20.6908 16.9502L21.0846 16.6422L15.9725 10.1041L15.5787 10.412ZM18.1858 16.8193L16.0132 10.1803L15.538 10.3358L17.7106 16.9748L18.1858 16.8193ZM4.94166 15.9169L10.9753 13.9797L10.8224 13.5036L4.78881 15.4408L4.94166 15.9169ZM11.2501 16.5086L4.90705 15.4324L4.82341 15.9253L11.1665 17.0016L11.2501 16.5086ZM10.6502 13.7672L10.9596 16.7806L11.457 16.7296L11.1476 13.7161L10.6502 13.7672Z" fill="#F6851B"/>
<path d="M21.9976 17.9651L21.6478 19.8888L20.8877 16.7947L21.9976 17.9651Z" fill="#CD6116" stroke="#CD6116" stroke-width="0.5"/>
<path d="M5.77344 1L15.7757 10.2556L9.62097 7.02017L5.77344 1Z" fill="#763D16" stroke="#763D16" stroke-width="0.5"/>
<path d="M2 22.5301L10.435 22.1803L12.426 26.465L2 22.5301Z" fill="#E4761B" stroke="#E4761B" stroke-width="0.5"/>
<path d="M12.4256 26.4658L10.4346 22.181L14.5781 21.9792L12.4256 26.4658Z" fill="#CD6116" stroke="#CD6116" stroke-width="0.5"/>
<path fill-rule="evenodd" clip-rule="evenodd" d="M2.005 22.5288L2 22.532L2.00125 22.529L2.005 22.5288ZM11.2081 16.7542L10.435 22.1793L2.005 22.5288L11.2081 16.7542ZM11.2081 16.7539L11.2085 16.754L11.2081 16.7542L11.2081 16.7539ZM11.2048 16.7533L11.2085 16.751L11.2081 16.7539L11.2048 16.7533ZM11.2048 16.7533L4.86547 15.6777L2.00165 22.528L2.00002 22.5291L2.00125 22.529L2.00165 22.528L11.2048 16.7533ZM21.6481 19.8857L23.8073 21.2041L24.9979 24.009L21.6481 19.8857ZM20.888 16.7928L21.4395 18.7972L18.7759 18.9519L20.888 16.7928ZM20.8879 16.7928L18.7759 18.9519L17.9486 16.8937L20.8879 16.7928ZM20.8879 16.7928L20.888 16.7928L20.888 16.7928H20.8879ZM18.7759 18.9519L18.7759 18.9519H18.7758L18.7759 18.9519Z" fill="#F6851B"/>
<path d="M2 22.532L1.76934 22.4356L1.46544 23.1625L2.13287 22.7438L2 22.532ZM10.435 22.1793L10.4453 22.4291L10.6531 22.4204L10.6825 22.2145L10.435 22.1793ZM11.2085 16.754L11.3414 16.9657L11.8967 16.6171L11.2503 16.5075L11.2085 16.754ZM11.2085 16.751L11.456 16.7863L11.532 16.253L11.0757 16.5393L11.2085 16.751ZM4.86547 15.6777L4.90729 15.4313L4.71143 15.398L4.63481 15.5813L4.86547 15.6777ZM2.00002 22.5291L1.86713 22.3173L1.06933 22.8179L2.0104 22.7788L2.00002 22.5291ZM23.8073 21.2041L24.0374 21.1064L24.0061 21.0325L23.9376 20.9907L23.8073 21.2041ZM21.6481 19.8857L21.7784 19.6723L21.4541 20.0433L21.6481 19.8857ZM24.9979 24.009L24.8038 24.1666L25.228 23.9113L24.9979 24.009ZM21.4395 18.7972L21.454 19.0468L21.7626 19.0289L21.6806 18.7309L21.4395 18.7972ZM18.7759 18.9519V19.2019H18.7832L18.7904 19.2015L18.7759 18.9519ZM20.8879 16.7928V16.5426L20.8794 16.5429L20.8879 16.7928ZM17.9486 16.8937L17.94 16.6438L17.5836 16.656L17.7166 16.9869L17.9486 16.8937ZM20.888 16.7928L21.068 16.9662L21.4762 16.5428H20.888V16.7928ZM18.7758 18.9519L18.5983 18.776L18.1761 19.2019H18.7758V18.9519ZM2.13287 22.7438L2.13787 22.7406L1.87213 22.3171L1.86713 22.3202L2.13287 22.7438ZM1.77059 22.4326L1.76934 22.4356L2.23066 22.6284L2.2319 22.6254L1.77059 22.4326ZM1.99466 22.2791L1.9909 22.2792L2.01159 22.7788L2.01534 22.7786L1.99466 22.2791ZM10.6825 22.2145L11.4556 16.7895L10.9606 16.719L10.1875 22.144L10.6825 22.2145ZM2.01536 22.7786L10.4453 22.4291L10.4246 21.9295L1.99464 22.2791L2.01536 22.7786ZM11.0752 16.5425L1.87213 22.3171L2.13788 22.7406L11.3409 16.966L11.0752 16.5425ZM11.2503 16.5075L11.2499 16.5074L11.1663 17.0004L11.1667 17.0004L11.2503 16.5075ZM11.341 16.966L11.3414 16.9657L11.0756 16.5422L11.0752 16.5425L11.341 16.966ZM10.9606 16.7187L10.9606 16.719L11.4556 16.7895L11.4556 16.7891L10.9606 16.7187ZM11.0757 16.5393L11.072 16.5416L11.3377 16.9651L11.3414 16.9628L11.0757 16.5393ZM11.4556 16.7892L11.456 16.7863L10.961 16.7158L10.9606 16.7186L11.4556 16.7892ZM11.163 16.9998L11.1663 17.0004L11.2499 16.5074L11.2467 16.5069L11.163 16.9998ZM11.2467 16.5069L4.90729 15.4313L4.82365 15.9242L11.163 16.9998L11.2467 16.5069ZM4.63481 15.5813L1.771 22.4316L2.23231 22.6245L5.09612 15.7742L4.63481 15.5813ZM1.86877 22.3163L1.86713 22.3173L2.1329 22.7408L2.13454 22.7398L1.86877 22.3163ZM2.0104 22.7788L2.01162 22.7788L1.99087 22.2792L1.98964 22.2793L2.0104 22.7788ZM2.2319 22.6254L2.23231 22.6245L1.771 22.4316L1.77059 22.4326L2.2319 22.6254ZM2.13453 22.7398L11.3377 16.9651L11.072 16.5416L1.86878 22.3163L2.13453 22.7398ZM23.9376 20.9907L21.7784 19.6723L21.5178 20.0991L23.677 21.4174L23.9376 20.9907ZM25.228 23.9113L24.0374 21.1064L23.5772 21.3018L24.7677 24.1067L25.228 23.9113ZM21.4541 20.0433L24.8038 24.1666L25.1919 23.8514L21.8421 19.7281L21.4541 20.0433ZM21.6806 18.7309L21.129 16.7265L20.6469 16.8591L21.1985 18.8636L21.6806 18.7309ZM18.7904 19.2015L21.454 19.0468L21.425 18.5477L18.7614 18.7024L18.7904 19.2015ZM20.7093 16.618L18.5972 18.7771L18.9546 19.1268L21.0667 16.9676L20.7093 16.618ZM20.7092 16.6179L18.5972 18.7771L18.9546 19.1267L21.0667 16.9676L20.7092 16.6179ZM19.0079 18.8587L18.1805 16.8004L17.7166 16.9869L18.5439 19.0451L19.0079 18.8587ZM17.9571 17.1435L20.8965 17.0426L20.8794 16.5429L17.94 16.6438L17.9571 17.1435ZM21.1281 16.7234L21.1281 16.7233L20.6478 16.8622L20.6478 16.8623L21.1281 16.7234ZM20.708 16.6193L20.708 16.6193L21.068 16.9663L21.068 16.9662L20.708 16.6193ZM20.8879 17.0428H20.888V16.5428H20.8879V17.0428ZM19.0089 18.8612L19.0089 18.8612L18.5429 19.0426L18.543 19.0427L19.0089 18.8612ZM18.7758 19.2019H18.7759V18.7019H18.7758V19.2019ZM18.5983 18.7759L18.5983 18.776L18.9534 19.1279L18.9535 19.1279L18.5983 18.7759Z" fill="#F6851B"/>
<path d="M14.6926 27.354L12.4258 26.4661L20.3092 27.7912L14.6926 27.354Z" fill="#C0AD9E" stroke="#C0AD9E" stroke-width="0.5"/>
<path d="M4.8657 15.6766L3.57422 14.0219L4.06525 13.5443L4.8657 15.6766Z" fill="#763D16" stroke="#763D16" stroke-width="0.5"/>
<path d="M21.2038 26.8091L20.3092 27.7912L12.4258 26.4661L21.2038 26.8091Z" fill="#D7C1B3" stroke="#D7C1B3" stroke-width="0.5"/>
<path d="M21.6276 24.4008L12.4258 26.4658L14.5782 21.9792L21.6276 24.4008Z" fill="#E4761B" stroke="#E4761B" stroke-width="0.5"/>
<path d="M12.4258 26.4641L21.6276 24.399L21.2038 26.8071L12.4258 26.4641Z" fill="#D7C1B3" stroke="#D7C1B3" stroke-width="0.5"/>
<path fill-rule="evenodd" clip-rule="evenodd" d="M3.11621 5.55884L3.4189 10.7315L9.62069 7.01848L3.11621 5.55884ZM3.17 12.6368L4.06462 13.5449L3.77538 12.018L3.17 12.6368Z" fill="#763D16"/>
<path d="M3.4189 10.7315L3.16933 10.7461L3.19342 11.1579L3.54732 10.946L3.4189 10.7315ZM3.11621 5.55884L3.17095 5.3149L2.84726 5.24227L2.86664 5.57344L3.11621 5.55884ZM9.62069 7.01848L9.74911 7.23297L10.286 6.91155L9.67543 6.77454L9.62069 7.01848ZM4.06462 13.5449L3.88652 13.7204L4.46317 14.3057L4.31025 13.4984L4.06462 13.5449ZM3.17 12.6368L2.99129 12.462L2.81966 12.6375L2.99191 12.8123L3.17 12.6368ZM3.77538 12.018L4.02101 11.9715L3.93181 11.5006L3.59667 11.8432L3.77538 12.018ZM3.66847 10.7169L3.36578 5.54423L2.86664 5.57344L3.16933 10.7461L3.66847 10.7169ZM9.49227 6.80398L3.29048 10.517L3.54732 10.946L9.74911 7.23297L9.49227 6.80398ZM3.06147 5.80277L9.56595 7.26241L9.67543 6.77454L3.17095 5.3149L3.06147 5.80277ZM4.24271 13.3695L3.34809 12.4614L2.99191 12.8123L3.88652 13.7204L4.24271 13.3695ZM3.52975 12.0645L3.81898 13.5914L4.31025 13.4984L4.02101 11.9715L3.52975 12.0645ZM3.34871 12.8117L3.95409 12.1928L3.59667 11.8432L2.99129 12.462L3.34871 12.8117Z" fill="#763D16"/>
<path d="M16.4414 18.227L17.9481 16.8951L17.7329 20.1507L16.4414 18.227Z" fill="#CD6116" stroke="#CD6116" stroke-width="0.5"/>
<path d="M17.9486 16.8951L16.4418 18.227L14.249 19.3637L17.9486 16.8951Z" fill="#CD6116" stroke="#CD6116" stroke-width="0.5"/>
<path d="M24.9982 24.0109L24.5879 23.7082L21.6484 19.8876L24.9982 24.0109Z" fill="#F6851B" stroke="#F6851B" stroke-width="0.5"/>
<path d="M14.2493 19.3608L11.209 16.751L17.9489 16.8922L14.2493 19.3608Z" fill="#CD6116" stroke="#CD6116" stroke-width="0.5"/>
<path d="M17.7334 20.1507L17.9486 16.8951L18.776 18.9534L17.7334 20.1507Z" fill="#E4751F" stroke="#E4751F" stroke-width="0.5"/>
<path d="M2.87402 11.2451L3.41887 10.7339L3.77537 12.0186L2.87402 11.2451Z" fill="#763D16" stroke="#763D16" stroke-width="0.5"/>
<path d="M17.7333 20.1483L14.249 19.3613L16.4418 18.2245L17.7333 20.1483Z" fill="#233447" stroke="#233447" stroke-width="0.5"/>
<path d="M9.62069 7.02017L3.11621 5.56053L5.77316 1L9.62069 7.02017Z" fill="#763D16" stroke="#763D16" stroke-width="0.5"/>
<path d="M20.309 27.7907L20.6789 28.7997L14.6924 27.3535L20.309 27.7907Z" fill="#C0AD9E" stroke="#C0AD9E" stroke-width="0.5"/>
<path d="M14.5786 21.9789L14.249 19.3623L17.7333 20.1493L14.5786 21.9789Z" fill="#F6851B" stroke="#F6851B" stroke-width="0.5"/>
<path d="M11.209 16.751L14.2493 19.3608L14.5789 21.9774L11.209 16.751Z" fill="#E4751F" stroke="#E4751F" stroke-width="0.5"/>
<path fill-rule="evenodd" clip-rule="evenodd" d="M14.5781 21.9774L11.2081 16.751L10.4346 22.1792L14.5781 21.9774ZM21.4392 18.7962L18.7755 18.9509L24.5872 23.7065L21.4392 18.7962Z" fill="#F6851B"/>
<path d="M11.2081 16.751L11.4182 16.6155L11.0551 16.0524L10.9606 16.7157L11.2081 16.751ZM14.5781 21.9774L14.5902 22.2271L15.0229 22.2061L14.7882 21.842L14.5781 21.9774ZM10.4346 22.1792L10.1871 22.144L10.1444 22.4437L10.4467 22.4289L10.4346 22.1792ZM18.7755 18.9509L18.761 18.7013L18.1212 18.7385L18.6172 19.1444L18.7755 18.9509ZM21.4392 18.7962L21.6497 18.6613L21.5707 18.5382L21.4247 18.5466L21.4392 18.7962ZM24.5872 23.7065L24.4289 23.9L24.7976 23.5716L24.5872 23.7065ZM10.998 16.8865L14.368 22.1129L14.7882 21.842L11.4182 16.6155L10.998 16.8865ZM10.6821 22.2145L11.4556 16.7862L10.9606 16.7157L10.1871 22.144L10.6821 22.2145ZM14.5659 21.7277L10.4224 21.9295L10.4467 22.4289L14.5902 22.2271L14.5659 21.7277ZM18.79 19.2005L21.4537 19.0458L21.4247 18.5466L18.761 18.7013L18.79 19.2005ZM24.7455 23.513L18.9339 18.7574L18.6172 19.1444L24.4289 23.9L24.7455 23.513ZM21.2287 18.9311L24.3767 23.8414L24.7976 23.5716L21.6497 18.6613L21.2287 18.9311Z" fill="#F6851B"/>
<path d="M18.776 18.9526L22.0854 23.9907L17.7334 20.1499L18.776 18.9526Z" fill="#E4751F" stroke="#E4751F" stroke-width="0.5"/>
<path d="M17.7334 20.1473L22.0854 23.9881L21.628 24.3985L17.7334 20.1473Z" fill="#F6851B" stroke="#F6851B" stroke-width="0.5"/>
<path fill-rule="evenodd" clip-rule="evenodd" d="M22.0849 23.9937L24.5871 23.7112L18.7755 18.9556L22.0849 23.9937ZM14.5781 21.9818L21.6274 24.4033L17.7328 20.1522L14.5781 21.9818Z" fill="#F6851B"/>
<path d="M24.5871 23.7112L24.6152 23.9596L25.2042 23.8931L24.7454 23.5177L24.5871 23.7112ZM22.0849 23.9937L21.8759 24.1309L21.9603 24.2593L22.1129 24.2421L22.0849 23.9937ZM18.7755 18.9556L18.9338 18.7621L18.5665 19.0928L18.7755 18.9556ZM21.6274 24.4033L21.5462 24.6397L21.8118 24.2344L21.6274 24.4033ZM14.5781 21.9818L14.4527 21.7655L13.9789 22.0403L14.4969 22.2182L14.5781 21.9818ZM17.7328 20.1522L17.9172 19.9833L17.7813 19.835L17.6074 19.9359L17.7328 20.1522ZM24.5591 23.4627L22.0568 23.7453L22.1129 24.2421L24.6152 23.9596L24.5591 23.4627ZM18.6172 19.149L24.4288 23.9046L24.7454 23.5177L18.9338 18.7621L18.6172 19.149ZM22.2938 23.8564L18.9844 18.8183L18.5665 19.0928L21.8759 24.1309L22.2938 23.8564ZM21.7087 24.1668L14.6593 21.7453L14.4969 22.2182L21.5462 24.6397L21.7087 24.1668ZM17.5485 20.321L21.4431 24.5722L21.8118 24.2344L17.9172 19.9833L17.5485 20.321ZM14.7035 22.198L17.8583 20.3684L17.6074 19.9359L14.4527 21.7655L14.7035 22.198Z" fill="#F6851B"/>
<path fill-rule="evenodd" clip-rule="evenodd" d="M24.1705 28.2349L25.2467 26.0757L20.6798 28.7997L21.2042 26.8096L20.3096 27.7916L20.6795 28.8006L20.6797 28.7999L24.1705 28.2349ZM20.6797 28.7999L20.6795 28.7999L20.6798 28.7997L20.6797 28.7999Z" fill="#C0AD9E"/>
<path d="M25.2467 26.0757L25.4705 26.1872L25.8507 25.4243L25.1187 25.861L25.2467 26.0757ZM24.1705 28.2349L24.2105 28.4817L24.337 28.4612L24.3943 28.3464L24.1705 28.2349ZM21.2042 26.8096L21.4459 26.8733L21.0194 26.6412L21.2042 26.8096ZM20.3096 27.7916L20.1248 27.6233L20.0227 27.7354L20.0749 27.8777L20.3096 27.7916ZM20.6795 28.8006L20.4448 28.8867L20.7186 29.6333L20.9213 28.8643L20.6795 28.8006ZM20.6795 28.7999L20.5514 28.5852L20.7193 29.0467L20.6795 28.7999ZM25.023 25.9642L23.9468 28.1233L24.3943 28.3464L25.4705 26.1872L25.023 25.9642ZM20.8078 29.0144L25.3748 26.2904L25.1187 25.861L20.5517 28.585L20.8078 29.0144ZM20.9624 26.7459L20.438 28.736L20.9215 28.8634L21.4459 26.8733L20.9624 26.7459ZM20.4944 27.96L21.389 26.9779L21.0194 26.6412L20.1248 27.6233L20.4944 27.96ZM20.9142 28.7145L20.5443 27.7056L20.0749 27.8777L20.4448 28.8867L20.9142 28.7145ZM20.438 28.7361L20.4378 28.7369L20.9213 28.8643L20.9215 28.8636L20.438 28.7361ZM24.1306 27.9881L20.6398 28.5531L20.7197 29.0466L24.2105 28.4817L24.1306 27.9881ZM20.6399 28.5531L20.6396 28.5531L20.7193 29.0467L20.7196 29.0467L20.6399 28.5531ZM20.8075 29.0146L20.8078 29.0145L20.5517 28.585L20.5514 28.5852L20.8075 29.0146ZM20.438 28.736L20.438 28.7362L20.9215 28.8635L20.9215 28.8634L20.438 28.736Z" fill="#C0AD9E"/>
<path fill-rule="evenodd" clip-rule="evenodd" d="M21.8636 26.5462L20.6797 28.7995L25.247 26.0753L21.8636 26.5462ZM21.8635 26.5448L21.2044 26.8071L20.6797 28.7982L21.8635 26.5448Z" fill="#C0AD9E"/>
<path d="M20.6797 28.7995L20.4584 28.6833L20.0457 29.4688L20.8078 29.0142L20.6797 28.7995ZM21.8636 26.5462L21.8291 26.2986L21.7019 26.3162L21.6422 26.4299L21.8636 26.5462ZM25.247 26.0753L25.375 26.29L25.2125 25.8277L25.247 26.0753ZM21.2044 26.8071L21.1119 26.5748L20.9947 26.6215L20.9626 26.7434L21.2044 26.8071ZM21.8635 26.5448L22.0849 26.6611L22.3993 26.0625L21.7711 26.3125L21.8635 26.5448ZM20.6797 28.7982L20.4379 28.7345L20.901 28.9144L20.6797 28.7982ZM20.901 28.9158L22.0849 26.6624L21.6422 26.4299L20.4584 28.6833L20.901 28.9158ZM25.1189 25.8606L20.5516 28.5848L20.8078 29.0142L25.375 26.29L25.1189 25.8606ZM21.898 26.7938L25.2814 26.3229L25.2125 25.8277L21.8291 26.2986L21.898 26.7938ZM21.2968 27.0394L21.956 26.7771L21.7711 26.3125L21.1119 26.5748L21.2968 27.0394ZM20.9214 28.8619L21.4461 26.8708L20.9626 26.7434L20.4379 28.7345L20.9214 28.8619ZM21.6422 26.4285L20.4584 28.6819L20.901 28.9144L22.0849 26.6611L21.6422 26.4285Z" fill="#C0AD9E"/>
<path d="M24.5878 23.7087L25.4151 24.2132L22.8994 24.5159L24.5878 23.7087Z" fill="#161616" stroke="#161616" stroke-width="0.5"/>
<path fill-rule="evenodd" clip-rule="evenodd" d="M22.085 23.9913L22.8989 24.5159L24.5872 23.7087L22.085 23.9913ZM25.6702 24.5448L22.6097 24.9147L25.2464 26.0784L25.6702 24.5448Z" fill="#161616"/>
<path d="M22.8989 24.5159L22.7634 24.726L22.8807 24.8017L23.0067 24.7415L22.8989 24.5159ZM22.085 23.9913L22.0569 23.7428L21.3602 23.8215L21.9495 24.2014L22.085 23.9913ZM24.5872 23.7087L24.695 23.9343L24.5592 23.4603L24.5872 23.7087ZM22.6097 24.9147L22.5797 24.6665L21.6757 24.7758L22.5087 25.1434L22.6097 24.9147ZM25.6702 24.5448L25.9112 24.6113L26.0105 24.2518L25.6402 24.2966L25.6702 24.5448ZM25.2464 26.0784L25.1455 26.3071L25.4103 26.424L25.4874 26.145L25.2464 26.0784ZM23.0343 24.3058L22.2204 23.7811L21.9495 24.2014L22.7634 24.726L23.0343 24.3058ZM24.4794 23.4832L22.791 24.2904L23.0067 24.7415L24.695 23.9343L24.4794 23.4832ZM22.113 24.2397L24.6152 23.9572L24.5592 23.4603L22.0569 23.7428L22.113 24.2397ZM22.6397 25.1629L25.7002 24.793L25.6402 24.2966L22.5797 24.6665L22.6397 25.1629ZM25.3474 25.8497L22.7106 24.686L22.5087 25.1434L25.1455 26.3071L25.3474 25.8497ZM25.4292 24.4782L25.0055 26.0118L25.4874 26.145L25.9112 24.6113L25.4292 24.4782Z" fill="#161616"/>
<path fill-rule="evenodd" clip-rule="evenodd" d="M21.6279 24.4018L21.6279 24.4017L21.6279 24.4018L21.6279 24.4018ZM21.6279 24.4018L22.8992 24.5161L22.0853 23.9915L21.6279 24.4017L21.6279 24.4011L21.2041 26.8091L21.8633 26.5468L21.6279 24.4018ZM21.8633 26.5495L25.2467 26.0787L22.6099 24.915L21.8633 26.5495ZM25.6705 24.5429L25.4149 24.2133L22.6099 24.9129L25.6705 24.5429Z" fill="#161616"/>
<path d="M21.6279 24.4018L21.4609 24.2157L21.0333 24.5993L21.6055 24.6508L21.6279 24.4018ZM22.8992 24.5161L22.8768 24.7651L23.0346 24.306L22.8992 24.5161ZM22.0853 23.9915L22.2207 23.7813L22.0604 23.678L21.9183 23.8054L22.0853 23.9915ZM21.6279 24.4011L21.8764 24.3738L21.3817 24.3577L21.6279 24.4011ZM21.2041 26.8091L20.9579 26.7658L20.8802 27.2071L21.2965 27.0414L21.2041 26.8091ZM21.8633 26.5468L21.9557 26.7791L22.1326 26.7087L22.1118 26.5195L21.8633 26.5468ZM25.2467 26.0787L25.2812 26.3263L26.1523 26.205L25.3476 25.8499L25.2467 26.0787ZM21.8633 26.5495L21.6359 26.4456L21.4467 26.8599L21.8977 26.7971L21.8633 26.5495ZM22.6099 24.915L22.7109 24.6863L22.4851 24.5866L22.3825 24.8111L22.6099 24.915ZM25.4149 24.2133L25.6124 24.0601L25.5125 23.9313L25.3544 23.9708L25.4149 24.2133ZM25.6705 24.5429L25.7005 24.7911L26.1383 24.7382L25.868 24.3897L25.6705 24.5429ZM22.6099 24.9129L22.5494 24.6703L22.6399 25.1611L22.6099 24.9129ZM21.461 24.2156L21.4609 24.2157L21.7948 24.5879L21.7949 24.5878L21.461 24.2156ZM21.8765 24.3745L21.8764 24.3744L21.3794 24.429L21.3794 24.429L21.8765 24.3745ZM21.6055 24.6508L21.6056 24.6508L21.6503 24.1528L21.6503 24.1528L21.6055 24.6508ZM22.9216 24.2671L21.6503 24.1528L21.6055 24.6508L22.8768 24.7651L22.9216 24.2671ZM21.9498 24.2016L22.7637 24.7262L23.0346 24.306L22.2207 23.7813L21.9498 24.2016ZM21.7949 24.5878L22.2522 24.1776L21.9183 23.8054L21.461 24.2156L21.7949 24.5878ZM21.3794 24.4283L21.3794 24.429L21.8764 24.3745L21.8764 24.3738L21.3794 24.4283ZM21.4503 26.8525L21.8741 24.4444L21.3817 24.3577L20.9579 26.7658L21.4503 26.8525ZM21.7709 26.3145L21.1117 26.5769L21.2965 27.0414L21.9557 26.7791L21.7709 26.3145ZM21.3794 24.429L21.6148 26.5741L22.1118 26.5195L21.8765 24.3745L21.3794 24.429ZM25.2122 25.831L21.8288 26.3019L21.8977 26.7971L25.2812 26.3263L25.2122 25.831ZM22.509 25.1437L25.1458 26.3074L25.3476 25.8499L22.7109 24.6863L22.509 25.1437ZM22.0907 26.6534L22.8373 25.0188L22.3825 24.8111L21.6359 26.4456L22.0907 26.6534ZM25.2173 24.3665L25.4729 24.6961L25.868 24.3897L25.6124 24.0601L25.2173 24.3665ZM22.6704 25.1554L25.4754 24.4559L25.3544 23.9708L22.5494 24.6703L22.6704 25.1554ZM25.6405 24.2947L22.5799 24.6647L22.6399 25.1611L25.7005 24.7911L25.6405 24.2947Z" fill="#161616"/>
<path fill-rule="evenodd" clip-rule="evenodd" d="M22.8992 24.5161L22.61 24.9129L25.4149 24.2134L22.8992 24.5161ZM22.61 24.9104L21.6279 24.3992L21.8634 26.545L22.61 24.9104Z" fill="#161616"/>
<path d="M22.61 24.9129L22.408 24.7657L22.0024 25.3221L22.6705 25.1555L22.61 24.9129ZM22.8992 24.5161L22.8694 24.2679L22.7613 24.2809L22.6972 24.3688L22.8992 24.5161ZM25.4149 24.2134L25.4754 24.4559L25.3851 23.9652L25.4149 24.2134ZM21.6279 24.3992L21.7434 24.1775L21.3284 23.9615L21.3794 24.4265L21.6279 24.3992ZM22.61 24.9104L22.8374 25.0143L22.9361 24.7983L22.7254 24.6887L22.61 24.9104ZM21.8634 26.545L21.6148 26.5722L21.7138 27.4741L22.0908 26.6488L21.8634 26.545ZM22.812 25.0602L23.1013 24.6633L22.6972 24.3688L22.408 24.7657L22.812 25.0602ZM25.3544 23.9708L22.5495 24.6704L22.6705 25.1555L25.4754 24.4559L25.3544 23.9708ZM22.9291 24.7643L25.4448 24.4616L25.3851 23.9652L22.8694 24.2679L22.9291 24.7643ZM21.5125 24.621L22.4946 25.1322L22.7254 24.6887L21.7434 24.1775L21.5125 24.621ZM22.1119 26.5177L21.8764 24.372L21.3794 24.4265L21.6148 26.5722L22.1119 26.5177ZM22.3826 24.8066L21.636 26.4411L22.0908 26.6488L22.8374 25.0143L22.3826 24.8066Z" fill="#161616"/>
<path d="M22.8992 24.5134L22.61 24.9103L21.6279 24.399L22.8992 24.5134Z" fill="#161616" stroke="#161616" stroke-width="0.5"/>
</svg>
