<svg width="30" height="30" viewBox="0 0 30 30" fill="none" xmlns="http://www.w3.org/2000/svg">
<path d="M15 30C23.2843 30 30 23.2843 30 15C30 6.71573 23.2843 0 15 0C6.71573 0 0 6.71573 0 15C0 23.2843 6.71573 30 15 30Z" fill="url(#paint0_linear)"/>
<path d="M25.7385 15.1823H23.0942C23.0942 9.79338 18.7104 5.42505 13.3022 5.42505C7.96114 5.42505 3.61875 9.68643 3.51247 14.983C3.40252 20.458 8.55734 25.2123 14.0525 25.2123H14.7437C19.5884 25.2123 26.0817 21.4333 27.0962 16.8288C27.2836 15.9801 26.6108 15.1823 25.7385 15.1823ZM9.37269 15.4223C9.37269 16.143 8.78118 16.7324 8.05797 16.7324C7.33476 16.7324 6.74328 16.1427 6.74328 15.4223V13.303C6.74328 12.5824 7.33476 11.993 8.05797 11.993C8.78118 11.993 9.37269 12.5824 9.37269 13.303V15.4223ZM13.9378 15.4223C13.9378 16.143 13.3464 16.7324 12.6232 16.7324C11.8999 16.7324 11.3085 16.1427 11.3085 15.4223V13.303C11.3085 12.5824 11.9002 11.993 12.6232 11.993C13.3464 11.993 13.9378 12.5824 13.9378 13.303V15.4223Z" fill="url(#paint1_linear)"/>
<defs>
<linearGradient id="paint0_linear" x1="15" y1="0" x2="15" y2="30" gradientUnits="userSpaceOnUse">
<stop stop-color="#534BB1"/>
<stop offset="1" stop-color="#551BF9"/>
</linearGradient>
<linearGradient id="paint1_linear" x1="15.3192" y1="5.42505" x2="15.3192" y2="25.2123" gradientUnits="userSpaceOnUse">
<stop stop-color="white"/>
<stop offset="1" stop-color="white" stop-opacity="0.82"/>
</linearGradient>
</defs>
</svg>
