<svg width="30" height="30" viewBox="0 0 30 30" fill="none" xmlns="http://www.w3.org/2000/svg">
  <path d="M15 30C23.2843 30 30 23.2843 30 15C30 6.71573 23.2843 0 15 0C6.71573 0 0 6.71573 0 15C0 23.2843 6.71573 30 15 30Z" fill="url(#paint0_linear)"/>
  <path d="M25.7395 15.183H23.0951C23.0951 9.79411 18.7113 5.42578 13.3032 5.42578C7.96212 5.42578 3.61973 9.68717 3.51345 14.9838C3.4035 20.4588 8.55832 25.213 14.0535 25.213H14.7447C19.5894 25.213 26.0827 21.434 27.0972 16.8295C27.2845 15.9808 26.6118 15.183 25.7395 15.183ZM9.37366 15.4231C9.37366 16.1437 8.78215 16.7331 8.05895 16.7331C7.33574 16.7331 6.74426 16.1434 6.74426 15.4231V13.3038C6.74426 12.5831 7.33574 11.9937 8.05895 11.9937C8.78215 11.9937 9.37366 12.5831 9.37366 13.3038V15.4231ZM13.9388 15.4231C13.9388 16.1437 13.3473 16.7331 12.6242 16.7331C11.9009 16.7331 11.3095 16.1434 11.3095 15.4231V13.3038C11.3095 12.5831 11.9012 11.9937 12.6242 11.9937C13.3473 11.9937 13.9388 12.5831 13.9388 13.3038V15.4231Z" fill="url(#paint1_linear)"/>
  <defs>
    <linearGradient id="paint0_linear" x1="15" y1="0" x2="15" y2="30" gradientUnits="userSpaceOnUse">
      <stop stop-color="#534BB1"/>
      <stop offset="1" stop-color="#551BF9"/>
    </linearGradient>
    <linearGradient id="paint1_linear" x1="15.3202" y1="5.42578" x2="15.3202" y2="25.213" gradientUnits="userSpaceOnUse">
      <stop stop-color="white"/>
      <stop offset="1" stop-color="white" stop-opacity="0.82"/>
    </linearGradient>
  </defs>
</svg>
