<svg width="30" height="30" viewBox="0 0 30 30" fill="none" xmlns="http://www.w3.org/2000/svg">
  <path fill-rule="evenodd" clip-rule="evenodd" d="M22.0502 13.6103C19.6901 13.5088 17.8221 12.7052 16.4463 11.1998C14.3826 8.94151 14.1607 7.26172 14.1607 7.06298C14.1607 6.65064 16.1392 8.3777 17.2931 8.91305C18.4471 9.44839 23.0687 10.684 26.4753 11.675C28.8313 12.3604 29 13.8989 29 14.6672C29 15.6989 28.0766 16.4038 27.2133 16.5404C26.3499 16.6769 24.7201 17.5921 25.2893 18.9676C25.8586 20.3431 29.8018 21.4172 28.3519 23.3641C27.3063 24.7681 23.7887 21.4481 22.5557 21.4481C21.3226 21.4481 19.2865 21.7923 17.0465 21.2015C14.8064 20.6107 13.4421 18.7253 12.7106 18.7253C11.9791 18.7253 11.5307 19.4845 9.66268 19.7914C7.79463 20.0983 5.68349 18.7253 5.13415 18.7253C4.58481 18.7253 4.98533 19.0279 4.58352 20.607C4.18173 22.1861 2.14683 23.1477 1.18983 21.8065C0.232835 20.4654 3.19352 16.4815 3.42911 16.2498C3.6647 16.0182 4.37228 15.379 4.9295 15.7697C5.4867 16.1605 5.90396 16.3943 6.52426 16.1088C7.14452 15.8232 7.14452 12.3088 10.5328 12.4648C13.9211 12.6208 15.8784 14.3206 18.4471 14.5421C20.1596 14.6898 21.3606 14.3792 22.0502 13.6103Z" fill="url(#paint0_linear)"/>
  <path fill-rule="evenodd" clip-rule="evenodd" d="M28.3519 23.3641C27.3063 24.7681 23.7887 21.4481 22.5557 21.4481C21.3226 21.4481 19.2865 21.7923 17.0465 21.2015C14.8064 20.6107 13.4421 18.7253 12.7106 18.7253C11.9791 18.7253 11.5307 19.4845 9.66268 19.7914C7.79463 20.0983 5.90396 16.3943 6.52426 16.1088C7.14452 15.8232 7.14452 12.3088 10.5328 12.4648C13.9211 12.6208 15.8784 14.3206 18.4471 14.5421C21.0158 14.7636 29.8018 21.4172 28.3519 23.3641Z" fill="url(#paint1_linear)"/>
  <path fill-rule="evenodd" clip-rule="evenodd" d="M27.3432 14.0441C27.216 14.0025 27.0756 13.9249 26.9219 13.8112C26.6914 13.6406 26.6532 13.2894 26.3239 13.2396C25.9945 13.1897 25.4955 13.2867 25.3716 13.2867C25.2477 13.2867 25.859 13.475 25.924 13.651C25.9889 13.827 26.0891 14.0862 26.5483 14.1808C26.8544 14.2439 27.1194 14.1983 27.3432 14.0441Z" fill="url(#paint2_linear)"/>
  <path fill-rule="evenodd" clip-rule="evenodd" d="M12.3618 18.8278C11.6309 18.8143 11.1704 19.5657 9.29896 19.8381C7.42746 20.1106 5.59909 16.3697 6.22351 16.0955C6.84794 15.8212 6.78399 12.4595 10.1758 12.4595C10.646 12.4595 11.0053 12.4769 11.3023 12.5118C11.4797 12.5326 12.2114 12.6405 12.5694 13.1598C13.5599 14.5966 14.9944 18.6453 15.1824 19.8381C15.3705 21.031 13.4894 19.0949 13.4095 19.0615C12.9408 18.8652 12.4982 18.8304 12.3618 18.8278Z" fill="url(#paint3_linear)"/>
  <defs>
    <linearGradient id="paint0_linear" x1="15.3266" y1="12.5462" x2="15.1936" y2="20.2292" gradientUnits="userSpaceOnUse">
      <stop stop-color="#FFA9DC"/>
      <stop offset="1" stop-color="#FF0097"/>
    </linearGradient>
    <linearGradient id="paint1_linear" x1="15.3266" y1="12.5462" x2="15.1936" y2="20.2292" gradientUnits="userSpaceOnUse">
      <stop stop-color="#FFA9DC"/>
      <stop offset="1" stop-color="#FF0097"/>
    </linearGradient>
    <linearGradient id="paint2_linear" x1="15.3266" y1="12.5462" x2="15.1936" y2="20.2292" gradientUnits="userSpaceOnUse">
      <stop stop-color="#FFA9DC"/>
      <stop offset="1" stop-color="#FF0097"/>
    </linearGradient>
    <linearGradient id="paint3_linear" x1="15.3266" y1="12.5462" x2="15.1936" y2="20.2292" gradientUnits="userSpaceOnUse">
      <stop stop-color="#FFA9DC"/>
      <stop offset="1" stop-color="#FF0097"/>
    </linearGradient>
  </defs>
</svg>
