<svg width="30" height="30" viewBox="0 0 30 30" fill="none" xmlns="http://www.w3.org/2000/svg">
<path d="M30 5.19638C28.8844 5.73846 27.6956 6.09777 26.4562 6.27223C27.7312 5.429 28.7044 4.10392 29.1619 2.50677C27.9731 3.29185 26.6606 3.84638 25.2619 4.15585C24.1331 2.82454 22.5244 2 20.7694 2C17.3644 2 14.6231 5.06138 14.6231 8.81438C14.6231 9.35438 14.6644 9.87361 14.7656 10.3679C9.6525 10.0917 5.12813 7.37715 2.08875 3.242C1.55813 4.26177 1.24688 5.429 1.24688 6.68554C1.24688 9.04492 2.34375 11.1364 3.97875 12.3472C2.99062 12.3265 2.02125 12.0087 1.2 11.5082C1.2 11.5289 1.2 11.5559 1.2 11.5829C1.2 14.8935 3.33188 17.6434 6.1275 18.2768C5.62687 18.4285 5.08125 18.5012 4.515 18.5012C4.12125 18.5012 3.72375 18.4762 3.35063 18.3848C4.1475 21.0828 6.40875 23.0662 9.0975 23.1306C7.005 24.9438 4.34812 26.0362 1.47187 26.0362C0.9675 26.0362 0.48375 26.0113 0 25.9428C2.72438 27.8888 5.95312 29 9.435 29C20.7525 29 26.94 18.6154 26.94 9.614C26.94 9.31285 26.9306 9.02208 26.9175 8.73338C28.1381 7.77385 29.1638 6.57546 30 5.19638Z" fill="#7A7A7A"/>
</svg>
