<svg width="171" height="34" viewBox="0 0 171 34" fill="none" xmlns="http://www.w3.org/2000/svg">
<path d="M10.4951 14.2827L17.0959 7.68214L23.7002 14.2862L27.541 10.4454L17.0959 0L6.6543 10.4419L10.4951 14.2827Z" fill="#F3BA2F"/>
<path d="M7.78409 16.995L3.94336 13.1543L0.102435 16.9952L3.94317 20.836L7.78409 16.995Z" fill="#F3BA2F"/>
<path d="M10.4949 19.7063L17.0957 26.3069L23.6997 19.7031L27.5427 23.5418L27.5408 23.5439L17.0957 33.989L6.65381 23.5474L6.64844 23.542L10.4949 19.7063Z" fill="#F3BA2F"/>
<path d="M30.2489 20.837L34.0898 16.9961L30.2491 13.1554L26.4082 16.9963L30.2489 20.837Z" fill="#F3BA2F"/>
<path d="M20.9924 16.9932H20.994L17.0966 13.0957L14.2163 15.976H14.2161L13.8853 16.307L13.2026 16.9897L13.1973 16.995L13.2026 17.0007L17.0966 20.8946L20.994 16.9972L20.9959 16.995L20.9924 16.9932Z" fill="#F3BA2F"/>
<path d="M40.0781 8.23633H48.4317C50.505 8.23633 52.0727 8.76841 53.1353 9.83257C53.9576 10.6567 54.3686 11.6782 54.3686 12.8967V12.9483C54.3686 13.4632 54.305 13.9182 54.1769 14.3128C54.0491 14.708 53.8784 15.0637 53.665 15.3813C53.4521 15.6991 53.2046 15.9781 52.9232 16.2181C52.6416 16.4586 52.3391 16.6648 52.015 16.8361C53.0572 17.2312 53.8776 17.7673 54.4757 18.4454C55.0736 19.1238 55.3729 20.0637 55.3729 21.265V21.3163C55.3729 22.1405 55.2145 22.8613 54.8974 23.4795C54.5804 24.0973 54.1262 24.6124 53.5348 25.0245C52.9434 25.4366 52.2322 25.7453 51.4011 25.9515C50.5699 26.1574 49.6489 26.2602 48.6381 26.2602H40.0781V8.23633ZM47.5965 15.523C48.4722 15.523 49.1675 15.3732 49.6821 15.0726C50.197 14.7722 50.4545 14.2871 50.4545 13.6178V13.5663C50.4545 12.9657 50.2311 12.5067 49.785 12.1888C49.3385 11.8712 48.6948 11.7123 47.854 11.7123H43.9401V15.523H47.5965ZM48.6524 22.7845C49.5278 22.7845 50.214 22.6261 50.7122 22.3083C51.2099 21.9907 51.4591 21.497 51.4591 20.8275V20.7762C51.4591 20.1754 51.2271 19.6991 50.7638 19.3469C50.3001 18.9955 49.5536 18.8194 48.5235 18.8194H43.9401V22.7848H48.6524V22.7845Z" fill="#F3BA2F"/>
<path d="M60.3496 8.23633H64.3152V26.2607H60.3496V8.23633Z" fill="#F3BA2F"/>
<path d="M70.3203 8.23633H73.9762L82.422 19.3343V8.23633H86.3359V26.2607H82.963L74.2339 14.8025V26.2607H70.3203V8.23633Z" fill="#F3BA2F"/>
<path d="M98.3406 8.10742H101.997L109.722 26.2604H105.576L103.928 22.218H96.3062L94.6585 26.2604H90.6152L98.3406 8.10742ZM102.512 18.7157L100.117 12.8709L97.7229 18.7157H102.512Z" fill="#F3BA2F"/>
<path d="M114.004 8.23633H117.661L126.106 19.3343V8.23633H130.02V26.2607H126.647L117.918 14.8025V26.2607H114.004V8.23633Z" fill="#F3BA2F"/>
<path d="M144.291 26.5699C142.968 26.5699 141.742 26.3293 140.608 25.8491C139.475 25.3688 138.497 24.7119 137.673 23.8791C136.849 23.0466 136.205 22.0638 135.742 20.9309C135.279 19.7978 135.047 18.5876 135.047 17.3001V17.2488C135.047 15.9613 135.279 14.7556 135.742 13.6311C136.205 12.5068 136.849 11.5197 137.673 10.67C138.497 9.82035 139.484 9.15055 140.634 8.66143C141.784 8.1723 143.055 7.92773 144.445 7.92773C145.286 7.92773 146.054 7.99673 146.749 8.13364C147.444 8.27136 148.075 8.45981 148.642 8.70008C149.209 8.94062 149.732 9.23243 150.213 9.57552C150.693 9.91914 151.139 10.2966 151.552 10.7087L149.029 13.6182C148.324 12.9833 147.608 12.485 146.878 12.1248C146.148 11.7645 145.329 11.5841 144.419 11.5841C143.664 11.5841 142.964 11.7301 142.321 12.022C141.677 12.3138 141.123 12.717 140.66 13.2319C140.197 13.7468 139.836 14.3436 139.578 15.0214C139.321 15.6998 139.193 16.4249 139.193 17.1973V17.2485C139.193 18.0209 139.321 18.7508 139.578 19.437C139.836 20.124 140.192 20.7245 140.647 21.2394C141.102 21.7543 141.651 22.1624 142.295 22.4628C142.939 22.7634 143.647 22.9132 144.419 22.9132C145.45 22.9132 146.32 22.7245 147.032 22.3468C147.745 21.9696 148.453 21.4544 149.157 20.8018L151.68 23.3511C151.217 23.8491 150.735 24.2955 150.239 24.6899C149.741 25.085 149.196 25.4238 148.603 25.7073C148.011 25.9903 147.363 26.2053 146.659 26.3508C145.955 26.4966 145.166 26.5699 144.291 26.5699Z" fill="#F3BA2F"/>
<path d="M156.346 8.23633H169.915V11.7641H160.26V15.4205H168.757V18.948H160.26V22.7332H170.045V26.2607H156.346V8.23633Z" fill="#F3BA2F"/>
</svg>
