<svg width="132" height="33" viewBox="0 0 132 33" fill="none" xmlns="http://www.w3.org/2000/svg">
<g clip-path="url(#clip0)">
<path d="M12.0368 0.316114C12.8697 -0.105371 14.1372 -0.105371 14.9701 0.316114L23.4698 4.61698C23.9715 4.87083 24.247 5.24909 24.2964 5.63957H24.3044V27.258C24.2934 27.6839 24.0153 28.107 23.4698 28.3831L14.9701 32.6839C14.1372 33.1054 12.8697 33.1054 12.0368 32.6839L3.53712 28.3831C2.99391 28.1083 2.73323 27.6821 2.72032 27.258C2.71904 27.2162 2.71888 27.1814 2.72011 27.1526L2.72006 5.77843C2.7192 5.75502 2.71912 5.73164 2.71982 5.70836L2.72032 5.63957L2.72413 5.63954C2.76188 5.24478 3.02489 4.87619 3.53712 4.61698L12.0368 0.316114ZM22.9664 17.7004L14.9701 21.7465C14.1372 22.168 12.8697 22.168 12.0368 21.7465L4.058 17.7094V27.2152L12.0368 31.2311C12.4873 31.4619 12.9549 31.6867 13.4122 31.7153L13.5035 31.7182C13.9799 31.7197 14.4425 31.4879 14.9116 31.2685L22.9664 27.1807V17.7004ZM1.33786 26.788C1.33786 27.6161 1.43834 28.1606 1.63785 28.5442C1.80321 28.8621 2.05132 29.105 2.50436 29.4007L2.53022 29.4174C2.62965 29.4816 2.73917 29.5489 2.87249 29.6278L3.02971 29.7201L3.51249 29.9993L2.82006 31.0961L2.2797 30.7833L2.18888 30.73C2.03264 30.6374 1.90314 30.5583 1.78236 30.4801C0.491185 29.6461 0.00964545 28.7371 0.000143791 26.8455L0 26.788H1.33786ZM12.8343 11.906C12.7725 11.9264 12.7145 11.9499 12.6616 11.9767L4.16194 16.2775C4.15302 16.282 4.14451 16.2865 4.13642 16.2909L4.12922 16.2949L4.14255 16.3022L4.16194 16.3123L12.6616 20.6132C12.7145 20.64 12.7725 20.6635 12.8343 20.6839V11.906ZM14.1726 11.906V20.6839C14.2345 20.6635 14.2925 20.64 14.3453 20.6132L22.845 16.3123C22.8539 16.3078 22.8624 16.3033 22.8705 16.2989L22.8777 16.2949L22.8644 16.2876L22.845 16.2775L14.3453 11.9767C14.2925 11.9499 14.2345 11.9264 14.1726 11.906ZM22.9664 7.17312L15.3417 11.0313L22.9664 14.8894V7.17312ZM4.058 7.18214V14.8804L11.665 11.0313L4.058 7.18214ZM14.3453 1.44946C13.9033 1.2258 13.1036 1.2258 12.6616 1.44946L4.16194 5.75035C4.15302 5.75486 4.14451 5.75933 4.13642 5.76373L4.12922 5.76773L4.14255 5.77505L4.16194 5.78513L12.6616 10.086C13.1036 10.3097 13.9033 10.3097 14.3453 10.086L22.845 5.78513C22.8539 5.78062 22.8624 5.77616 22.8705 5.77173L22.8777 5.76773L22.8644 5.76041L22.845 5.75035L14.3453 1.44946ZM24.2225 1.9211L24.7629 2.23375L24.8537 2.28717C25.01 2.37956 25.1394 2.45894 25.2602 2.53695C26.5514 3.3709 27.033 4.28013 27.0423 6.17154L27.0426 6.22916H25.7047C25.7047 5.40086 25.6042 4.85647 25.4048 4.47292C25.2394 4.15504 24.9913 3.9121 24.5382 3.61649L24.5124 3.59971C24.413 3.53549 24.3034 3.46822 24.1701 3.38915L24.0129 3.29691L23.5301 3.0178L24.2225 1.9211Z" fill="#0000FA"/>
<path d="M40.6328 26.3567V14.3005H44.105V12.093H40.6328V10.5082C40.6328 8.71582 41.4471 7.81963 43.0752 7.81963C43.546 7.81963 44.0464 7.8951 44.576 8.04602V5.69706C43.9286 5.5084 43.2126 5.41406 42.4278 5.41406C40.9175 5.41406 39.7453 5.82914 38.9115 6.6593C38.0777 7.48945 37.6608 8.69694 37.6608 10.2818V12.093H34.8066V14.3005H37.6608V26.3567H40.6328ZM52.6973 26.5547C53.8353 26.5547 54.8307 26.3283 55.6841 25.8754C56.5374 25.4227 57.18 24.7717 57.6116 23.9227V26.3567H60.5541V12.093H57.6116V14.4137C57.1602 13.5647 56.513 12.909 55.6693 12.4468C54.8259 11.9845 53.8353 11.7534 52.6973 11.7534C51.4223 11.7534 50.2844 12.0647 49.2841 12.6873C48.2835 13.31 47.5038 14.1873 46.9447 15.3193C46.3857 16.4513 46.1062 17.7532 46.1062 19.2248C46.1062 20.6964 46.3806 21.9841 46.93 23.0879C47.4792 24.1916 48.2492 25.0453 49.2399 25.6491C50.2306 26.2528 51.3829 26.5547 52.6973 26.5547ZM53.4036 24.2906C52.0499 24.2906 50.9955 23.8472 50.2405 22.9605C49.4851 22.0738 49.1074 20.8285 49.1074 19.2248C49.1074 17.6022 49.4851 16.3334 50.2405 15.4184C50.9955 14.5033 52.0403 14.0458 53.3742 14.0458C54.7277 14.0458 55.7724 14.4892 56.5079 15.3759C57.2437 16.2627 57.6116 17.5268 57.6116 19.1682C57.6116 20.7908 57.2437 22.0502 56.5079 22.9463C55.7724 23.8425 54.7376 24.2906 53.4036 24.2906ZM67.8516 26.3567V18.2343C67.8516 16.9702 68.2291 15.9608 68.9845 15.2061C69.7398 14.4514 70.7452 14.0741 72.0006 14.0741C73.0992 14.0741 73.8984 14.3571 74.3989 14.9231C74.899 15.4891 75.1491 16.3947 75.1491 17.64V26.3567H78.1211V17.4702C78.1211 13.659 76.3457 11.7534 72.7951 11.7534C71.6574 11.7534 70.6421 11.994 69.7494 12.4751C68.857 12.9562 68.1753 13.6496 67.7044 14.5552L67.4396 12.093H64.6737C64.8306 13.2816 64.9091 14.6212 64.9091 16.1117V26.3567H67.8516ZM88.0669 26.5547C88.8908 26.5547 89.6265 26.451 90.2739 26.2435V23.9227C89.7441 24.0737 89.2244 24.1491 88.7143 24.1491C87.9295 24.1491 87.3167 23.9463 86.8751 23.5407C86.4339 23.135 86.213 22.4416 86.213 21.4606V14.3005H90.3034V12.093H86.213V7.53661L83.2413 8.52715V12.093H80.3573V14.3005H83.2413V21.687C83.2413 23.2718 83.663 24.4793 84.5064 25.3095C85.3501 26.1396 86.5367 26.5547 88.0669 26.5547ZM99.4253 26.5547C100.857 26.5547 102.123 26.2528 103.221 25.6491C104.32 25.0453 105.168 24.1869 105.766 23.0737C106.365 21.9605 106.664 20.6587 106.664 19.1682C106.664 17.6777 106.365 16.3711 105.766 15.2486C105.168 14.126 104.32 13.2628 103.221 12.659C102.123 12.0553 100.857 11.7534 99.4253 11.7534C97.9736 11.7534 96.6986 12.0553 95.6 12.659C94.5014 13.2628 93.6529 14.126 93.0545 15.2486C92.4564 16.3711 92.157 17.6777 92.157 19.1682C92.157 20.6587 92.4564 21.9605 93.0545 23.0737C93.6529 24.1869 94.5014 25.0453 95.6 25.6491C96.6986 26.2528 97.9736 26.5547 99.4253 26.5547ZM99.3959 24.2906C98.0421 24.2906 96.9976 23.8567 96.2619 22.9888C95.5264 22.1209 95.1585 20.8474 95.1585 19.1682C95.1585 17.5268 95.5312 16.2627 96.2766 15.3759C97.022 14.4892 98.0716 14.0458 99.4253 14.0458C100.759 14.0458 101.794 14.4892 102.53 15.3759C103.265 16.2627 103.633 17.5268 103.633 19.1682C103.633 20.8474 103.27 22.1209 102.544 22.9888C101.818 23.8567 100.769 24.2906 99.3959 24.2906ZM113.079 26.3567V18.2909C113.079 16.989 113.412 15.9608 114.079 15.2061C114.746 14.4514 115.648 14.0741 116.786 14.0741C117.767 14.0741 118.478 14.3571 118.92 14.9231C119.361 15.4891 119.582 16.3853 119.582 17.6117V26.3567H122.554V18.2909C122.554 16.989 122.882 15.9608 123.54 15.2061C124.197 14.4514 125.094 14.0741 126.232 14.0741C127.213 14.0741 127.924 14.3571 128.365 14.9231C128.807 15.4891 129.027 16.3853 129.027 17.6117V26.3567H131.999V17.4702C131.999 13.659 130.352 11.7534 127.056 11.7534C125.957 11.7534 124.971 11.9987 124.099 12.4892C123.225 12.9798 122.564 13.6496 122.112 14.4986C121.406 12.6685 119.905 11.7534 117.61 11.7534C116.531 11.7534 115.59 11.9893 114.785 12.4609C113.981 12.9326 113.363 13.6024 112.932 14.4703L112.667 12.093H109.901C110.058 13.2816 110.136 14.6212 110.136 16.1117V26.3567H113.079Z" fill="white"/>
</g>
<defs>
<clipPath id="clip0">
<rect width="132" height="33" fill="white"/>
</clipPath>
</defs>
</svg>
