<svg width="88" height="44" viewBox="0 0 88 44" fill="none" xmlns="http://www.w3.org/2000/svg">
<path fill-rule="evenodd" clip-rule="evenodd" d="M22.305 0C34.6075 0 44.6099 9.84844 44.6099 21.9828C44.6099 34.1172 34.6075 43.9656 22.305 43.9656C10.0024 43.9656 0 34.1172 0 21.9828C0 9.84844 10.0024 0 22.305 0Z" fill="#48A9A6"/>
<path fill-rule="evenodd" clip-rule="evenodd" d="M10.8574 15.2273H20.0234V10.707H10.8574V15.2273Z" fill="white"/>
<path fill-rule="evenodd" clip-rule="evenodd" d="M24.5879 15.2273H33.7538V10.707H24.5879V15.2273Z" fill="white"/>
<path fill-rule="evenodd" clip-rule="evenodd" d="M33.7538 24.252H29.1709V28.7723H24.5879V33.2926H33.7538V24.252Z" fill="white"/>
<path fill-rule="evenodd" clip-rule="evenodd" d="M20.0234 33.2926V28.7723H15.4404V24.252H10.8574V33.2926H20.0234Z" fill="white"/>
<path d="M56.2084 22.2504L58.2504 18.9355H60.0883L57.0762 23.4254L60.1818 28.016H58.361L56.2339 24.6172L54.1067 28.016H52.2773L55.383 23.4254L52.3709 18.9355H54.1917L56.2084 22.2504ZM62.0112 28.016V15.7967H65.5084C66.5861 15.7967 67.539 16.0317 68.3672 16.5017C69.1955 16.9717 69.8336 17.6402 70.2816 18.5075C70.7354 19.3746 70.9652 20.3706 70.9708 21.4952V22.2757C70.9708 23.4281 70.7439 24.4381 70.2902 25.3053C69.842 26.1725 69.1983 26.8383 68.3587 27.3027C67.5249 27.7669 66.552 28.0048 65.4402 28.016H62.0112ZM63.6448 17.1227V26.6984H65.3637C66.6229 26.6984 67.6014 26.3124 68.2991 25.5403C69.0026 24.7682 69.3542 23.6688 69.3542 22.242V21.5287C69.3542 20.1412 69.0224 19.0642 68.3587 18.2977C67.7007 17.5256 66.7648 17.1339 65.5509 17.1227H63.6448ZM78.884 28.016C78.7932 27.8369 78.7193 27.5181 78.6627 27.0593C77.931 27.809 77.0574 28.1839 76.042 28.1839C75.1345 28.1839 74.3885 27.9321 73.8042 27.4285C73.2257 26.9194 72.9364 26.2759 72.9364 25.4984C72.9364 24.5527 73.2994 23.8198 74.0255 23.2996C74.7572 22.7736 75.784 22.5107 77.1055 22.5107H78.6371V21.7972C78.6371 21.2546 78.4726 20.8237 78.1436 20.5049C77.8146 20.1804 77.3296 20.0181 76.6887 20.0181C76.1271 20.0181 75.6562 20.158 75.2762 20.4377C74.8961 20.7175 74.7062 21.0559 74.7062 21.4531H73.1236C73.1236 21.0001 73.2853 20.5637 73.6085 20.1439C73.9375 19.7187 74.38 19.383 74.9359 19.1369C75.4975 18.8908 76.113 18.7676 76.7823 18.7676C77.843 18.7676 78.674 19.0305 79.2754 19.5565C79.8766 20.0769 80.1885 20.7959 80.2113 21.7133V25.8926C80.2113 26.7264 80.319 27.3893 80.5346 27.8818V28.016H78.884ZM76.2717 26.8326C76.7652 26.8326 77.2333 26.7068 77.6757 26.455C78.1181 26.2032 78.4386 25.876 78.6371 25.4731V23.61H77.4033C75.4748 23.61 74.5105 24.1667 74.5105 25.2801C74.5105 25.7668 74.675 26.1474 75.004 26.4215C75.333 26.6956 75.7556 26.8326 76.2717 26.8326ZM84.389 28.016H82.8149V18.9355H84.389V28.016ZM82.6873 16.5269C82.6873 16.2751 82.7638 16.0625 82.917 15.8891C83.0758 15.7156 83.3084 15.6289 83.6147 15.6289C83.9211 15.6289 84.1535 15.7156 84.3125 15.8891C84.4712 16.0625 84.5507 16.2751 84.5507 16.5269C84.5507 16.7786 84.4712 16.9885 84.3125 17.1563C84.1535 17.3242 83.9211 17.408 83.6147 17.408C83.3084 17.408 83.0758 17.3242 82.917 17.1563C82.7638 16.9885 82.6873 16.7786 82.6873 16.5269Z" fill="white"/>
</svg>
