<svg width="167" height="201" viewBox="0 0 167 201" fill="none" xmlns="http://www.w3.org/2000/svg">
<path d="M97.0733 54.7214C91.7415 100.14 84.1166 145.164 79.9315 190.78C79.5251 195.209 86.2031 196.15 86.9244 191.706C93.5885 146.412 96.6996 100.785 102.031 55.3664C102.501 52.1944 97.5435 51.5494 97.0733 54.7214Z" fill="white"/>
<g opacity="0.5">
<path opacity="0.5" d="M88.5536 117.637C90.0538 118.759 91.8526 119.55 93.7081 120.212C94.0935 120.382 94.5357 120.423 94.9778 120.463C97.2011 98.6748 99.2393 76.9588 101.905 55.2111C102.253 51.9799 97.3172 51.3473 96.9694 54.5785C94.4589 75.6253 91.5062 96.6313 88.5536 117.637Z" fill="#17B9FF"/>
</g>
<path d="M144.775 69.0117C146.46 56.0895 142.625 42.4282 133.821 32.7218C121.082 18.6747 99.2963 14.0048 81.8952 21.3959C63.5669 29.1467 51.443 50.0661 53.9478 69.8974C56.4526 89.7287 76 105.082 95.1296 107.048C112.301 108.921 130.453 100.172 139.289 85.3285C142.197 80.4666 144.058 74.8372 144.775 69.0117Z" fill="#FFE712"/>
<path opacity="0.5" d="M114.744 26.8522C113.958 31.4499 115.642 36.0527 118.599 39.5164C121.701 43.3528 126.378 45.7186 131.349 46.3603C134.911 46.6915 138.427 46.0751 141.653 44.7132C139.726 40.3124 137.24 36.1291 134.023 32.5515C129.466 27.4571 123.634 23.5018 117.177 20.9703C115.877 22.8706 115.023 24.8122 114.744 26.8522Z" fill="#E8D100"/>
<path d="M46.5981 52.5506C46.5416 52.6792 46.5416 52.6792 46.485 52.8078C45.1927 54.6953 44.9487 57.3509 46.432 59.2313C50.8817 64.8724 60.9904 66.4024 67.6375 68.0982C75.9465 70.2181 84.312 72.2093 92.6616 73.8865C100.753 75.4502 108.756 76.5145 116.848 78.0782C125.383 79.6836 135.241 82.4846 143.818 81.1922C153.526 79.7828 157.022 64.1294 146.447 60.8592C137.662 58.0697 127.609 58.8663 118.435 58.3617C110.02 57.8836 101.573 56.7776 93.1265 55.6716C84.6796 54.5656 76.1196 53.7168 67.7294 52.4822C63.5342 51.8649 59.2984 51.6902 55.1192 51.3869C52.5859 51.1935 48.6011 49.7478 46.5981 52.5506Z" fill="#FFFACE"/>
<path d="M72.3555 39.8261L72.9526 39.1553C72.3436 39.5097 72.2863 39.6401 72.7114 39.3604C72.8953 39.2857 72.9526 39.1553 73.0792 39.211C73.6308 38.987 74.1133 38.5769 74.665 38.3529C75.883 37.6441 76.7213 36.7683 76.915 35.2979C77.1206 34.1438 76.7052 33.0277 75.8648 32.1913C73.9881 30.2769 71.0913 31.025 69.8754 33.4459C69.5887 34.0977 69.3594 34.6191 69.0727 35.2708C69.0154 35.4011 68.958 35.5315 68.9007 35.6618C68.8434 35.7922 68.8434 35.7922 68.9007 35.6618C68.6021 35.9972 68.3609 36.2022 68.0623 36.5376C66.9828 37.6184 67.4338 39.6836 68.4581 40.4453C69.8621 41.374 71.3452 41.0929 72.3555 39.8261Z" fill="white"/>
<path d="M81.1199 33.3028C83.4511 32.1719 85.8681 31.5409 88.2996 31.2243C90.7311 30.9076 93.3765 31.1471 95.7935 30.5161C100.514 29.5121 100.536 23.2073 95.8424 22.0667C90.1386 20.7899 83.2585 23.9243 78.3691 26.7022C74.7733 28.971 76.9407 35.1609 81.1199 33.3028Z" fill="white"/>
<path d="M96.7727 101.793C105.375 103.442 113.621 101.731 121.028 97.0587C123.762 95.3635 121.083 90.6773 118.277 92.1884C111.873 95.6241 104.821 97.4025 97.4744 97.0689C94.334 96.9076 93.6728 101.192 96.7727 101.793Z" fill="white"/>
<path d="M52.1338 58.5595C52.9905 59.0891 53.6605 59.6893 54.5173 60.2189C55.9699 61.1633 58.0596 61.0133 58.9218 59.4071C59.7277 57.9288 59.2855 55.7488 57.5336 55.131C56.5643 54.8573 55.5949 54.5837 54.6819 54.1821C53.4517 53.7937 52.2009 54.1599 51.4335 55.1969C50.9269 56.3486 51.0161 57.9152 52.1338 58.5595Z" fill="white"/>
<path d="M122.908 68.706C128.466 69.6368 133.968 70.6945 139.397 71.5689C142.68 72.1048 143.39 66.6648 140.123 66.4389C134.527 65.945 128.986 65.3242 123.389 64.8303C121.003 64.6891 120.506 68.2547 122.908 68.706Z" fill="white"/>
<path d="M146.524 73.9724C150.533 74.4884 151.597 67.9422 147.405 67.501C143.27 66.9293 142.39 73.4006 146.524 73.9724Z" fill="white"/>
</svg>
