<svg width="131" height="199" viewBox="0 0 131 199" fill="none" xmlns="http://www.w3.org/2000/svg">
<path d="M125.522 59.3752C123.048 63.3063 117.856 64.4878 113.925 62.014L45.118 18.7151C41.1869 16.2413 40.0055 11.0491 42.4793 7.11796V7.11796C44.953 3.18682 50.1453 2.0054 54.0764 4.47919L122.883 47.778C126.815 50.2518 127.996 55.4441 125.522 59.3752V59.3752Z" fill="#F4E8FF"/>
<g filter="url(#filter0_b)">
<path d="M9.71621 72.0313C4.17084 75.6279 0.5 81.8781 0.5 88.989V176.659C0.5 188.534 10.1259 198.159 22 198.159H94.937C106.811 198.159 116.437 188.534 116.437 176.659V88.989C116.437 81.7844 112.67 75.4611 107.002 71.8865C104.445 70.274 101.876 68.3159 99.9502 66.0257C98.0264 63.7378 96.7673 61.1467 96.7673 58.2524C96.7673 51.8796 91.6011 46.7134 85.2283 46.7134H31.4648C25.0372 46.7134 19.8265 51.924 19.8265 58.3517C19.8265 61.2379 18.5838 63.827 16.6842 66.1212C14.7826 68.4179 12.2449 70.3913 9.71621 72.0313Z" stroke="url(#paint0_radial)"/>
<path d="M9.71621 72.0313C4.17084 75.6279 0.5 81.8781 0.5 88.989V176.659C0.5 188.534 10.1259 198.159 22 198.159H94.937C106.811 198.159 116.437 188.534 116.437 176.659V88.989C116.437 81.7844 112.67 75.4611 107.002 71.8865C104.445 70.274 101.876 68.3159 99.9502 66.0257C98.0264 63.7378 96.7673 61.1467 96.7673 58.2524C96.7673 51.8796 91.6011 46.7134 85.2283 46.7134H31.4648C25.0372 46.7134 19.8265 51.924 19.8265 58.3517C19.8265 61.2379 18.5838 63.827 16.6842 66.1212C14.7826 68.4179 12.2449 70.3913 9.71621 72.0313Z" stroke="url(#paint1_radial)"/>
<path d="M9.71621 72.0313C4.17084 75.6279 0.5 81.8781 0.5 88.989V176.659C0.5 188.534 10.1259 198.159 22 198.159H94.937C106.811 198.159 116.437 188.534 116.437 176.659V88.989C116.437 81.7844 112.67 75.4611 107.002 71.8865C104.445 70.274 101.876 68.3159 99.9502 66.0257C98.0264 63.7378 96.7673 61.1467 96.7673 58.2524C96.7673 51.8796 91.6011 46.7134 85.2283 46.7134H31.4648C25.0372 46.7134 19.8265 51.924 19.8265 58.3517C19.8265 61.2379 18.5838 63.827 16.6842 66.1212C14.7826 68.4179 12.2449 70.3913 9.71621 72.0313Z" stroke="white"/>
</g>
<path d="M65.9018 142.123C52.1644 102.923 40.4562 63.1316 25.7043 24.2274C24.2721 20.4503 18.446 22.3421 19.6271 26.2569C32.2268 65.8852 47.8602 104.371 61.5975 143.571C62.477 146.348 66.7813 144.899 65.9018 142.123Z" fill="white"/>
<g opacity="0.5">
<path opacity="0.5" d="M47.798 87.3696C46.1267 87.0517 44.3432 87.1223 42.5648 87.3206C42.1826 87.3358 41.8054 87.4787 41.4283 87.6216C48.2914 106.293 55.2769 124.833 61.7629 143.647C62.7659 146.424 67.0467 144.974 66.0437 142.198C59.7104 124.017 53.7542 105.693 47.798 87.3696Z" fill="#17B9FF"/>
</g>
<path d="M21.2703 149.456C25.0415 160.676 33.6129 170.301 44.6657 174.717C60.6599 181.111 80.304 176.246 91.5651 163.282C103.44 149.654 105.005 127.749 95.0616 112.557C85.1183 97.3662 63.0463 92.6187 46.6471 98.6326C31.8837 103.943 20.5503 118.315 19.2492 133.951C18.8121 139.078 19.5351 144.415 21.2703 149.456Z" fill="#FFE712"/>
<path opacity="0.5" d="M62.5772 171.911C61.3879 167.845 58.1802 164.758 54.3865 163.109C50.326 161.213 45.5663 161.144 41.2527 162.6C38.2125 163.749 35.5879 165.652 33.4971 168.049C36.823 170.874 40.5188 173.298 44.5692 174.938C50.3188 177.281 56.6543 178.187 62.9341 177.682C63.2379 175.613 63.1618 173.688 62.5772 171.911Z" fill="#E8D100"/>
<path d="M107.97 123.791C107.965 123.664 107.965 123.664 107.96 123.536C108.263 121.481 107.405 119.216 105.445 118.271C99.5659 115.439 90.7046 118.216 84.603 119.479C76.9758 121.058 69.3538 122.764 61.8698 124.721C54.6417 126.667 47.6846 128.986 40.4565 130.932C32.8496 133.021 23.687 134.661 17.1996 139.132C9.8366 144.149 13.2167 158.32 23.1521 156.777C31.4341 155.556 39.3241 150.901 47.0136 147.659C54.0733 144.698 61.4092 142.237 68.7451 139.775C76.081 137.314 83.4068 134.597 90.7477 132.263C94.4182 131.096 97.9455 129.552 101.478 128.135C103.623 127.284 107.452 126.877 107.97 123.791Z" fill="#FFFACE"/>
<path d="M92.0124 144.437L91.7922 145.223C92.1482 144.691 92.143 144.562 91.9074 144.959C91.787 145.094 91.7922 145.223 91.6667 145.228C91.3056 145.63 91.075 146.157 90.7139 146.56C90.0019 147.624 89.6664 148.672 90.094 149.95C90.3858 150.974 91.1694 151.72 92.1886 152.068C94.4831 152.883 96.5498 151.118 96.5782 148.658C96.5526 148.012 96.5322 147.495 96.5066 146.849C96.5015 146.719 96.4964 146.59 96.4913 146.461C96.4862 146.332 96.4862 146.332 96.4913 146.461C96.6014 146.068 96.7167 145.805 96.8268 145.412C97.2776 144.1 96.0869 142.594 94.9474 142.38C93.4313 142.181 92.3327 143.001 92.0124 144.437Z" fill="white"/>
<path d="M87.4562 153.253C86.0036 155.105 84.2819 156.582 82.4231 157.809C80.5643 159.036 78.3094 159.894 76.5877 161.372C73.1342 164.072 75.6269 169.228 79.9131 168.289C85.0778 167.06 89.4457 161.761 92.3307 157.546C94.3624 154.261 90.1277 150.072 87.4562 153.253Z" fill="white"/>
<path d="M47.3986 103.577C39.7192 105.657 33.6696 110.338 29.4837 117.103C27.9274 119.575 31.981 122.334 33.6694 119.983C37.5292 114.627 42.5776 110.367 48.7074 107.713C51.3352 106.594 50.1685 102.833 47.3986 103.577Z" fill="white"/>
<path d="M101.058 121.091C100.148 121 99.3621 120.777 98.4518 120.686C96.8898 120.493 95.2437 121.448 95.1796 123.102C95.1105 124.63 96.3397 126.234 98.016 126.04C98.9163 125.878 99.8165 125.715 100.722 125.679C101.881 125.506 102.756 124.709 102.969 123.557C102.924 122.415 102.227 121.172 101.058 121.091Z" fill="white"/>
<path d="M39.2422 140.996C34.3346 142.45 29.4221 143.778 24.6416 145.227C21.7479 146.097 23.3352 150.821 26.0918 149.704C30.8573 147.878 35.6279 146.178 40.3934 144.352C42.3973 143.517 41.3832 140.408 39.2422 140.996Z" fill="white"/>
<path d="M17.8659 146.104C14.3884 147.279 16.1268 153.046 19.7249 151.737C23.328 150.557 21.4691 144.923 17.8659 146.104Z" fill="white"/>
<defs>
<filter id="filter0_b" x="-42" y="4.21338" width="200.937" height="236.446" filterUnits="userSpaceOnUse" color-interpolation-filters="sRGB">
<feFlood flood-opacity="0" result="BackgroundImageFix"/>
<feGaussianBlur in="BackgroundImage" stdDeviation="21"/>
<feComposite in2="SourceAlpha" operator="in" result="effect1_backgroundBlur"/>
<feBlend mode="normal" in="SourceGraphic" in2="effect1_backgroundBlur" result="shape"/>
</filter>
<radialGradient id="paint0_radial" cx="0" cy="0" r="1" gradientUnits="userSpaceOnUse" gradientTransform="translate(59.3665 117.035) rotate(-121.572) scale(120.361 83.5987)">
<stop stop-color="white"/>
<stop offset="1" stop-color="white" stop-opacity="0"/>
</radialGradient>
<radialGradient id="paint1_radial" cx="0" cy="0" r="1" gradientUnits="userSpaceOnUse" gradientTransform="translate(59.3665 117.035) rotate(124.662) scale(95.1719 66.5454)">
<stop stop-color="white"/>
<stop offset="1" stop-color="white" stop-opacity="0"/>
</radialGradient>
</defs>
</svg>
