<svg width="62" height="15" viewBox="0 0 62 15" fill="none" xmlns="http://www.w3.org/2000/svg">
<path d="M2.86665 5.67198C2.73765 6.04975 2.67135 6.43952 2.66949 6.83121C2.66949 6.85873 2.66949 6.88563 2.66949 6.91252C2.67358 7.38591 2.60739 7.85801 2.47233 8.31884C2.20025 8.24133 1.92029 8.0844 1.65295 7.81263C0.949488 7.0976 1.18332 5.95103 2.05081 5.68116C2.37888 5.57928 2.65332 5.6008 2.86783 5.66755C2.86726 5.669 2.86686 5.67048 2.86665 5.67198Z" fill="#A16552"/>
<path d="M2.86665 5.67198C2.73765 6.04975 2.67135 6.43952 2.66949 6.83121C2.66949 6.85873 2.66949 6.88563 2.66949 6.91252C2.67358 7.38591 2.60739 7.85801 2.47233 8.31884C2.20025 8.24133 1.92029 8.0844 1.65295 7.81263C0.949488 7.0976 1.18332 5.95103 2.05081 5.68116C2.37888 5.57928 2.65332 5.6008 2.86783 5.66755C2.86726 5.669 2.86686 5.67048 2.86665 5.67198Z" fill="#F5DCB4"/>
<path d="M13.8541 7.81257C13.5872 8.08374 13.3069 8.24068 13.0349 8.31884C12.9 7.85804 12.8338 7.38601 12.8378 6.91267C12.8378 6.88578 12.8378 6.85888 12.8378 6.83135C12.836 6.43805 12.769 6.04669 12.6387 5.66756C12.8531 5.6008 13.1275 5.57928 13.4555 5.68117C14.3228 5.95044 14.557 7.09714 13.8541 7.81257Z" fill="#A16552"/>
<path d="M13.8541 7.81257C13.5872 8.08374 13.3069 8.24068 13.0349 8.31884C12.9 7.85804 12.8338 7.38601 12.8378 6.91267C12.8378 6.88578 12.8378 6.85888 12.8378 6.83135C12.836 6.43805 12.769 6.04669 12.6387 5.66756C12.8531 5.6008 13.1275 5.57928 13.4555 5.68117C14.3228 5.95044 14.557 7.09714 13.8541 7.81257Z" fill="#F5DCB4"/>
<path d="M11.4967 8.288C11.2756 8.62455 11.2214 9.04181 11.3493 9.42243C11.4479 9.70853 11.5361 10.0325 11.5361 10.2734C11.5355 12.0365 9.84217 13.4636 7.75258 13.4636C5.66299 13.4636 3.9687 12.0365 3.9687 10.2734C3.9687 10.0325 4.05691 9.70919 4.15557 9.42243C4.28358 9.04197 4.22945 8.6248 4.00843 8.28834C3.79551 7.95981 3.68199 7.57827 3.68115 7.18842C3.68115 6.01848 4.69127 5.06959 5.93876 5.06959C6.34147 5.0686 6.7376 5.17037 7.0886 5.36498C7.50028 5.59584 8.00489 5.59584 8.41656 5.36498C8.76745 5.17042 9.16348 5.06877 9.56607 5.06992C10.8119 5.06992 11.824 6.01882 11.824 7.18876C11.8243 7.48103 11.7604 7.76989 11.6365 8.03543C11.596 8.12275 11.5493 8.20715 11.4967 8.288Z" fill="#A16552"/>
<path d="M11.4967 8.288C11.2756 8.62455 11.2214 9.04181 11.3493 9.42243C11.4479 9.70853 11.5361 10.0325 11.5361 10.2734C11.5355 12.0365 9.84217 13.4636 7.75258 13.4636C5.66299 13.4636 3.9687 12.0365 3.9687 10.2734C3.9687 10.0325 4.05691 9.70919 4.15557 9.42243C4.28358 9.04197 4.22945 8.6248 4.00843 8.28834C3.79551 7.95981 3.68199 7.57827 3.68115 7.18842C3.68115 6.01848 4.69127 5.06959 5.93876 5.06959C6.34147 5.0686 6.7376 5.17037 7.0886 5.36498C7.50028 5.59584 8.00489 5.59584 8.41656 5.36498C8.76745 5.17042 9.16348 5.06877 9.56607 5.06992C10.8119 5.06992 11.824 6.01882 11.824 7.18876C11.8243 7.48103 11.7604 7.76989 11.6365 8.03543C11.596 8.12275 11.5493 8.20715 11.4967 8.288Z" fill="#F5DCB4"/>
<path d="M5.80191 10.7559C5.73852 10.7557 5.67815 10.7819 5.63629 10.8278C5.59443 10.8736 5.57516 10.9346 5.58342 10.9952C5.71976 11.9291 6.64007 12.6513 7.75297 12.6513C8.86587 12.6513 9.78687 11.9291 9.92253 10.9952C9.93078 10.9347 9.91155 10.8737 9.86976 10.8279C9.82798 10.7821 9.76771 10.7558 9.70438 10.7559H5.80191Z" fill="#4E3F3F"/>
<path d="M6.66699 12.4052C7.41447 12.7332 8.36237 12.7332 9.10985 12.4052C8.95655 12.0322 8.46659 12.1182 7.88743 12.1182C7.30827 12.1182 6.82029 12.0322 6.66699 12.4052Z" fill="#E6646E"/>
<path fill-rule="evenodd" clip-rule="evenodd" d="M12.6231 5.2328C12.8707 5.09081 13.2226 5.00036 13.6663 5.17194C14.5984 5.53208 14.8503 7.06405 14.0944 8.01874C13.7864 8.40747 13.4622 8.62029 13.1496 8.71507C13.1526 8.72696 13.1552 8.73902 13.1579 8.75112L13.1579 8.75117L13.1579 8.75123L13.1616 8.76761C13.2178 9.02442 13.2461 9.28653 13.246 9.54939C13.246 12.0101 10.7869 14.0053 7.75342 14.0053H7.69404C7.44382 14.0037 7.19389 13.9881 6.94541 13.9588C6.46678 13.9024 5.99607 13.7923 5.54225 13.6305C3.60931 12.9412 2.26019 11.3727 2.26019 9.54939C2.26008 9.28675 2.28837 9.02486 2.34459 8.76827C2.34826 8.75065 2.35226 8.73302 2.35627 8.71573C2.04534 8.62096 1.71974 8.40814 1.41148 8.01974C0.655854 7.06405 0.907396 5.53241 1.83984 5.17194C2.26452 5.00801 2.60547 5.08382 2.85101 5.21517L2.8827 5.2328C2.94344 5.05548 3.01315 4.88135 3.09154 4.71106C3.1487 4.58624 3.21064 4.46332 3.27737 4.34228C3.95626 3.10493 5.09588 2.07707 6.40697 1.64279C6.46835 1.52042 6.86101 0.805806 7.65 0.74196C7.69037 0.737305 7.73173 0.737305 7.7741 0.737305L7.81047 0.890934L7.93424 1.42298C7.99762 1.42564 8.05967 1.42997 8.12239 1.43562L8.22448 1.44693L9.07252 0.939484L9.0992 1.64246C10.4083 2.07674 11.5499 3.10426 12.2288 4.34228C12.2953 4.46354 12.3572 4.58647 12.4146 4.71106C12.4931 4.88126 12.5627 5.05541 12.6231 5.2328ZM2.61669 6.77537C2.61827 6.36369 2.67435 5.95402 2.7835 5.55698C2.78368 5.5554 2.78401 5.55384 2.7845 5.55232C2.60301 5.48216 2.37082 5.45954 2.09326 5.56662C1.35931 5.85027 1.16148 7.05536 1.75664 7.80688C1.98283 8.09253 2.21969 8.25746 2.44988 8.33893C2.56415 7.85458 2.62015 7.35839 2.61669 6.86083V6.77537ZM11.601 8.1009C11.5608 8.18839 11.5146 8.27295 11.4625 8.35396C11.2434 8.69115 11.1897 9.1092 11.3164 9.49055C11.4141 9.77719 11.5016 10.1017 11.5016 10.3432C11.5009 12.1096 9.82316 13.5395 7.75277 13.5395C5.68238 13.5395 4.00365 12.1096 4.00365 10.3432C4.00365 10.1017 4.09106 9.77786 4.18881 9.49055C4.31564 9.10936 4.26201 8.69139 4.04302 8.35429C3.83206 8.02514 3.71958 7.64287 3.71875 7.25228C3.71875 6.08011 4.71958 5.1294 5.95561 5.1294C6.35463 5.12842 6.74711 5.23037 7.09489 5.42535C7.50278 5.65666 8.00276 5.65666 8.41065 5.42535C8.75832 5.23043 9.15071 5.12858 9.5496 5.12973C10.784 5.12973 11.7868 6.08044 11.7868 7.25261C11.7871 7.54544 11.7237 7.83486 11.601 8.1009ZM13.0564 8.33919C13.2866 8.25705 13.5238 8.09212 13.7496 7.80714C14.3444 7.05528 14.1463 5.85019 13.4123 5.5672C13.1348 5.46013 12.9026 5.48274 12.7211 5.55291C12.8314 5.95134 12.888 6.36263 12.8896 6.77596V6.86142C12.8863 7.35885 12.9422 7.85492 13.0564 8.33919Z" fill="#A16552"/>
<path d="M6.95455 9.40984C6.86356 9.36855 6.8235 9.26112 6.86524 9.17033C6.9067 9.08016 7.01321 9.04045 7.10358 9.08146L7.52394 9.27222C7.61494 9.31352 7.65499 9.42094 7.61325 9.51174C7.5718 9.6019 7.46528 9.64162 7.37491 9.60061L6.95455 9.40984Z" fill="#4E3F3F"/>
<path d="M8.23318 9.60114C8.14282 9.64215 8.0363 9.60243 7.99484 9.51227C7.9531 9.42147 7.99316 9.31405 8.08415 9.27275L8.50451 9.08199C8.59488 9.04098 8.7014 9.08069 8.74285 9.17086C8.78459 9.26165 8.74454 9.36908 8.65354 9.41037L8.23318 9.60114Z" fill="#4E3F3F"/>
<path d="M5.71781 8.04799C5.343 8.04799 5.03906 7.7365 5.03906 7.35171V7.11962C5.03906 6.73522 5.343 6.42334 5.71781 6.42334C6.09262 6.42334 6.39621 6.73522 6.39621 7.11962V7.35171C6.39621 7.7365 6.09262 8.04799 5.71781 8.04799Z" fill="#4E3F3F"/>
<path d="M5.85352 6.69409V7.45049C5.86013 7.63328 5.9797 7.77719 6.12494 7.77719C6.27019 7.77719 6.38976 7.63328 6.39637 7.45049V7.34386C6.39637 6.98307 6.15344 6.69409 5.85352 6.69409Z" fill="#5D5360"/>
<ellipse cx="5.85297" cy="7.23562" rx="0.271429" ry="0.270776" fill="white"/>
<path d="M9.78875 8.04799C9.41394 8.04799 9.11035 7.7365 9.11035 7.35171V7.11962C9.11035 6.73522 9.41394 6.42334 9.78875 6.42334C10.1636 6.42334 10.4675 6.73522 10.4675 7.11962V7.35171C10.4675 7.7365 10.1629 8.04799 9.78875 8.04799Z" fill="#4E3F3F"/>
<path d="M9.65332 6.69409V7.4527C9.66136 7.63477 9.7805 7.77719 9.92475 7.77719C10.069 7.77719 10.1881 7.63477 10.1962 7.4527V7.34575C10.1962 6.98392 9.95253 6.69409 9.65332 6.69409Z" fill="#5D5360"/>
<ellipse cx="9.65326" cy="7.23562" rx="0.271429" ry="0.270776" fill="white"/>
<path opacity="0.35" d="M8.02443 0.892818C7.87615 0.878802 7.55172 1.10473 7.16433 1.49685C7.06765 1.59463 6.9665 1.70309 6.86329 1.82056C6.10124 2.68656 5.21877 4.05214 4.91533 5.45342C4.40821 7.80614 4.20213 10.536 5.09732 12.05C5.85594 13.3329 7.13095 14.0053 7.13095 14.0053C6.63735 13.9488 6.15192 13.8383 5.68392 13.6759C3.69157 12.9848 2.30061 11.41 2.30061 9.58086C2.30056 9.31705 2.32986 9.054 2.388 8.79629C2.39178 8.7786 2.39591 8.76091 2.40004 8.74356C2.07767 8.64645 1.74326 8.4342 1.42537 8.04575C0.646117 7.08798 0.905524 5.55087 1.86712 5.18912C2.30508 5.02459 2.65842 5.10068 2.90991 5.2325L2.94259 5.25019C3.00523 5.07224 3.07711 4.89748 3.15796 4.72658C3.21714 4.60155 3.28102 4.47818 3.34959 4.35649C4.04972 3.11338 5.22496 2.08186 6.57705 1.64602C6.64035 1.52321 7.04529 0.806051 7.85895 0.741977C7.90057 0.737305 7.94289 0.737305 7.98693 0.737305L8.02443 0.892818Z" fill="#4E3F3F"/>
<path fill-rule="evenodd" clip-rule="evenodd" d="M18.7554 11.025C19.184 11.0252 19.4811 10.9931 19.6466 10.9286C19.8121 10.8642 19.9008 10.7472 19.9128 10.5778L19.9561 10.0866H20.792L20.8529 10.6573C20.876 10.9036 21.4005 11.0267 22.4266 11.0267C22.9076 11.0269 23.2292 10.9625 23.3916 10.8336C23.4611 10.7752 23.4958 10.7168 23.4958 10.6584C23.4958 10.5999 22.948 8.73452 21.8525 5.06213C21.7995 4.88665 21.5222 4.79891 21.0206 4.79891C20.5502 4.79725 20.08 4.82213 19.6123 4.87344C19.1755 4.92336 18.9425 4.98625 18.9135 5.06213C18.838 5.31282 18.5424 6.2641 18.0266 7.91597C17.5108 9.56785 17.2529 10.464 17.2529 10.6043C17.2529 10.727 17.3964 10.8277 17.6832 10.9065C17.9694 10.9853 18.3268 11.0248 18.7554 11.025ZM20.477 6.8418L20.6071 8.4198H20.1379L20.2856 6.8418H20.477Z" fill="#A16552"/>
<path fill-rule="evenodd" clip-rule="evenodd" d="M24.0391 6.50984V11.9054C24.0391 11.9794 24.099 12.0314 24.2217 12.0632C24.3409 12.0942 24.5821 12.1097 24.9453 12.1097C25.3001 12.1102 25.6547 12.0918 26.0073 12.0544C26.3519 12.0179 26.5242 11.9684 26.5242 11.9061V10.9475L26.3981 10.1841H26.4701L26.4791 10.2688C26.503 10.3877 26.59 10.5234 26.7403 10.676C26.8122 10.7496 26.9216 10.8133 27.0686 10.8669C27.2315 10.9231 27.4039 10.9504 27.5772 10.9475C28.1118 10.9477 28.5169 10.8063 28.7926 10.5234C28.9309 10.3818 29.0463 10.2217 29.1348 10.0483C29.2327 9.84858 29.3022 9.63753 29.3415 9.42064C29.3886 9.18356 29.4216 8.9442 29.4404 8.70365C29.4586 8.4692 29.4676 8.23162 29.4676 7.99089C29.4676 7.75016 29.463 7.56615 29.4539 7.43886C29.4364 7.26689 29.4033 7.09665 29.355 6.93003C29.3093 6.74341 29.2302 6.5655 29.121 6.40398C29.0217 6.26543 28.8701 6.14388 28.6661 6.03932C28.4575 5.93341 28.2236 5.87933 27.9866 5.88215C27.766 5.87856 27.5461 5.9057 27.334 5.96268C27.1477 6.01637 27.0051 6.0772 26.9063 6.14517C26.7979 6.2214 26.6997 6.30972 26.6138 6.4082C26.5175 6.51579 26.4636 6.59491 26.4518 6.64557H26.3798C26.3137 6.34585 26.2689 6.17635 26.2447 6.13673C26.2206 6.09712 26.1576 6.05718 26.0556 6.01788C25.9536 5.97859 25.8126 5.95846 25.6324 5.95846C25.2601 5.95543 24.8905 6.01878 24.5432 6.14517C24.2071 6.26965 24.0391 6.39121 24.0391 6.50984ZM26.7035 7.09521C26.8115 7.09521 26.8926 7.19133 26.9468 7.38357C27.0008 7.57602 27.0278 7.91254 27.0278 8.39313C27.0278 9.26987 26.9227 9.70825 26.7125 9.70825C26.5505 9.70846 26.4695 9.63486 26.4695 9.48744V7.26504C26.5175 7.15182 26.5955 7.09521 26.7035 7.09521Z" fill="#A16552"/>
<path fill-rule="evenodd" clip-rule="evenodd" d="M32.6688 9.55857C32.3075 9.55857 32.1268 9.37235 32.1268 8.9999L32.4142 8.99924C34.069 8.99902 34.8964 8.46379 34.8964 7.39354C34.8964 6.38574 34.1593 5.88184 32.6852 5.88184C32.2246 5.88184 31.8253 5.92193 31.4874 6.00212C31.1556 6.07961 30.8433 6.22274 30.5697 6.42276C30.0161 6.81778 29.7393 7.53617 29.7393 8.57793C29.7386 8.84071 29.7679 9.10273 29.8266 9.35909C29.8641 9.52122 29.9203 9.67866 29.9939 9.82838C30.1811 10.176 30.4646 10.4646 30.8116 10.6608C31.0012 10.7675 31.2459 10.8551 31.5456 10.9237C31.8454 10.9923 32.2184 11.0266 32.6644 11.0266C33.1259 11.0246 33.5854 10.967 34.0325 10.855C34.4987 10.7407 34.7318 10.5717 34.7318 10.3483C34.732 10.1938 34.6417 9.95348 34.4608 9.62726C34.2799 9.30103 34.1342 9.13792 34.0238 9.13792C34.0064 9.13792 33.8287 9.20803 33.4905 9.34825C33.1524 9.48846 32.8785 9.55857 32.6688 9.55857ZM32.1091 8.31309V7.7462C32.1091 7.3284 32.2112 7.11961 32.4153 7.11982C32.5959 7.12004 32.6863 7.29181 32.6863 7.63512C32.6913 7.80906 32.6339 7.9792 32.5243 8.11591C32.4259 8.243 32.2717 8.31627 32.1091 8.31309Z" fill="#A16552"/>
<path d="M40.4195 10.591C40.2394 10.7164 39.9891 10.8203 39.6687 10.9027C39.3482 10.9851 38.9353 11.0264 38.43 11.0266C37.9462 11.0285 37.4631 10.9885 36.987 10.9069C36.5314 10.8273 36.2048 10.7392 36.007 10.6424C35.8093 10.5456 35.7104 10.4515 35.7104 10.3602C35.7129 10.024 35.7612 9.68947 35.8543 9.3651C35.9499 9.02044 36.0638 8.84811 36.1959 8.84811C36.2189 8.84811 36.4675 8.92506 36.9419 9.07897C37.4163 9.23288 37.7728 9.30918 38.0116 9.30787C38.2516 9.30787 38.4074 9.28367 38.4792 9.23528C38.5507 9.18782 38.5914 9.10873 38.5869 9.026C38.5869 8.93465 38.521 8.85345 38.3891 8.78238C38.2325 8.70177 38.0666 8.63878 37.8946 8.59468C37.6744 8.53228 37.4596 8.45367 37.2522 8.35956C37.0289 8.26187 36.8137 8.14818 36.6085 8.01948C36.3999 7.88287 36.2301 7.69945 36.114 7.48548C35.9788 7.24229 35.9107 6.97046 35.9162 6.69545C35.9162 5.43103 36.7102 4.79883 38.2982 4.79883C38.8914 4.79883 39.4039 4.83436 39.8356 4.90543C40.2673 4.9765 40.5713 5.05629 40.7477 5.1448C40.9246 5.232 41.013 5.3192 41.013 5.4064C41.013 5.70245 40.9396 6.02138 40.7928 6.36321C40.646 6.70504 40.5036 6.87584 40.3658 6.87562C40.3417 6.87562 40.2638 6.85001 40.1322 6.79878C39.7365 6.63375 39.4083 6.55113 39.1478 6.55091C38.8872 6.55069 38.7104 6.57347 38.6175 6.61925C38.5305 6.65567 38.4754 6.73856 38.4782 6.82886C38.4782 6.92282 38.544 6.99967 38.6757 7.0594C38.8332 7.12843 38.9973 7.18317 39.1657 7.2229C39.3846 7.27975 39.5981 7.35414 39.8039 7.44526C40.0294 7.54223 40.2447 7.65951 40.4466 7.79548C40.6446 7.92912 40.8094 8.11845 40.9411 8.36349C41.0727 8.60852 41.1387 8.89334 41.1389 9.21795C41.1426 9.54735 41.0458 9.87071 40.8602 10.1489C40.7438 10.3213 40.5943 10.4713 40.4195 10.591Z" fill="#A16552"/>
<path d="M48.5053 10.8252C48.4303 10.9596 48.0396 11.0268 47.3334 11.0268C46.6272 11.0268 46.2597 10.9596 46.2307 10.8252L45.9368 9.29613H45.8156L45.5389 10.8252C45.5214 10.9596 45.0169 11.0268 44.0254 11.0268C43.7486 11.0268 43.5656 11.0114 43.4762 10.9805C43.3945 10.9564 43.327 10.9 43.2901 10.8252C42.218 8.26594 41.6819 6.91901 41.6816 6.78439C41.6814 6.64976 41.8904 6.51116 42.3086 6.3686C42.6953 6.23105 43.1032 6.15852 43.5149 6.15412C44.0108 6.15412 44.2675 6.28274 44.2849 6.54L44.5789 8.84176H44.6825L44.7864 6.98536C44.7922 6.84559 44.9392 6.72232 45.2274 6.61556C45.506 6.51065 45.8021 6.45616 46.101 6.45478C46.3949 6.45478 46.6156 6.48972 46.7631 6.55961C46.9105 6.6295 46.9868 6.71525 46.9921 6.81686L47.0871 8.84272H47.1825L47.4675 6.68213C47.4847 6.54771 47.6793 6.42595 48.0511 6.31683C48.423 6.20771 48.7502 6.15305 49.0326 6.15283C49.3153 6.15283 49.5374 6.19206 49.6987 6.27052C49.9635 6.39358 50.0959 6.53925 50.0959 6.70753C50.0959 6.72425 49.8351 7.40747 49.3134 8.75719C48.7916 10.1069 48.5223 10.7962 48.5053 10.8252Z" fill="#A16552"/>
<path fill-rule="evenodd" clip-rule="evenodd" d="M50.5438 10.6568C50.8422 10.9033 51.2525 11.0266 51.7745 11.0266C52.4163 11.0266 52.8093 10.7691 52.9536 10.2541H53.0224L53.0913 10.7427C53.0972 10.7855 53.1119 10.8265 53.1345 10.8633C53.1516 10.8863 53.2046 10.9061 53.2936 10.9235C53.3823 10.9406 53.5774 10.9492 53.879 10.9492C54.1839 10.9491 54.4886 10.9304 54.7912 10.8932C55.0987 10.8561 55.2524 10.806 55.2524 10.7427V8.15331C55.2561 7.89113 55.2359 7.62915 55.1921 7.37062C55.1724 7.21538 55.1279 7.0643 55.0604 6.92314C54.9845 6.78565 54.8951 6.65604 54.7935 6.53624C54.6757 6.3928 54.5291 6.27559 54.3633 6.19214C54.1549 6.09259 53.9352 6.01884 53.709 5.97252C53.3962 5.90792 53.0773 5.87767 52.7579 5.8823C52.3758 5.88434 51.9956 5.93491 51.6263 6.03278C51.2391 6.13309 50.9393 6.24351 50.7269 6.36403C50.5145 6.48454 50.4084 6.58201 50.4084 6.65642C50.4086 6.88011 50.4975 7.12817 50.6752 7.40059C50.8529 7.67301 50.9934 7.80922 51.0969 7.80922C51.143 7.80944 51.232 7.7708 51.3637 7.69331C51.5217 7.60352 51.687 7.52719 51.8579 7.46512C52.0558 7.39071 52.225 7.3535 52.3655 7.3535C52.5061 7.3535 52.6109 7.37359 52.6798 7.41376C52.8406 7.51122 52.921 7.67751 52.921 7.91261H52.6367C52.2219 7.90865 51.8082 7.95779 51.4059 8.05881C51.18 8.11895 50.963 8.20863 50.7605 8.32552C50.569 8.44153 50.4077 8.60119 50.2898 8.79145C50.1576 9.00258 50.0903 9.24779 50.096 9.49676C50.096 9.76545 50.1405 10.0001 50.2295 10.2007C50.3184 10.4014 50.4232 10.5534 50.5438 10.6568ZM52.9279 8.59234V9.59861H52.9282C52.9262 9.64793 52.9021 9.69373 52.8626 9.72341C52.8127 9.76311 52.7498 9.78303 52.6861 9.77938C52.5139 9.77916 52.4278 9.58994 52.4278 9.21171C52.426 9.05716 52.4743 8.90617 52.5655 8.78135C52.6465 8.66108 52.7828 8.58995 52.9279 8.59234Z" fill="#A16552"/>
<path fill-rule="evenodd" clip-rule="evenodd" d="M56.0674 6.50983V11.9054C56.0674 11.9794 56.1273 12.0314 56.2497 12.0632C56.3689 12.0942 56.6101 12.1097 56.9733 12.1097C57.3282 12.1102 57.6829 12.0918 58.0356 12.0544C58.3802 12.0179 58.5525 11.9684 58.5525 11.9061V10.9475L58.4264 10.1841H58.4984L58.5074 10.2688C58.5315 10.3877 58.6186 10.5234 58.7686 10.676C58.8407 10.7496 58.9503 10.8133 59.0973 10.8669C59.2601 10.9232 59.4326 10.9505 59.6059 10.9475C60.1405 10.9477 60.5456 10.8063 60.8213 10.5234C60.9594 10.3817 61.0746 10.2217 61.1631 10.0483C61.2613 9.84869 61.3309 9.6376 61.3698 9.42063C61.4171 9.18357 61.4502 8.9442 61.4691 8.70365C61.487 8.4692 61.496 8.23161 61.496 7.99089C61.496 7.75016 61.4915 7.56615 61.4825 7.43886C61.4651 7.26686 61.4319 7.09661 61.3833 6.93002C61.3379 6.74331 61.2588 6.56536 61.1493 6.40397C61.0503 6.26543 60.8988 6.14387 60.6948 6.03931C60.486 5.93337 60.252 5.87928 60.0149 5.88215C59.7944 5.87858 59.5745 5.90572 59.3623 5.96268C59.1764 6.01636 59.0339 6.0772 58.9347 6.14517C58.8263 6.22149 58.7281 6.30979 58.6421 6.40819C58.5463 6.51579 58.4923 6.59491 58.4802 6.64557H58.4081C58.342 6.34585 58.2972 6.17634 58.2731 6.13673C58.2489 6.09711 58.1866 6.05717 58.0842 6.01788C57.9819 5.97859 57.841 5.95846 57.6611 5.95846C57.2887 5.95543 56.919 6.01878 56.5715 6.14517C56.2354 6.26965 56.0674 6.3912 56.0674 6.50983ZM58.7341 7.09521C58.8409 7.09521 58.9213 7.19133 58.9753 7.38357C59.0293 7.57602 59.0569 7.91254 59.058 8.39313C59.0578 9.26987 58.9528 9.70825 58.7431 9.70825C58.5809 9.70846 58.4998 9.63486 58.4998 9.48744V7.26504C58.5492 7.15182 58.6273 7.09521 58.7341 7.09521Z" fill="#A16552"/>
</svg>
