<svg width="72" height="18" viewBox="0 0 72 18" fill="none" xmlns="http://www.w3.org/2000/svg">
<rect x="0.5" y="0.5" width="71" height="16.8144" rx="8.40722" fill="#7B1FCB" stroke="#F9F0FF"/>
<path fill-rule="evenodd" clip-rule="evenodd" d="M28.5946 7.18637C28.5269 7.25885 28.4278 7.2951 28.2974 7.2951C28.1669 7.2951 28.0684 7.25885 28.002 7.18637C27.9355 7.11388 27.9023 7.02327 27.9023 6.91454C27.9023 6.80581 27.9355 6.71399 28.002 6.63909C28.0684 6.56419 28.1669 6.52673 28.2974 6.52673C28.4278 6.52673 28.5269 6.56419 28.5946 6.63909C28.6622 6.71399 28.696 6.80581 28.696 6.91454C28.696 7.02327 28.6622 7.11388 28.5946 7.18637ZM11.7298 11.9488C11.9956 11.9488 12.2475 11.8884 12.4855 11.7676C12.7235 11.6467 12.9138 11.4849 13.0564 11.2819C13.1989 11.0789 13.2762 10.8651 13.2883 10.6404H12.6541C12.6347 10.8578 12.5357 11.0391 12.3569 11.184C12.1781 11.329 11.9691 11.4015 11.7298 11.4015C11.3843 11.4015 11.1185 11.2795 10.9325 11.0354C10.7464 10.7914 10.6534 10.4435 10.6534 9.99162V9.86477C10.6534 9.40085 10.747 9.04626 10.9343 8.80102C11.1216 8.55577 11.3855 8.43314 11.7262 8.43314C11.9799 8.43314 12.1932 8.51469 12.3659 8.67779C12.5387 8.84088 12.6347 9.04928 12.6541 9.30299H13.2883C13.269 8.88256 13.1137 8.54067 12.8226 8.2773C12.5314 8.01393 12.166 7.88224 11.7262 7.88224C11.3686 7.88224 11.0587 7.96439 10.7966 8.1287C10.5344 8.293 10.3333 8.52375 10.1931 8.82095C10.053 9.11815 9.98291 9.45763 9.98291 9.83939V9.95175C9.98291 10.5703 10.1406 11.0578 10.4559 11.4142C10.7712 11.7706 11.1959 11.9488 11.7298 11.9488ZM16.6906 11.9488C17.0433 11.9488 17.3556 11.8642 17.6275 11.6951C17.8993 11.5259 18.1083 11.2897 18.2545 10.9865C18.4007 10.6833 18.4738 10.3408 18.4738 9.959V9.91188C18.4738 9.29816 18.3089 8.80645 17.979 8.43677C17.6492 8.06708 17.2173 7.88224 16.6833 7.88224C16.3378 7.88224 16.0303 7.9656 15.7609 8.13232C15.4915 8.29904 15.2813 8.53583 15.1303 8.8427C14.9793 9.14956 14.9038 9.49508 14.9038 9.87926V9.92638C14.9038 10.5353 15.0687 11.0246 15.3985 11.3942C15.7283 11.7639 16.159 11.9488 16.6906 11.9488ZM15.8805 11.0064C16.0823 11.2698 16.3523 11.4015 16.6906 11.4015C17.0313 11.4015 17.3019 11.268 17.5024 11.001C17.703 10.734 17.8033 10.3601 17.8033 9.87926C17.8033 9.44917 17.7012 9.10063 17.497 8.83364C17.2928 8.56664 17.0216 8.43314 16.6833 8.43314C16.3523 8.43314 16.0853 8.56483 15.8823 8.8282C15.6794 9.09157 15.5779 9.4685 15.5779 9.959C15.5779 10.3939 15.6788 10.7431 15.8805 11.0064ZM21.0207 11.8763V9.01304C21.1826 8.63852 21.4834 8.45127 21.9231 8.45127C22.4813 8.45127 22.7604 8.73638 22.7604 9.30661V11.8763H23.4345V9.27399C23.4611 9.02271 23.5565 8.82276 23.7208 8.67416C23.8851 8.52557 24.0917 8.45127 24.3406 8.45127C24.6426 8.45127 24.8577 8.52073 24.9857 8.65967C25.1138 8.7986 25.1778 9.00821 25.1778 9.28849V11.8763H25.8483V9.24862C25.8338 8.3377 25.3965 7.88224 24.5363 7.88224C24.2512 7.88224 24.0041 7.94023 23.7951 8.05621C23.5861 8.17219 23.4164 8.32441 23.2859 8.51288C23.0878 8.09246 22.7145 7.88224 22.166 7.88224C21.6779 7.88224 21.2901 8.05138 21.0025 8.38965L20.9844 7.95473H20.3502V11.8763H21.0207ZM28.6272 11.8763V7.95473H27.9567V11.8763H28.6272ZM31.4097 9.0819V11.8763H30.7392V7.95473H31.3734L31.3952 8.44764C31.6948 8.07071 32.0862 7.88224 32.5695 7.88224C33.3982 7.88224 33.8162 8.34978 33.8235 9.28487V11.8763H33.153V9.28124C33.1506 8.99854 33.0859 8.78954 32.9591 8.65423C32.8322 8.51892 32.6347 8.45127 32.3665 8.45127C32.149 8.45127 31.9582 8.50926 31.7938 8.62524C31.6295 8.74121 31.5015 8.89344 31.4097 9.0819ZM37.3635 13.4203C37.8709 13.4203 38.275 13.2741 38.5758 12.9817C38.8766 12.6893 39.027 12.2895 39.027 11.782V7.95473H38.4145L38.3819 8.38965C38.1137 8.05138 37.7404 7.88224 37.262 7.88224C36.7957 7.88224 36.4211 8.06286 36.1384 8.42408C35.8557 8.78531 35.7144 9.27158 35.7144 9.88289C35.7144 10.5208 35.8563 11.0246 36.1402 11.3942C36.4242 11.7639 36.7957 11.9488 37.2547 11.9488C37.7187 11.9488 38.0847 11.7941 38.3529 11.4849V11.8219C38.3529 12.1554 38.2617 12.4139 38.0793 12.5975C37.8969 12.7812 37.6425 12.873 37.3164 12.873C36.9008 12.873 36.5492 12.6954 36.2617 12.3402L35.9137 12.7425C36.0563 12.9527 36.2629 13.1182 36.5335 13.239C36.8041 13.3599 37.0808 13.4203 37.3635 13.4203ZM36.6603 11.001C36.8416 11.2535 37.0953 11.3797 37.4215 11.3797C37.8443 11.3797 38.1548 11.1877 38.3529 10.8035V9.01304C38.1475 8.63852 37.8395 8.45127 37.4287 8.45127C37.1025 8.45127 36.8476 8.57812 36.664 8.83182C36.4803 9.08553 36.3885 9.46125 36.3885 9.959C36.3885 10.4012 36.4791 10.7485 36.6603 11.001ZM45.3966 11.9488C45.8436 11.9488 46.2073 11.8431 46.4876 11.6316C46.7678 11.4202 46.908 11.1393 46.908 10.789C46.908 10.5788 46.8579 10.4006 46.7576 10.2544C46.6573 10.1082 46.5033 9.98316 46.2955 9.87926C46.0877 9.77536 45.8165 9.68596 45.4818 9.61106C45.1472 9.53616 44.9158 9.45763 44.7877 9.37548C44.6597 9.29332 44.5957 9.1713 44.5957 9.00942C44.5957 8.83786 44.6645 8.69893 44.8022 8.59262C44.94 8.4863 45.1308 8.43314 45.3749 8.43314C45.6117 8.43314 45.808 8.49959 45.9638 8.63248C46.1197 8.76538 46.1976 8.92364 46.1976 9.10727H46.8717C46.8717 8.74967 46.7334 8.4561 46.4568 8.22656C46.1801 7.99701 45.8195 7.88224 45.3749 7.88224C44.952 7.88224 44.6047 7.99339 44.3329 8.21568C44.0611 8.43798 43.9251 8.7098 43.9251 9.03116C43.9251 9.22446 43.9729 9.39118 44.0683 9.53132C44.1637 9.67147 44.3111 9.79228 44.5105 9.89376C44.7098 9.99524 44.9792 10.0822 45.3187 10.1547C45.6582 10.2272 45.8962 10.3136 46.0327 10.4139C46.1692 10.5141 46.2375 10.6549 46.2375 10.8361C46.2375 11.0076 46.1608 11.1448 46.0073 11.2475C45.8539 11.3501 45.6503 11.4015 45.3966 11.4015C45.1212 11.4015 44.8995 11.3356 44.7316 11.204C44.5636 11.0723 44.4736 10.8941 44.4616 10.6694H43.791C43.791 10.9013 43.8593 11.117 43.9958 11.3163C44.1323 11.5157 44.3214 11.6709 44.563 11.782C44.8047 11.8932 45.0825 11.9488 45.3966 11.9488ZM51.3667 11.6951C51.0949 11.8642 50.7826 11.9488 50.4299 11.9488C49.8983 11.9488 49.4676 11.7639 49.1378 11.3942C48.808 11.0246 48.643 10.5353 48.643 9.92638V9.87926C48.643 9.49508 48.7186 9.14956 48.8696 8.8427C49.0206 8.53583 49.2308 8.29904 49.5002 8.13232C49.7696 7.9656 50.0771 7.88224 50.4226 7.88224C50.9566 7.88224 51.3885 8.06708 51.7183 8.43677C52.0481 8.80645 52.213 9.29816 52.213 9.91188V9.959C52.213 10.3408 52.1399 10.6833 51.9938 10.9865C51.8476 11.2897 51.6386 11.5259 51.3667 11.6951ZM50.4299 11.4015C50.0916 11.4015 49.8216 11.2698 49.6198 11.0064C49.4181 10.7431 49.3172 10.3939 49.3172 9.959C49.3172 9.4685 49.4187 9.09157 49.6216 8.8282C49.8246 8.56483 50.0916 8.43314 50.4226 8.43314C50.7609 8.43314 51.0321 8.56664 51.2363 8.83364C51.4404 9.10063 51.5425 9.44917 51.5425 9.87926C51.5425 10.3601 51.4423 10.734 51.2417 11.001C51.0412 11.268 50.7705 11.4015 50.4299 11.4015ZM56.6392 11.6951C56.3673 11.8642 56.055 11.9488 55.7023 11.9488C55.1707 11.9488 54.74 11.7639 54.4102 11.3942C54.0804 11.0246 53.9155 10.5353 53.9155 9.92638V9.87926C53.9155 9.49508 53.991 9.14956 54.142 8.8427C54.293 8.53583 54.5032 8.29904 54.7726 8.13232C55.042 7.9656 55.3495 7.88224 55.695 7.88224C56.229 7.88224 56.6609 8.06708 56.9907 8.43677C57.3205 8.80645 57.4855 9.29816 57.4855 9.91188V9.959C57.4855 10.3408 57.4124 10.6833 57.2662 10.9865C57.12 11.2897 56.911 11.5259 56.6392 11.6951ZM55.7023 11.4015C55.364 11.4015 55.094 11.2698 54.8922 11.0064C54.6905 10.7431 54.5896 10.3939 54.5896 9.959C54.5896 9.4685 54.6911 9.09157 54.894 8.8282C55.097 8.56483 55.364 8.43314 55.695 8.43314C56.0333 8.43314 56.3045 8.56664 56.5087 8.83364C56.7129 9.10063 56.8149 9.44917 56.8149 9.87926C56.8149 10.3601 56.7147 10.734 56.5141 11.001C56.3136 11.268 56.043 11.4015 55.7023 11.4015ZM60.036 9.0819V11.8763H59.3655V7.95473H59.9997L60.0215 8.44764C60.3211 8.07071 60.7125 7.88224 61.1958 7.88224C62.0246 7.88224 62.4426 8.34978 62.4498 9.28487V11.8763H61.7793V9.28124C61.7769 8.99854 61.7123 8.78954 61.5854 8.65423C61.4585 8.51892 61.261 8.45127 60.9928 8.45127C60.7754 8.45127 60.5845 8.50926 60.4202 8.62524C60.2559 8.74121 60.1278 8.89344 60.036 9.0819Z" fill="white"/>
</svg>
