<svg width="38" height="14" viewBox="0 0 38 14" fill="none" xmlns="http://www.w3.org/2000/svg">
<path fill-rule="evenodd" clip-rule="evenodd" d="M16.7725 2.15381H14.5032L12.4028 9.91391H15.3009C17.1117 9.91391 18.4515 9.42144 19.3931 8.48445C20.2166 7.67661 20.6776 6.57207 20.6714 5.42127C20.6714 4.48428 20.4059 3.7276 19.8265 3.15098C19.235 2.56212 18.2935 2.15381 16.7725 2.15381ZM18.1126 7.43959C17.4031 8.08557 16.4661 8.42663 15.5053 8.38857V8.37633H14.5396L15.8072 3.69141H16.64C17.5211 3.69141 18.0885 3.90767 18.4385 4.25604C18.7527 4.59015 18.9181 5.03632 18.8973 5.49345C18.9085 6.22064 18.6258 6.92185 18.1126 7.43959Z" fill="#1D1D1B"/>
<path d="M22.1445 5.42194H21.4315L21.8177 3.9805H22.5179L22.5904 3.6561C22.9405 2.33502 23.7613 1.74617 25.0047 1.74617C25.3976 1.73927 25.789 1.79604 26.1636 1.91424L25.8014 3.3087C25.5656 3.21928 25.3162 3.17055 25.064 3.16461C24.6601 3.13597 24.3001 3.4164 24.2311 3.81341L24.1819 3.98148H25.6183L25.2321 5.42292H23.8309L22.5997 9.92779H20.9131L22.1445 5.42194Z" fill="#1D1D1B"/>
<path d="M24.5225 11.3198L25.4279 10.0946C25.6176 10.2335 25.8445 10.3129 26.0798 10.3229C26.3465 10.3284 26.5955 10.1907 26.7318 9.96252L25.9943 3.96875H27.7205L27.998 8.00537L30.2442 3.96802H32.067L28.3611 10.0596C27.5764 11.2728 26.9127 11.7293 25.8986 11.7293C25.4058 11.7579 24.9186 11.6129 24.5225 11.3198Z" fill="#1D1D1B"/>
<path d="M32.8396 3.97996H34.5294L34.4208 4.36429C34.8433 3.99195 35.3141 3.87183 35.9899 3.87183C37.0642 3.87183 37.7523 4.52062 37.7523 5.6017C37.7336 5.98543 37.6646 6.36507 37.547 6.73098L36.69 9.92627H35.0002L35.8815 6.65881C35.9277 6.48628 35.9521 6.30868 35.954 6.13013C35.954 5.64965 35.6521 5.3962 35.1332 5.3962C34.4694 5.3962 34.0348 5.87668 33.8416 6.58541L32.9362 9.92505H31.2461L32.8396 3.97996Z" fill="#1D1D1B"/>
<path d="M4.32734 8.59284L4.53261 7.78796C4.53261 7.76349 4.52056 7.73903 4.49647 7.73903H0.609379C0.584796 7.73903 0.573242 7.71456 0.573242 7.6901L2.57702 0.277394C2.57702 0.265407 2.6016 0.25293 2.61315 0.25293H4.77377C6.23425 0.25293 7.1517 0.649253 7.71908 1.21389C8.28263 1.79968 8.57944 2.59025 8.53991 3.40027C8.54136 3.84956 8.46793 4.29597 8.32259 4.72135C8.20363 5.08635 8.02857 5.43082 7.80364 5.74249C7.7916 5.76695 7.80364 5.80267 7.82823 5.80267H10.7015C10.7166 5.80101 10.7309 5.80953 10.7367 5.82352C10.7424 5.83751 10.7381 5.85357 10.7261 5.86286L3.20364 13.1938C3.19172 13.205 3.17381 13.2069 3.15977 13.1986C3.14572 13.1902 3.13895 13.1736 3.14317 13.1579L4.32734 8.59284Z" fill="url(#paint0_radial)"/>
<defs>
<radialGradient id="paint0_radial" cx="0" cy="0" r="1" gradientUnits="userSpaceOnUse" gradientTransform="translate(1.28404 8.70981) scale(10.475 13.3445)">
<stop stop-color="#41BEF0"/>
<stop offset="0.469" stop-color="#828CBE"/>
<stop offset="0.54" stop-color="#8F80AE"/>
<stop offset="0.794" stop-color="#BC5A79"/>
<stop offset="0.917" stop-color="#CD4B64"/>
</radialGradient>
</defs>
</svg>
