<svg width="64" height="17" viewBox="0 0 64 17" fill="none" xmlns="http://www.w3.org/2000/svg">
<path fill-rule="evenodd" clip-rule="evenodd" d="M21.0257 11.3262L20.8898 11.2415C21.2726 11.1491 21.5572 11.0516 21.7436 10.9489C21.9299 10.8463 22.139 10.6743 22.3707 10.433C22.6427 10.1507 22.8391 9.85291 22.96 9.53978C23.0809 9.22665 23.1414 8.86479 23.1414 8.45407C23.1414 7.60709 22.8819 6.92435 22.3631 6.40588C21.8443 5.88741 21.1643 5.62817 20.3231 5.62817C19.5222 5.62817 18.8447 5.90795 18.2906 6.46748C17.7365 7.02703 17.4595 7.70461 17.4595 8.50028C17.4595 9.33701 17.7944 10.0454 18.4644 10.6255C18.7011 10.836 18.9051 10.9822 19.0764 11.0644C19.2527 11.1466 19.5096 11.2159 19.8471 11.2723C20.2299 11.5957 20.5044 11.819 20.6707 11.9422C20.8419 12.0654 21.0157 12.1655 21.192 12.2425C21.4136 12.3298 21.6529 12.3734 21.9098 12.3734C22.1264 12.3734 22.3102 12.3452 22.4614 12.2887C22.6175 12.2323 22.8316 12.1193 23.1036 11.9499L23.0205 11.7728C22.8744 11.855 22.7636 11.9063 22.688 11.9268C22.6175 11.9473 22.5168 11.9576 22.3858 11.9576C22.0684 11.9576 21.7562 11.8472 21.4489 11.6265L21.0257 11.3262ZM18.336 8.46171L18.3284 8.25378C18.3284 7.50431 18.4971 6.92681 18.8347 6.52128C19.1721 6.1106 19.6506 5.90527 20.2702 5.90527C20.8747 5.90527 21.3557 6.14398 21.7134 6.62138C22.071 7.09876 22.2498 7.73787 22.2498 8.5387C22.2498 9.33438 22.0861 9.94012 21.7587 10.3559C21.4313 10.7717 20.9553 10.9796 20.3307 10.9796C19.7363 10.9796 19.2552 10.7537 18.8875 10.302C18.5198 9.85029 18.336 9.2368 18.336 8.46171Z" fill="url(#paint0_linear)"/>
<path d="M23.4121 5.85142V5.62817H25.4659V5.86682C25.1869 5.86682 25.0095 5.91558 24.9334 6.01309C24.8573 6.11061 24.8193 6.33129 24.8193 6.67515V9.16174C24.8193 9.73142 24.9435 10.1753 25.192 10.4936C25.4405 10.8117 25.7929 10.9708 26.2493 10.9708C26.7006 10.9708 27.053 10.8117 27.3066 10.4936C27.5601 10.1753 27.6869 9.73142 27.6869 9.16174V6.67515C27.6869 6.33129 27.6488 6.11061 27.5728 6.01309C27.4967 5.91558 27.3192 5.86682 27.0403 5.86682V5.62817H29.094V5.85912C28.952 5.87965 28.8532 5.89762 28.7974 5.91301C28.7467 5.92841 28.6985 5.94894 28.6529 5.9746C28.5109 6.06698 28.4399 6.29793 28.4399 6.66745V9.21562C28.4399 9.83149 28.2371 10.3319 27.8314 10.7168C27.4257 11.1018 26.8984 11.2942 26.2493 11.2942C25.6002 11.2942 25.0754 11.1018 24.6748 10.7168C24.2742 10.3319 24.0738 9.83149 24.0738 9.21562V6.66745C24.0738 6.39031 24.0384 6.20042 23.9674 6.09777C23.9015 5.98999 23.7671 5.91558 23.5643 5.87452L23.4121 5.85142Z" fill="url(#paint1_linear)"/>
<path d="M29.6353 5.58629V5.3584H31.7257V5.58629L31.594 5.60201C31.5008 5.61773 31.4129 5.64392 31.3307 5.6806C31.2045 5.76442 31.1414 5.96874 31.1414 6.29356V9.90061C31.1414 10.2673 31.1743 10.4952 31.2402 10.5843C31.306 10.6733 31.4925 10.7389 31.7998 10.7808V11.0244H29.6517V10.7886C29.937 10.7624 30.1154 10.71 30.1867 10.6314C30.2854 10.5267 30.3348 10.2857 30.3348 9.90845V6.23069C30.3348 5.98446 30.258 5.80895 30.1044 5.70417C30.0714 5.68845 30.0303 5.67273 29.9809 5.65702C29.937 5.63607 29.8218 5.61249 29.6353 5.58629Z" fill="url(#paint2_linear)"/>
<path d="M36.7291 5.3584H36.9405V6.7674H36.7215C36.6863 6.59253 36.646 6.46512 36.6007 6.38517C36.5554 6.30023 36.4799 6.21779 36.3742 6.13785C36.2333 6.01793 36.0521 5.9255 35.8306 5.86055C35.6141 5.79559 35.38 5.76311 35.1283 5.76311C34.4488 5.76311 33.9152 5.98796 33.5276 6.43763C33.14 6.88729 32.9462 7.50439 32.9462 8.28883C32.9462 9.03829 33.1324 9.62788 33.5049 10.0575C33.8825 10.4822 34.401 10.6946 35.0604 10.6946C35.5487 10.6946 35.9489 10.5847 36.261 10.3648C36.4875 10.2099 36.641 9.97763 36.7215 9.66783H36.9255V11.0169H36.6989C36.6586 10.832 36.5881 10.7396 36.4875 10.7396C36.4321 10.7396 36.344 10.7571 36.2232 10.792C35.9514 10.877 35.7148 10.937 35.5134 10.9719C35.3171 11.0069 35.1007 11.0244 34.8641 11.0244C34.0536 11.0244 33.3841 10.7646 32.8556 10.2449C32.3321 9.72028 32.0703 9.05826 32.0703 8.25887C32.0703 7.41946 32.3396 6.73992 32.8782 6.22029C33.4168 5.70066 34.1191 5.44084 34.9849 5.44084C35.3272 5.44084 35.7073 5.49081 36.1251 5.59073C36.1754 5.61072 36.2308 5.62571 36.2911 5.6357C36.3516 5.6457 36.3994 5.65069 36.4346 5.65069C36.6007 5.65069 36.6989 5.55326 36.7291 5.3584Z" fill="url(#paint3_linear)"/>
<path fill-rule="evenodd" clip-rule="evenodd" d="M40.7961 6.2302L39.0466 7.97482L40.9967 10.018C41.2215 10.2695 41.3338 10.4397 41.3338 10.5288C41.3338 10.6597 41.176 10.7489 40.8603 10.796V11.0239H43.1635V10.7724C42.9977 10.7305 42.8613 10.6755 42.7543 10.6074C42.6901 10.5655 42.6018 10.5 42.4894 10.4109C42.3183 10.2695 42.1631 10.1227 42.024 9.97086L39.8572 7.69186L41.5184 6.0416C41.6789 5.88443 41.8153 5.77964 41.9277 5.72725C42.0401 5.67487 42.2246 5.62771 42.4814 5.5858V5.35791H40.6918V5.57795C40.9753 5.57795 41.1171 5.64081 41.1171 5.76655C41.1171 5.86085 41.0101 6.0154 40.7961 6.2302ZM37.4814 10.7882V11.024H39.6563V10.7961L39.4155 10.7411C39.2764 10.7201 39.1721 10.6809 39.1026 10.6232C39.0384 10.5603 39.0009 10.4739 38.9902 10.3639L38.9822 9.93956V6.43464C38.9822 6.11507 39.0116 5.9055 39.0705 5.80596C39.1293 5.70643 39.2577 5.64094 39.4557 5.6095L39.6563 5.58593V5.35803H37.5457V5.58593C37.658 5.60689 37.757 5.62784 37.8426 5.6488C37.9335 5.66975 38.0058 5.70643 38.0593 5.75882C38.1182 5.81121 38.1556 5.88193 38.1716 5.97099C38.1877 6.05482 38.1957 6.21199 38.1957 6.4425V9.8295C38.1957 10.2172 38.1556 10.4635 38.0753 10.5682C38.0004 10.6678 37.8025 10.7411 37.4814 10.7882Z" fill="url(#paint4_linear)"/>
<path d="M42.8926 11.0244V9.82683H43.126C43.4425 10.3907 43.8887 10.6726 44.4645 10.6726C44.8173 10.6726 45.0974 10.5828 45.305 10.4032C45.5176 10.2185 45.624 9.97901 45.624 9.68461C45.624 9.43512 45.554 9.24548 45.4139 9.11575C45.2738 8.98602 44.9237 8.78641 44.3633 8.51697C44.0987 8.39225 43.8705 8.26748 43.6786 8.14276C43.4866 8.01799 43.3362 7.85332 43.2272 7.64875C43.1182 7.44417 43.0638 7.21714 43.0638 6.96765C43.0638 6.51355 43.2298 6.1468 43.5618 5.86737C43.8939 5.58793 44.3348 5.44822 44.8847 5.44822C45.1234 5.44822 45.3438 5.47317 45.5462 5.52307C45.6448 5.54801 45.72 5.56049 45.7719 5.56049C45.9171 5.56049 46.0183 5.49313 46.0754 5.3584H46.2699V6.50357H46.0364C45.8185 6.01956 45.4502 5.77755 44.9314 5.77755C44.5942 5.77755 44.3192 5.86986 44.1066 6.05449C43.899 6.23412 43.7953 6.46864 43.7953 6.75805C43.7953 6.95266 43.842 7.11232 43.9354 7.23709C44.008 7.3369 44.1143 7.4342 44.2544 7.52899C44.3997 7.61882 44.6383 7.73858 44.9703 7.88826C45.3076 8.03794 45.5617 8.17269 45.7329 8.29245C45.9041 8.40719 46.0468 8.53943 46.1609 8.68911C46.327 8.91369 46.4099 9.17566 46.4099 9.47502C46.4099 9.9341 46.231 10.3084 45.873 10.5977C45.5203 10.8822 45.0611 11.0244 44.4956 11.0244C44.2311 11.0244 43.9405 10.9844 43.624 10.9046L43.4217 10.8447L43.3206 10.8298C43.2272 10.8298 43.1468 10.8947 43.0794 11.0244H42.8926Z" fill="url(#paint5_linear)"/>
<path d="M46.4106 5.85633V5.62817H48.2591V5.84873L48.1364 5.86394C47.937 5.89436 47.8373 5.96788 47.8373 6.08449C47.8373 6.20111 47.8833 6.38871 47.9754 6.64729L49.1029 9.82635L50.1766 6.86024L50.0693 6.57124C49.9977 6.35322 49.9338 6.20364 49.8775 6.12252C49.8264 6.0414 49.7548 5.97802 49.6627 5.93238C49.6065 5.90703 49.563 5.89182 49.5324 5.88676C49.5068 5.87661 49.4326 5.86647 49.3099 5.85633V5.62817H51.1891V5.85633L51.051 5.86394C50.8516 5.86394 50.7519 5.93492 50.7519 6.07689C50.7519 6.1428 50.7596 6.21379 50.7749 6.28984C50.7954 6.36589 50.8286 6.4673 50.8746 6.59405L52.0174 9.87199L53.0913 6.75377C53.1986 6.44955 53.2524 6.2442 53.2524 6.13773C53.2524 6.02111 53.2191 5.94506 53.1526 5.90957C53.0913 5.86901 52.9609 5.84873 52.7615 5.84873V5.62817H54.2571V5.86394C54.1446 5.86394 54.0602 5.87661 54.004 5.90197C53.9477 5.92225 53.8941 5.96027 53.843 6.01605C53.7509 6.10224 53.6205 6.37096 53.4518 6.82222L51.8947 11.2866L51.749 11.2942L50.3607 7.3698L48.9648 11.2866L48.8267 11.2789L47.1776 6.6549C47.1009 6.44195 47.037 6.28984 46.9859 6.19858C46.9348 6.10224 46.8709 6.02872 46.7942 5.97802C46.7584 5.95774 46.7123 5.93999 46.6561 5.92478C46.605 5.9045 46.5231 5.88168 46.4106 5.85633Z" fill="url(#paint6_linear)"/>
<path fill-rule="evenodd" clip-rule="evenodd" d="M53.4453 10.7999V11.0244H54.9509V10.8076C54.7844 10.7767 54.6709 10.7406 54.6104 10.6993C54.555 10.658 54.5272 10.5935 54.5272 10.5058C54.5272 10.4387 54.565 10.3123 54.6407 10.1265L55.0644 9.06607H57.1147L57.546 10.0491C57.6216 10.2142 57.6595 10.3613 57.6595 10.4903C57.6595 10.5883 57.6292 10.658 57.5687 10.6993C57.5132 10.7406 57.4048 10.7715 57.2433 10.7921V11.0244H59.1272V10.7999C58.9961 10.7638 58.9028 10.7328 58.8473 10.707C58.7918 10.6812 58.754 10.6632 58.7338 10.6529C58.6027 10.5755 58.4791 10.4026 58.3631 10.1342L56.3127 5.3584L56.2295 5.38162L54.2624 9.99489C54.217 10.1084 54.1565 10.2297 54.0808 10.3587C54.0102 10.4877 53.9522 10.5755 53.9068 10.6218C53.8312 10.6941 53.6773 10.7535 53.4453 10.7999ZM55.2155 8.72519L56.0477 6.6585L56.9556 8.72519H55.2155Z" fill="url(#paint7_linear)"/>
<path fill-rule="evenodd" clip-rule="evenodd" d="M59.3975 10.7889V11.0244H61.258V10.7733C61.0041 10.7418 60.8444 10.6817 60.7797 10.5927C60.7199 10.5038 60.69 10.2946 60.69 9.96491V8.36405C60.8494 8.38496 60.9662 8.39805 61.0414 8.40325C61.1211 8.40851 61.2079 8.41114 61.3028 8.41114C61.9055 8.41114 62.3684 8.27512 62.6922 8.00302C63.0212 7.73098 63.1854 7.34383 63.1854 6.84158C63.1854 6.25564 62.9589 5.83972 62.5059 5.59383C62.3713 5.51535 62.2491 5.46042 62.1396 5.42903C62.0348 5.39241 61.9253 5.3741 61.8106 5.3741L61.0338 5.3584H59.4049V5.58598C59.6639 5.64353 59.8183 5.71154 59.8681 5.79002C59.918 5.86849 59.9428 6.0673 59.9428 6.38643V9.83935C59.9428 10.1847 59.9055 10.4227 59.8308 10.5535C59.756 10.6791 59.6116 10.7576 59.3975 10.7889ZM60.6899 7.98713V5.67207H60.9289C61.9002 5.67207 62.3858 6.09323 62.3858 6.93554C62.3858 7.27559 62.2787 7.54763 62.065 7.75166C61.8554 7.95049 61.5665 8.04988 61.1979 8.04988C61.1281 8.04988 61.0559 8.04468 60.9813 8.03422C60.9068 8.02376 60.8095 8.00804 60.6899 7.98713Z" fill="url(#paint8_linear)"/>
<path fill-rule="evenodd" clip-rule="evenodd" d="M10.5461 2.78823C10.5488 2.79251 10.5524 2.79623 10.5561 2.79957C10.5389 2.85128 10.5046 2.89111 10.4704 2.93082L10.4704 2.93084C10.4567 2.94668 10.4431 2.9625 10.4306 2.97905C9.94131 3.62532 9.33703 4.12337 8.5826 4.42558C8.54015 4.4425 8.52261 4.46742 8.50967 4.50927C8.41059 4.82841 8.25929 5.11704 8.0155 5.35026L8.00898 5.35613C7.99756 5.36614 7.98556 5.37666 7.98802 5.39564C7.98984 5.39625 7.99173 5.39717 7.99361 5.39809C7.99743 5.39994 8.00121 5.40178 8.0043 5.40103C8.01903 5.39731 8.03328 5.39174 8.04747 5.38597C8.49028 5.20985 8.91147 4.99243 9.30506 4.72128C9.33441 4.70109 9.3626 4.67915 9.39079 4.65721C9.4449 4.61509 9.49904 4.57295 9.56143 4.54311C9.61345 4.55002 9.66554 4.55644 9.71763 4.56287C9.8296 4.57667 9.94157 4.59048 10.0528 4.60913C10.8175 4.73784 11.5398 4.99095 12.2268 5.35361C12.9777 5.75011 13.643 6.25783 14.2232 6.87865C14.2398 6.89637 14.2578 6.91329 14.2761 6.93033C14.3308 6.98156 14.3867 7.03388 14.4068 7.11258C14.3757 7.12495 14.3586 7.10615 14.3424 7.08823C14.3369 7.08213 14.3314 7.07612 14.3256 7.07149C13.9224 6.75254 13.5005 6.46166 13.0525 6.21003C12.8831 6.115 12.7125 6.02183 12.5147 5.932L12.7532 6.34543C11.9266 5.93665 11.0626 5.70883 10.1497 5.68855L10.1586 5.69334C10.1669 5.69791 10.1764 5.70313 10.1865 5.70678C10.1951 5.70981 10.2042 5.7108 10.2133 5.7118L10.2228 5.71292C10.8869 5.80703 11.5084 6.02461 12.092 6.35789C12.1802 6.40827 12.2647 6.46435 12.3491 6.52042L12.3492 6.52042L12.3492 6.52043C12.4331 6.57613 12.517 6.63181 12.6044 6.68186C12.6063 6.68421 12.608 6.68672 12.6096 6.68924C12.6131 6.6945 12.6166 6.69973 12.6215 6.70325C13.0445 7.00656 13.4042 7.37632 13.7124 7.79422C14.3106 8.60602 14.6605 9.51598 14.7452 10.5262C14.7493 10.5748 14.7542 10.6232 14.7592 10.673L14.767 10.752C14.7736 10.7486 14.7789 10.7463 14.783 10.7446C14.7896 10.7417 14.7932 10.7401 14.7942 10.7377C14.8015 10.7176 14.8078 10.697 14.813 10.6761C14.9705 10.0427 15.0378 9.40013 15.0223 8.74697C15.0032 7.94615 14.857 7.17117 14.5817 6.42019C14.2593 5.54052 13.7823 4.75476 13.1566 4.06255C12.8548 3.72872 12.526 3.42205 12.1648 3.15238C11.7926 2.87452 11.4029 2.62643 10.9827 2.42837C10.994 2.37956 11.0056 2.33082 11.0172 2.28209L11.0173 2.28185L11.0173 2.28178C11.0428 2.17484 11.0683 2.06795 11.0907 1.96044C11.1718 1.56933 11.203 1.17245 11.2076 0.771484C11.0952 1.16409 10.9535 1.54497 10.7624 1.90632C10.5695 2.27084 10.3356 2.60653 10.0528 2.93478L10.5461 2.78823ZM6.46819 5.52924C6.34344 5.54301 6.21828 5.55472 6.09246 5.54319C6.05075 5.44741 6.0871 5.28673 6.17476 5.18406C6.2576 5.08717 6.35652 5.01185 6.47053 4.9542C6.70607 4.83536 6.95292 4.74609 7.20096 4.65886C7.25684 4.62564 7.31605 4.59895 7.37528 4.57226L7.37528 4.57225C7.452 4.53767 7.52874 4.50309 7.59827 4.45428C7.64072 4.42453 7.68442 4.39607 7.72801 4.36781C7.7326 4.36487 7.73711 4.36075 7.74168 4.35659L7.74168 4.35659C7.75415 4.34523 7.76697 4.33354 7.78261 4.34456C7.8053 4.36055 7.79578 4.39031 7.78818 4.413C7.76567 4.47995 7.74298 4.54728 7.71657 4.61274C7.48847 5.17812 7.05799 5.46396 6.46819 5.52924ZM3.22124 7.28492C3.22427 7.27624 3.22704 7.26831 3.22737 7.26C3.25247 7.04984 3.48462 6.75453 3.69204 6.72571C3.78726 6.71231 3.86624 6.76792 3.88193 6.86629C3.89743 6.96373 3.87067 7.05491 3.83893 7.14511L3.83515 7.15773C3.82786 7.1827 3.82007 7.20941 3.79058 7.23972C3.80369 7.178 3.7749 7.14566 3.7402 7.1185C3.70108 7.08779 3.65495 7.08743 3.60936 7.09636C3.48924 7.11977 3.38792 7.17932 3.30451 7.26856C3.28694 7.2874 3.2715 7.30827 3.2534 7.33273L3.2534 7.33274L3.25339 7.33275C3.2443 7.34504 3.23454 7.35823 3.2235 7.37253C3.20567 7.32955 3.21417 7.30519 3.22124 7.28492ZM0.860988 10.5141C0.734028 9.99908 0.688083 9.47299 0.68457 8.94298C0.687982 8.87815 0.69085 8.8133 0.693718 8.74846C0.69985 8.60979 0.70598 8.47118 0.717419 8.33296C0.828512 6.99224 1.27767 5.77762 2.05882 4.68686C2.31607 4.32755 2.60265 3.99371 2.92246 3.69039C3.61983 3.02886 4.41278 2.51853 5.30963 2.17523C5.94112 1.93345 6.59329 1.78207 7.26668 1.72701C8.28054 1.64407 9.26817 1.77221 10.2294 2.10771L10.329 2.14286C9.84144 2.75361 9.26386 3.25427 8.60642 3.67923C8.5848 3.46628 8.54128 3.26282 8.45746 3.07089C8.4321 3.01271 8.40152 2.95691 8.37097 2.90118C8.36149 2.88387 8.352 2.86657 8.34268 2.84921C8.3246 2.81536 8.30227 2.79825 8.2788 2.84568C8.04225 3.32438 7.61836 3.59461 7.17939 3.84717C6.83339 4.0463 6.46413 4.19285 6.09468 4.33949C6.05665 4.35458 6.01862 4.36967 5.98061 4.38483C5.69937 4.49697 5.47941 4.68481 5.36777 4.97567C5.21165 5.3826 5.4115 5.73931 5.83666 5.82542L5.8876 5.83564C5.67778 5.88493 5.48716 5.89106 5.31794 5.76218C5.26468 5.72161 5.24027 5.74937 5.21448 5.77872C5.20988 5.78394 5.20524 5.78922 5.20039 5.79417C4.97747 6.02162 4.73775 6.22676 4.44895 6.36642C4.34026 6.41886 4.22769 6.45867 4.10755 6.47262C3.8588 6.50144 3.7132 6.36382 3.72575 6.11145C3.73018 6.02459 3.75232 5.94109 3.78018 5.85907C3.78118 5.85617 3.78233 5.85314 3.78351 5.85003C3.79125 5.82965 3.80025 5.80594 3.77687 5.79287C3.75583 5.78096 3.73091 5.79398 3.70969 5.81016C3.28895 6.13246 2.92744 6.50386 2.72076 7.00599C2.56003 7.39656 2.54195 7.8018 2.59896 8.21391C2.61088 8.30015 2.62764 8.38569 2.64441 8.47122C2.65672 8.53404 2.66903 8.59685 2.67942 8.65993C2.69068 8.72757 2.71412 8.72667 2.7608 8.68907C2.79153 8.66442 2.82147 8.63875 2.85139 8.6131C2.92121 8.55324 2.991 8.4934 3.07083 8.44639C3.08 8.41559 3.10433 8.40024 3.1284 8.38504C3.13531 8.38068 3.1422 8.37633 3.1487 8.37163C3.88703 7.84216 4.70712 7.52991 5.60711 7.42257C6.42114 7.32548 7.22315 7.39988 8.0192 7.57511C8.11289 7.59564 8.20554 7.621 8.30023 7.64692C8.34357 7.65878 8.38734 7.67076 8.43183 7.68245C8.33011 7.44471 7.91676 6.95857 7.19472 6.5803C7.22506 6.5803 7.25544 6.58039 7.28582 6.58048C7.35278 6.58068 7.4198 6.58087 7.48677 6.58011C9.14124 6.56077 10.5758 7.0886 11.7127 8.32976C12.4182 9.09998 12.8561 10.0112 13.0146 11.0483C13.1947 12.2264 12.9893 13.3257 12.2794 14.2993C11.7683 15.0001 11.074 15.458 10.2726 15.7568C9.61375 16.0025 8.92894 16.1105 8.22869 16.1418C7.30757 16.1829 6.4041 16.0806 5.53937 15.7586C3.07027 14.8396 1.49819 13.0966 0.860988 10.5141Z" fill="#FEFEFE"/>
<path d="M3.08115 8.27921C3.09319 8.2401 3.13007 8.22599 3.15937 8.20539C3.90095 7.68304 4.72464 7.37494 5.62859 7.26903C6.44615 7.17324 7.25164 7.24665 8.05125 7.41948C8.18848 7.44918 8.32336 7.48866 8.4657 7.52533C8.36377 7.29088 7.94842 6.81139 7.22314 6.43794C7.32104 6.43794 7.41887 6.43886 7.51653 6.43775C9.17818 6.41886 10.6192 6.93945 11.7611 8.16413C12.4696 8.92421 12.9095 9.82336 13.0687 10.8463C13.2496 12.0086 13.0433 13.0935 12.3303 14.0541C11.8171 14.7455 11.1196 15.1974 10.3146 15.4922C9.65288 15.7346 8.96488 15.8412 8.26166 15.8721C7.33661 15.9126 6.42912 15.8117 5.56057 15.494C3.08059 14.5872 1.50159 12.8674 0.861579 10.3193C0.734246 9.8114 0.688098 9.29226 0.68457 8.7693C0.767799 8.85497 0.793006 8.97077 0.841197 9.07352C1.25693 9.96244 1.79926 10.7586 2.57755 11.3778C3.53061 12.136 4.61583 12.4696 5.83822 12.3477C6.41208 12.2905 6.95181 12.1251 7.45556 11.8488C7.87025 11.6214 8.23075 11.3308 8.50707 10.9443C8.72801 10.6357 8.86536 10.2953 8.86944 9.916C8.87389 9.51872 8.73155 9.16604 8.48572 8.85212C8.37051 8.70495 8.23815 8.58743 8.06033 8.51366C7.51437 8.28654 6.94435 8.17533 6.35572 8.15116C6.10012 8.14062 5.84415 8.148 5.59097 8.18813C5.35019 8.22635 5.11147 8.27677 4.90239 8.41043C4.64809 8.57278 4.61195 8.79205 4.79581 9.03132C4.83159 9.07781 4.86977 9.12234 4.91926 9.18289C4.47812 9.13889 4.07184 9.05287 3.7004 8.8436C3.44999 8.7031 3.23888 8.51973 3.08115 8.27921Z" fill="#262F71"/>
<path d="M3.09438 8.26249C3.25298 8.50408 3.46545 8.68822 3.71724 8.82973C4.09073 9.03963 4.49925 9.1262 4.94282 9.17044C4.89307 9.10964 4.85449 9.06486 4.8187 9.01829C4.63382 8.77789 4.67016 8.55771 4.92587 8.39468C5.1361 8.26076 5.37634 8.21 5.61824 8.1715C5.87283 8.13115 6.13021 8.12356 6.3872 8.13432C6.97934 8.15859 7.55226 8.2705 8.1013 8.4984C8.27986 8.57271 8.41307 8.69043 8.52904 8.83822C8.77617 9.15334 8.9193 9.50744 8.91482 9.90656C8.91059 10.2873 8.77242 10.6291 8.55045 10.9392C8.2726 11.3271 7.90992 11.6191 7.49319 11.8475C6.9866 12.125 6.44388 12.2912 5.86687 12.3486C4.63773 12.4709 3.54652 12.1359 2.58819 11.3744C1.80542 10.7526 1.26009 9.95301 0.842062 9.06043C0.793605 8.95707 0.768438 8.84079 0.68457 8.75494C0.695384 8.55334 0.700791 8.35133 0.717745 8.15034C0.829944 6.82211 1.28357 5.61844 2.07249 4.53771C2.3323 4.1817 2.62173 3.85093 2.94472 3.55039C3.64903 2.89494 4.44987 2.38931 5.35565 2.04914C5.99342 1.80959 6.65224 1.65978 7.3321 1.60506C8.35611 1.52287 9.35357 1.64983 10.3244 1.98226C10.3536 1.99221 10.3829 2.00252 10.425 2.01708C9.93254 2.62222 9.34922 3.11828 8.68523 3.53933C8.6634 3.32834 8.61956 3.12693 8.53479 2.93659C8.50123 2.86122 8.4586 2.78954 8.41887 2.71693C8.40061 2.6834 8.37806 2.66645 8.35436 2.71344C8.11545 3.18775 7.68735 3.45549 7.244 3.70573C6.85859 3.92335 6.44461 4.07758 6.0333 4.23845C5.74926 4.34957 5.52711 4.53568 5.41435 4.82388C5.2565 5.22724 5.45852 5.58067 5.88792 5.6658C5.90004 5.6682 5.91197 5.6706 5.93937 5.67594C5.72746 5.72459 5.53494 5.73067 5.36403 5.60315C5.30066 5.55598 5.27793 5.60242 5.24531 5.63485C5.02018 5.86021 4.77807 6.06346 4.4864 6.20184C4.37681 6.25381 4.26294 6.29325 4.14161 6.30706C3.89038 6.33563 3.74334 6.19927 3.75601 5.94921C3.76048 5.86317 3.78266 5.78042 3.81098 5.69916C3.81862 5.67722 3.83484 5.64848 3.80763 5.63356C3.78619 5.62176 3.76122 5.63466 3.73979 5.65069C3.31486 5.97004 2.94975 6.33783 2.74102 6.83556C2.57868 7.22255 2.56042 7.62406 2.61801 8.03238C2.63889 8.18053 2.67448 8.3267 2.69926 8.47425C2.71045 8.54133 2.73431 8.54043 2.78146 8.50319C2.88453 8.42176 2.9792 8.32903 3.09438 8.26249Z" fill="#418AC9"/>
<path d="M10.8214 2.39014C11.2584 2.58275 11.6638 2.82401 12.051 3.0942C12.4265 3.35644 12.7686 3.65467 13.0824 3.9793C13.7333 4.65243 14.2295 5.41654 14.5648 6.27198C14.8512 7.00228 15.0032 7.75586 15.0229 8.53467C15.039 9.16978 14.9692 9.79468 14.8053 10.4107C14.7999 10.4309 14.7932 10.4508 14.7857 10.4705C14.7841 10.4745 14.7753 10.476 14.7575 10.4844C14.7496 10.4084 14.7414 10.3367 14.7348 10.2649C14.6465 9.28232 14.2828 8.39737 13.6606 7.60811C13.34 7.20161 12.9659 6.84221 12.526 6.54724C12.5185 6.54218 12.514 6.5335 12.5082 6.52645C12.9177 6.56045 13.3179 6.63894 13.7112 6.75091C13.977 6.82649 14.2279 6.93533 14.4734 7.05615C14.4798 7.06301 14.4865 7.07082 14.4949 7.05908C14.4956 7.05797 14.4874 7.0511 14.4832 7.04694C14.4632 7.02704 14.4432 7.00715 14.4235 6.98726C14.4114 6.97083 14.4121 6.94384 14.3823 6.94167L14.383 6.94531C14.3551 6.84333 14.2613 6.78688 14.192 6.71776C13.5886 6.11428 12.8964 5.62037 12.1156 5.23479C11.4011 4.88212 10.6498 4.63598 9.85439 4.51083C9.68489 4.48425 9.51376 4.46779 9.34326 4.44663C9.56844 4.26903 9.78359 4.0813 9.97458 3.87079C10.3698 3.43475 10.6439 2.93686 10.8214 2.39014Z" fill="#418AC9"/>
<path d="M11.0097 2.41311C10.8376 2.97015 10.5718 3.47744 10.1887 3.92134C10.0035 4.13582 9.79507 4.32709 9.57663 4.50804C9.48082 4.55301 9.40451 4.62598 9.31817 4.68457C8.92122 4.95305 8.49661 5.16864 8.04996 5.34314C8.03565 5.34867 8.02129 5.3542 8.00649 5.35807C8.00178 5.35917 7.99551 5.35475 7.99007 5.35272C7.98711 5.33042 8.00492 5.31993 8.01778 5.30777C8.26363 5.07669 8.41625 4.79071 8.51611 4.47451C8.52915 4.43323 8.54702 4.40854 8.58964 4.39159C9.35035 4.09215 9.95983 3.59869 10.4531 2.95836C10.4974 2.90087 10.5553 2.85222 10.5796 2.78054C10.5841 2.77741 10.5887 2.77409 10.5932 2.77096C10.5852 2.77041 10.5774 2.76986 10.5695 2.7693C10.4111 2.81555 10.2527 2.86181 10.0716 2.91469C10.3567 2.58965 10.5927 2.25686 10.7871 1.8957C10.9803 1.53785 11.123 1.16047 11.2365 0.771484C11.2318 1.16876 11.2006 1.56199 11.1186 1.9495C11.0858 2.10484 11.0462 2.2587 11.0097 2.41311Z" fill="#262F71"/>
<path d="M14.4745 6.97722C14.2398 6.86809 14.0001 6.77007 13.746 6.70185C13.37 6.60089 12.9873 6.53009 12.5957 6.49942C12.4213 6.41134 12.2612 6.30351 12.0862 6.21526C11.506 5.92294 10.8879 5.73209 10.2275 5.64954C10.2153 5.64807 10.2027 5.64759 10.1915 5.64416C10.1777 5.63976 10.1649 5.63274 10.1548 5.62817C11.0625 5.64596 11.9218 5.84579 12.7437 6.20433C12.6684 6.08933 12.5934 5.97449 12.5066 5.8417C12.7034 5.92049 12.8729 6.00206 13.0413 6.08558C13.4869 6.30629 13.9062 6.56142 14.3073 6.84115C14.3303 6.85719 14.3466 6.89159 14.3881 6.87725L14.3873 6.87396C14.3688 6.91165 14.4128 6.90186 14.4268 6.91509C14.4459 6.93303 14.465 6.95097 14.4839 6.96891C14.4808 6.9715 14.4777 6.97431 14.4745 6.97722Z" fill="#262F71"/>
<path d="M7.42255 4.63509C7.54471 4.54971 7.68374 4.50318 7.80093 4.40658C7.84159 4.37313 7.8831 4.34156 7.92456 4.30998C7.9407 4.29752 7.95616 4.26719 7.97663 4.28402C7.99824 4.30188 7.98906 4.33512 7.98188 4.36046C7.9606 4.43546 7.93893 4.51045 7.91361 4.58357C7.69645 5.21488 7.28632 5.53438 6.72457 5.60729C6.60559 5.62266 6.4866 5.63575 6.3667 5.62287C6.50522 5.56179 6.65266 5.53313 6.78787 5.45938C7.0983 5.29029 7.33011 5.03789 7.42255 4.63509Z" fill="#262F71"/>
<path d="M7.17797 4.54883C7.08466 4.87897 6.85068 5.08567 6.53748 5.22426C6.40108 5.2847 6.25218 5.3082 6.11241 5.35826C6.07214 5.27057 6.10708 5.12329 6.19136 5.02982C6.2712 4.94112 6.36614 4.87215 6.47576 4.81938C6.70211 4.7104 6.93955 4.62868 7.17797 4.54883Z" fill="#418AC9"/>
<path d="M3.66076 6.99306C3.65295 7.01869 3.6488 7.04595 3.61897 7.07773C3.63045 7.02247 3.60557 6.99371 3.57543 6.96927C3.54177 6.94201 3.50189 6.94164 3.46233 6.94946C3.35833 6.97045 3.27093 7.02366 3.19883 7.10352C3.17602 7.12878 3.15736 7.15824 3.1288 7.19645C3.10679 7.1414 3.1312 7.12063 3.13215 7.09586C3.16453 7.09219 3.17043 7.06192 3.18415 7.03947C3.25178 6.92885 3.33106 6.8294 3.45054 6.77765C3.55134 6.73394 3.66778 6.75239 3.65247 6.91255C3.64992 6.93932 3.6456 6.96759 3.66076 6.99306Z" fill="#418AC9"/>
<path d="M3.89268 7.11394C3.87829 7.08847 3.88238 7.06019 3.88481 7.03343C3.89935 6.87311 3.78876 6.85482 3.69301 6.89853C3.57954 6.95027 3.50425 7.04973 3.44001 7.16035C3.42698 7.1828 3.42138 7.21307 3.39062 7.21674C3.41123 7.02879 3.60181 6.76465 3.7721 6.73871C3.85042 6.72674 3.91511 6.77646 3.92798 6.86442C3.94086 6.95179 3.91874 7.03327 3.89268 7.11394Z" fill="#262F71"/>
<path d="M7.99744 5.35515C7.99723 5.35753 7.99799 5.36062 7.9968 5.36181C7.99506 5.36348 7.99101 5.36562 7.98938 5.36468C7.97937 5.36015 7.9798 5.35491 7.99014 5.35158C7.9923 5.35087 7.99506 5.35372 7.99744 5.35515Z" fill="#262F71"/>
<path d="M10.6824 2.65355C10.6914 2.65418 10.7002 2.6548 10.7093 2.65543C10.7042 2.659 10.699 2.66277 10.694 2.66634C10.6894 2.66256 10.6856 2.65816 10.6824 2.65355Z" fill="#FEFEFE"/>
<defs>
<linearGradient id="paint0_linear" x1="42.9858" y1="-11.8354" x2="20.2848" y2="6.0146" gradientUnits="userSpaceOnUse">
<stop stop-color="#0A1647"/>
<stop offset="1" stop-color="#4088C8"/>
</linearGradient>
<linearGradient id="paint1_linear" x1="41.326" y1="-10.1046" x2="21.6242" y2="11.6999" gradientUnits="userSpaceOnUse">
<stop stop-color="#0A1647"/>
<stop offset="1" stop-color="#4088C8"/>
</linearGradient>
<linearGradient id="paint2_linear" x1="50.1053" y1="-28.6304" x2="25.913" y2="-24.9646" gradientUnits="userSpaceOnUse">
<stop stop-color="#0A1647"/>
<stop offset="1" stop-color="#4088C8"/>
</linearGradient>
<linearGradient id="paint3_linear" x1="43.1689" y1="-11.5897" x2="20.855" y2="6.20378" gradientUnits="userSpaceOnUse">
<stop stop-color="#0A1647"/>
<stop offset="1" stop-color="#4088C8"/>
</linearGradient>
<linearGradient id="paint4_linear" x1="42.2331" y1="-11.0403" x2="21.4437" y2="11.2205" gradientUnits="userSpaceOnUse">
<stop stop-color="#0A1647"/>
<stop offset="1" stop-color="#4088C8"/>
</linearGradient>
<linearGradient id="paint5_linear" x1="46.2735" y1="-16.4477" x2="21.5486" y2="-6.48221" gradientUnits="userSpaceOnUse">
<stop stop-color="#0A1647"/>
<stop offset="1" stop-color="#4088C8"/>
</linearGradient>
<linearGradient id="paint6_linear" x1="37.8221" y1="-7.37513" x2="25.6229" y2="17.8496" gradientUnits="userSpaceOnUse">
<stop stop-color="#0A1647"/>
<stop offset="1" stop-color="#4088C8"/>
</linearGradient>
<linearGradient id="paint7_linear" x1="41.9311" y1="-10.2689" x2="22.3348" y2="11.654" gradientUnits="userSpaceOnUse">
<stop stop-color="#0A1647"/>
<stop offset="1" stop-color="#4088C8"/>
</linearGradient>
<linearGradient id="paint8_linear" x1="45.7277" y1="-15.1456" x2="21.3497" y2="-2.70185" gradientUnits="userSpaceOnUse">
<stop stop-color="#0A1647"/>
<stop offset="1" stop-color="#4088C8"/>
</linearGradient>
</defs>
</svg>
