<svg width="59" height="15" viewBox="0 0 59 15" fill="none" xmlns="http://www.w3.org/2000/svg">
<path fill-rule="evenodd" clip-rule="evenodd" d="M20.7016 12.6967V13.761H20.4478V12.2674H20.6878L20.6961 12.4551C20.8095 12.3115 20.9576 12.2397 21.1406 12.2397C21.4543 12.2397 21.6125 12.4178 21.6152 12.774V13.761H21.3614V12.7726C21.3605 12.6649 21.336 12.5853 21.288 12.5338C21.24 12.4822 21.1652 12.4565 21.0637 12.4565C20.9814 12.4565 20.9092 12.4786 20.847 12.5227C20.7848 12.5669 20.7363 12.6249 20.7016 12.6967ZM19.4551 13.7889C19.5887 13.7889 19.7069 13.7567 19.8098 13.6923C19.9127 13.6278 19.9918 13.5379 20.0471 13.4224C20.1024 13.3069 20.1301 13.1764 20.1301 13.031V13.0131C20.1301 12.7793 20.0677 12.5921 19.9428 12.4513C19.818 12.3105 19.6545 12.2401 19.4524 12.2401C19.3216 12.2401 19.2052 12.2718 19.1033 12.3353C19.0013 12.3988 18.9217 12.489 18.8646 12.6059C18.8074 12.7228 18.7788 12.8544 18.7788 13.0007V13.0186C18.7788 13.2505 18.8412 13.4369 18.9661 13.5777C19.0909 13.7185 19.2539 13.7889 19.4551 13.7889ZM19.4539 13.5795C19.3258 13.5795 19.2236 13.5293 19.1473 13.429C19.0709 13.3287 19.0327 13.1957 19.0327 13.0301C19.0327 12.8433 19.0711 12.6997 19.148 12.5994C19.2248 12.4991 19.3258 12.4489 19.4511 12.4489C19.5792 12.4489 19.6818 12.4998 19.7591 12.6015C19.8364 12.7032 19.875 12.8359 19.875 12.9997C19.875 13.1828 19.8371 13.3253 19.7612 13.427C19.6853 13.5286 19.5828 13.5795 19.4539 13.5795Z" fill="#0A0A0A"/>
<path d="M26.6124 12.0839C26.5693 12.0598 26.5207 12.0471 26.4713 12.0471C26.422 12.0471 26.3734 12.0598 26.3303 12.0839L25.683 12.4593L25.2431 12.7042L24.5959 13.0796C24.5527 13.1037 24.5042 13.1164 24.4548 13.1164C24.4054 13.1164 24.3568 13.1037 24.3137 13.0796L23.7992 12.7858C23.7573 12.7618 23.7224 12.7274 23.6977 12.686C23.673 12.6445 23.6594 12.5974 23.6582 12.5491V11.9696C23.6576 11.921 23.6705 11.8732 23.6954 11.8314C23.7202 11.7897 23.7562 11.7556 23.7992 11.7329L24.3054 11.4473C24.3485 11.4232 24.3971 11.4105 24.4465 11.4105C24.4959 11.4105 24.5444 11.4232 24.5876 11.4473L25.0938 11.7329C25.1356 11.7569 25.1706 11.7913 25.1953 11.8328C25.22 11.8743 25.2336 11.9214 25.2348 11.9696V12.3451L25.6746 12.0921V11.7166C25.6751 11.668 25.6623 11.6202 25.6374 11.5784C25.6125 11.5366 25.5766 11.5025 25.5336 11.4799L24.5959 10.9413C24.5527 10.9172 24.5042 10.9045 24.4548 10.9045C24.4054 10.9045 24.3568 10.9172 24.3137 10.9413L23.3593 11.4799C23.3162 11.5026 23.2803 11.5367 23.2554 11.5784C23.2306 11.6202 23.2177 11.668 23.2183 11.7166V12.8021C23.2177 12.8507 23.2306 12.8986 23.2554 12.9403C23.2803 12.9821 23.3162 13.0162 23.3593 13.0388L24.3136 13.5775C24.3567 13.6016 24.4053 13.6142 24.4547 13.6142C24.5041 13.6142 24.5526 13.6016 24.5958 13.5775L25.243 13.2102L25.6828 12.9572L26.3302 12.5899C26.3733 12.5658 26.4218 12.5532 26.4712 12.5532C26.5206 12.5532 26.5692 12.5658 26.6123 12.5899L27.1185 12.8756C27.1604 12.8996 27.1954 12.934 27.2201 12.9755C27.2447 13.0169 27.2583 13.0641 27.2595 13.1123V13.6918C27.2601 13.7404 27.2472 13.7882 27.2224 13.83C27.1975 13.8718 27.1616 13.9058 27.1185 13.9285L26.6123 14.2223C26.5692 14.2464 26.5206 14.259 26.4712 14.259C26.4218 14.259 26.3733 14.2464 26.3302 14.2223L25.8239 13.9367C25.7821 13.9126 25.7471 13.8782 25.7224 13.8368C25.6977 13.7953 25.6841 13.7482 25.683 13.7V13.3245L25.2431 13.5775V13.9529C25.2426 14.0015 25.2554 14.0494 25.2803 14.0911C25.3052 14.1329 25.3411 14.167 25.3841 14.1896L26.3385 14.7283C26.3816 14.7524 26.4302 14.765 26.4795 14.765C26.5289 14.765 26.5775 14.7524 26.6206 14.7283L27.575 14.1896C27.6168 14.1656 27.6518 14.1312 27.6765 14.0898C27.7012 14.0483 27.7148 14.0012 27.7159 13.9529V12.8674C27.7165 12.8188 27.7037 12.771 27.6788 12.7292C27.6539 12.6875 27.618 12.6534 27.575 12.6307L26.6124 12.0839Z" fill="#8247E5"/>
<path fill-rule="evenodd" clip-rule="evenodd" d="M33.8304 13.9154V10.8669L33.2407 10.867V13.9154H33.8304ZM29.8997 11.9667C30.0501 11.9644 30.198 12.0057 30.3255 12.0857C30.4545 12.1693 30.5574 12.2876 30.6221 12.427C30.698 12.5917 30.7352 12.7717 30.7307 12.953C30.7348 13.1337 30.6976 13.3129 30.6221 13.4771C30.5577 13.6172 30.4549 13.7362 30.3255 13.8202C30.198 13.9001 30.0501 13.9415 29.8997 13.9391C29.7662 13.9428 29.6346 13.908 29.5204 13.839C29.4166 13.7747 29.3358 13.6794 29.2893 13.5666V14.832H28.6997V11.9909H29.2893V12.3392C29.3358 12.2264 29.4167 12.1311 29.5204 12.0669C29.6346 11.9978 29.7662 11.9631 29.8997 11.9667ZM29.7098 12.4842C29.6529 12.4823 29.5963 12.4926 29.5437 12.5143C29.4911 12.536 29.4437 12.5686 29.4046 12.61C29.3253 12.6939 29.2857 12.8083 29.2857 12.9531C29.2794 13.078 29.3221 13.2005 29.4046 13.2944C29.4434 13.3363 29.4907 13.3694 29.5434 13.3914C29.596 13.4134 29.6527 13.4239 29.7098 13.4221C29.7666 13.4244 29.8232 13.4146 29.8758 13.3931C29.9285 13.3717 29.9759 13.3393 30.0149 13.298C30.092 13.2152 30.1305 13.1003 30.1305 12.9531C30.1305 12.806 30.092 12.6911 30.015 12.6083C29.9759 12.567 29.9285 12.5345 29.8759 12.5131C29.8232 12.4917 29.7666 12.4818 29.7098 12.4842ZM32.449 12.0856C32.2908 12.0045 32.1149 11.9636 31.9371 11.9666C31.7586 11.9637 31.5823 12.0046 31.4233 12.0857C31.2736 12.163 31.1496 12.2822 31.0664 12.4288C30.9775 12.5889 30.9328 12.7698 30.9371 12.9529C30.9329 13.136 30.9776 13.3169 31.0666 13.477C31.1498 13.6235 31.2738 13.7427 31.4235 13.8201C31.5824 13.9011 31.7588 13.942 31.9373 13.939C32.1151 13.9421 32.2909 13.9012 32.4492 13.8201C32.5982 13.7423 32.7215 13.6232 32.8044 13.477C32.8932 13.3168 32.9378 13.1359 32.9335 12.9528C32.9377 12.7697 32.8931 12.5888 32.8042 12.4287C32.7213 12.2825 32.598 12.1634 32.449 12.0856ZM31.9368 12.4778C31.8834 12.4768 31.8304 12.4872 31.7814 12.5083C31.7323 12.5294 31.6883 12.5607 31.6523 12.6002C31.5753 12.6818 31.5368 12.7996 31.5368 12.9536C31.5368 13.1076 31.5753 13.2249 31.6523 13.3053C31.6886 13.3444 31.7327 13.3752 31.7817 13.396C31.8307 13.4169 31.8836 13.4271 31.9368 13.426C31.9898 13.4272 32.0425 13.417 32.0912 13.3962C32.14 13.3754 32.1837 13.3444 32.2196 13.3053C32.2954 13.2249 32.3334 13.1076 32.3334 12.9536C32.3334 12.7996 32.2954 12.6818 32.2196 12.6002C32.184 12.5607 32.1403 12.5293 32.0915 12.5082C32.0427 12.4871 31.99 12.4767 31.9368 12.4778ZM34.6821 11.9908L35.1442 13.1703L35.5752 11.991H36.2269L35.027 14.8323H34.3787L34.8303 13.8426L34.0235 11.991L34.6821 11.9908ZM37.5341 12.0669C37.4199 11.9978 37.2882 11.9631 37.1548 11.9667C37.0043 11.9645 36.8563 12.0059 36.7289 12.086C36.5998 12.1696 36.497 12.2879 36.4323 12.4273C36.3564 12.592 36.3193 12.7719 36.3237 12.9532C36.3196 13.1338 36.3568 13.3131 36.4323 13.4773C36.4967 13.6174 36.5995 13.7364 36.7289 13.8204C36.8564 13.9003 37.0043 13.9416 37.1547 13.9393C37.2882 13.943 37.4198 13.9082 37.534 13.8392C37.6382 13.7744 37.72 13.6794 37.7685 13.5667V13.9047C37.7685 14.0587 37.7311 14.1708 37.6564 14.2409C37.5757 14.3132 37.4699 14.351 37.3616 14.3461C37.2714 14.3502 37.182 14.3274 37.1047 14.2806C37.0404 14.2386 36.9952 14.1729 36.9789 14.0978H36.3962C36.4223 14.3174 36.5345 14.5177 36.7082 14.6547C36.8818 14.7914 37.1134 14.8598 37.403 14.8598C37.6145 14.8598 37.7915 14.8173 37.934 14.7322C38.0718 14.6523 38.1823 14.5328 38.2512 14.3891C38.3219 14.2376 38.3573 14.0719 38.3547 13.9047V11.9911H37.7686V12.3393C37.72 12.2267 37.6382 12.1316 37.5341 12.0669ZM37.3446 12.4842C37.2878 12.4818 37.2312 12.4917 37.1785 12.5131C37.1259 12.5345 37.0785 12.567 37.0395 12.6083C36.9624 12.6911 36.9239 12.806 36.9239 12.9531C36.9239 13.1002 36.9624 13.2152 37.0395 13.2979C37.0785 13.3392 37.1259 13.3717 37.1785 13.3931C37.2312 13.4145 37.2878 13.4244 37.3446 13.4221C37.4016 13.4239 37.4584 13.4134 37.511 13.3914C37.5637 13.3694 37.611 13.3363 37.6497 13.2945C37.7323 13.2005 37.775 13.0781 37.7687 12.9531C37.7687 12.8083 37.7291 12.694 37.6497 12.6101C37.6107 12.5686 37.5633 12.536 37.5107 12.5143C37.4581 12.4926 37.4015 12.4823 37.3446 12.4842ZM40.1734 12.0856C40.0151 12.0045 39.8393 11.9636 39.6614 11.9666C39.483 11.9637 39.3067 12.0046 39.1477 12.0857C38.998 12.163 38.874 12.2822 38.7908 12.4288C38.7019 12.5889 38.6573 12.7698 38.6615 12.9529C38.6573 13.136 38.7019 13.3169 38.7908 13.477C38.874 13.6235 38.998 13.7427 39.1477 13.8201C39.3067 13.9011 39.4831 13.942 39.6615 13.939C39.8393 13.9421 40.0152 13.9012 40.1735 13.8201C40.3224 13.7423 40.4458 13.6232 40.5286 13.477C40.6175 13.3168 40.6621 13.1359 40.6578 12.9528C40.6621 12.7697 40.6175 12.5888 40.5286 12.4287C40.4457 12.2825 40.3224 12.1634 40.1734 12.0856ZM39.6612 12.4778C39.6078 12.4768 39.5549 12.4872 39.5058 12.5083C39.4568 12.5294 39.4128 12.5607 39.3768 12.6002C39.2997 12.6818 39.2612 12.7996 39.2612 12.9536C39.2612 13.1076 39.2997 13.2249 39.3768 13.3053C39.413 13.3444 39.4571 13.3752 39.5061 13.396C39.5551 13.4169 39.608 13.4271 39.6612 13.426C39.7142 13.4272 39.7669 13.417 39.8156 13.3962C39.8644 13.3754 39.9081 13.3444 39.944 13.3053C40.0198 13.2249 40.0578 13.1076 40.0578 12.9536C40.0578 12.7996 40.0198 12.6818 39.944 12.6002C39.9084 12.5607 39.8647 12.5293 39.8159 12.5082C39.7672 12.4871 39.7144 12.4767 39.6612 12.4778ZM42.7116 12.1914C42.5819 12.0443 42.4065 11.9708 42.1858 11.9708C42.0507 11.9675 41.9175 12.0022 41.8014 12.0707C41.6941 12.1353 41.6082 12.23 41.5547 12.3432V11.9915H40.9651V13.9155H41.5547V12.8947C41.5547 12.7546 41.5897 12.6466 41.6598 12.5707C41.6963 12.5324 41.7405 12.5025 41.7896 12.4828C41.8387 12.4632 41.8914 12.4544 41.9442 12.4569C41.9945 12.4547 42.0448 12.4632 42.0914 12.482C42.1381 12.5007 42.1803 12.5292 42.215 12.5655C42.2829 12.6381 42.3168 12.7387 42.3168 12.8673V13.9155H42.9064V12.7983C42.9064 12.5408 42.8416 12.3385 42.7116 12.1914Z" fill="#140035"/>
<path d="M2.8567 0.677002L11.4225 6.42179L9.30408 9.49776L0.738281 3.70773L2.8567 0.677002Z" fill="url(#paint0_linear)"/>
<path d="M11.2371 6.41283C10.503 7.44056 8.02554 7.03841 5.6857 5.42979C3.29996 3.86583 2.01533 1.76568 2.70352 0.737942C3.43759 -0.289794 5.9151 0.112364 8.25493 1.72099C10.6407 3.24026 11.9253 5.3851 11.2371 6.41283Z" fill="url(#paint1_linear)"/>
<path d="M9.20157 9.67217C8.46514 10.731 5.97973 10.3167 3.63236 8.65936C1.28501 7.00204 -0.0497631 4.88435 0.686661 3.77947C1.42309 2.7206 3.90852 3.13494 6.25586 4.79228C8.60321 6.4496 9.89196 8.61332 9.20157 9.67217Z" fill="url(#paint2_linear)"/>
<path d="M11.2498 6.47611L9.1302 9.45864C8.39297 10.4675 5.90479 10.0288 3.55482 8.49371C3.09404 8.18668 2.67934 7.87966 2.26465 7.52878C2.58719 7.48489 3.00189 7.30946 3.41658 6.87084C4.15383 6.1252 4.52244 5.94976 4.845 5.99361C5.16752 5.99361 5.53614 6.30064 6.13515 7.04628C6.73417 7.79192 7.56355 8.01124 8.07042 7.61648C8.11651 7.57263 8.16257 7.57263 8.20867 7.52878C8.62334 7.22172 8.76159 7.09017 9.54491 5.68659C9.72922 5.33571 10.3743 4.76551 11.2498 5.02868C11.4801 5.59889 11.4801 6.08135 11.2498 6.47611Z" fill="#0E0F23"/>
<path fill-rule="evenodd" clip-rule="evenodd" d="M11.0232 6.25856C10.3857 7.16803 8.15483 6.7133 6.01497 5.21263C3.82956 3.712 2.55474 1.80206 3.19216 0.892572C3.82956 -0.0169145 6.06049 0.43783 8.20036 1.93849C10.3402 3.43914 11.615 5.34908 11.0232 6.25856ZM9.01996 4.89447C8.70124 5.34925 7.60856 5.12184 6.51585 4.39426C5.4687 3.66668 4.83127 2.71171 5.14999 2.25697C5.4687 1.80222 6.56138 2.02959 7.65409 2.75719C8.70124 3.48478 9.33867 4.43974 9.01996 4.89447Z" fill="white"/>
<path d="M2.60451 2.00333C2.60451 1.95678 2.5384 1.91023 2.47229 1.95678C2.40618 2.00333 2.34007 2.00333 2.34007 2.04988C2.40618 2.18952 2.47229 2.28262 2.47229 2.37571C2.47229 2.42226 2.5384 2.46881 2.60451 2.42226C2.67061 2.42226 2.73672 2.37571 2.67061 2.32917C2.67061 2.23607 2.67061 2.14297 2.60451 2.00333Z" fill="white"/>
<path d="M2.89742 2.50806C2.89742 2.46093 2.85593 2.4138 2.81444 2.46093C2.77295 2.50806 2.77295 2.50806 2.77295 2.5552C3.22934 3.73351 4.1836 5.00609 5.42828 5.94876C5.46979 5.9959 5.51128 5.94876 5.55276 5.94876C5.59424 5.90162 5.55276 5.85448 5.55276 5.80734C4.26659 4.86471 3.3538 3.63925 2.89742 2.50806Z" fill="white"/>
<path d="M8.23314 7.03203C8.17441 7.03203 8.11572 7.03203 8.11572 7.09785C8.11572 7.16373 8.11572 7.22956 8.17441 7.22956C8.35052 7.29539 8.58536 7.36127 8.76146 7.42709C8.82015 7.42709 8.87888 7.42709 8.87888 7.36127C8.87888 7.29539 8.87888 7.22956 8.82015 7.22956C8.64405 7.16373 8.40925 7.09785 8.23314 7.03203Z" fill="white"/>
<path d="M8.96926 7.0513C8.92384 7.0513 8.87842 7.11717 8.87842 7.183C8.87842 7.24883 8.92384 7.31471 8.96926 7.31471C9.33267 7.38054 9.74151 7.44641 10.0595 7.38054C10.1049 7.38054 10.1503 7.31471 10.1503 7.24883C10.1503 7.183 10.1049 7.11717 10.0595 7.11717C9.69609 7.183 9.33267 7.11717 8.96926 7.0513Z" fill="white"/>
<path fill-rule="evenodd" clip-rule="evenodd" d="M30.2814 5.20516V8.48158H29.0386V1.93726H30.2814V4.37432C30.6111 3.98235 31.0254 3.78636 31.5243 3.78636C32.5335 3.78636 33.0452 4.36723 33.0596 5.52894V8.48158H31.8167V5.56304C31.8167 5.2989 31.7594 5.1036 31.6447 4.97722C31.53 4.8508 31.3394 4.78759 31.0727 4.78759C30.7086 4.78759 30.4449 4.9268 30.2814 5.20516ZM17.3924 8.10888C16.9824 8.41424 16.4305 8.5669 15.7366 8.5669C15.255 8.5669 14.8163 8.47956 14.4207 8.30487C14.025 8.13018 13.7233 7.89087 13.5154 7.58697C13.3075 7.28303 13.2036 6.93082 13.2036 6.53034H14.4981C14.4981 7.21487 14.9109 7.55713 15.7366 7.55713C16.0434 7.55713 16.2828 7.49537 16.4548 7.37179C16.6269 7.24824 16.7129 7.0757 16.7129 6.85412C16.7129 6.6127 16.6269 6.42736 16.4548 6.29811C16.2828 6.1689 15.9732 6.03255 15.5259 5.88909C15.0787 5.74566 14.7246 5.60434 14.4637 5.46517C13.7527 5.08457 13.3972 4.57185 13.3972 3.92708C13.3972 3.59192 13.4925 3.29297 13.6831 3.03023C13.8738 2.76749 14.1476 2.56227 14.5045 2.41457C14.8615 2.26687 15.2621 2.19302 15.7065 2.19302C16.1538 2.19302 16.5523 2.27326 16.9021 2.43374C17.2519 2.59423 17.5235 2.82075 17.717 3.11331C17.9106 3.40587 18.0073 3.7382 18.0073 4.11031H16.7172C16.7172 3.82625 16.6269 3.60541 16.4462 3.44777C16.2656 3.29013 16.0119 3.21131 15.685 3.21131C15.3697 3.21131 15.1245 3.27734 14.9496 3.40942C14.7747 3.5415 14.6873 3.71548 14.6873 3.93137C14.6873 4.13302 14.7898 4.30204 14.9948 4.43834C15.1998 4.57469 15.5015 4.70252 15.9001 4.82181C16.634 5.04052 17.1687 5.31178 17.5042 5.6356C17.8396 5.95939 18.0073 6.36274 18.0073 6.84562C18.0073 7.38244 17.8023 7.80353 17.3924 8.10888ZM21.8564 8.01279C21.5496 8.38201 21.1253 8.56665 20.5834 8.56665C20.0846 8.56665 19.704 8.42464 19.4416 8.14058C19.1793 7.85656 19.0453 7.44042 19.0396 6.89222V3.87144H20.2824V6.84962C20.2824 7.32967 20.5031 7.56967 20.9447 7.56967C21.3661 7.56967 21.6557 7.42479 21.8134 7.1351V3.87144H23.0605V8.48145H21.8908L21.8564 8.01279ZM26.0407 8.56689C26.617 8.56689 27.0872 8.43695 27.4512 8.17703C27.8154 7.91714 27.9974 7.577 27.9974 7.15664C27.9974 6.56868 27.6692 6.15537 27.0126 5.91678C26.8004 5.84009 26.5395 5.77121 26.2299 5.71014C25.9203 5.64908 25.7002 5.57664 25.5698 5.49286C25.4393 5.40907 25.3741 5.29901 25.3741 5.16267C25.3741 5.01779 25.4315 4.8985 25.5461 4.80476C25.6608 4.71102 25.8228 4.66416 26.0321 4.66416C26.2758 4.66416 26.455 4.7217 26.5697 4.83671C26.6843 4.95175 26.7417 5.09732 26.7417 5.27342H27.9845C27.9845 4.83318 27.8075 4.47526 27.4534 4.19975C27.0993 3.92423 26.627 3.78647 26.0364 3.78647C25.483 3.78647 25.0351 3.92354 24.6925 4.19764C24.3499 4.47174 24.1785 4.8133 24.1785 5.22232C24.1785 5.9239 24.7319 6.3897 25.8385 6.61978C26.1711 6.68797 26.4127 6.76535 26.5632 6.85201C26.7137 6.93862 26.789 7.05722 26.789 7.20774C26.789 7.35262 26.7281 7.46977 26.6062 7.55926C26.4843 7.64871 26.3045 7.69346 26.0665 7.69346C25.8113 7.69346 25.6078 7.63523 25.4558 7.51877C25.3039 7.40231 25.2222 7.23475 25.2107 7.01601H24.0323C24.0323 7.29439 24.1183 7.55359 24.2904 7.79359C24.4624 8.0336 24.6996 8.2225 25.0021 8.36026C25.3046 8.49801 25.6508 8.56689 26.0407 8.56689ZM34.956 3.31782C35.1653 3.31782 35.3337 3.25817 35.4613 3.13888C35.5889 3.01958 35.6527 2.86619 35.6527 2.67873C35.6527 2.4941 35.5896 2.34214 35.4634 2.22284C35.3373 2.10354 35.1681 2.0439 34.956 2.0439C34.7409 2.0439 34.5711 2.10354 34.4464 2.22284C34.3217 2.34214 34.2593 2.4941 34.2593 2.67873C34.2593 2.86619 34.3231 3.01958 34.4507 3.13888C34.5782 3.25817 34.7467 3.31782 34.956 3.31782ZM35.5797 3.87144V8.48145H34.3325V3.87144H35.5797ZM39.2262 8.5669C39.9201 8.5669 40.472 8.41424 40.8819 8.10888C41.2918 7.80353 41.4969 7.38244 41.4969 6.84562C41.4969 6.36274 41.3293 5.95939 40.9938 5.6356C40.6582 5.31178 40.1235 5.04052 39.3896 4.82181C38.991 4.70252 38.6894 4.57469 38.4843 4.43834C38.2795 4.30204 38.1768 4.13302 38.1768 3.93137C38.1768 3.71548 38.2645 3.5415 38.4391 3.40942C38.614 3.27734 38.8591 3.21131 39.1747 3.21131C39.5015 3.21131 39.7553 3.29013 39.9359 3.44777C40.1165 3.60541 40.2066 3.82625 40.2066 4.11031H41.4969C41.4969 3.7382 41.4002 3.40587 41.2066 3.11331C41.0131 2.82075 40.7413 2.59423 40.3917 2.43374C40.0418 2.27326 39.6435 2.19302 39.1961 2.19302C38.7518 2.19302 38.3511 2.26687 37.9941 2.41457C37.6372 2.56227 37.3633 2.76749 37.1726 3.03023C36.9822 3.29297 36.8868 3.59192 36.8868 3.92708C36.8868 4.57185 37.2424 5.08457 37.9531 5.46517C38.2143 5.60434 38.5681 5.74566 39.0155 5.88909C39.4626 6.03255 39.7725 6.1689 39.9443 6.29811C40.1165 6.42736 40.2024 6.6127 40.2024 6.85412C40.2024 7.0757 40.1165 7.24824 39.9443 7.37179C39.7725 7.49537 39.533 7.55713 39.2262 7.55713C38.4005 7.55713 37.9878 7.21487 37.9878 6.53034H36.6933C36.6933 6.93082 36.7971 7.28303 37.005 7.58697C37.2129 7.89087 37.5144 8.13018 37.9103 8.30487C38.3058 8.47956 38.7445 8.5669 39.2262 8.5669ZM45.3075 5.57996L44.426 8.48145H43.3895L42.2022 3.87144H43.4021L44.0087 6.80277L44.8601 3.87144H45.7591L46.6062 6.80702L47.217 3.87144H48.4165L47.2296 8.48145H46.189L45.3075 5.57996ZM50.6999 8.56689C51.1817 8.56689 51.573 8.40071 51.8742 8.06838C51.8998 8.23315 51.9415 8.3709 51.9986 8.48169H53.2546V8.40925C53.134 8.18484 53.0726 7.85393 53.0695 7.41652V5.41831C53.0695 4.90133 52.9012 4.50013 52.5642 4.21469C52.2276 3.92921 51.7721 3.78647 51.1988 3.78647C50.8205 3.78647 50.4793 3.8511 50.1753 3.98035C49.8713 4.10957 49.6364 4.28782 49.4702 4.51503C49.3037 4.74227 49.2206 4.9894 49.2206 5.25638H50.4636C50.4636 5.08314 50.5228 4.9468 50.642 4.84736C50.7609 4.74795 50.925 4.69826 51.1343 4.69826C51.3724 4.69826 51.5467 4.76216 51.6568 4.88999C51.7672 5.01779 51.8226 5.18822 51.8226 5.40126V5.6654H51.2504C50.5596 5.66823 50.0312 5.80032 49.6659 6.06166C49.3002 6.32296 49.1175 6.69789 49.1175 7.18644C49.1175 7.58412 49.2672 7.91358 49.567 8.17492C49.8664 8.43622 50.2441 8.56689 50.6999 8.56689ZM50.524 7.47612C50.6327 7.57553 50.7817 7.62526 50.9711 7.62526C51.1544 7.62526 51.3238 7.58477 51.4784 7.50382C51.6334 7.42287 51.7481 7.31423 51.8228 7.17789V6.3854H51.3582C50.7361 6.3854 50.4048 6.59843 50.3648 7.0245L50.3603 7.09694C50.3603 7.2503 50.415 7.37671 50.524 7.47612ZM55.5384 10.2541V8.08118C55.828 8.405 56.2078 8.56689 56.678 8.56689C57.2313 8.56689 57.6706 8.35313 57.996 7.92568C58.3214 7.4982 58.4841 6.92939 58.4841 6.2193V6.15537C58.4841 5.41689 58.3249 4.83743 58.0069 4.41704C57.6885 3.99667 57.2428 3.78647 56.6692 3.78647C56.185 3.78647 55.7919 3.96541 55.4911 4.32333L55.4479 3.87167H54.2954V10.2541H55.5384ZM55.5388 7.11813C55.6906 7.42203 55.9616 7.574 56.3515 7.574C56.9448 7.574 57.2418 7.09254 57.2418 6.12965C57.2418 5.70075 57.165 5.36984 57.0114 5.13692C56.8582 4.90401 56.6352 4.78755 56.3428 4.78755C55.9529 4.78755 55.685 4.93527 55.5388 5.23066V7.11813Z" fill="#3D3C49"/>
<defs>
<linearGradient id="paint0_linear" x1="1.94491" y1="1.81856" x2="2.82497" y2="6.17356" gradientUnits="userSpaceOnUse">
<stop stop-color="#03B8FF"/>
<stop offset="1" stop-color="#FA52A0"/>
</linearGradient>
<linearGradient id="paint1_linear" x1="3.43782" y1="1.57005" x2="4.07329" y2="5.20856" gradientUnits="userSpaceOnUse">
<stop stop-color="#03B8FF"/>
<stop offset="1" stop-color="#FA52A0"/>
</linearGradient>
<linearGradient id="paint2_linear" x1="0.592824" y1="3.08599" x2="1.31628" y2="7.04162" gradientUnits="userSpaceOnUse">
<stop stop-color="#03B8FF"/>
<stop offset="1" stop-color="#FA52A0"/>
</linearGradient>
</defs>
</svg>
