<svg width="63" height="38" viewBox="0 0 63 38" fill="none" xmlns="http://www.w3.org/2000/svg">
<path d="M12.8926 0.0894901H25.076C26.0988 0.0894901 26.9425 0.553986 27.6073 1.48298C27.9568 1.96878 28.1315 2.61652 28.1315 3.42619V15.0599C28.1315 16.6111 27.407 17.6636 25.9581 18.2176C25.6343 18.3114 25.3147 18.3583 24.9993 18.3583H12.9693C11.7931 18.3583 10.8812 17.8213 10.2335 16.7474C9.96925 16.2957 9.83714 15.7332 9.83714 15.0599V3.42619C9.83714 1.75571 10.6212 0.669045 12.1895 0.166196C12.4622 0.115059 12.6966 0.0894901 12.8926 0.0894901ZM11.8826 3.19608V15.2389C11.8826 15.7503 12.1213 16.0954 12.5986 16.2744C12.6497 16.3 12.7264 16.3128 12.8287 16.3128H25.14C25.5661 16.3128 25.8729 16.0443 26.0604 15.5074L26.086 15.2389V3.19608C26.086 2.69323 25.8516 2.35231 25.3829 2.17333L25.2039 2.13498H12.7647C12.4579 2.13498 12.1852 2.34805 11.9466 2.77419C11.9039 2.91908 11.8826 3.05971 11.8826 3.19608Z" fill="white"/>
<path d="M34.9739 0H48.5125C49.1346 0 49.5352 0.200287 49.7142 0.600862C49.7824 0.788365 49.8165 0.933254 49.8165 1.03553C49.8165 1.47872 49.5693 1.80259 49.075 2.00714L48.8321 2.04549H34.5776C34.1003 2.04549 33.7466 2.34379 33.5165 2.94039V15.4051C33.5165 15.6608 33.7253 15.9335 34.1429 16.2233C34.2963 16.2915 34.4071 16.3256 34.4753 16.3256H47.771V11.263L42.0308 11.2502H41.9158C41.2936 11.2502 40.893 11.0201 40.7141 10.5598L40.6501 10.2147C40.6501 9.73738 40.9186 9.40498 41.4555 9.21748L41.5962 9.19191L48.7042 9.21748C49.2412 9.21748 49.5991 9.47743 49.7781 9.99732L49.8165 10.3553V17.2972C49.8165 17.8 49.5565 18.1452 49.0366 18.3327L48.6787 18.371H34.6543C33.41 18.371 32.4384 17.7446 31.7395 16.4917C31.5605 16.0741 31.471 15.6991 31.471 15.3667V2.97874C31.471 2.13498 31.9185 1.34235 32.8134 0.600862C33.3162 0.200287 34.0364 0 34.9739 0Z" fill="white"/>
<path d="M1.08667 24.1964H12.0045C12.5499 24.1964 12.9036 24.4436 13.0656 24.9379L13.0911 25.168V27.9166C13.0911 28.3598 12.8567 28.6709 12.388 28.8499L12.1323 28.8883C11.7232 28.8883 11.4249 28.6454 11.2374 28.1595L11.199 27.8399V26.0757H1.87929V27.3541C1.87929 27.3882 3.00431 27.955 5.25435 29.0544L12.7076 32.8003C12.9633 33.0218 13.0911 33.2818 13.0911 33.5801V36.3287C13.0911 36.7719 12.8567 37.083 12.388 37.262L12.0428 37.3003H1.04831C0.562509 37.3003 0.230117 37.0915 0.0511372 36.6739C0.0170457 36.5716 0 36.4651 0 36.3543V33.5545C0 33.1028 0.247163 32.8003 0.741489 32.6468L0.946038 32.6085C1.31252 32.6085 1.60656 32.8258 1.82816 33.2605C1.86225 33.4139 1.87929 33.5844 1.87929 33.7719V35.421H11.199V34.1426C11.199 34.1085 9.43908 33.2221 5.91913 31.4835C2.2543 29.6511 0.383529 28.705 0.306823 28.6454C0.102274 28.4323 0 28.1979 0 27.9422V25.1425C0 24.6567 0.276993 24.3456 0.83098 24.2092L1.08667 24.1964Z" fill="white"/>
<path d="M18.559 24.1964H18.5974C19.1684 24.1964 19.5136 24.6396 19.6329 25.526L21.3844 32.4295H21.3972L23.3404 24.7461C23.562 24.3797 23.839 24.1964 24.1714 24.1964H24.2097C24.7807 24.1964 25.1302 24.6524 25.258 25.5643L26.9839 32.4295H27.0223L28.9655 24.7334C29.1615 24.3754 29.4555 24.1964 29.8476 24.1964C30.2652 24.1964 30.5635 24.4521 30.7425 24.9635L30.7553 25.1425C28.8547 32.8471 27.8788 36.7421 27.8277 36.8273C27.5975 37.1427 27.3248 37.3003 27.0095 37.3003C26.4384 37.3003 26.0975 36.887 25.9867 36.0602L24.2097 29.0672H24.1714L22.2409 36.7634C22.0193 37.1213 21.7381 37.3003 21.3972 37.3003H21.3844C20.8219 37.3003 20.4767 36.8742 20.3488 36.0219C18.5505 28.8797 17.6514 25.2618 17.6514 25.168V25.0913C17.6514 24.6907 17.8857 24.4052 18.3545 24.2348C18.4056 24.2092 18.4738 24.1964 18.559 24.1964Z" fill="white"/>
<path d="M38.7424 24.1964H38.8192C39.2623 24.1964 39.6203 24.5586 39.893 25.2831C43.4982 32.4593 45.3093 36.0986 45.3264 36.2009V36.3926C45.3264 36.8017 45.092 37.0915 44.6232 37.262L44.3548 37.3003H36.0066C35.3589 37.2151 35.035 36.8912 35.035 36.3287C35.035 35.9026 35.2907 35.6043 35.8021 35.4338L36.0066 35.421H42.859V35.3955C42.859 35.3358 41.4996 32.6255 38.7808 27.2646H38.7424C35.589 33.6142 33.9739 36.8401 33.8972 36.9424C33.6671 37.181 33.4199 37.3003 33.1557 37.3003C32.7466 37.3003 32.4483 37.0659 32.2608 36.5972L32.2225 36.3543C32.2225 36.1753 32.3886 35.779 32.721 35.1653C36.2154 28.151 38.001 24.597 38.0777 24.5032C38.2907 24.2987 38.5123 24.1964 38.7424 24.1964Z" fill="white"/>
<path d="M50.1648 24.1964H61.1466C61.6324 24.1964 61.9605 24.401 62.131 24.8101C62.1821 24.9294 62.2077 25.053 62.2077 25.1808V30.7164C62.2077 31.1766 61.9733 31.4835 61.5045 31.6369C61.4534 31.6624 61.3852 31.6752 61.3 31.6752H52.1848C51.7586 31.6752 51.4603 31.4238 51.2899 30.921L51.2643 30.7292C51.2643 30.4053 51.4433 30.1326 51.8012 29.911C51.9376 29.8513 52.0654 29.8215 52.1848 29.8215H60.3284V26.0757H50.983V36.3926C50.983 36.8017 50.7444 37.0915 50.2671 37.262L50.0498 37.3003C49.6407 37.3003 49.3424 37.0745 49.1549 36.6228C49.1208 36.4949 49.1037 36.3287 49.1037 36.1242V25.3726C49.1037 24.5885 49.4574 24.1964 50.1648 24.1964Z" fill="white"/>
<path d="M23.6716 4.98483L23.6439 4.95703H23.1143L14.6719 13.3995V13.929L14.6995 13.9567H15.0976L23.6716 5.3828V4.98483Z" fill="white"/>
<path d="M15.0182 4.95703C14.8269 4.95703 14.6719 5.11205 14.6719 5.30331V12.4248L22.1397 4.95703H15.0182Z" fill="white"/>
<path d="M23.671 13.616V6.48828L16.2031 13.9561H23.3307C23.5186 13.9561 23.671 13.8038 23.671 13.616Z" fill="white"/>
</svg>
