<svg width="171" height="102" viewBox="0 0 171 102" fill="none" xmlns="http://www.w3.org/2000/svg">
<path d="M27.5344 11C30.7055 11 33.4756 11.9264 35.8448 13.7793C38.214 15.6321 39.3986 18.0299 39.3986 20.9727C39.3986 22.5349 38.9612 23.8247 38.0864 24.842C37.2117 25.8592 36.1364 26.3679 34.8607 26.3679C33.5849 26.3679 32.5644 26.2043 31.7989 25.8774C31.9084 25.2961 31.963 24.6785 31.963 24.0245C31.9265 21.7357 31.3616 19.8828 30.2681 18.4659C29.1747 17.0127 27.5709 16.2861 25.4568 16.2861C23.3792 16.2861 21.4474 16.9582 19.6614 18.3024C18.6044 19.8283 17.7843 21.8265 17.201 24.297C16.6178 26.7675 16.3263 29.2017 16.3263 31.5994C16.3263 35.5959 17.0917 38.9564 18.6226 41.6812C20.1899 44.3696 22.6138 45.7139 25.8942 45.7139C28.9195 45.7139 30.9607 44.5695 32.0177 42.2807C33.0018 40.2825 33.4938 37.6303 33.4938 34.3242C35.3528 34.3242 36.9018 34.6694 38.1411 35.3597C39.3804 36.0136 40 37.1036 40 38.6294C40 42.1899 38.4328 45.1508 35.2981 47.5123C32.1634 49.8374 28.6279 51 24.6913 51C19.5521 51 15.652 49.3107 12.9912 45.9319C10.3304 42.5168 9 37.9028 9 32.0899C9 26.277 10.6585 21.3178 13.9753 17.2125C17.3286 13.0708 21.8483 11 27.5344 11Z" fill="#7908F4"/>
<path fill-rule="evenodd" clip-rule="evenodd" d="M31.1423 19.0336L31.1784 18.987C31.3516 19.3618 31.4995 19.7579 31.6218 20.1753C31.8973 21.1149 32.0441 22.1623 32.0622 23.3176C32.0622 23.913 32.0189 24.4792 31.9322 25.0161C31.921 25.0864 31.9089 25.1562 31.896 25.2255C32.3714 25.4318 32.9439 25.5749 33.6134 25.6547C33.8955 25.6884 34.1946 25.7108 34.511 25.722C34.6692 25.7276 34.8317 25.7304 34.9985 25.7304C35.7001 25.7304 36.3418 25.5761 36.9237 25.2677C37.414 25.0077 37.8618 24.6383 38.2671 24.1593C38.4896 23.8964 38.6842 23.6158 38.8508 23.3176C38.8712 23.2811 38.8911 23.2445 38.9106 23.2075C39.368 22.3415 39.5967 21.3308 39.5967 20.1753C39.5967 17.2902 38.5085 14.9138 36.332 13.0461C36.3082 13.0258 36.2844 13.0054 36.2604 12.9853C36.1739 12.9122 36.0856 12.8399 35.9957 12.7685C33.595 10.8607 30.788 9.9067 27.5747 9.9067C26.8545 9.9067 26.1528 9.94008 25.4695 10.0067C22.0727 10.3379 19.1324 11.4926 16.6483 13.4706C16.2357 13.7991 15.8357 14.1505 15.4483 14.5245C14.8839 15.0693 14.3462 15.6623 13.8353 16.3036C12.4387 18.06 11.3324 19.9682 10.5161 22.0282C9.42335 24.7859 8.85063 27.8156 8.79782 31.1172C8.79515 31.2849 8.79381 31.4532 8.79381 31.6222C8.79381 37.1599 9.94774 41.6407 12.2557 45.065C12.2773 45.097 12.299 45.1289 12.3208 45.1609C12.4873 45.4042 12.6598 45.6423 12.8381 45.8748C15.5342 49.3537 19.4862 51.0932 24.6939 51.0932C25.1044 51.0932 25.5107 51.0805 25.9127 51.0552C29.4159 50.8341 32.5923 49.6498 35.4417 47.5021C36.4409 46.7372 37.2829 45.9111 37.9679 45.024C38.0022 44.9796 38.0361 44.935 38.0696 44.8902C39.4939 42.9889 40.2061 40.8107 40.2061 38.3557C40.2061 36.7846 39.5783 35.6623 38.3225 34.9889C37.959 34.7832 37.569 34.6072 37.1528 34.461C36.4995 34.2315 35.7815 34.0755 34.9985 33.9927C34.5574 33.9461 34.0957 33.9228 33.6134 33.9228C33.6134 34.1495 33.6112 34.3731 33.6068 34.5938C33.5794 35.9626 33.4669 37.2166 33.2694 38.3557C33.0798 39.4495 32.8118 40.4374 32.4653 41.3195C32.3571 41.595 32.2412 41.8603 32.1176 42.1153C32.0372 42.2923 31.9511 42.4627 31.8593 42.6265C31.8513 42.6407 31.8433 42.6549 31.8352 42.6692C30.702 44.6566 28.7279 45.6503 25.9127 45.6503C25.4925 45.6503 25.0863 45.6282 24.6939 45.584C21.9817 45.2783 19.9318 43.9163 18.5443 41.498C18.53 41.4721 18.5157 41.4461 18.5016 41.4201C18.4955 41.4089 18.4894 41.3978 18.4834 41.3866C17.0359 38.7172 16.2819 35.4624 16.2215 31.6222C16.2189 31.455 16.2176 31.2867 16.2176 31.1172C16.2176 28.6483 16.513 26.1419 17.1039 23.5982C17.4211 22.2329 17.8074 21.0077 18.263 19.9226C18.2638 19.9207 18.2646 19.9188 18.2654 19.9169C18.6579 18.9826 19.1018 18.1522 19.597 17.4258C21.4068 16.0417 23.3642 15.3497 25.4695 15.3497C26.2377 15.3497 26.9395 15.4459 27.5747 15.6384C28.7108 15.9825 29.6342 16.6345 30.3448 17.5941C30.6659 18.0169 30.9419 18.4773 31.1731 18.9754C31.1749 18.9792 31.1767 18.9831 31.1784 18.987L31.1423 19.0336ZM45.4322 29.346C46.1696 30.0918 46.8328 30.9557 47.3861 31.9446C48.5964 34.108 49 36.3648 49 38.3557C49 45.1204 45.8659 50.6866 40.744 54.6075L40.7179 54.6275L40.6917 54.6473C35.9858 58.1943 30.5591 60 24.6939 60C17.3672 60 10.6125 57.4282 5.92077 51.3743L5.90668 51.3561L5.89269 51.3378C1.64429 45.797 0 38.9086 0 31.6222C0 23.8269 2.23562 16.692 6.98626 10.7171L6.98912 10.7135L6.99197 10.7099C12.18 4.19873 19.3531 1 27.5747 1C32.6442 1 37.3888 2.55445 41.424 5.76121C45.8997 9.31798 48.3906 14.3467 48.3906 20.1753C48.3906 23.3067 47.5471 26.5531 45.4322 29.346Z" fill="url(#paint0_linear)"/>
<path fill-rule="evenodd" clip-rule="evenodd" d="M68.5092 37.2278C68.5092 32.8983 69.0061 28.5875 70 24.2954C65.5828 22.7651 61.2761 22 57.0798 22C52.9202 22 49.5338 23.8102 46.9203 27.4305C44.3067 31.0135 43 35.1937 43 39.9711C43 43.1062 43.773 45.7374 45.319 47.8649C46.865 49.955 49.0368 51 51.8344 51C53.0123 51 54.1534 50.6641 55.2577 49.9923C57.6872 48.4994 60.2086 44.9163 62.8221 39.2433C62.3436 42.0051 62.1043 44.1885 62.1043 45.7934C62.1043 47.361 62.3804 48.574 62.9325 49.4324C63.4846 50.2535 64.4601 50.6641 65.8589 50.6641C67.2577 50.6641 68.6196 50.4402 69.9447 49.9923C68.9877 45.7748 68.5092 41.5199 68.5092 37.2278ZM57.7976 26.7587C59.1595 26.7587 60.816 27.0572 62.7668 27.6544C61.5889 32.2079 59.9877 36.4067 57.9632 40.251C55.9386 44.0952 54.2822 46.0174 52.9939 46.0174C51.8896 46.0174 51.0614 45.1403 50.5093 43.3861C49.9939 41.6319 49.7362 39.8964 49.7362 38.1796C49.7362 34.9324 50.362 31.7413 51.6135 28.6061C52.9755 27.3745 55.0368 26.7587 57.7976 26.7587Z" fill="#7908F4"/>
<path fill-rule="evenodd" clip-rule="evenodd" d="M80 19.2867L78.1896 26.9946C77.3491 30.5732 76.9339 34.1426 76.9339 37.7158C76.9339 41.272 77.3353 44.7992 78.1433 48.3097L79.9248 56.0491L72.3877 58.5605C70.1729 59.2984 67.8807 59.6697 65.5468 59.6697C63.6873 59.6697 61.2667 59.3091 59.0281 58.0192C56.8038 59.2624 54.28 60 51.5561 60C46.2866 60 41.4128 57.8869 38.062 53.4208L38.0398 53.3912L38.0178 53.3614C35.1732 49.5024 34 45.0045 34 40.4137C34 33.9945 35.8181 28.036 39.6117 22.9007C43.742 17.2702 49.6573 14 56.7889 14C62.0384 14 67.2896 14.9457 72.5048 16.7268L80 19.2867ZM67.2176 50.8226C68.0325 50.7166 68.8342 50.5321 69.6229 50.2693C69.3359 49.0224 69.092 47.7722 68.8913 46.5186C68.871 46.3925 68.8512 46.2662 68.8319 46.1399C68.8103 45.9985 68.7892 45.8569 68.7686 45.7154C68.7606 45.6601 68.7527 45.6048 68.7448 45.5496C68.6402 44.8146 68.5506 44.0784 68.4756 43.3412C68.4451 43.0412 68.4171 42.741 68.3915 42.4406C68.3423 41.8639 68.3021 41.2864 68.2711 40.7083C68.2638 40.5733 68.257 40.4382 68.2507 40.3031C68.2269 39.7899 68.2102 39.2761 68.2006 38.7618C68.194 38.4134 68.1908 38.0647 68.1908 37.7158C68.1908 35.1195 68.3751 32.5302 68.7437 29.9475C68.9796 28.2946 69.2911 26.6444 69.678 24.9971C67.74 24.3352 65.8232 23.8188 63.9278 23.448C63.0309 23.2725 62.1388 23.1297 61.2514 23.0195C61.2223 23.0159 61.1932 23.0122 61.1642 23.0087C59.9352 22.8589 58.7155 22.7716 57.505 22.747C57.2659 22.742 57.0273 22.7396 56.7889 22.7396C53.5399 22.7396 50.7637 23.8311 48.4602 26.0139C47.9814 26.4677 47.5229 26.9686 47.0849 27.5168C46.939 27.6994 46.7953 27.8873 46.6538 28.0804C44.3778 31.1566 43.0953 34.6804 42.8061 38.6519C42.7641 39.2296 42.7431 39.8169 42.7431 40.4137C42.7431 42.3855 43.0584 44.1546 43.6892 45.7211C43.7058 45.7623 43.7225 45.8033 43.7396 45.8443C44.0875 46.6804 44.5264 47.458 45.0565 48.1771C46.5988 50.2327 48.7654 51.2604 51.5561 51.2604C51.9458 51.2604 52.3313 51.2241 52.7129 51.1515C53.0371 51.0898 53.3584 51.0018 53.6769 50.8876C54.1138 50.7309 54.5452 50.5248 54.9712 50.2693C56.2696 49.4828 57.5942 48.1063 58.9453 46.1399C59.2404 45.7102 59.5369 45.2524 59.8346 44.7665C60.2575 44.0762 60.6828 43.3293 61.1107 42.5255C61.5766 41.6503 62.0455 40.7078 62.5174 39.698C62.3032 40.9165 62.1371 42.0207 62.019 43.0102C61.8739 44.2264 61.8013 45.2696 61.8013 46.1399C61.8013 47.5393 62.0282 48.6514 62.4821 49.4761C62.5282 49.5599 62.5767 49.6408 62.6276 49.7188C63.1783 50.5263 64.1515 50.9301 65.5468 50.9301C65.7907 50.9301 66.0334 50.9234 66.275 50.9099C66.5911 50.8923 66.9054 50.8632 67.2176 50.8226ZM59.2515 37.4666C59.3187 37.3169 59.3854 37.1666 59.4515 37.0159C59.515 36.8713 59.5778 36.7261 59.6402 36.5805C60.1795 35.3207 60.6774 34.0268 61.134 32.6988C61.2281 32.425 61.3205 32.1497 61.4112 31.8729C61.7927 30.7079 62.1431 29.5171 62.4623 28.3006C61.7703 28.0918 61.1155 27.9201 60.4977 27.7856C60.4099 27.7664 60.3227 27.748 60.2363 27.7304C59.2222 27.5232 58.3118 27.4197 57.505 27.4197C57.2608 27.4197 57.022 27.4244 56.7889 27.4339C55.516 27.4859 54.4065 27.6798 53.4603 28.0154C52.6247 28.3118 51.9165 28.7189 51.3358 29.2366C51.0948 29.8318 50.8771 30.4289 50.6826 31.0281C50.68 31.0364 50.6773 31.0446 50.6746 31.0529C49.9971 33.1477 49.6038 35.2674 49.4945 37.4124C49.4779 37.7395 49.4678 38.0672 49.4644 38.3955C49.4635 38.4809 49.463 38.5664 49.463 38.6519C49.463 39.2369 49.4939 39.8242 49.5556 40.4137C49.672 41.5255 49.8982 42.6449 50.2341 43.7724C50.2802 43.9168 50.3283 44.0551 50.3783 44.1874C50.3852 44.2057 50.3922 44.224 50.3991 44.2421C50.7112 45.0492 51.0968 45.6257 51.5561 45.9714C51.8695 46.2074 52.2172 46.3359 52.5991 46.3571C52.6072 46.3575 52.6154 46.3578 52.6236 46.3582C52.6532 46.3595 52.6828 46.3601 52.7129 46.3601C52.8254 46.3601 52.9408 46.3457 53.0589 46.3166C53.2067 46.2804 53.3589 46.2215 53.5154 46.1399C54.5259 45.6135 55.7196 44.1432 57.0968 41.729C57.1303 41.6702 57.164 41.6108 57.1977 41.5508C57.353 41.2754 57.5104 40.9881 57.6702 40.689C57.7714 40.4996 57.8716 40.3092 57.9707 40.1179C58.0672 39.9318 58.1626 39.7449 58.257 39.5571C58.3503 39.3717 58.4425 39.1855 58.5338 38.9984C58.6872 38.6842 58.8378 38.3677 58.9856 38.0489C59.0753 37.8556 59.1639 37.6616 59.2515 37.4666Z" fill="url(#paint1_linear)"/>
<path d="M100.027 28.0463L99.4864 40.363C99.4864 43.7594 99.9909 47.0811 101 50.3282C99.9909 50.7761 98.838 51 97.5402 51C94.4775 51 92.9457 49.2272 92.9457 45.6815C92.9457 44.0766 93.1442 41.3893 93.5404 37.6197C93.9366 33.8128 94.1351 31.424 94.1351 30.4536C94.1351 28.5875 93.3245 27.6544 91.7026 27.6544C90.5132 27.6544 89.1626 28.5502 87.6486 30.3417C86.1712 32.0959 84.8918 34.074 83.8108 36.276C82.7658 38.4408 82.1532 40.2323 81.9729 41.6506C82.1171 44.5618 82.4775 47.3423 83.054 49.9923C81.9009 50.4402 80.6937 50.6641 79.4324 50.6641C78.2072 50.6641 77.1982 50.3655 76.4054 49.7683C75.6486 49.1338 75.2703 48.2755 75.2703 47.193C75.2703 46.0734 75.4324 44.0952 75.7567 41.2587C76.0811 38.3848 76.2432 35.5482 76.2432 32.749C76.2432 29.9125 75.8288 26.6653 75 23.0077C76.1531 22.5598 77.3784 22.3359 78.6756 22.3359C79.9729 22.3359 81.0181 22.7278 81.8108 23.5115C82.6397 24.2954 83.054 25.2658 83.054 26.4227C83.054 27.5798 82.9099 29.4273 82.6216 31.9653C83.991 29.3153 85.7748 27.0013 87.973 25.0232C90.1708 23.0077 92.3692 22 94.5677 22C98.2069 22 100.027 24.0154 100.027 28.0463Z" fill="#7908F4"/>
<path fill-rule="evenodd" clip-rule="evenodd" d="M108.023 28.8846L107.478 40.9821C107.497 43.3454 107.864 45.6489 108.588 47.9222L111 55.4978L103.763 58.6326C101.492 59.6161 99.1389 60 96.8701 60C94.258 60 91.1435 59.3552 88.4938 57.2448L85.3077 58.4525C83.1511 59.2699 80.9043 59.6697 78.6218 59.6697C76.0216 59.6697 73.0967 59.0365 70.4857 57.1171L70.3048 56.9841L70.131 56.842C67.1758 54.4239 65.7808 50.9964 65.7808 47.5164C65.7808 45.8379 66.0065 43.4231 66.3303 40.6589C66.619 38.1603 66.7613 35.7117 66.7613 33.311C66.7613 31.37 66.4663 28.8677 65.7372 25.7276L64 18.2459L71.119 15.5476C73.303 14.7197 75.571 14.3303 77.8593 14.3303C80.2945 14.3303 82.8797 14.9318 85.1851 16.4559C87.722 14.968 90.6307 14 93.8744 14C97.1951 14 101.234 14.925 104.316 18.2568C107.297 21.4782 108.023 25.497 108.023 28.6861V28.8846ZM76.6795 23.1318C75.803 23.2254 74.9616 23.425 74.155 23.7307C74.4248 24.8924 74.651 26.0118 74.8336 27.0893C74.8427 27.1427 74.8516 27.1961 74.8604 27.2492C74.9537 27.8106 75.035 28.3605 75.1045 28.8988C75.1668 29.3822 75.2195 29.8563 75.2627 30.3212C75.2706 30.4056 75.2781 30.4896 75.2852 30.5733C75.291 30.6409 75.2966 30.7082 75.302 30.7754C75.3291 31.1123 75.3509 31.4442 75.3676 31.771C75.375 31.9143 75.3812 32.0564 75.3866 32.1977C75.3926 32.3571 75.3973 32.5153 75.4008 32.6723C75.4021 32.7345 75.4033 32.7966 75.4043 32.8585C75.4047 32.8804 75.405 32.9024 75.4053 32.9243C75.407 33.0541 75.4079 33.183 75.4079 33.311C75.4079 35.9207 75.2611 38.5634 74.9674 41.239C74.9513 41.3859 74.9347 41.533 74.9177 41.6801C74.889 41.9247 74.8616 42.1628 74.8355 42.3944C74.5635 44.8044 74.4274 46.5118 74.4274 47.5164C74.4274 48.5808 74.8088 49.4251 75.5713 50.0491C76.3703 50.6364 77.3872 50.9301 78.6218 50.9301C78.9326 50.9301 79.24 50.9169 79.5442 50.8906C80.4844 50.8092 81.3936 50.6021 82.2716 50.2693C82.0705 49.3671 81.8954 48.4494 81.7464 47.5164C81.5369 46.2031 81.379 44.8592 81.2728 43.4849C81.2458 43.136 81.2223 42.7851 81.202 42.4323C81.2018 42.429 81.2016 42.4257 81.2014 42.4224C81.1946 42.3037 81.1882 42.1847 81.1822 42.0655C81.3637 40.6707 81.9811 38.9087 83.0342 36.7798C83.3516 36.149 83.6859 35.5368 84.0371 34.9433C84.0373 34.943 84.0375 34.9427 84.0376 34.9425C84.206 34.6581 84.3783 34.3779 84.5544 34.102C84.5688 34.0794 84.5833 34.0569 84.5978 34.0343C84.8113 33.7021 85.0304 33.3762 85.2551 33.0565C85.2789 33.0226 85.3028 32.989 85.3266 32.9553C85.7957 32.2944 86.2893 31.6606 86.8074 31.0536C86.8388 31.0168 86.8703 30.9801 86.9018 30.9435C87.9106 29.7783 88.8476 28.9983 89.7134 28.6037C89.7248 28.5985 89.7361 28.5935 89.7475 28.5886C90.0882 28.4366 90.4184 28.3449 90.7373 28.3132C90.7888 28.3081 90.8386 28.3046 90.8893 28.3026C90.9225 28.3013 90.9548 28.3006 90.9871 28.3006C91.1156 28.3006 91.2396 28.3063 91.3576 28.3177C91.8031 28.3603 92.1761 28.4831 92.4784 28.6861C93.1188 29.1158 93.4385 29.905 93.4385 31.0536C93.4385 31.144 93.4368 31.2469 93.4333 31.3622C93.4289 31.5139 93.421 31.6872 93.4097 31.8822C93.3564 32.8431 93.2271 34.3292 93.0227 36.3407C93.0227 36.3457 93.0218 36.3507 93.0218 36.3558C93.0104 36.4647 92.9991 36.5752 92.9877 36.6871C92.9676 36.8816 92.9467 37.0805 92.9257 37.2842C92.8977 37.5487 92.8698 37.821 92.8392 38.1012C92.7466 38.9624 92.6645 39.7662 92.5937 40.5125C92.5841 40.6091 92.5754 40.7045 92.5666 40.7992C92.3491 43.1219 92.2399 44.8655 92.2399 46.0298C92.2399 49.5169 93.7836 51.2604 96.8701 51.2604C97.6415 51.2604 98.3622 51.1838 99.0323 51.0305C99.4988 50.9239 99.94 50.7803 100.357 50.5998C99.8771 49.0927 99.5102 47.5694 99.2568 46.0298C99.1083 45.1269 98.9991 44.2185 98.9283 43.3045C98.8637 42.474 98.8314 41.6388 98.8314 40.7992L99.3765 28.6861C99.3765 24.7218 97.5428 22.7396 93.8744 22.7396C92.9117 22.7396 91.9499 22.9267 90.9871 23.3007C90.8002 23.3735 90.6132 23.4532 90.4263 23.5401C89.3605 24.0349 88.2946 24.7592 87.2287 25.7129C86.7256 26.1546 86.2441 26.6134 85.7841 27.0893C85.2851 27.6056 84.8114 28.1419 84.3631 28.6982C84.362 28.6995 84.361 28.7008 84.3599 28.7021C84.1885 28.9149 84.0208 29.1307 83.8567 29.3494C83.1053 30.3514 82.4316 31.415 81.8358 32.5402C82.1264 30.0442 82.2716 28.2272 82.2716 27.0893C82.2716 27.0105 82.2696 26.9326 82.2656 26.8556C82.2654 26.8512 82.2651 26.8468 82.2649 26.8425C82.2115 25.8727 81.84 25.0427 81.1503 24.3526C81.1076 24.3099 81.0638 24.2678 81.0187 24.2262C80.2198 23.4554 79.1666 23.07 77.8593 23.07C77.8216 23.07 77.7841 23.0702 77.7467 23.0705C77.3853 23.074 77.0297 23.0944 76.6795 23.1318Z" fill="url(#paint2_linear)"/>
<path fill-rule="evenodd" clip-rule="evenodd" d="M127.454 9C126.197 9 124.978 9.21695 123.794 9.65079C124.534 13.8087 124.94 18.2196 125.014 22.8836C123.203 22.2328 121.059 21.9074 118.583 21.9074C116.107 21.9074 113.76 22.7932 111.542 24.5648C109.362 26.3003 107.717 28.4877 106.608 31.127C105.536 33.7301 105 36.5141 105 39.4789C105 42.4435 105.74 44.9383 107.217 46.963C108.733 48.9877 110.896 50 113.705 50C114.961 50 116.143 49.6927 117.253 49.0781C118.398 48.4273 119.563 47.3245 120.745 45.7698C121.965 44.2152 123.351 41.829 124.903 38.6111C124.423 41.5035 124.183 43.5101 124.183 44.631C124.183 47.9934 125.403 49.6746 127.842 49.6746C129.283 49.6746 130.669 49.4577 132 49.0239C131.113 44.1067 130.669 39.4789 130.669 35.1403C130.669 30.7655 130.854 26.3364 131.224 21.8531C131.593 17.3338 131.778 14.4775 131.778 13.2844C131.778 12.0551 131.371 11.0427 130.558 10.2474C129.745 9.41578 128.71 9 127.454 9ZM119.138 26.5172C121.244 26.5172 123.203 26.8426 125.014 27.4934C124.312 31.8321 122.87 35.8633 120.689 39.5873C118.546 43.3113 116.624 45.1733 114.924 45.1733C113.816 45.1733 113.021 44.4141 112.54 42.8956C112.06 41.377 111.82 39.7862 111.82 38.123C111.82 34.5075 112.448 31.2355 113.705 28.3069C115.22 27.1138 117.031 26.5172 119.138 26.5172Z" fill="#7908F4"/>
<path fill-rule="evenodd" clip-rule="evenodd" d="M113.758 3.81776L120.619 1.23562C122.795 0.416897 125.071 0 127.4 0C130.862 0 134.242 1.2671 136.84 3.95439C139.428 6.58996 140.586 9.93792 140.586 13.2877C140.586 14.9488 140.363 18.2882 140.001 22.8264L140 22.8321C139.647 27.222 139.472 31.5488 139.472 35.8129C139.472 39.6972 139.859 43.9469 140.674 48.58L142 56.1181L134.763 58.5386C132.5 59.2956 130.161 59.6646 127.79 59.6646C125.646 59.6646 123.403 59.1489 121.403 57.9573C119.007 59.296 116.357 60 113.586 60C108.256 60 103.298 57.8485 99.9358 53.2389L99.9046 53.197L99.8751 53.1547C97.1255 49.2925 96 44.8261 96 40.2845C96 36.158 96.7325 32.1572 98.2556 28.3621L98.2672 28.3332L98.2788 28.3044C99.9305 24.2712 102.452 20.7944 105.828 18.0366C108.599 15.7676 111.817 14.1543 115.398 13.5573C115.283 12.7119 115.155 11.8805 115.013 11.0629L113.758 3.81776ZM128.678 50.764C129.81 50.6908 130.906 50.4767 131.967 50.1218C131.733 48.7857 131.528 47.4703 131.356 46.1757C131.33 45.9814 131.304 45.7877 131.28 45.5944C131.172 44.7463 131.078 43.907 130.996 43.0769C130.971 42.8074 130.946 42.539 130.921 42.2714C130.865 41.6284 130.817 40.9908 130.778 40.3587C130.769 40.2179 130.76 40.0774 130.752 39.9371C130.749 39.8856 130.746 39.8343 130.743 39.783C130.668 38.4345 130.63 37.1112 130.63 35.8129C130.63 35.4518 130.632 35.0902 130.634 34.7283C130.647 32.7818 130.694 30.8249 130.776 28.8577C130.855 26.9433 130.968 25.0191 131.113 23.085C131.137 22.7632 131.162 22.4413 131.188 22.1189C131.223 21.6692 131.257 21.2353 131.289 20.8175C131.593 16.9086 131.744 14.3986 131.744 13.2877C131.744 12.0208 131.336 10.9774 130.519 10.1576C129.736 9.33581 128.747 8.90803 127.555 8.87423C127.503 8.87279 127.452 8.87206 127.4 8.87206C126.137 8.87206 124.912 9.09567 123.723 9.54279C123.936 10.7697 124.122 12.018 124.279 13.2877C124.302 13.4708 124.324 13.6544 124.346 13.8384C124.425 14.512 124.497 15.1914 124.56 15.8769C124.567 15.9562 124.575 16.0355 124.583 16.1149C124.601 16.3249 124.619 16.5355 124.637 16.7465C124.69 17.38 124.736 18.0185 124.776 18.662C124.836 19.6336 124.882 20.6166 124.912 21.6111C124.912 21.6125 124.912 21.6139 124.912 21.6152C124.928 22.134 124.941 22.6559 124.949 23.181C124.131 22.8793 123.244 22.6455 122.291 22.4795C121.285 22.3042 120.202 22.2046 119.045 22.1806C118.861 22.1767 118.675 22.1748 118.488 22.1748C117.675 22.1748 116.876 22.2722 116.092 22.467C114.473 22.8686 112.914 23.6841 111.414 24.9136C111.228 25.0657 111.045 25.2211 110.867 25.3799C110.309 25.8763 109.789 26.4057 109.307 26.9679C108.13 28.3412 107.18 29.9109 106.457 31.6768C105.546 33.9469 105.02 36.3503 104.879 38.8871C104.854 39.3485 104.841 39.8143 104.841 40.2845C104.841 42.3596 105.184 44.2113 105.869 45.8395C106.192 46.6088 106.593 47.3282 107.069 47.9978C108.592 50.0846 110.764 51.1279 113.586 51.1279C114.002 51.1279 114.411 51.0934 114.812 51.0245C115.2 50.9575 115.582 50.858 115.955 50.726C116.363 50.582 116.761 50.3992 117.151 50.1777C118.302 49.5069 119.472 48.3705 120.66 46.7682C120.928 46.4179 121.204 46.0266 121.487 45.5944C121.733 45.2211 121.984 44.8171 122.241 44.3826C122.651 43.6897 123.077 42.9189 123.517 42.0705C123.52 42.0632 123.525 42.0559 123.529 42.0485C123.951 41.2339 124.387 40.3477 124.837 39.3902C124.644 40.5815 124.491 41.627 124.374 42.5266C124.373 42.5381 124.372 42.5494 124.37 42.5608C124.199 43.8956 124.114 44.9067 124.114 45.5944C124.114 47.375 124.437 48.6981 125.084 49.5639C125.697 50.383 126.598 50.7926 127.79 50.7926C127.932 50.7926 128.074 50.7904 128.217 50.786C128.371 50.7813 128.526 50.7739 128.678 50.764ZM121.822 38.0717C121.837 38.0419 121.85 38.0121 121.864 37.9823C121.977 37.7463 122.086 37.5091 122.193 37.2708C122.409 36.7894 122.614 36.3034 122.809 35.8129C123.265 34.6615 123.662 33.4848 124 32.2829C124.399 30.8675 124.715 29.4172 124.949 27.9319C124.44 27.7443 123.919 27.5829 123.387 27.4477C122.934 27.3326 122.473 27.2366 122.002 27.1596C121.051 27.0037 120.065 26.9258 119.045 26.9258C118.916 26.9258 118.787 26.9281 118.66 26.9327C118.602 26.9348 118.545 26.9373 118.488 26.9404C117.63 26.9857 116.824 27.1372 116.07 27.3947C115.403 27.6221 114.777 27.9322 114.19 28.3251C114.188 28.3266 114.186 28.3282 114.183 28.3297C113.979 28.4666 113.78 28.6134 113.586 28.7703C112.906 30.3962 112.409 32.1247 112.095 33.9559C112.093 33.9704 112.091 33.9847 112.088 33.9991C111.874 35.2633 111.746 36.5762 111.706 37.9381C111.704 38.0005 111.702 38.063 111.701 38.1256C111.695 38.3778 111.692 38.6316 111.692 38.8871C111.692 39.3585 111.71 39.8243 111.747 40.2845C111.843 41.4974 112.067 42.6712 112.416 43.8058C112.439 43.8784 112.462 43.9493 112.486 44.0185C112.495 44.0446 112.504 44.0705 112.512 44.0961C112.785 44.8587 113.143 45.4093 113.586 45.7479C113.94 46.0182 114.348 46.1533 114.812 46.1533C114.815 46.1533 114.819 46.1533 114.823 46.1533C114.84 46.1532 114.859 46.1529 114.878 46.1523C115.01 46.1486 115.143 46.1333 115.278 46.1068C115.665 46.0303 116.063 45.8595 116.473 45.5944C116.871 45.337 117.278 44.9906 117.697 44.5553C117.71 44.5421 117.722 44.5289 117.735 44.5155C118.455 43.758 119.206 42.7376 119.987 41.4545C120.172 41.1493 120.36 40.8291 120.549 40.4941C120.567 40.4616 120.586 40.429 120.604 40.3963C120.621 40.3679 120.637 40.3395 120.653 40.3111C120.929 39.8248 121.193 39.3333 121.444 38.8369C121.574 38.5832 121.699 38.328 121.822 38.0717Z" fill="url(#paint3_linear)"/>
<path d="M137.985 41.4392L138.532 33.6296C138.532 30.1226 138.021 26.7963 137 23.6508C138.021 23.2169 139.28 23 140.775 23C143.692 23 145.151 24.609 145.151 27.8267C145.151 29.2729 144.951 31.3157 144.549 33.955C144.148 36.5944 143.947 38.4202 143.947 39.4326C143.947 40.4087 143.966 41.1318 144.003 41.6018C144.039 42.0358 144.13 42.56 144.276 43.1746C144.495 44.4039 145.206 45.0185 146.409 45.0185C147.65 45.0185 148.962 44.0604 150.348 42.1442C151.77 40.1918 152.901 38.0405 153.74 35.6905C154.615 33.3404 155.053 31.4784 155.053 30.1045C154.87 27.2482 154.56 25.097 154.123 23.6508C155.289 23.2169 156.475 23 157.678 23C158.919 23 159.94 23.3796 160.742 24.1389C161.581 24.8982 162 25.9106 162 27.176C162 46.9167 158.353 58.7575 151.059 62.6984C149.418 63.5662 147.558 64 145.479 64C143.401 64 141.577 63.4577 140.009 62.373C138.477 61.2884 137.712 59.7698 137.712 57.8174C137.712 56.5159 138.204 55.4132 139.189 54.5093C140.173 53.6415 141.34 53.2077 142.689 53.2077C142.982 53.2077 143.347 53.2438 143.783 53.3162C143.675 53.7862 143.619 54.2019 143.619 54.5635C143.619 57.7451 144.732 59.336 146.957 59.336C148.306 59.336 149.528 58.6129 150.622 57.1667C151.716 55.7204 152.591 53.9488 153.248 51.8518C154.524 47.5855 155.162 43.7169 155.162 40.2461C154.068 43.1746 152.573 45.5428 150.676 47.3505C148.817 49.1221 146.793 50.008 144.605 50.008C140.192 50.008 137.985 47.1517 137.985 41.4392Z" fill="#7908F4"/>
<path fill-rule="evenodd" clip-rule="evenodd" d="M129.031 41.5683L129.585 33.5404C129.559 30.904 129.169 28.4913 128.457 26.2609L126 18.5705L133.371 15.3881C135.811 14.3343 138.348 14 140.668 14C143.043 14 145.872 14.5367 148.38 16.268L151.112 15.2356C153.249 14.4284 155.496 14 157.81 14C161.014 14 164.29 15.0604 166.928 17.5608C169.79 20.2337 171 23.7493 171 27.1759C171 37.7709 170.051 46.8908 167.842 54.1785C165.653 61.4009 161.854 67.9843 155.312 71.5768L155.277 71.5959L155.242 71.6148C152.158 73.2719 148.819 74 145.438 74C141.693 74 138.05 72.9752 134.852 70.7273L134.812 70.6992L134.772 70.6706C130.781 67.7985 128.755 63.4771 128.755 58.756C128.755 56.0262 129.532 53.4937 130.956 51.3372C129.447 48.2403 129.031 44.8551 129.031 41.876V41.5683ZM155.598 23.1214C155.131 23.2278 154.666 23.3683 154.204 23.5428C154.481 24.4717 154.707 25.6827 154.883 27.1759C154.988 28.0639 155.075 29.0517 155.144 30.1392C155.146 30.1575 155.146 30.1758 155.147 30.1942C155.147 30.2669 155.146 30.3409 155.144 30.4163C155.141 30.5155 155.136 30.6171 155.129 30.7209C155.036 32.0738 154.598 33.8173 153.816 35.9512C153.549 36.7106 153.254 37.4497 152.929 38.1687C152.889 38.2569 152.848 38.3448 152.808 38.4324C152.782 38.4882 152.756 38.5439 152.73 38.5995C152.581 38.9136 152.426 39.2237 152.266 39.5299C152.218 39.623 152.168 39.7157 152.12 39.808C152.092 39.8581 152.065 39.9082 152.038 39.9581C151.911 40.1899 151.781 40.4192 151.648 40.6464C151.491 40.9132 151.33 41.1768 151.164 41.4373C151.154 41.4536 151.143 41.47 151.133 41.4863C150.995 41.7016 150.854 41.9148 150.71 42.1257C150.61 42.2732 150.507 42.4196 150.403 42.565C150.394 42.5775 150.385 42.5901 150.376 42.6026C149.542 43.7753 148.733 44.5998 147.951 45.0762C147.95 45.0765 147.95 45.0768 147.949 45.077C147.415 45.4023 146.892 45.565 146.382 45.565C146.373 45.565 146.364 45.565 146.355 45.5649C146.22 45.5639 146.092 45.5551 145.97 45.5385C145.793 45.5146 145.63 45.4744 145.479 45.4179C145.081 45.2689 144.771 45.0066 144.551 44.631C144.396 44.3655 144.284 44.0434 144.219 43.6647C144.098 43.1499 144.014 42.6966 143.968 42.3048C143.957 42.2146 143.948 42.1275 143.941 42.0437C143.936 41.9909 143.933 41.9351 143.929 41.876C143.9 41.3937 143.885 40.7044 143.885 39.808C143.885 39.359 143.923 38.7549 143.998 37.9955C144 37.9851 144.001 37.9746 144.001 37.9641C144.027 37.7052 144.057 37.4284 144.092 37.1338C144.14 36.7205 144.197 36.2721 144.263 35.7885C144.328 35.311 144.401 34.7993 144.482 34.2533C144.486 34.2232 144.491 34.1929 144.495 34.1626C144.512 34.0498 144.529 33.938 144.545 33.8273C144.919 31.2689 145.106 29.2753 145.106 27.8466C145.106 24.5302 143.626 22.872 140.668 22.872C139.711 22.872 138.851 22.961 138.085 23.1388C137.637 23.243 137.222 23.3776 136.839 23.5428C137.286 24.9426 137.637 26.3772 137.892 27.8466C138.059 28.8172 138.185 29.8029 138.269 30.8038C138.335 31.6047 138.376 32.4152 138.388 33.2355C138.392 33.4322 138.392 33.6295 138.392 33.8273L137.838 41.876C137.838 42.0934 137.841 42.3066 137.847 42.5159C137.848 42.529 137.848 42.5421 137.848 42.5552C137.873 43.3481 137.941 44.0833 138.054 44.7605C138.074 44.8791 138.094 44.9959 138.118 45.1109C138.164 45.3481 138.215 45.5778 138.273 45.7998C138.943 48.3827 140.389 49.946 142.609 50.4898C143.125 50.6161 143.684 50.6875 144.283 50.7037C144.372 50.7061 144.461 50.7073 144.551 50.7073C144.588 50.7073 144.624 50.707 144.661 50.7065C145.218 50.699 145.763 50.6336 146.299 50.5106C146.326 50.5043 146.354 50.4978 146.382 50.4912C146.413 50.4838 146.444 50.476 146.474 50.4682C147.969 50.0882 149.38 49.255 150.709 47.9685C150.982 47.7034 151.248 47.4267 151.506 47.1383C151.684 46.9372 151.86 46.7305 152.031 46.5181C152.481 45.9604 152.902 45.3637 153.297 44.7278C153.299 44.7242 153.301 44.7206 153.304 44.7171C154.056 43.5028 154.707 42.1458 155.259 40.6464C155.259 42.289 155.122 44.018 154.849 45.8335C154.848 45.8406 154.847 45.8477 154.846 45.8547C154.591 47.5401 154.22 49.2999 153.731 51.1341C153.73 51.1347 153.73 51.1353 153.73 51.136C153.653 51.4255 153.572 51.7168 153.49 52.01C153.433 52.2083 153.376 52.4076 153.317 52.6077C153.129 53.2147 152.926 53.7953 152.703 54.3495C152.569 54.6846 152.428 55.0101 152.281 55.3259C152.269 55.3515 152.257 55.377 152.245 55.4024C152.145 55.6151 152.042 55.8233 151.935 56.0272C151.547 56.7725 151.12 57.4585 150.654 58.0853C150.529 58.2535 150.401 58.4122 150.273 58.5614C149.85 59.0532 149.408 59.4419 148.948 59.7275C148.937 59.7348 148.925 59.742 148.914 59.7492C148.287 60.1305 147.629 60.321 146.937 60.321C146.634 60.321 146.353 60.2917 146.091 60.2329C145.857 60.1805 145.64 60.1045 145.438 60.0051C145.211 59.8926 145.003 59.75 144.816 59.5773C144.723 59.4907 144.634 59.3965 144.551 59.2947C144.42 59.1341 144.301 58.9545 144.195 58.756C144.057 58.4943 143.94 58.1999 143.846 57.8726C143.837 57.8413 143.828 57.8098 143.819 57.7778C143.641 57.1154 143.552 56.3236 143.552 55.4024C143.552 55.2782 143.558 55.1478 143.571 55.0112C143.595 54.7416 143.644 54.4477 143.716 54.1297C143.717 54.1255 143.718 54.1212 143.718 54.1169C143.663 54.1074 143.608 54.0987 143.555 54.0905C143.183 54.0335 142.868 54.005 142.609 54.005C141.241 54.005 140.057 54.4522 139.059 55.3465C139.038 55.365 139.019 55.3837 138.999 55.4024C138.213 56.1574 137.749 57.0449 137.608 58.0645C137.577 58.2886 137.561 58.5192 137.561 58.756C137.561 60.7682 138.337 62.3333 139.891 63.4512C141.481 64.569 143.331 65.128 145.438 65.128C145.951 65.128 146.45 65.1015 146.937 65.0487C148.451 64.8841 149.837 64.4635 151.097 63.7865C152.351 63.0983 153.498 62.1765 154.539 61.0209C156.103 59.2852 157.427 57.0221 158.511 54.2318C158.519 54.2103 158.527 54.1888 158.536 54.1673C158.887 53.2592 159.213 52.2955 159.512 51.2763C160.24 48.8049 160.82 46.007 161.252 42.8827C161.352 42.155 161.445 41.4095 161.53 40.6464C161.538 40.5672 161.546 40.4879 161.555 40.4084C161.563 40.3382 161.57 40.2678 161.578 40.1973C161.624 39.7659 161.667 39.329 161.707 38.8866C161.71 38.8471 161.714 38.8076 161.717 38.7681C161.957 36.1098 162.107 33.2518 162.165 30.1942C162.168 30.0453 162.171 29.896 162.173 29.7462C162.187 28.9044 162.193 28.0476 162.193 27.1759C162.193 25.8717 161.768 24.8283 160.917 24.0458C160.104 23.2633 159.068 22.872 157.81 22.872C157.067 22.872 156.329 22.9551 155.598 23.1214Z" fill="url(#paint4_linear)"/>
<path d="M27.5344 11C30.7055 11 33.4756 11.9264 35.8448 13.7793C38.214 15.6321 39.3986 18.0299 39.3986 20.9727C39.3986 22.5349 38.9612 23.8247 38.0864 24.842C37.2117 25.8592 36.1364 26.3679 34.8607 26.3679C33.5849 26.3679 32.5644 26.2043 31.7989 25.8774C31.9084 25.2961 31.963 24.6785 31.963 24.0245C31.9265 21.7357 31.3616 19.8828 30.2681 18.4659C29.1747 17.0127 27.5709 16.2861 25.4568 16.2861C23.3792 16.2861 21.4474 16.9582 19.6614 18.3024C18.6044 19.8283 17.7843 21.8265 17.201 24.297C16.6178 26.7675 16.3263 29.2017 16.3263 31.5994C16.3263 35.5959 17.0917 38.9564 18.6226 41.6812C20.1899 44.3696 22.6138 45.7139 25.8942 45.7139C28.9195 45.7139 30.9607 44.5695 32.0177 42.2807C33.0018 40.2825 33.4938 37.6303 33.4938 34.3242C35.3528 34.3242 36.9018 34.6694 38.1411 35.3597C39.3804 36.0136 40 37.1036 40 38.6294C40 42.1899 38.4328 45.1508 35.2981 47.5123C32.1634 49.8374 28.6279 51 24.6913 51C19.5521 51 15.652 49.3107 12.9912 45.9319C10.3304 42.5168 9 37.9028 9 32.0899C9 26.277 10.6585 21.3178 13.9753 17.2125C17.3286 13.0708 21.8483 11 27.5344 11Z" fill="#7908F4"/>
<path fill-rule="evenodd" clip-rule="evenodd" d="M26.4239 28.7262L27.1367 24.9418C27.1853 24.684 27.2179 24.3707 27.2198 23.993C27.1892 22.4497 26.8191 21.6762 26.507 21.2724L26.489 21.2491L26.4714 21.2257C26.387 21.1136 26.3375 21.0875 26.2898 21.0658C26.2189 21.0338 25.9829 20.9462 25.4675 20.9462C24.7049 20.9462 23.9558 21.1238 23.1653 21.5801C22.6793 22.4653 22.2068 23.6849 21.8176 25.3317C21.3081 27.4867 21.0613 29.5754 21.0613 31.6053C21.0613 35.0222 21.7128 37.5458 22.7484 39.4034C23.4125 40.5256 24.2191 41.0537 25.9098 41.0537C26.8463 41.0537 27.2572 40.876 27.3859 40.8041C27.4597 40.7627 27.5726 40.6954 27.7174 40.3822L27.7426 40.3279L27.7692 40.274C28.3203 39.1564 28.768 37.2881 28.768 34.3568V29.7262L26.4239 28.7262ZM38.6931 30.3403C39.9141 29.7881 40.9965 28.9608 41.903 27.9081C43.6591 25.8689 44.3919 23.3979 44.3919 20.8746C44.3919 16.3934 42.4857 12.5915 38.9511 9.83108C35.6583 7.25942 31.7937 6 27.5684 6C20.4685 6 14.4749 8.66634 10.1015 14.0605L10.0984 14.0642C5.98168 19.1526 4 25.2544 4 32.1006C4 38.6721 5.50786 44.4842 9.0504 49.0247L9.05803 49.0346L9.06574 49.0444C12.8516 53.8451 18.3336 56 24.6935 56C29.7038 56 34.2911 54.4977 38.3004 51.528L38.3148 51.5173L38.3291 51.5065C42.5666 48.3186 45 43.9707 45 38.7041C45 37.2836 44.708 35.7691 43.9027 34.3545C43.0946 32.935 41.925 31.8909 40.603 31.1836C39.9865 30.8442 39.3479 30.5654 38.6931 30.3403ZM33.5945 34.3568C33.5945 37.6953 33.0969 40.3733 32.1018 42.3911C31.0329 44.7023 28.9689 45.8579 25.9098 45.8579C22.5926 45.8579 20.1417 44.5006 18.5568 41.7857C17.0088 39.0343 16.2348 35.6408 16.2348 31.6053C16.2348 29.184 16.5297 26.7261 17.1194 24.2314C17.7091 21.7367 18.5384 19.7189 19.6072 18.1781C21.4132 16.8208 23.3666 16.142 25.4675 16.142C27.6052 16.142 29.2269 16.8757 30.3326 18.3432C31.4384 19.774 32.0096 21.645 32.0464 23.9562C32.0464 24.6165 31.9912 25.2402 31.8806 25.8272C32.5547 26.1148 33.4246 26.2771 34.4902 26.3143C34.648 26.3197 34.8102 26.3225 34.9766 26.3225C35.6166 26.3225 36.2067 26.196 36.747 25.9432C37.2956 25.6864 37.7928 25.2993 38.2385 24.7817C39.123 23.7544 39.5653 22.452 39.5653 20.8746C39.5653 17.9029 38.3675 15.4817 35.9718 13.6106C33.5761 11.7397 30.7749 10.8042 27.5684 10.8042C21.8187 10.8042 17.2484 12.8952 13.8575 17.0775C10.5035 21.2231 8.82652 26.2308 8.82652 32.1006C8.82652 37.9703 10.1718 42.6295 12.8623 46.0781C15.5529 49.4899 19.4966 51.1958 24.6935 51.1958C28.6741 51.1958 32.2492 50.0219 35.4189 47.6739C38.5886 45.2893 40.1735 42.2994 40.1735 38.7041C40.1735 37.2093 39.5838 36.1289 38.4045 35.4628C38.3682 35.4422 38.3312 35.4221 38.2937 35.4023C37.0406 34.7053 35.4742 34.3568 33.5945 34.3568Z" fill="url(#paint5_linear)"/>
<path fill-rule="evenodd" clip-rule="evenodd" d="M68.5092 37.2278C68.5092 32.8983 69.0061 28.5875 70 24.2954C65.5828 22.7651 61.2761 22 57.0798 22C52.9202 22 49.5338 23.8102 46.9203 27.4305C44.3067 31.0135 43 35.1937 43 39.9711C43 43.1062 43.773 45.7374 45.319 47.8649C46.865 49.955 49.0368 51 51.8344 51C53.0123 51 54.1534 50.6641 55.2577 49.9923C57.6872 48.4994 60.2086 44.9163 62.8221 39.2433C62.3436 42.0051 62.1043 44.1885 62.1043 45.7934C62.1043 47.361 62.3804 48.574 62.9325 49.4324C63.4846 50.2535 64.4601 50.6641 65.8589 50.6641C67.2577 50.6641 68.6196 50.4402 69.9447 49.9923C68.9877 45.7748 68.5092 41.5199 68.5092 37.2278ZM57.7976 26.7587C59.1595 26.7587 60.816 27.0572 62.7668 27.6544C61.5889 32.2079 59.9877 36.4067 57.9632 40.251C55.9386 44.0952 54.2822 46.0174 52.9939 46.0174C51.8896 46.0174 51.0614 45.1403 50.5093 43.3861C49.9939 41.6319 49.7362 39.8964 49.7362 38.1796C49.7362 34.9324 50.362 31.7413 51.6135 28.6061C52.9755 27.3745 55.0368 26.7587 57.7976 26.7587Z" fill="#7908F4"/>
<path fill-rule="evenodd" clip-rule="evenodd" d="M75 21.0127L74.0155 25.3482C73.1172 29.3037 72.6709 33.2627 72.6709 37.2321C72.6709 41.175 73.1016 45.0848 73.9658 48.9683L74.9346 53.3216L70.8358 54.7342C69.0432 55.352 67.1921 55.6622 65.302 55.6622C63.284 55.6622 60.7871 55.0894 59.018 52.9887C58.4659 53.4759 57.8968 53.9066 57.3096 54.2746L57.3006 54.2803L57.2915 54.2859C55.5345 55.3759 53.5716 56 51.4686 56C47.3612 56 43.7468 54.3384 41.2383 50.8804L41.2262 50.8637L41.2143 50.847C38.9811 47.7134 38 43.9925 38 39.9912C38 34.2183 39.5686 28.9747 42.7918 24.4645C46.1977 19.659 50.9178 17 56.6425 17C61.3599 17 66.1273 17.8783 70.9239 19.5727L75 21.0127ZM60.9065 22.1833C63.6858 22.5289 66.5125 23.2093 69.3867 24.2246C68.4064 28.5416 67.9162 32.8774 67.9162 37.2321C67.9162 41.5491 68.3882 45.8286 69.3323 50.0706C68.5525 50.3393 67.7597 50.5279 66.9541 50.6364C66.4093 50.7096 65.8586 50.7463 65.302 50.7463C65.0533 50.7463 64.8181 50.7329 64.5966 50.706C63.589 50.584 62.862 50.1845 62.4155 49.5075C62.3642 49.4262 62.3153 49.3416 62.2688 49.254C61.822 48.411 61.5986 47.2755 61.5986 45.8473C61.5986 44.8762 61.684 43.6945 61.8548 42.3021C61.9679 41.3802 62.1185 40.3659 62.3066 39.2592C61.84 40.292 61.3764 41.2558 60.9157 42.1509C60.1948 43.5518 59.4811 44.7839 58.7747 45.8473C58.1804 46.742 57.5912 47.5173 57.0073 48.1731C56.2786 48.9915 55.558 49.624 54.8452 50.0706C54.1171 50.5222 53.3729 50.8229 52.6123 50.9728C52.5854 50.978 52.5584 50.9831 52.5314 50.9881C52.1805 51.0521 51.8263 51.0841 51.4686 51.0841C48.7091 51.0841 46.5669 50.033 45.042 47.9308C43.5171 45.7911 42.7547 43.1445 42.7547 39.9912C42.7547 35.2236 44.0236 31.0473 46.5614 27.4622C46.5814 27.4341 46.6014 27.406 46.6215 27.3779C46.7613 27.1804 46.9033 26.9883 47.0477 26.8015C47.4807 26.2409 47.9341 25.7285 48.4075 25.2644C50.685 23.0321 53.4301 21.9159 56.6425 21.9159C56.8782 21.9159 57.1142 21.9184 57.3505 21.9234C58.5271 21.9482 59.7124 22.0348 60.9065 22.1833ZM50.7843 29.841C49.8608 32.5817 49.399 35.3644 49.399 38.1893C49.399 39.9161 49.6532 41.6618 50.1615 43.4261C50.6209 44.9144 51.2741 45.7749 52.1211 46.0078C52.2433 46.0414 52.3696 46.062 52.4999 46.0694C52.5079 46.0699 52.5159 46.0703 52.5241 46.0707C52.5532 46.0719 52.5827 46.0726 52.6123 46.0726C53.8285 46.0726 55.3773 44.3018 57.2588 40.76C57.3432 40.6011 57.4282 40.4387 57.5139 40.2728C57.8076 39.7041 58.0922 39.1279 58.3678 38.5438C58.5194 38.2225 58.6684 37.8987 58.8146 37.5727C58.8313 37.5355 58.8479 37.4983 58.8645 37.461C59.6035 35.8031 60.272 34.085 60.87 32.3068C60.8931 32.2383 60.916 32.1698 60.9388 32.1011C61.4238 30.6422 61.8616 29.1428 62.2522 27.6032C61.5679 27.3896 60.9204 27.214 60.3096 27.0763C60.2565 27.0644 60.2036 27.0527 60.151 27.0413C59.197 26.8345 58.3345 26.7223 57.5635 26.7046C57.4917 26.703 57.4207 26.7022 57.3505 26.7022C57.1091 26.7022 56.8731 26.7071 56.6425 26.7168C54.2723 26.8169 52.4751 27.4314 51.2508 28.5604C51.084 28.9862 50.9286 29.4131 50.7843 29.841ZM55.137 31.8792C54.7025 33.2572 54.4147 34.6348 54.2682 36.0164C54.909 34.6291 55.497 33.1889 56.0313 31.695C55.6596 31.7432 55.3663 31.8093 55.137 31.8792Z" fill="url(#paint6_linear)"/>
<path d="M100.027 28.0463L99.4864 40.363C99.4864 43.7594 99.9909 47.0811 101 50.3282C99.9909 50.7761 98.838 51 97.5402 51C94.4775 51 92.9457 49.2272 92.9457 45.6815C92.9457 44.0766 93.1442 41.3893 93.5404 37.6197C93.9366 33.8128 94.1351 31.424 94.1351 30.4536C94.1351 28.5875 93.3245 27.6544 91.7026 27.6544C90.5132 27.6544 89.1626 28.5502 87.6486 30.3417C86.1712 32.0959 84.8918 34.074 83.8108 36.276C82.7658 38.4408 82.1532 40.2323 81.9729 41.6506C82.1171 44.5618 82.4775 47.3423 83.054 49.9923C81.9009 50.4402 80.6937 50.6641 79.4324 50.6641C78.2072 50.6641 77.1982 50.3655 76.4054 49.7683C75.6486 49.1338 75.2703 48.2755 75.2703 47.193C75.2703 46.0734 75.4324 44.0952 75.7567 41.2587C76.0811 38.3848 76.2432 35.5482 76.2432 32.749C76.2432 29.9125 75.8288 26.6653 75 23.0077C76.1531 22.5598 77.3784 22.3359 78.6756 22.3359C79.9729 22.3359 81.0181 22.7278 81.8108 23.5115C82.6397 24.2954 83.054 25.2658 83.054 26.4227C83.054 27.5798 82.9099 29.4273 82.6216 31.9653C83.991 29.3153 85.7748 27.0013 87.973 25.0232C90.1708 23.0077 92.3692 22 94.5677 22C98.2069 22 100.027 24.0154 100.027 28.0463Z" fill="#7908F4"/>
<path fill-rule="evenodd" clip-rule="evenodd" d="M104.847 28.109L104.283 40.4926C104.294 43.3578 104.74 46.1552 105.626 48.9024L107 53.1635L102.876 54.9269C101.108 55.6828 99.2255 56 97.3228 56C94.8137 56 92.071 55.2755 90.0525 53.0247C88.1275 50.878 87.598 48.1492 87.598 45.7347C87.598 43.828 87.8334 40.8909 88.2476 37.0965C88.2548 37.0291 88.2621 36.9622 88.2692 36.8959C87.9616 37.4074 87.6674 37.9381 87.3866 38.4882C86.5633 40.133 86.1737 41.2617 86.0189 41.959C86.1723 44.4321 86.503 46.774 87.0035 48.9899L87.9476 53.1692L83.9268 54.6735C82.1561 55.336 80.3085 55.6622 78.4152 55.6622C76.3576 55.6622 74.2168 55.1709 72.3563 53.821L72.2532 53.7462L72.1542 53.6662C70.1146 52.019 69.1419 49.7024 69.1419 47.2551C69.1419 45.8041 69.3467 43.5503 69.6836 40.7118C70.0004 38.0056 70.1577 35.3446 70.1577 32.7273C70.1577 30.3517 69.795 27.4745 68.99 24.0527L68 19.8444L72.0569 18.3266C73.8432 17.6582 75.7114 17.3378 77.625 17.3378C79.9817 17.3378 82.3578 18.0517 84.2608 19.8424C84.503 20.0656 84.7308 20.2984 84.9438 20.5402C87.6386 18.398 90.7486 17 94.219 17C96.9662 17 99.9089 17.7484 102.093 20.0785C104.219 22.3467 104.847 25.2914 104.847 27.9973V28.109ZM81.3698 23.9367C81.9211 24.6263 82.1967 25.4356 82.1967 26.3644C82.1967 26.9219 82.1621 27.6389 82.0931 28.5154C82.0179 29.4682 81.902 30.6094 81.7452 31.939C82.4972 30.5371 83.369 29.2287 84.3604 28.0138C84.3615 28.0125 84.3627 28.0111 84.3638 28.0097C84.8283 27.4407 85.3191 26.8923 85.8361 26.3644C86.2264 25.9658 86.6317 25.5789 87.0519 25.2038C87.1448 25.1208 87.2385 25.0384 87.3328 24.9566C88.4594 23.9618 89.5854 23.2111 90.7124 22.7044C91.8809 22.1788 93.0495 21.9159 94.219 21.9159C98.0189 21.9159 99.9188 23.9431 99.9188 27.9973L99.3549 40.3854C99.3549 43.8015 99.8817 47.1425 100.935 50.4084C100.503 50.5932 100.046 50.74 99.5631 50.849C98.8689 51.0058 98.1221 51.0841 97.3228 51.0841C96.8268 51.0841 96.3688 51.0412 95.9488 50.9552C93.6668 50.4875 92.5254 48.7473 92.5254 45.7347C92.5254 44.1205 92.7327 41.4177 93.1464 37.6263C93.56 33.7972 93.7673 31.3947 93.7673 30.4187C93.7673 28.7999 93.1373 27.8792 91.8782 27.6565C91.6773 27.6209 91.46 27.6032 91.2274 27.6032C90.8174 27.6032 90.3892 27.7013 89.9421 27.8976C89.9312 27.9027 89.9194 27.9079 89.9077 27.9131C89.0106 28.3166 88.0394 29.1143 86.9942 30.306C86.9509 30.3554 86.9078 30.4051 86.8648 30.455C86.3396 31.0646 85.8386 31.7008 85.3621 32.3635C85.1031 32.7235 84.8515 33.0914 84.6069 33.467C84.5481 33.5573 84.4898 33.6481 84.4317 33.7393C83.9174 34.5489 83.4358 35.3941 82.9869 36.2748C81.8957 38.4521 81.256 40.254 81.0679 41.6804C81.2184 44.6085 81.5947 47.4053 82.1967 50.0706C81.287 50.411 80.345 50.6227 79.3708 50.7059C79.0557 50.7328 78.7371 50.7463 78.4152 50.7463C78.0151 50.7463 77.6371 50.7169 77.2811 50.6581C76.4989 50.5291 75.8234 50.2582 75.2545 49.8454C74.4643 49.2072 74.0693 48.3438 74.0693 47.2551C74.0693 46.1289 74.2385 44.1393 74.5772 41.2864C74.9159 38.3958 75.0851 35.5428 75.0851 32.7273C75.0851 29.8743 74.6525 26.6084 73.787 22.9295C74.6227 22.6169 75.4945 22.4127 76.4027 22.317C76.8031 22.2749 77.2105 22.2537 77.625 22.2537C78.0074 22.2537 78.3688 22.2852 78.7093 22.348C79.5747 22.5078 80.3044 22.8705 80.8986 23.4363C81.0733 23.5954 81.2303 23.7622 81.3698 23.9367Z" fill="url(#paint7_linear)"/>
<path fill-rule="evenodd" clip-rule="evenodd" d="M127.454 9C126.197 9 124.978 9.21695 123.794 9.65079C124.534 13.8087 124.94 18.2196 125.014 22.8836C123.203 22.2328 121.059 21.9074 118.583 21.9074C116.107 21.9074 113.76 22.7932 111.542 24.5648C109.361 26.3003 107.717 28.4877 106.608 31.127C105.536 33.7301 105 36.5141 105 39.4789C105 42.4435 105.74 44.9383 107.217 46.963C108.733 48.9877 110.896 50 113.705 50C114.961 50 116.143 49.6927 117.253 49.0781C118.398 48.4273 119.563 47.3245 120.745 45.7698C121.965 44.2152 123.351 41.829 124.903 38.6111C124.423 41.5035 124.183 43.5101 124.183 44.631C124.183 47.9934 125.403 49.6746 127.842 49.6746C129.283 49.6746 130.669 49.4577 132 49.0239C131.113 44.1067 130.669 39.4789 130.669 35.1403C130.669 30.7655 130.854 26.3364 131.224 21.8531C131.593 17.3338 131.778 14.4775 131.778 13.2844C131.778 12.0551 131.371 11.0427 130.558 10.2474C129.745 9.41578 128.71 9 127.454 9ZM119.138 26.5172C121.244 26.5172 123.203 26.8426 125.014 27.4934C124.312 31.8321 122.87 35.8633 120.689 39.5873C118.546 43.3113 116.624 45.1733 114.924 45.1733C113.816 45.1733 113.021 44.4141 112.54 42.8956C112.06 41.377 111.82 39.7862 111.82 38.123C111.82 34.5075 112.448 31.2355 113.705 28.3069C115.22 27.1138 117.031 26.5172 119.138 26.5172Z" fill="#7908F4"/>
<path fill-rule="evenodd" clip-rule="evenodd" d="M118.017 6.35473L121.74 4.96227C123.448 4.32346 125.227 4 127.051 4C129.489 4 131.785 4.87217 133.558 6.69952C135.325 8.48252 136.134 10.749 136.134 13.1139C136.134 14.5522 135.93 17.6518 135.569 22.1543V22.1574C135.213 26.5633 135.035 30.9106 135.035 35.1995C135.035 39.2671 135.443 43.6633 136.281 48.3977L137 52.4627L133.073 53.768C131.252 54.3735 129.365 54.6711 127.435 54.6711C125.193 54.6711 122.942 53.8853 121.307 52.0191C120.691 52.5485 120.039 53.0218 119.349 53.4214L119.327 53.4341L119.306 53.4464C117.496 54.4691 115.51 55 113.424 55C109.279 55 105.625 53.3794 103.124 49.9729L103.108 49.9503L103.091 49.9275C100.94 46.9241 100 43.3811 100 39.5838C100 36.0104 100.636 32.5869 101.94 29.3566L101.948 29.341L101.954 29.3254C103.344 25.9504 105.446 23.0808 108.25 20.8045C111.163 18.4328 114.531 17.0431 118.259 17.0431C118.696 17.0431 119.13 17.052 119.559 17.0703C119.367 14.715 119.079 12.4459 118.698 10.2618L118.017 6.35473ZM124.421 17.749C124.527 19.2874 124.596 20.8554 124.627 22.453C124.629 22.5732 124.631 22.6935 124.633 22.814C123.229 22.2996 121.624 21.9863 119.815 21.8743C119.487 21.854 119.151 21.8402 118.809 21.8331C118.627 21.8295 118.444 21.8275 118.259 21.8275C115.805 21.8275 113.478 22.7227 111.281 24.5129C111.097 24.662 110.917 24.8144 110.741 24.97C110.19 25.4568 109.678 25.9758 109.203 26.527C109.043 26.7117 108.888 26.9 108.737 27.0919C107.788 28.2993 107.006 29.65 106.391 31.1441C105.328 33.7746 104.797 36.5878 104.797 39.5838C104.797 42.5797 105.53 45.1006 106.995 47.1466C108.497 49.1926 110.64 50.2156 113.424 50.2156C113.818 50.2156 114.204 50.1845 114.584 50.1223C114.6 50.1196 114.616 50.1169 114.633 50.1142C115.435 49.9768 116.204 49.7001 116.941 49.2839C117.691 48.8492 118.45 48.2147 119.217 47.3807C119.61 46.9532 120.005 46.4733 120.402 45.941C120.666 45.5975 120.939 45.2138 121.219 44.79C121.846 43.8401 122.514 42.6884 123.22 41.3349C123.225 41.3278 123.228 41.3206 123.232 41.3134C123.649 40.5146 124.079 39.6458 124.524 38.7069C124.333 39.8749 124.181 40.9 124.066 41.7822C124.065 41.7933 124.064 41.8046 124.062 41.8157C124.002 42.2802 123.953 42.7047 123.915 43.0894C123.844 43.7883 123.809 44.3552 123.809 44.79C123.809 46.3394 124.06 47.5355 124.563 48.3783C125.06 49.2126 125.804 49.7008 126.795 49.8429C126.998 49.8721 127.211 49.8867 127.435 49.8867C127.576 49.8867 127.716 49.8846 127.856 49.8804C129.134 49.8414 130.368 49.6243 131.557 49.2291C130.677 44.2603 130.237 39.5838 130.237 35.1995C130.237 30.7787 130.421 26.3032 130.787 21.7728C131.154 17.2058 131.337 14.3195 131.337 13.1139C131.337 11.8716 130.934 10.8487 130.128 10.0448C129.585 9.47918 128.943 9.10388 128.202 8.91905C127.887 8.84057 127.554 8.79641 127.203 8.78653C127.153 8.78511 127.102 8.7844 127.051 8.7844C125.806 8.7844 124.597 9.0036 123.425 9.442C123.889 12.1081 124.221 14.877 124.421 17.749ZM124.565 27.8861C124.589 27.7484 124.611 27.6105 124.633 27.4723C124.131 27.2883 123.618 27.13 123.093 26.9975C121.741 26.6564 120.312 26.4858 118.809 26.4858C118.623 26.4858 118.441 26.4905 118.259 26.5001C116.667 26.5839 115.254 27.0364 114.019 27.8578C114.018 27.8593 114.015 27.8608 114.013 27.8622C113.811 27.9965 113.616 28.1405 113.424 28.2943C113.255 28.6964 113.097 29.1048 112.95 29.5198C112.021 32.1585 111.556 35.0565 111.556 38.2137C111.556 39.8943 111.793 41.5019 112.27 43.0364C112.682 44.3631 113.326 45.1162 114.204 45.2958C114.341 45.3241 114.484 45.3381 114.633 45.3381C114.636 45.3381 114.64 45.3381 114.643 45.338C114.662 45.3379 114.679 45.3377 114.698 45.3372C115.567 45.3122 116.494 44.7902 117.479 43.7713C117.491 43.7584 117.504 43.7453 117.517 43.7322C118.082 43.1407 118.667 42.3858 119.271 41.4674C119.623 40.9317 119.982 40.3403 120.347 39.6934C120.637 39.1893 120.913 38.6796 121.177 38.1644C121.319 37.8868 121.456 37.6075 121.591 37.3266C121.622 37.2608 121.653 37.1951 121.684 37.1292C123.051 34.2207 124.012 31.1397 124.565 27.8861ZM117.342 31.5022C116.807 33.1438 116.478 34.958 116.382 36.9669C117.392 35.1541 118.209 33.2571 118.833 31.2702C118.825 31.2702 118.817 31.2702 118.809 31.2702C118.223 31.2702 117.746 31.3534 117.342 31.5022Z" fill="url(#paint8_linear)"/>
<path d="M137.985 41.4391L138.532 33.6296C138.532 30.1226 138.021 26.7963 137 23.6508C138.021 23.2169 139.28 23 140.775 23C143.692 23 145.151 24.6089 145.151 27.8267C145.151 29.2729 144.951 31.3157 144.549 33.955C144.148 36.5944 143.947 38.4202 143.947 39.4325C143.947 40.4087 143.966 41.1318 144.003 41.6018C144.039 42.0357 144.13 42.56 144.276 43.1746C144.495 44.4039 145.206 45.0185 146.409 45.0185C147.65 45.0185 148.962 44.0604 150.348 42.1441C151.77 40.1918 152.901 38.0405 153.74 35.6905C154.615 33.3404 155.053 31.4784 155.053 30.1045C154.87 27.2482 154.56 25.097 154.123 23.6508C155.289 23.2169 156.475 23 157.678 23C158.919 23 159.94 23.3796 160.742 24.1389C161.581 24.8982 162 25.9105 162 27.176C162 46.9167 158.353 58.7575 151.059 62.6984C149.418 63.5661 147.558 64 145.479 64C143.401 64 141.577 63.4576 140.009 62.373C138.477 61.2884 137.712 59.7698 137.712 57.8174C137.712 56.5158 138.204 55.4132 139.189 54.5092C140.173 53.6415 141.34 53.2076 142.689 53.2076C142.982 53.2076 143.346 53.2438 143.783 53.3161C143.675 53.7861 143.619 54.2019 143.619 54.5635C143.619 57.7451 144.732 59.3359 146.957 59.3359C148.306 59.3359 149.527 58.6128 150.622 57.1667C151.716 55.7204 152.591 53.9488 153.248 51.8518C154.524 47.5855 155.162 43.7169 155.162 40.2461C154.068 43.1746 152.573 45.5428 150.676 47.3505C148.817 49.1221 146.793 50.008 144.605 50.008C140.192 50.008 137.985 47.1517 137.985 41.4391Z" fill="#7908F4"/>
<path fill-rule="evenodd" clip-rule="evenodd" d="M133.107 41.2515L133.66 33.3656C133.644 30.3494 133.199 27.538 132.346 24.9078L131 20.7606L135.036 19.0445C136.837 18.2789 138.797 18 140.747 18C143.104 18 145.716 18.6738 147.647 20.8054C148.227 21.4454 148.674 22.1391 149.013 22.8593L148.31 20.5327L152.531 18.9622C154.231 18.3297 156.001 18 157.814 18C160.131 18 162.389 18.7441 164.198 20.4381C166.148 22.2248 167 24.5819 167 27.0042C167 37.2062 166.066 45.7144 164.028 52.3367C162.001 58.9237 158.679 64.2681 153.439 67.1014L153.419 67.1117L153.4 67.1219C150.966 68.4101 148.293 69 145.497 69C142.502 69 139.678 68.2008 137.214 66.4954L137.193 66.4802L137.171 66.4647C134.289 64.4227 132.832 61.4018 132.832 57.9681C132.832 55.2869 133.913 52.9106 135.869 51.1144L135.905 51.0814L135.941 51.0491C135.944 51.047 135.946 51.0449 135.948 51.0428C135.889 50.97 135.83 50.8959 135.772 50.8206C133.733 48.1785 133.107 44.7797 133.107 41.4175V41.2515ZM140.423 48.765C141.056 49.2867 141.808 49.6527 142.681 49.8631C143.194 49.9871 143.75 50.0569 144.347 50.0729C144.434 50.0752 144.524 50.0764 144.613 50.0764C145.301 50.0764 145.972 49.9898 146.627 49.8165C147.119 49.6862 147.603 49.507 148.078 49.2789C148.482 49.0845 148.88 48.8547 149.27 48.5893C149.772 48.2485 150.264 47.849 150.744 47.391C151.705 46.4744 152.564 45.4153 153.321 44.2135C153.323 44.2101 153.325 44.2066 153.327 44.2031C154.076 43.0124 154.725 41.682 155.273 40.2118C155.273 41.3879 155.201 42.6091 155.056 43.8755C154.818 45.9596 154.383 48.166 153.752 50.4948C153.752 50.4954 153.752 50.4961 153.752 50.4967C153.674 50.7849 153.593 51.0749 153.509 51.3668C153.454 51.557 153.398 51.748 153.341 51.9397C152.695 54.0024 151.841 55.7536 150.777 57.1931C150.748 57.2325 150.719 57.2715 150.689 57.3104C150.153 58.0189 149.588 58.5555 148.992 58.9205C148.98 58.9277 148.968 58.9349 148.957 58.9419C148.334 59.3156 147.677 59.5025 146.988 59.5025C146.679 59.5025 146.391 59.472 146.125 59.4111C144.484 59.036 143.649 57.5079 143.619 54.8264C143.619 54.7779 143.619 54.7291 143.619 54.6798C143.619 54.5581 143.625 54.4303 143.637 54.2963C143.662 54.0284 143.711 53.736 143.785 53.4194C143.343 53.3463 142.975 53.3098 142.681 53.3098C141.683 53.3098 140.785 53.5444 139.985 54.0139C139.692 54.186 139.412 54.3898 139.145 54.6251C139.126 54.6432 139.105 54.6615 139.086 54.6798C138.985 54.7753 138.89 54.873 138.8 54.9728C138.035 55.8169 137.653 56.8153 137.653 57.9681C137.653 59.9409 138.427 61.4754 139.973 62.5715C141.557 63.6676 143.398 64.2156 145.497 64.2156C145.607 64.2156 145.718 64.2144 145.827 64.212C146.222 64.2032 146.609 64.1785 146.988 64.1379C148.496 63.9766 149.877 63.5641 151.131 62.9003C152.341 62.246 153.451 61.3762 154.463 60.2909C159.606 54.7706 162.178 43.675 162.178 27.0042C162.178 25.7255 161.754 24.7025 160.907 23.9353C160.389 23.4439 159.78 23.1098 159.079 22.9331C158.687 22.834 158.265 22.7844 157.814 22.7844C157.073 22.7844 156.339 22.8659 155.612 23.0289C155.147 23.1332 154.684 23.2709 154.224 23.442C154.666 24.9035 154.979 27.0773 155.164 29.9636C155.164 31.352 154.722 33.2335 153.837 35.6083C153.436 36.7339 152.969 37.8142 152.435 38.8494C152.388 38.9391 152.342 39.0283 152.294 39.1171C152.098 39.4879 151.893 39.8528 151.679 40.2118C151.285 40.871 150.864 41.5104 150.413 42.1299C150.4 42.1475 150.387 42.165 150.375 42.1824C149.557 43.3043 148.765 44.0952 147.998 44.5552C147.998 44.5554 147.997 44.5557 147.997 44.556C147.465 44.875 146.944 45.0345 146.436 45.0345C146.257 45.0345 146.089 45.021 145.931 44.9941C145.02 44.8381 144.47 44.2305 144.282 43.1712C144.135 42.55 144.043 42.0203 144.006 41.5819C143.969 41.107 143.951 40.3762 143.951 39.3898C143.951 38.3668 144.153 36.5217 144.558 33.8547C144.963 31.1875 145.165 29.1233 145.165 27.6619C145.165 24.8244 144.044 23.2249 141.801 22.8635C141.473 22.8108 141.122 22.7844 140.747 22.7844C139.794 22.7844 138.938 22.8716 138.176 23.046C137.73 23.1481 137.317 23.2801 136.936 23.442C137.967 26.6206 138.483 29.9819 138.483 33.5258L137.93 41.4175C137.93 44.9436 138.761 47.3928 140.423 48.765ZM149.485 33.4796C150.117 31.6989 150.314 30.6177 150.338 30.0767C150.227 28.3989 150.075 27.113 149.909 26.1638C149.965 26.6728 149.988 27.1752 149.988 27.6619C149.988 29.2373 149.804 31.2032 149.485 33.4796Z" fill="url(#paint9_linear)"/>
<path d="M27.5344 11C30.7055 11 33.4756 11.9264 35.8448 13.7792C38.214 15.6322 39.3986 18.0299 39.3986 20.9727C39.3986 22.5349 38.9611 23.8246 38.0864 24.842C37.2116 25.8592 36.1363 26.3678 34.8606 26.3678C33.585 26.3678 32.5643 26.2043 31.7989 25.8774C31.9083 25.2961 31.9629 24.6784 31.9629 24.0245C31.9265 21.7357 31.3615 19.8828 30.2681 18.4659C29.1746 17.0127 27.5708 16.2861 25.4568 16.2861C23.3792 16.2861 21.4474 16.9582 19.6614 18.3024C18.6044 19.8283 17.7843 21.8265 17.2011 24.2969C16.6179 26.7674 16.3263 29.2016 16.3263 31.5995C16.3263 35.5958 17.0917 38.9563 18.6226 41.6811C20.1899 44.3697 22.6137 45.7138 25.8941 45.7138C28.9194 45.7138 30.9606 44.5695 32.0176 42.2806C33.0018 40.2824 33.4938 37.6303 33.4938 34.3243C35.3527 34.3243 36.9018 34.6694 38.141 35.3597C39.3803 36.0136 40 37.1035 40 38.6294C40 42.1898 38.4327 45.1507 35.298 47.5122C32.1634 49.8373 28.6278 51 24.6914 51C19.552 51 15.652 49.3106 12.9912 45.9318C10.3304 42.5167 9 37.9028 9 32.0898C9 26.277 10.6584 21.3179 13.9753 17.2125C17.3287 13.0708 21.8484 11 27.5344 11Z" fill="url(#paint10_linear)"/>
<path fill-rule="evenodd" clip-rule="evenodd" d="M29.9185 26.8707L30.1788 25.491C30.267 25.0232 30.3144 24.5113 30.3151 23.9516C30.2804 21.9121 29.7793 20.437 28.9598 19.3782L28.9532 19.3697L28.9468 19.3612C28.2255 18.4054 27.1641 17.8548 25.4715 17.8548C23.8603 17.8548 22.3413 18.3399 20.8792 19.3747C20.0376 20.6642 19.3311 22.3911 18.8045 24.6149C18.2418 26.9923 17.9632 29.322 17.9632 31.607C17.9632 35.4288 18.6962 38.5138 20.0631 40.9459C21.3195 43.0869 23.178 44.1452 25.9155 44.1452C27.2349 44.1452 28.2034 43.8961 28.9097 43.5012C29.5961 43.1174 30.1378 42.5399 30.5322 41.6884L30.5413 41.6686L30.551 41.649C31.3882 39.9541 31.8694 37.5643 31.8694 34.3656V32.6141H33.6318C35.7224 32.6141 37.6066 32.9991 39.193 33.8755C40.0756 34.3436 40.8035 35.0052 41.2991 35.8745C41.7934 36.7413 42 37.7148 42 38.7242C42 42.9383 40.0989 46.4311 36.5263 49.1148L36.5211 49.1187L36.5158 49.1226C33.0265 51.7034 29.0672 53 24.6944 53C19.0515 53 14.53 51.126 11.4284 47.1989L11.4257 47.1953L11.4228 47.1918C8.41016 43.3361 7 38.2445 7 32.1034C7 25.8624 8.79512 20.4427 12.4414 15.9427L12.4425 15.9413C16.206 11.3062 21.3147 9 27.581 9C31.1726 9 34.3735 10.0561 37.1067 12.1874C39.9281 14.3875 41.3894 17.3185 41.3894 20.8481C41.3894 22.7746 40.8393 24.5065 39.6328 25.9053C38.4303 27.2997 36.86 28.0619 35.0196 28.0619C33.5998 28.0619 32.2983 27.8844 31.2167 27.4236L29.9185 26.8707ZM38.3503 35.4139C37.5063 34.9451 36.5209 34.6335 35.3939 34.4792C34.8407 34.4035 34.2533 34.3656 33.6318 34.3656C33.6318 37.7128 33.1322 40.3978 32.133 42.4208C31.0597 44.7381 28.9873 45.8967 25.9155 45.8967C22.5848 45.8967 20.1238 44.5358 18.5325 41.8139C16.9781 39.0552 16.2009 35.653 16.2009 31.607C16.2009 29.1793 16.497 26.7149 17.0892 24.2137C17.6813 21.7125 18.514 19.6895 19.5872 18.1447C21.4006 16.7837 23.3621 16.1033 25.4715 16.1033C27.6179 16.1033 29.2463 16.839 30.3566 18.3103C31.4668 19.7448 32.0405 21.6206 32.0774 23.9379C32.0774 24.5999 32.022 25.2253 31.9109 25.8138C32.6881 26.1448 33.7243 26.3103 35.0196 26.3103C36.3149 26.3103 37.4066 25.7954 38.2948 24.7655C39.183 23.7355 39.6271 22.4298 39.6271 20.8481C39.6271 17.8688 38.4244 15.4413 36.0189 13.5653C33.6133 11.6895 30.8007 10.7515 27.581 10.7515C21.8077 10.7515 17.2187 12.8481 13.8139 17.0412C10.4462 21.1977 8.76229 26.2184 8.76229 32.1034C8.76229 37.9886 10.1131 42.6599 12.8147 46.1174C15.5163 49.5382 19.4762 51.2486 24.6944 51.2486C28.6912 51.2486 32.281 50.0715 35.4637 47.7174C38.6464 45.3266 40.2378 42.3289 40.2378 38.7242C40.2378 37.1794 39.6086 36.0759 38.3503 35.4139Z" fill="#FF881B"/>
<path fill-rule="evenodd" clip-rule="evenodd" d="M68.5092 37.2278C68.5092 32.8984 69.0062 28.5875 70 24.2954C65.5828 22.7651 61.2761 22 57.0797 22C52.9202 22 49.5337 23.8102 46.9202 27.4306C44.3067 31.0135 43 35.1937 43 39.971C43 43.1062 43.773 45.7374 45.319 47.8648C46.865 49.9549 49.0368 51 51.8344 51C53.0123 51 54.1534 50.664 55.2576 49.9923C57.6871 48.4993 60.2086 44.9164 62.8221 39.2432C62.3435 42.0052 62.1043 44.1886 62.1043 45.7934C62.1043 47.361 62.3804 48.574 62.9325 49.4324C63.4847 50.2535 64.4602 50.664 65.8589 50.664C67.2577 50.664 68.6197 50.4401 69.9448 49.9923C68.9878 45.7748 68.5092 41.52 68.5092 37.2278ZM57.7975 26.7587C59.1595 26.7587 60.816 27.0573 62.7669 27.6545C61.589 32.2078 59.9877 36.4067 57.9632 40.2509C55.9387 44.0952 54.2822 46.0174 52.9938 46.0174C51.8896 46.0174 51.0613 45.1403 50.5092 43.3861C49.9938 41.6319 49.7361 39.8964 49.7361 38.1795C49.7361 34.9324 50.3619 31.7413 51.6135 28.6062C52.9754 27.3745 55.0368 26.7587 57.7975 26.7587Z" fill="url(#paint11_linear)"/>
<path fill-rule="evenodd" clip-rule="evenodd" d="M71 22.8618L70.6349 24.4026C69.6658 28.4932 69.1822 32.5966 69.1822 36.7154C69.1822 40.8015 69.6482 44.8524 70.5811 48.8707L70.9404 50.4178L69.4206 50.9198C67.9078 51.4195 66.3498 51.6698 64.7537 51.6698C63.0317 51.6698 61.364 51.1646 60.3538 49.6963L60.3436 49.6815L60.3338 49.6665C59.7395 48.7635 59.4174 47.6823 59.286 46.5003C57.9017 48.4279 56.4803 49.8706 55.005 50.7565L55.0017 50.7585L54.9984 50.7605C53.6401 51.5681 52.1819 52 50.6483 52C47.3347 52 44.6046 50.7558 42.6849 48.2195L42.6805 48.2136L42.676 48.2076C40.8585 45.7632 40 42.795 40 39.4119C40 34.3721 41.4179 29.8937 44.2858 26.0497C47.2213 22.0774 51.139 20 55.9239 20C60.3588 20 64.8829 20.7908 69.4886 22.3501L71 22.8618ZM45.7058 27.085C43.0772 30.607 41.7629 34.7159 41.7629 39.4119C41.7629 42.4936 42.5404 45.0801 44.0953 47.1713C45.6502 49.2258 47.8345 50.253 50.6483 50.253C51.8329 50.253 52.9806 49.9228 54.0913 49.2625C55.7824 48.2468 57.5177 46.2471 59.2975 43.2635C60.0894 41.9359 60.8899 40.4136 61.6993 38.6965C61.3426 40.7089 61.118 42.4089 61.0258 43.7965C60.9935 44.2807 60.9774 44.7269 60.9774 45.1351C60.9774 46.676 61.2551 47.8683 61.8104 48.7121C62.3658 49.5192 63.3468 49.9228 64.7537 49.9228C66.1605 49.9228 67.5304 49.7027 68.8632 49.2625C67.9006 45.1168 67.4193 40.9344 67.4193 36.7154C67.4193 32.4597 67.919 28.2223 68.9186 24.0033C64.476 22.4991 60.1444 21.747 55.9239 21.747C51.7404 21.747 48.3344 23.5263 45.7058 27.085ZM59.4696 28.5375C58.3577 28.2865 57.4203 28.1717 56.6458 28.1717C54.3444 28.1717 52.8417 28.6273 51.8962 29.308C50.8289 32.056 50.3009 34.8339 50.3009 37.651C50.3009 39.1535 50.5305 40.6861 51 42.2533C51.2329 42.9708 51.4714 43.3362 51.6301 43.5005C51.7002 43.573 51.7417 43.5972 51.7704 43.6049C51.8157 43.582 52.1228 43.4526 52.7082 42.7887C53.4126 41.9898 54.2647 40.7063 55.2573 38.8642C56.9688 35.688 58.3741 32.2471 59.4696 28.5375ZM49.3155 42.7688C48.7971 41.0445 48.5379 39.3386 48.5379 37.651C48.5379 34.4592 49.1673 31.3224 50.4261 28.2407C51.7959 27.03 53.8692 26.4247 56.6458 26.4247C58.0157 26.4247 59.6817 26.7181 61.6438 27.3051C60.4591 31.781 58.8487 35.9083 56.8125 39.6871C54.7762 43.4659 53.1102 45.3552 51.8144 45.3552C50.7037 45.3552 49.8707 44.4932 49.3155 42.7688Z" fill="#FF881B"/>
<path d="M100.027 28.0464L99.4864 40.3629C99.4864 43.7593 99.9909 47.0811 101 50.3281C99.9909 50.776 98.838 51 97.5402 51C94.4775 51 92.9457 49.2271 92.9457 45.6814C92.9457 44.0766 93.1442 41.3893 93.5404 37.6197C93.9366 33.8127 94.1351 31.4241 94.1351 30.4537C94.1351 28.5875 93.3245 27.6545 91.7026 27.6545C90.5132 27.6545 89.1626 28.5502 87.6486 30.3417C86.1712 32.0959 84.8919 34.074 83.8108 36.2761C82.7658 38.4408 82.1532 40.2323 81.973 41.6506C82.1171 44.5618 82.4775 47.3423 83.054 49.9923C81.9009 50.4401 80.6937 50.664 79.4324 50.664C78.2072 50.664 77.1982 50.3655 76.4054 49.7683C75.6487 49.1338 75.2703 48.2754 75.2703 47.193C75.2703 46.0733 75.4324 44.0952 75.7568 41.2587C76.0811 38.3848 76.2432 35.5483 76.2432 32.7491C76.2432 29.9125 75.8288 26.6654 75 23.0077C76.1531 22.5599 77.3784 22.3359 78.6757 22.3359C79.973 22.3359 81.0181 22.7278 81.8108 23.5116C82.6397 24.2954 83.054 25.2657 83.054 26.4228C83.054 27.5798 82.91 29.4273 82.6216 31.9652C83.991 29.3153 85.7748 27.0013 87.973 25.0231C90.1708 23.0077 92.3692 22 94.5677 22C98.2069 22 100.027 24.0155 100.027 28.0464Z" fill="url(#paint12_linear)"/>
<path fill-rule="evenodd" clip-rule="evenodd" d="M101.592 27.73L101.035 39.8363C101.039 42.9787 101.529 46.0503 102.508 49.0574L103 50.5718L101.522 51.1984C100.229 51.7471 98.7987 52 97.2671 52C95.3654 52 93.6304 51.4653 92.4057 50.1109C91.214 48.7936 90.7734 46.992 90.7734 45.0251C90.7734 43.3435 90.9883 40.6186 91.396 36.9121C91.8072 33.1366 91.9972 30.8954 91.9972 30.0566C91.9972 29.366 91.8366 29.1742 91.825 29.1617L91.8241 29.1612C91.8197 29.1559 91.8036 29.138 91.7421 29.1154C91.668 29.0881 91.5182 29.0521 91.2604 29.0521C90.8563 29.0521 89.9215 29.3967 88.4176 31.0966C87.0008 32.7042 85.766 34.5252 84.7164 36.5665C83.7243 38.5304 83.1949 40.0403 83.0211 41.1414C83.1702 43.8496 83.5254 46.4279 84.0836 48.8784L84.4219 50.3637L82.981 50.8982C81.5915 51.4138 80.1389 51.6698 78.6346 51.6698C77.095 51.6698 75.6671 51.3084 74.4814 50.4552L74.4444 50.4286L74.4089 50.4002C73.1825 49.4179 72.5861 48.0577 72.5861 46.5109C72.5861 45.2949 72.7658 43.2565 73.0989 40.4735C73.4248 37.7141 73.5873 34.994 73.5873 32.313C73.5873 29.6944 73.1859 26.6407 72.3547 23.1368L72 21.6412L73.4538 21.1018C74.849 20.5842 76.3208 20.3302 77.8559 20.3302C79.5491 20.3302 81.0855 20.8286 82.2867 21.9557C83.342 22.9148 83.9578 24.1171 84.0966 25.4888C84.7717 24.7586 85.4924 24.064 86.2582 23.4052C88.7316 21.2409 91.3906 20 94.2085 20C96.384 20 98.3322 20.5812 99.7112 22.0396C101.069 23.4759 101.592 25.468 101.592 27.6903V27.73ZM87.4225 24.7187C86.1551 25.8082 85.0216 27.0013 84.022 28.2981C83.2376 29.3158 82.5357 30.3972 81.9161 31.5425C82.1014 29.9845 82.2288 28.6911 82.2984 27.6625C82.3401 27.0441 82.3611 26.5215 82.3611 26.0945C82.3611 24.9571 81.9346 24.0033 81.0818 23.2329C80.2661 22.4624 79.1908 22.0772 77.8559 22.0772C76.521 22.0772 75.2603 22.2973 74.0737 22.7376C74.9266 26.333 75.353 29.5247 75.353 32.313C75.353 35.0645 75.1861 37.8527 74.8524 40.6777C74.5187 43.4659 74.3518 45.4103 74.3518 46.5109C74.3518 47.5749 74.7412 48.4187 75.5198 49.0423C76.3357 49.6294 77.3738 49.9228 78.6346 49.9228C79.9324 49.9228 81.1746 49.7027 82.3611 49.2625C81.7678 46.6576 81.397 43.9244 81.2487 41.0628C81.434 39.6687 82.0644 37.9078 83.1397 35.7799C84.2521 33.6154 85.5685 31.6709 87.0888 29.9466C88.646 28.1856 90.0366 27.3051 91.2604 27.3051C92.9284 27.3051 93.7633 28.2223 93.7633 30.0566C93.7633 31.0105 93.5591 33.3586 93.1514 37.1006C92.7438 40.806 92.5395 43.4475 92.5395 45.0251C92.5395 48.5104 94.1157 50.253 97.2671 50.253C97.9254 50.253 98.548 50.1994 99.1341 50.0923C99.2491 50.0714 99.3624 50.0483 99.4748 50.0232C99.9503 49.9167 100.401 49.7732 100.827 49.5927C99.7888 46.4009 99.2697 43.1357 99.2697 39.7972L99.8254 27.6903C99.8254 23.7281 97.9531 21.747 94.2085 21.747C91.9463 21.747 89.6842 22.7376 87.4225 24.7187Z" fill="#FF881B"/>
<path fill-rule="evenodd" clip-rule="evenodd" d="M127.454 9C126.197 9 124.978 9.21694 123.794 9.65077C124.534 13.8087 124.94 18.2196 125.014 22.8836C123.203 22.2328 121.059 21.9074 118.583 21.9074C116.107 21.9074 113.76 22.7933 111.542 24.5649C109.362 26.3003 107.717 28.4877 106.608 31.127C105.536 33.7302 105 36.5141 105 39.4789C105 42.4436 105.74 44.9383 107.218 46.963C108.733 48.9877 110.896 50 113.705 50C114.961 50 116.143 49.6927 117.253 49.0781C118.398 48.4273 119.563 47.3245 120.745 45.7698C121.965 44.2152 123.351 41.829 124.903 38.6111C124.423 41.5036 124.183 43.5102 124.183 44.631C124.183 47.9935 125.403 49.6746 127.842 49.6746C129.283 49.6746 130.669 49.4577 132 49.0239C131.113 44.1068 130.669 39.4789 130.669 35.1403C130.669 30.7655 130.854 26.3365 131.224 21.8532C131.593 17.3338 131.778 14.4775 131.778 13.2844C131.778 12.0551 131.371 11.0427 130.559 10.2473C129.745 9.41576 128.71 9 127.454 9ZM119.138 26.5172C121.244 26.5172 123.203 26.8426 125.014 27.4934C124.312 31.832 122.87 35.8634 120.69 39.5873C118.547 43.3113 116.624 45.1734 114.924 45.1734C113.816 45.1734 113.021 44.4141 112.54 42.8956C112.06 41.377 111.82 39.7862 111.82 38.123C111.82 34.5075 112.448 31.2355 113.705 28.3069C115.22 27.1138 117.031 26.5172 119.138 26.5172Z" fill="url(#paint13_linear)"/>
<path fill-rule="evenodd" clip-rule="evenodd" d="M122.717 8.2773L124.094 7.76995C125.485 7.25763 126.925 7 128.405 7C130.112 7 131.625 7.5856 132.803 8.7873C133.977 9.94949 134.538 11.428 134.538 13.0813C134.538 14.3741 134.344 17.344 133.973 21.8964V21.8976C133.604 26.3916 133.42 30.8294 133.42 35.2109C133.42 39.4885 133.856 44.0721 134.734 48.9655L135 50.4465L133.548 50.9222C132.021 51.4224 130.434 51.6705 128.796 51.6705C127.096 51.6705 125.587 51.0487 124.583 49.6595C123.95 48.7827 123.598 47.7066 123.44 46.519C123.311 46.6948 123.185 46.8632 123.059 47.0246C121.791 48.6981 120.45 50.0113 119.014 50.8308L119.006 50.8354L118.997 50.8399C117.617 51.6086 116.124 52 114.547 52C111.212 52 108.475 50.7573 106.577 48.2115L106.571 48.2032L106.566 48.195C104.822 45.7961 104 42.8977 104 39.6039C104 36.3916 104.579 33.3504 105.748 30.4961L105.751 30.4904L105.754 30.4848C106.979 27.5543 108.811 25.0993 111.247 23.1517C113.747 21.1462 116.498 20.0691 119.464 20.0691C121.121 20.0691 122.672 20.2056 124.107 20.4905C123.953 16.7114 123.573 13.1153 122.969 9.70088L122.717 8.2773ZM125.899 20.9433C125.921 21.558 125.936 22.1771 125.946 22.8008C125.383 22.5976 124.789 22.4258 124.163 22.2852C122.757 21.9699 121.191 21.8123 119.464 21.8123C116.968 21.8123 114.602 22.7093 112.367 24.5031C110.17 26.2602 108.512 28.475 107.395 31.1474C106.314 33.7832 105.774 36.602 105.774 39.6039C105.774 42.6057 106.519 45.1316 108.009 47.1817C109.536 49.2318 111.716 50.2567 114.547 50.2567C115.813 50.2567 117.005 49.9456 118.123 49.3233C119.278 48.6644 120.452 47.5478 121.644 45.9736C122.199 45.262 122.79 44.3781 123.414 43.3222C124.17 42.0426 124.977 40.5103 125.834 38.7252C125.466 40.9536 125.237 42.6627 125.149 43.8526C125.122 44.2265 125.108 44.5492 125.108 44.8205C125.108 48.2251 126.338 49.9273 128.796 49.9273C130.249 49.9273 131.646 49.7077 132.987 49.2684C132.093 44.2897 131.646 39.6039 131.646 35.2109C131.646 30.7813 131.832 26.2969 132.205 21.7574C132.577 17.1814 132.763 14.2893 132.763 13.0813C132.763 11.8366 132.354 10.8116 131.535 10.0062C130.715 9.16421 129.671 8.74324 128.405 8.74324C127.138 8.74324 125.909 8.96289 124.717 9.40216C125.364 13.0562 125.758 16.9032 125.899 20.9433ZM120.045 38.8527L120.048 38.8472C121.888 35.6907 123.181 32.3034 123.923 28.6774C122.706 28.3766 121.408 28.2231 120.023 28.2231C118.436 28.2231 117.12 28.6233 116.006 29.393C114.958 32.011 114.421 34.9494 114.421 38.231C114.421 39.7484 114.638 41.1849 115.068 42.5479C115.26 43.1587 115.463 43.4367 115.577 43.546C115.627 43.5936 115.656 43.6069 115.667 43.6113C115.678 43.6157 115.708 43.6264 115.776 43.6264C115.954 43.6264 116.441 43.5205 117.266 42.717C118.069 41.9358 118.999 40.678 120.042 38.8583L120.045 38.8527ZM114.547 28.292C116.074 27.0839 117.899 26.4799 120.023 26.4799C122.146 26.4799 124.121 26.8093 125.946 27.4683C125.238 31.8613 123.785 35.9431 121.588 39.7137C119.427 43.4843 117.49 45.3697 115.776 45.3697C114.659 45.3697 113.858 44.6008 113.373 43.0633C112.889 41.5258 112.647 39.915 112.647 38.231C112.647 34.5702 113.281 31.2572 114.547 28.292Z" fill="#FF881B"/>
<path d="M137.985 41.4392L138.532 33.6296C138.532 30.1226 138.021 26.7963 137 23.6508C138.021 23.2169 139.28 23 140.775 23C143.692 23 145.151 24.609 145.151 27.8267C145.151 29.2729 144.951 31.3157 144.549 33.955C144.148 36.5944 143.947 38.4202 143.947 39.4326C143.947 40.4087 143.966 41.1318 144.003 41.6018C144.039 42.0358 144.13 42.56 144.276 43.1746C144.495 44.4039 145.206 45.0185 146.409 45.0185C147.65 45.0185 148.962 44.0604 150.348 42.1442C151.77 40.1918 152.901 38.0405 153.74 35.6905C154.615 33.3404 155.053 31.4784 155.053 30.1045C154.87 27.2482 154.56 25.097 154.123 23.6508C155.289 23.2169 156.475 23 157.678 23C158.919 23 159.94 23.3796 160.742 24.1389C161.581 24.8982 162 25.9106 162 27.176C162 46.9167 158.353 58.7575 151.059 62.6984C149.418 63.5662 147.558 64 145.479 64C143.401 64 141.577 63.4577 140.009 62.373C138.477 61.2884 137.712 59.7698 137.712 57.8174C137.712 56.5159 138.204 55.4132 139.189 54.5093C140.173 53.6415 141.34 53.2077 142.689 53.2077C142.982 53.2077 143.347 53.2438 143.783 53.3162C143.675 53.7862 143.619 54.2019 143.619 54.5635C143.619 57.7451 144.732 59.336 146.957 59.336C148.306 59.336 149.528 58.6129 150.622 57.1667C151.716 55.7204 152.591 53.9488 153.248 51.8518C154.524 47.5855 155.162 43.7169 155.162 40.2461C154.068 43.1746 152.573 45.5428 150.676 47.3505C148.817 49.1221 146.793 50.008 144.605 50.008C140.192 50.008 137.985 47.1517 137.985 41.4392Z" fill="url(#paint14_linear)"/>
<path fill-rule="evenodd" clip-rule="evenodd" d="M136.391 41.3528L136.941 33.4463C136.935 30.0876 136.448 26.9205 135.486 23.9362L135 22.4252L136.46 21.7999C137.763 21.2414 139.277 21 140.938 21C142.723 21 144.367 21.5046 145.531 22.7996C146.664 24.0593 147.078 25.7758 147.078 27.6304C147.078 29.2258 146.861 31.3957 146.454 34.0952C146.049 36.7767 145.869 38.5044 145.869 39.3816C145.869 40.3573 145.887 41.0323 145.918 41.4387C145.945 41.763 146.018 42.202 146.152 42.7712L146.163 42.8191L146.172 42.8676C146.218 43.1256 146.279 43.2272 146.3 43.2545C146.33 43.2677 146.414 43.2943 146.597 43.2943C146.928 43.2943 147.79 42.9866 149.135 41.1115L149.139 41.1065C150.467 39.269 151.526 37.2396 152.315 35.0112L152.319 35L152.323 34.9888C153.166 32.7069 153.522 31.0688 153.533 29.988C153.352 27.164 153.052 25.1643 152.673 23.9031L152.205 22.3421L153.731 21.7699C155.093 21.2599 156.49 21 157.915 21C159.545 21 161.015 21.5154 162.182 22.6221C163.424 23.7624 164 25.2741 164 26.9714C164 37.0484 163.079 45.2358 161.177 51.4634C159.278 57.6782 156.328 62.1676 152.102 64.4695L152.095 64.4733L152.088 64.477C150.158 65.5055 148.003 66 145.663 66C143.251 66 141.064 65.3593 139.17 64.0391L139.162 64.0336L139.155 64.028C137.134 62.585 136.117 60.5059 136.117 57.9968C136.117 56.1813 136.823 54.6049 138.16 53.368L138.173 53.3559L138.186 53.3442C139.424 52.2439 140.903 51.6578 142.548 51.5922C140.889 51.2104 139.473 50.3638 138.413 48.9803C136.97 47.0975 136.391 44.4788 136.391 41.4133V41.3528ZM144.92 51.8317L146.077 52.0244L145.659 53.8311C145.57 54.2183 145.539 54.5033 145.539 54.702C145.539 56.1652 145.803 56.953 146.066 57.3331C146.249 57.5975 146.509 57.7911 147.146 57.7911C147.773 57.7911 148.538 57.4837 149.432 56.2919C150.387 55.0196 151.184 53.4177 151.795 51.4501C152.142 50.2835 152.438 49.152 152.686 48.0551C152.492 48.2606 152.294 48.4606 152.091 48.6553L152.091 48.6558C149.995 50.6678 147.593 51.7947 144.92 51.8317ZM153.355 44.3581C154.141 43.1262 154.819 41.7419 155.388 40.2053C155.388 41.7173 155.269 43.3038 155.032 44.9649C154.717 47.1647 154.196 49.4953 153.465 51.9564C152.805 54.0798 151.927 55.8736 150.828 57.3378C149.729 58.8022 148.502 59.5343 147.146 59.5343C144.912 59.5343 143.795 57.9235 143.795 54.702C143.795 54.5801 143.801 54.4519 143.813 54.3178C143.838 54.0493 143.886 53.7564 143.959 53.4391C143.521 53.3659 143.154 53.3293 142.861 53.3293C142.632 53.3293 142.409 53.3417 142.192 53.3666C141.116 53.4896 140.167 53.9165 139.345 54.6472C138.355 55.5623 137.861 56.6789 137.861 57.9968C137.861 59.9736 138.63 61.5111 140.169 62.6094C141.743 63.7077 143.575 64.2568 145.663 64.2568C147.751 64.2568 149.619 63.8175 151.267 62.9389C158.592 58.9486 162.255 46.9594 162.255 26.9714C162.255 25.6902 161.834 24.6651 160.992 23.8964C160.186 23.1276 159.161 22.7432 157.915 22.7432C157.279 22.7432 156.648 22.804 156.022 22.9257C155.923 22.945 155.823 22.9659 155.724 22.9882C155.262 23.0927 154.801 23.2307 154.344 23.4022C154.783 24.8665 155.094 27.0446 155.278 29.9367C155.278 31.3278 154.838 33.2131 153.959 35.5927C153.117 37.9722 151.981 40.1503 150.553 42.1272C149.161 44.0674 147.843 45.0375 146.597 45.0375C145.389 45.0375 144.674 44.4152 144.455 43.1705C144.307 42.5481 144.216 42.0174 144.18 41.578C144.143 41.1021 144.124 40.37 144.124 39.3816C144.124 38.3565 144.326 36.5078 144.729 33.8354C145.132 31.1631 145.333 29.0947 145.333 27.6304C145.333 24.3723 143.868 22.7432 140.938 22.7432C140.171 22.7432 139.466 22.8006 138.822 22.9152C138.672 22.9421 138.525 22.9721 138.381 23.0053C137.937 23.1077 137.525 23.2399 137.146 23.4022C138.172 26.587 138.685 29.955 138.685 33.506L138.136 41.4133C138.136 47.1974 140.352 50.0894 144.784 50.0894C146.982 50.0894 149.014 49.1926 150.883 47.3988C151.8 46.5169 152.625 45.5034 153.355 44.3581Z" fill="#FF881B"/>
<mask id="path-31-outside-1" maskUnits="userSpaceOnUse" x="43" y="61" width="21" height="31" fill="black">
<rect fill="white" x="43" y="61" width="21" height="31"/>
<path d="M56.9756 71.008C57.0787 70.4813 57.1301 69.9413 57.1301 69.3881C57.1301 66.8333 55.9072 65.5558 53.4614 65.5558C52.3544 65.5558 51.4147 65.7929 50.6423 66.267C49.9214 67.1362 49.561 68.1765 49.561 69.3881C49.561 70.1783 49.8957 70.8632 50.565 71.4427C51.2345 71.9957 52.0583 72.4304 53.0367 72.7465C54.0407 73.0625 55.122 73.4576 56.2805 73.9317C57.439 74.4058 58.5075 74.9195 59.4858 75.4725C60.4899 75.9993 61.3266 76.8027 61.996 77.8826C62.6653 78.9361 63 80.1873 63 81.6359C63 84.4016 61.9573 86.6535 59.872 88.3917C57.8124 90.13 55.3279 91 52.4188 91C50.0759 91 48.0807 90.4067 46.433 89.2218C44.811 88.01 44 86.3243 44 84.1645C44 83.0583 44.3218 82.1364 44.9655 81.3989C45.6349 80.635 46.4201 80.2531 47.3211 80.2531C48.248 80.2531 48.9303 80.3717 49.3679 80.6087C49.162 81.3989 49.059 82.11 49.059 82.7422C49.059 84.1645 49.4451 85.2971 50.2175 86.1399C51.0156 86.9565 52.1098 87.3647 53.5 87.3647C54.8903 87.3647 56.0102 86.996 56.8598 86.2585C57.7094 85.5209 58.1342 84.5464 58.1342 83.3348C58.1342 82.0969 57.6579 81.0828 56.7053 80.2926C55.7785 79.5024 54.6457 78.8703 53.3069 78.3962C51.9682 77.9221 50.6294 77.4216 49.2907 76.8949C47.9519 76.368 46.8063 75.5911 45.8537 74.5638C44.9269 73.5103 44.4634 72.1933 44.4634 70.6129C44.4634 68.1371 45.5061 66.0826 47.5915 64.4495C49.7026 62.8165 52.084 62 54.7358 62C56.6925 62 58.3788 62.4083 59.7948 63.2248C61.2365 64.015 61.9573 65.2266 61.9573 66.8596C61.9573 68.0449 61.584 69.0589 60.8374 69.9018C60.0909 70.7183 59.1511 71.1266 58.0183 71.1266C57.7094 71.1266 57.3618 71.087 56.9756 71.008Z"/>
</mask>
<path d="M56.9756 71.008C57.0787 70.4813 57.1301 69.9413 57.1301 69.3881C57.1301 66.8333 55.9072 65.5558 53.4614 65.5558C52.3544 65.5558 51.4147 65.7929 50.6423 66.267C49.9214 67.1362 49.561 68.1765 49.561 69.3881C49.561 70.1783 49.8957 70.8632 50.565 71.4427C51.2345 71.9957 52.0583 72.4304 53.0367 72.7465C54.0407 73.0625 55.122 73.4576 56.2805 73.9317C57.439 74.4058 58.5075 74.9195 59.4858 75.4725C60.4899 75.9993 61.3266 76.8027 61.996 77.8826C62.6653 78.9361 63 80.1873 63 81.6359C63 84.4016 61.9573 86.6535 59.872 88.3917C57.8124 90.13 55.3279 91 52.4188 91C50.0759 91 48.0807 90.4067 46.433 89.2218C44.811 88.01 44 86.3243 44 84.1645C44 83.0583 44.3218 82.1364 44.9655 81.3989C45.6349 80.635 46.4201 80.2531 47.3211 80.2531C48.248 80.2531 48.9303 80.3717 49.3679 80.6087C49.162 81.3989 49.059 82.11 49.059 82.7422C49.059 84.1645 49.4451 85.2971 50.2175 86.1399C51.0156 86.9565 52.1098 87.3647 53.5 87.3647C54.8903 87.3647 56.0102 86.996 56.8598 86.2585C57.7094 85.5209 58.1342 84.5464 58.1342 83.3348C58.1342 82.0969 57.6579 81.0828 56.7053 80.2926C55.7785 79.5024 54.6457 78.8703 53.3069 78.3962C51.9682 77.9221 50.6294 77.4216 49.2907 76.8949C47.9519 76.368 46.8063 75.5911 45.8537 74.5638C44.9269 73.5103 44.4634 72.1933 44.4634 70.6129C44.4634 68.1371 45.5061 66.0826 47.5915 64.4495C49.7026 62.8165 52.084 62 54.7358 62C56.6925 62 58.3788 62.4083 59.7948 63.2248C61.2365 64.015 61.9573 65.2266 61.9573 66.8596C61.9573 68.0449 61.584 69.0589 60.8374 69.9018C60.0909 70.7183 59.1511 71.1266 58.0183 71.1266C57.7094 71.1266 57.3618 71.087 56.9756 71.008Z" fill="#FFF400"/>
<path d="M56.9756 71.008C57.0787 70.4813 57.1301 69.9413 57.1301 69.3881C57.1301 66.8333 55.9072 65.5558 53.4614 65.5558C52.3544 65.5558 51.4147 65.7929 50.6423 66.267C49.9214 67.1362 49.561 68.1765 49.561 69.3881C49.561 70.1783 49.8957 70.8632 50.565 71.4427C51.2345 71.9957 52.0583 72.4304 53.0367 72.7465C54.0407 73.0625 55.122 73.4576 56.2805 73.9317C57.439 74.4058 58.5075 74.9195 59.4858 75.4725C60.4899 75.9993 61.3266 76.8027 61.996 77.8826C62.6653 78.9361 63 80.1873 63 81.6359C63 84.4016 61.9573 86.6535 59.872 88.3917C57.8124 90.13 55.3279 91 52.4188 91C50.0759 91 48.0807 90.4067 46.433 89.2218C44.811 88.01 44 86.3243 44 84.1645C44 83.0583 44.3218 82.1364 44.9655 81.3989C45.6349 80.635 46.4201 80.2531 47.3211 80.2531C48.248 80.2531 48.9303 80.3717 49.3679 80.6087C49.162 81.3989 49.059 82.11 49.059 82.7422C49.059 84.1645 49.4451 85.2971 50.2175 86.1399C51.0156 86.9565 52.1098 87.3647 53.5 87.3647C54.8903 87.3647 56.0102 86.996 56.8598 86.2585C57.7094 85.5209 58.1342 84.5464 58.1342 83.3348C58.1342 82.0969 57.6579 81.0828 56.7053 80.2926C55.7785 79.5024 54.6457 78.8703 53.3069 78.3962C51.9682 77.9221 50.6294 77.4216 49.2907 76.8949C47.9519 76.368 46.8063 75.5911 45.8537 74.5638C44.9269 73.5103 44.4634 72.1933 44.4634 70.6129C44.4634 68.1371 45.5061 66.0826 47.5915 64.4495C49.7026 62.8165 52.084 62 54.7358 62C56.6925 62 58.3788 62.4083 59.7948 63.2248C61.2365 64.015 61.9573 65.2266 61.9573 66.8596C61.9573 68.0449 61.584 69.0589 60.8374 69.9018C60.0909 70.7183 59.1511 71.1266 58.0183 71.1266C57.7094 71.1266 57.3618 71.087 56.9756 71.008Z" stroke="#4E049D" stroke-width="2" mask="url(#path-31-outside-1)"/>
<mask id="path-32-outside-2" maskUnits="userSpaceOnUse" x="64" y="61" width="23" height="31" fill="black">
<rect fill="white" x="64" y="61" width="23" height="31"/>
<path d="M84.2495 75.2726L83.8545 83.7117C83.8545 85.9622 84.2363 88.2383 85 90.5402C84.1837 90.8467 83.3541 91 82.5115 91C80.2204 91 79.0748 89.8241 79.0748 87.471C79.0748 85.7321 79.2329 83.6862 79.5489 81.3335C79.8649 78.9807 80.0229 77.5358 80.0229 76.9988C80.0229 75.669 79.404 75.0041 78.1663 75.0041C76.8497 75.0041 75.3881 76.206 73.7817 78.6099C72.1753 80.9882 71.2537 82.9829 71.0167 84.5941C71.0693 85.3357 71.3327 87.2409 71.8066 90.3094C70.9903 90.6168 70.0949 90.7701 69.1205 90.7701C67.0928 90.7701 66.079 89.8109 66.079 87.8931C66.079 86.9724 66.2239 85.1695 66.5135 82.4843C66.8032 79.7735 66.948 77.5998 66.948 75.9631C66.948 70.516 66.632 66.015 66 62.4603C66.8427 62.1534 67.7117 62 68.6071 62C69.5024 62 70.2398 62.2941 70.8191 62.8823C71.4248 63.4449 71.7277 64.2249 71.7277 65.2222C71.7277 66.2196 71.5828 68.2783 71.2931 71.3982C71.0298 74.5182 70.8981 76.9476 70.8981 78.6867C71.8198 76.7942 73.1628 75.068 74.9272 73.5081C76.7179 71.9225 78.4955 71.1298 80.2599 71.1298C82.9197 71.1298 84.2495 72.5107 84.2495 75.2726Z"/>
</mask>
<path d="M84.2495 75.2726L83.8545 83.7117C83.8545 85.9622 84.2363 88.2383 85 90.5402C84.1837 90.8467 83.3541 91 82.5115 91C80.2204 91 79.0748 89.8241 79.0748 87.471C79.0748 85.7321 79.2329 83.6862 79.5489 81.3335C79.8649 78.9807 80.0229 77.5358 80.0229 76.9988C80.0229 75.669 79.404 75.0041 78.1663 75.0041C76.8497 75.0041 75.3881 76.206 73.7817 78.6099C72.1753 80.9882 71.2537 82.9829 71.0167 84.5941C71.0693 85.3357 71.3327 87.2409 71.8066 90.3094C70.9903 90.6168 70.0949 90.7701 69.1205 90.7701C67.0928 90.7701 66.079 89.8109 66.079 87.8931C66.079 86.9724 66.2239 85.1695 66.5135 82.4843C66.8032 79.7735 66.948 77.5998 66.948 75.9631C66.948 70.516 66.632 66.015 66 62.4603C66.8427 62.1534 67.7117 62 68.6071 62C69.5024 62 70.2398 62.2941 70.8191 62.8823C71.4248 63.4449 71.7277 64.2249 71.7277 65.2222C71.7277 66.2196 71.5828 68.2783 71.2931 71.3982C71.0298 74.5182 70.8981 76.9476 70.8981 78.6867C71.8198 76.7942 73.1628 75.068 74.9272 73.5081C76.7179 71.9225 78.4955 71.1298 80.2599 71.1298C82.9197 71.1298 84.2495 72.5107 84.2495 75.2726Z" fill="#FFF400"/>
<path d="M84.2495 75.2726L83.8545 83.7117C83.8545 85.9622 84.2363 88.2383 85 90.5402C84.1837 90.8467 83.3541 91 82.5115 91C80.2204 91 79.0748 89.8241 79.0748 87.471C79.0748 85.7321 79.2329 83.6862 79.5489 81.3335C79.8649 78.9807 80.0229 77.5358 80.0229 76.9988C80.0229 75.669 79.404 75.0041 78.1663 75.0041C76.8497 75.0041 75.3881 76.206 73.7817 78.6099C72.1753 80.9882 71.2537 82.9829 71.0167 84.5941C71.0693 85.3357 71.3327 87.2409 71.8066 90.3094C70.9903 90.6168 70.0949 90.7701 69.1205 90.7701C67.0928 90.7701 66.079 89.8109 66.079 87.8931C66.079 86.9724 66.2239 85.1695 66.5135 82.4843C66.8032 79.7735 66.948 77.5998 66.948 75.9631C66.948 70.516 66.632 66.015 66 62.4603C66.8427 62.1534 67.7117 62 68.6071 62C69.5024 62 70.2398 62.2941 70.8191 62.8823C71.4248 63.4449 71.7277 64.2249 71.7277 65.2222C71.7277 66.2196 71.5828 68.2783 71.2931 71.3982C71.0298 74.5182 70.8981 76.9476 70.8981 78.6867C71.8198 76.7942 73.1628 75.068 74.9272 73.5081C76.7179 71.9225 78.4955 71.1298 80.2599 71.1298C82.9197 71.1298 84.2495 72.5107 84.2495 75.2726Z" stroke="#4E049D" stroke-width="2" mask="url(#path-32-outside-2)"/>
<mask id="path-33-outside-3" maskUnits="userSpaceOnUse" x="87" y="70" width="19" height="22" fill="black">
<rect fill="white" x="87" y="70" width="19" height="22"/>
<path fill-rule="evenodd" clip-rule="evenodd" d="M89.8892 88.5842C91.1479 90.1942 93.1097 91 95.7739 91C98.4372 91 100.641 89.981 102.384 87.9431C104.128 85.8802 105 83.3771 105 80.4338C105 74.1445 102.312 71 96.9358 71C94.3208 71 92.1772 72.0691 90.5064 74.2074C88.8354 76.3458 88 78.874 88 81.7922C88 84.6852 88.6296 86.9494 89.8892 88.5842ZM92.5041 79.5281C92.5041 78.069 92.7218 76.6099 93.1581 75.1508C94.1991 74.5219 95.4227 74.2074 96.8265 74.2074C99.273 74.2074 100.496 76.8867 100.496 82.245C100.496 84.1318 100.23 85.528 99.6967 86.4336C99.1879 87.3393 98.1102 87.7921 96.4637 87.7921C94.8413 87.7921 93.7511 86.9745 93.1948 85.3393C92.9279 84.5343 92.746 83.7293 92.6493 82.9243C92.5525 82.1192 92.5041 80.9872 92.5041 79.5281Z"/>
</mask>
<path fill-rule="evenodd" clip-rule="evenodd" d="M89.8892 88.5842C91.1479 90.1942 93.1097 91 95.7739 91C98.4372 91 100.641 89.981 102.384 87.9431C104.128 85.8802 105 83.3771 105 80.4338C105 74.1445 102.312 71 96.9358 71C94.3208 71 92.1772 72.0691 90.5064 74.2074C88.8354 76.3458 88 78.874 88 81.7922C88 84.6852 88.6296 86.9494 89.8892 88.5842ZM92.5041 79.5281C92.5041 78.069 92.7218 76.6099 93.1581 75.1508C94.1991 74.5219 95.4227 74.2074 96.8265 74.2074C99.273 74.2074 100.496 76.8867 100.496 82.245C100.496 84.1318 100.23 85.528 99.6967 86.4336C99.1879 87.3393 98.1102 87.7921 96.4637 87.7921C94.8413 87.7921 93.7511 86.9745 93.1948 85.3393C92.9279 84.5343 92.746 83.7293 92.6493 82.9243C92.5525 82.1192 92.5041 80.9872 92.5041 79.5281Z" fill="#FFF400"/>
<path d="M89.8892 88.5842L89.097 89.1945L89.1014 89.2001L89.8892 88.5842ZM102.384 87.9431L103.144 88.5931L103.148 88.5887L102.384 87.9431ZM90.5064 74.2074L91.2944 74.8232L91.2944 74.8231L90.5064 74.2074ZM93.1581 75.1508L92.641 74.2949L92.3106 74.4945L92.2 74.8644L93.1581 75.1508ZM99.6967 86.4336L98.8349 85.9264L98.8298 85.9351L98.8249 85.9438L99.6967 86.4336ZM93.1948 85.3393L92.2456 85.6541L92.2481 85.6614L93.1948 85.3393ZM92.6493 82.9243L91.6564 83.0436L91.6564 83.0436L92.6493 82.9243ZM95.7739 90C93.3163 90 91.6915 89.266 90.677 87.9683L89.1014 89.2001C90.6042 91.1223 92.9031 92 95.7739 92V90ZM101.624 87.293C100.07 89.1106 98.1426 90 95.7739 90V92C98.7318 92 101.212 90.8514 103.144 88.5931L101.624 87.293ZM104 80.4338C104 83.1636 103.198 85.4318 101.621 87.2974L103.148 88.5887C105.059 86.3286 106 83.5906 106 80.4338H104ZM96.9358 72C99.425 72 101.123 72.7207 102.224 74.0082C103.35 75.3258 104 77.4083 104 80.4338H106C106 77.17 105.306 74.5357 103.744 72.7086C102.156 70.8516 99.8224 70 96.9358 70V72ZM91.2944 74.8231C92.7839 72.9168 94.6418 72 96.9358 72V70C93.9999 70 91.5704 71.2214 89.7184 73.5918L91.2944 74.8231ZM89 81.7922C89 79.0792 89.7715 76.7721 91.2944 74.8232L89.7185 73.5917C87.8994 75.9195 87 78.6688 87 81.7922H89ZM90.6813 87.9739C89.6014 86.5722 89 84.5513 89 81.7922H87C87 84.8191 87.6578 87.3266 89.097 89.1945L90.6813 87.9739ZM92.2 74.8644C91.7371 76.4125 91.5041 77.968 91.5041 79.5281H93.5041C93.5041 78.17 93.7066 76.8073 94.1162 75.4373L92.2 74.8644ZM96.8265 73.2074C95.2692 73.2074 93.8609 73.5579 92.641 74.2949L93.6752 76.0067C94.5372 75.4859 95.5762 75.2074 96.8265 75.2074V73.2074ZM101.496 82.245C101.496 79.5211 101.19 77.3385 100.488 75.8016C100.132 75.0208 99.654 74.3639 99.0216 73.9022C98.3783 73.4325 97.6329 73.2074 96.8265 73.2074V75.2074C97.2434 75.2074 97.5682 75.3173 97.8422 75.5174C98.1272 75.7255 98.4138 76.0733 98.6689 76.6321C99.1903 77.7744 99.4958 79.6106 99.4958 82.245H101.496ZM100.559 86.9408C101.229 85.8023 101.496 84.1879 101.496 82.245H99.4958C99.4958 84.0756 99.2309 85.2536 98.8349 85.9264L100.559 86.9408ZM96.4637 88.7921C98.246 88.7921 99.7945 88.3011 100.569 86.9234L98.8249 85.9438C98.5813 86.3774 97.9744 86.7921 96.4637 86.7921V88.7921ZM92.2481 85.6614C92.5737 86.6186 93.0853 87.4206 93.8293 87.9788C94.5786 88.5409 95.4787 88.7921 96.4637 88.7921V86.7921C95.8263 86.7921 95.3701 86.6345 95.0296 86.379C94.6839 86.1197 94.3722 85.6952 94.1415 85.0172L92.2481 85.6614ZM91.6564 83.0436C91.7615 83.918 91.9586 84.7885 92.2456 85.654L94.144 85.0246C93.8971 84.2802 93.7305 83.5405 93.6421 82.8049L91.6564 83.0436ZM91.5041 79.5281C91.5041 81.001 91.5526 82.1795 91.6564 83.0436L93.6421 82.805C93.5525 82.0589 93.5041 80.9734 93.5041 79.5281H91.5041Z" fill="#4E049D" mask="url(#path-33-outside-3)"/>
<mask id="path-35-outside-4" maskUnits="userSpaceOnUse" x="106" y="70" width="22" height="32" fill="black">
<rect fill="white" x="106" y="70" width="22" height="32"/>
<path fill-rule="evenodd" clip-rule="evenodd" d="M122.106 71C118.792 71 115.772 73.7463 113.049 79.239C113.383 77.2679 113.55 75.7174 113.55 74.5873C113.55 73.431 113.293 72.5899 112.779 72.0644C112.29 71.5124 111.584 71.2364 110.659 71.2364C109.76 71.2364 108.899 71.3941 108.077 71.7095C108.643 74.6793 108.925 78.8973 108.925 84.3638C108.925 86.0195 108.771 88.306 108.462 91.2227C108.154 94.1402 108 96.2032 108 97.4126C108 98.6211 108.282 99.5145 108.848 100.093C109.413 100.698 110.133 101 111.006 101C111.88 101 112.728 100.842 113.55 100.527C113.164 97.5303 112.946 94.2326 112.895 90.6316C114.205 91.1575 115.657 91.42 117.25 91.42C120.05 91.42 122.376 90.1065 124.226 87.478C126.075 84.85 127 81.9328 127 78.7265C127 76.4926 126.615 74.653 125.844 73.2076C125.099 71.7359 123.853 71 122.106 71ZM116.71 87.9117C115.322 87.9117 114.102 87.7146 113.049 87.3204C113.562 84.193 114.629 81.2758 116.247 78.5688C117.892 75.862 119.37 74.5085 120.679 74.5085C121.733 74.5085 122.26 76.059 122.26 79.1601C122.26 82.235 121.631 84.8763 120.371 87.0838C119.318 87.6357 118.098 87.9117 116.71 87.9117Z"/>
</mask>
<path fill-rule="evenodd" clip-rule="evenodd" d="M122.106 71C118.792 71 115.772 73.7463 113.049 79.239C113.383 77.2679 113.55 75.7174 113.55 74.5873C113.55 73.431 113.293 72.5899 112.779 72.0644C112.29 71.5124 111.584 71.2364 110.659 71.2364C109.76 71.2364 108.899 71.3941 108.077 71.7095C108.643 74.6793 108.925 78.8973 108.925 84.3638C108.925 86.0195 108.771 88.306 108.462 91.2227C108.154 94.1402 108 96.2032 108 97.4126C108 98.6211 108.282 99.5145 108.848 100.093C109.413 100.698 110.133 101 111.006 101C111.88 101 112.728 100.842 113.55 100.527C113.164 97.5303 112.946 94.2326 112.895 90.6316C114.205 91.1575 115.657 91.42 117.25 91.42C120.05 91.42 122.376 90.1065 124.226 87.478C126.075 84.85 127 81.9328 127 78.7265C127 76.4926 126.615 74.653 125.844 73.2076C125.099 71.7359 123.853 71 122.106 71ZM116.71 87.9117C115.322 87.9117 114.102 87.7146 113.049 87.3204C113.562 84.193 114.629 81.2758 116.247 78.5688C117.892 75.862 119.37 74.5085 120.679 74.5085C121.733 74.5085 122.26 76.059 122.26 79.1601C122.26 82.235 121.631 84.8763 120.371 87.0838C119.318 87.6357 118.098 87.9117 116.71 87.9117Z" fill="#FFF400"/>
<path d="M113.049 79.239L112.063 79.0721L113.945 79.6832L113.049 79.239ZM112.779 72.0644L112.03 72.7272L112.047 72.7458L112.064 72.7637L112.779 72.0644ZM108.077 71.7095L107.719 70.7759L106.938 71.0753L107.095 71.8966L108.077 71.7095ZM108.462 91.2227L107.468 91.1174L107.467 91.1177L108.462 91.2227ZM108.848 100.093L109.578 99.4099L109.571 99.4018L109.563 99.3939L108.848 100.093ZM113.55 100.527L113.908 101.46L114.642 101.179L114.542 100.399L113.55 100.527ZM112.895 90.6316L113.268 89.7036L111.874 89.1439L111.895 90.6458L112.895 90.6316ZM124.226 87.478L123.408 86.9025L123.408 86.9026L124.226 87.478ZM125.844 73.2076L124.952 73.6593L124.957 73.6688L124.962 73.6781L125.844 73.2076ZM113.049 87.3204L112.062 87.1584L111.929 87.9689L112.698 88.2569L113.049 87.3204ZM116.247 78.5688L115.393 78.0497L115.389 78.0556L116.247 78.5688ZM120.371 87.0838L120.836 87.9696L121.095 87.8337L121.24 87.5793L120.371 87.0838ZM113.945 79.6832C116.645 74.2375 119.415 72 122.106 72V70C118.169 70 114.899 73.255 112.153 78.7948L113.945 79.6832ZM112.55 74.5873C112.55 75.6344 112.393 77.1209 112.063 79.0721L114.035 79.4059C114.372 77.415 114.55 75.8003 114.55 74.5873H112.55ZM112.064 72.7637C112.314 73.0195 112.55 73.5473 112.55 74.5873H114.55C114.55 73.3146 114.272 72.1604 113.494 71.365L112.064 72.7637ZM110.659 72.2364C111.376 72.2364 111.778 72.442 112.03 72.7272L113.528 71.4016C112.803 70.5829 111.792 70.2364 110.659 70.2364V72.2364ZM108.435 72.6432C109.14 72.3726 109.88 72.2364 110.659 72.2364V70.2364C109.641 70.2364 108.658 70.4157 107.719 70.7759L108.435 72.6432ZM109.925 84.3638C109.925 78.8763 109.642 74.5845 109.059 71.5225L107.095 71.8966C107.643 74.7741 107.925 78.9184 107.925 84.3638H109.925ZM109.456 91.328C109.767 88.3983 109.925 86.0714 109.925 84.3638H107.925C107.925 85.9675 107.775 88.2136 107.468 91.1174L109.456 91.328ZM109 97.4126C109 96.2615 109.148 94.2455 109.456 91.3277L107.467 91.1177C107.16 94.035 107 96.145 107 97.4126H109ZM109.563 99.3939C109.253 99.0771 109 98.4875 109 97.4126H107C107 98.7547 107.311 99.9519 108.133 100.792L109.563 99.3939ZM111.006 100C110.393 100 109.943 99.8002 109.578 99.4099L108.117 100.776C108.883 101.595 109.873 102 111.006 102V100ZM113.192 99.5928C112.482 99.8646 111.756 100 111.006 100V102C112.004 102 112.973 101.819 113.908 101.46L113.192 99.5928ZM111.895 90.6458C111.947 94.2776 112.166 97.6139 112.558 100.654L114.542 100.399C114.161 97.4467 113.946 94.1875 113.895 90.6173L111.895 90.6458ZM117.25 90.42C115.768 90.42 114.444 90.1761 113.268 89.7036L112.522 91.5596C113.965 92.1389 115.546 92.42 117.25 92.42V90.42ZM123.408 86.9026C121.714 89.31 119.673 90.42 117.25 90.42V92.42C120.427 92.42 123.038 90.9031 125.043 88.0535L123.408 86.9026ZM126 78.7265C126 81.7263 125.139 84.4425 123.408 86.9025L125.043 88.0536C127.011 85.2575 128 82.1394 128 78.7265H126ZM124.962 73.6781C125.632 74.9356 126 76.5997 126 78.7265H128C128 76.3856 127.598 74.3704 126.727 72.737L124.962 73.6781ZM122.106 72C122.838 72 123.402 72.1532 123.842 72.413C124.279 72.6708 124.653 73.0692 124.952 73.6593L126.736 72.7558C126.29 71.8742 125.669 71.1688 124.859 70.6908C124.053 70.2148 123.121 70 122.106 70V72ZM112.698 88.2569C113.886 88.7016 115.23 88.9117 116.71 88.9117V86.9117C115.415 86.9117 114.318 86.7276 113.399 86.3838L112.698 88.2569ZM115.389 78.0556C113.706 80.871 112.596 83.9074 112.062 87.1584L114.036 87.4823C114.529 84.4786 115.552 81.6806 117.106 79.082L115.389 78.0556ZM120.679 73.5085C119.67 73.5085 118.742 74.0271 117.913 74.7862C117.077 75.5527 116.239 76.6564 115.393 78.0497L117.102 79.088C117.9 77.7744 118.623 76.8479 119.264 76.261C119.913 75.6666 120.378 75.5085 120.679 75.5085V73.5085ZM123.26 79.1601C123.26 77.5797 123.129 76.2837 122.812 75.3497C122.5 74.433 121.859 73.5085 120.679 73.5085V75.5085C120.685 75.5085 120.676 75.5089 120.662 75.503C120.649 75.4975 120.652 75.4952 120.671 75.5131C120.716 75.5574 120.815 75.6882 120.918 75.9931C121.128 76.6096 121.26 77.6394 121.26 79.1601H123.26ZM121.24 87.5793C122.602 85.192 123.26 82.3723 123.26 79.1601H121.26C121.26 82.0977 120.66 84.5605 119.503 86.5883L121.24 87.5793ZM116.71 88.9117C118.232 88.9117 119.617 88.6082 120.836 87.9696L119.907 86.1981C119.019 86.6633 117.963 86.9117 116.71 86.9117V88.9117Z" fill="#4E049D" mask="url(#path-35-outside-4)"/>
<defs>
<linearGradient id="paint0_linear" x1="7.50439" y1="9.9067" x2="7.50439" y2="50.8349" gradientUnits="userSpaceOnUse">
<stop stop-color="#BA87FF"/>
<stop offset="1" stop-color="#130027"/>
</linearGradient>
<linearGradient id="paint1_linear" x1="40.9442" y1="20.9442" x2="40.9442" y2="53.0557" gradientUnits="userSpaceOnUse">
<stop stop-color="#BA87FF"/>
<stop offset="0.993728" stop-color="#130027"/>
</linearGradient>
<linearGradient id="paint2_linear" x1="71.0952" y1="20.9442" x2="71.0952" y2="53.0557" gradientUnits="userSpaceOnUse">
<stop stop-color="#BA87FF"/>
<stop offset="0.993728" stop-color="#130027"/>
</linearGradient>
<linearGradient id="paint3_linear" x1="102.944" y1="9.05766" x2="102.944" y2="50.9423" gradientUnits="userSpaceOnUse">
<stop stop-color="#BA87FF"/>
<stop offset="0.993728" stop-color="#130027"/>
</linearGradient>
<linearGradient id="paint4_linear" x1="132.793" y1="23.0577" x2="132.793" y2="64.9423" gradientUnits="userSpaceOnUse">
<stop stop-color="#BA87FF"/>
<stop offset="0.993728" stop-color="#130027"/>
</linearGradient>
<linearGradient id="paint5_linear" x1="15.1665" y1="12.3024" x2="15.1665" y2="33.9067" gradientUnits="userSpaceOnUse">
<stop stop-color="#DCF4FF"/>
<stop offset="0.974494" stop-color="#7F00FF"/>
</linearGradient>
<linearGradient id="paint6_linear" x1="48.0771" y1="21.9159" x2="48.0771" y2="38.7672" gradientUnits="userSpaceOnUse">
<stop stop-color="#DCF4FF"/>
<stop offset="0.974494" stop-color="#7F00FF"/>
</linearGradient>
<linearGradient id="paint7_linear" x1="78.6218" y1="21.9159" x2="78.6218" y2="38.7672" gradientUnits="userSpaceOnUse">
<stop stop-color="#DCF4FF"/>
<stop offset="0.974494" stop-color="#7F00FF"/>
</linearGradient>
<linearGradient id="paint8_linear" x1="110.077" y1="10.4285" x2="110.077" y2="32.4649" gradientUnits="userSpaceOnUse">
<stop stop-color="#DCF4FF"/>
<stop offset="0.974494" stop-color="#7F00FF"/>
</linearGradient>
<linearGradient id="paint9_linear" x1="140.805" y1="24.4285" x2="140.805" y2="46.4649" gradientUnits="userSpaceOnUse">
<stop stop-color="#DCF4FF"/>
<stop offset="0.974494" stop-color="#7F00FF"/>
</linearGradient>
<linearGradient id="paint10_linear" x1="22.5727" y1="12.8347" x2="4.3143" y2="40.8111" gradientUnits="userSpaceOnUse">
<stop offset="0.369385" stop-color="white"/>
<stop offset="0.775659" stop-color="#FFDD28"/>
<stop offset="0.978796" stop-color="#FFD600"/>
</linearGradient>
<linearGradient id="paint11_linear" x1="54.3308" y1="25.076" x2="45.7062" y2="48.7854" gradientUnits="userSpaceOnUse">
<stop offset="0.369385" stop-color="white"/>
<stop offset="0.775659" stop-color="#FFDD28"/>
<stop offset="0.978796" stop-color="#FFD600"/>
</linearGradient>
<linearGradient id="paint12_linear" x1="85.9443" y1="24.9527" x2="76.8144" y2="48.3392" gradientUnits="userSpaceOnUse">
<stop offset="0.369385" stop-color="white"/>
<stop offset="0.775659" stop-color="#FFDD28"/>
<stop offset="0.978796" stop-color="#FFD600"/>
</linearGradient>
<linearGradient id="paint13_linear" x1="117.409" y1="7.92348" x2="93.9972" y2="29.1214" gradientUnits="userSpaceOnUse">
<stop offset="0.369385" stop-color="white"/>
<stop offset="0.775659" stop-color="#FFDD28"/>
<stop offset="0.978796" stop-color="#FFD600"/>
</linearGradient>
<linearGradient id="paint14_linear" x1="148.714" y1="20.7081" x2="124.566" y2="38.5347" gradientUnits="userSpaceOnUse">
<stop offset="0.369385" stop-color="white"/>
<stop offset="0.775659" stop-color="#FFDD28"/>
<stop offset="0.978796" stop-color="#FFD600"/>
</linearGradient>
</defs>
</svg>
