<svg width="171" height="102" viewBox="0 0 62 37" fill="none" xmlns="http://www.w3.org/2000/svg">
<path d="M12.8496 0.0887696H24.9923C26.0117 0.0887696 26.8526 0.549526 27.5152 1.47104C27.8634 1.95293 28.0376 2.59545 28.0376 3.39861V14.9387C28.0376 16.4773 27.3155 17.5214 25.8715 18.0709C25.5487 18.1639 25.2302 18.2104 24.9159 18.2104H12.926C11.7538 18.2104 10.8449 17.6778 10.1993 16.6126C9.93597 16.1645 9.80431 15.6065 9.80431 14.9387V3.39861C9.80431 1.74157 10.5858 0.663658 12.1488 0.164858C12.4206 0.114132 12.6542 0.0887696 12.8496 0.0887696ZM11.843 3.17034V15.1162C11.843 15.6234 12.0808 15.9658 12.5565 16.1434C12.6075 16.1687 12.6839 16.1814 12.7858 16.1814H25.056C25.4808 16.1814 25.7866 15.9151 25.9734 15.3825L25.9989 15.1162V3.17034C25.9989 2.67154 25.7653 2.33337 25.2981 2.15583L25.1197 2.11779H12.7221C12.4163 2.11779 12.1445 2.32914 11.9067 2.75186C11.8642 2.89558 11.843 3.03507 11.843 3.17034Z" fill="white"/>
<path d="M34.8572 0H48.3505C48.9706 0 49.3699 0.198675 49.5483 0.596024C49.6162 0.782018 49.6502 0.92574 49.6502 1.02719C49.6502 1.46681 49.4038 1.78807 48.9112 1.99097L48.6691 2.02902H34.4622C33.9865 2.02902 33.634 2.32492 33.4046 2.91671V15.281C33.4046 15.5347 33.6127 15.8052 34.029 16.0927C34.1819 16.1603 34.2923 16.1941 34.3602 16.1941H47.6115V11.1723L41.8905 11.1596H41.7759C41.1558 11.1596 40.7565 10.9313 40.5781 10.4748L40.5144 10.1324C40.5144 9.65898 40.782 9.32926 41.3172 9.14327L41.4573 9.1179L48.5417 9.14327C49.0768 9.14327 49.4336 9.40112 49.612 9.91683L49.6502 10.2719V17.1579C49.6502 17.6567 49.3911 17.9991 48.8729 18.1851L48.5162 18.2231H34.5386C33.2984 18.2231 32.3301 17.6017 31.6335 16.359C31.4551 15.9447 31.366 15.5727 31.366 15.243V2.95476C31.366 2.11779 31.8119 1.33154 32.7038 0.596024C33.205 0.198675 33.9228 0 34.8572 0Z" fill="white"/>
<path d="M1.08304 24.0016H11.9644C12.508 24.0016 12.8605 24.2468 13.0219 24.7371L13.0474 24.9654V27.6919C13.0474 28.1315 12.8138 28.4401 12.3466 28.6176L12.0918 28.6557C11.6841 28.6557 11.3868 28.4147 11.1999 27.9328L11.1617 27.6158V25.8658H1.87302V27.1339C1.87302 27.1677 2.99428 27.7299 5.23681 28.8205L12.6652 32.5362C12.92 32.756 13.0474 33.0138 13.0474 33.3097V36.0362C13.0474 36.4758 12.8138 36.7844 12.3466 36.962L12.0026 37H1.04481C0.560631 37 0.229349 36.7929 0.0509665 36.3786C0.0169888 36.2772 0 36.1715 0 36.0616V33.2844C0 32.8363 0.246338 32.5362 0.739014 32.384L0.94288 32.3459C1.30814 32.3459 1.6012 32.5615 1.82205 32.9927C1.85603 33.1449 1.87302 33.3139 1.87302 33.4999V35.1358H11.1617V33.8677C11.1617 33.8339 9.40757 32.9546 5.89937 31.23C2.24677 29.4123 0.382249 28.4739 0.305799 28.4147C0.101933 28.2034 0 27.9709 0 27.7172V24.94C0 24.4581 0.276069 24.1495 0.828206 24.0143L1.08304 24.0016Z" fill="white"/>
<path d="M18.4971 24.0016H18.5353C19.1044 24.0016 19.4485 24.4412 19.5674 25.3205L21.313 32.1684H21.3257L23.2625 24.5469C23.4833 24.1834 23.7594 24.0016 24.0907 24.0016H24.1289C24.698 24.0016 25.0463 24.4539 25.1737 25.3585L26.8938 32.1684H26.9321L28.8688 24.5342C29.0641 24.1791 29.3572 24.0016 29.7479 24.0016C30.1642 24.0016 30.4615 24.2552 30.6399 24.7625L30.6526 24.94C28.7583 32.5827 27.7857 36.4462 27.7348 36.5308C27.5054 36.8436 27.2336 37 26.9193 37C26.3502 37 26.0104 36.59 25.9 35.7699L24.1289 28.8332H24.0907L22.1667 36.4674C21.9458 36.8225 21.6655 37 21.3257 37H21.313C20.7524 37 20.4083 36.5773 20.2809 35.7319C18.4886 28.6472 17.5924 25.0584 17.5924 24.9654V24.8893C17.5924 24.4919 17.826 24.2087 18.2932 24.0396C18.3442 24.0143 18.4121 24.0016 18.4971 24.0016Z" fill="white"/>
<path d="M38.6131 24.0016H38.6896C39.1313 24.0016 39.488 24.3609 39.7599 25.0795C43.353 32.198 45.1581 35.8079 45.1751 35.9094V36.0996C45.1751 36.5054 44.9415 36.7929 44.4743 36.962L44.2067 37H35.8864C35.2408 36.9155 34.918 36.5942 34.918 36.0362C34.918 35.6135 35.1729 35.3176 35.6825 35.1485L35.8864 35.1358H42.7159V35.1105C42.7159 35.0513 41.3611 32.3628 38.6513 27.0451H38.6131C35.4702 33.3435 33.8605 36.5435 33.784 36.6449C33.5547 36.8816 33.3084 37 33.045 37C32.6373 37 32.34 36.7675 32.1531 36.3025L32.1149 36.0616C32.1149 35.884 32.2805 35.4909 32.6118 34.8822C36.0945 27.9244 37.8741 24.3989 37.9506 24.306C38.1629 24.103 38.3838 24.0016 38.6131 24.0016Z" fill="white"/>
<path d="M49.9974 24.0016H60.9424C61.4266 24.0016 61.7537 24.2045 61.9236 24.6103C61.9745 24.7287 62 24.8512 62 24.9781V30.4691C62 30.9256 61.7664 31.23 61.2992 31.3822C61.2482 31.4075 61.1803 31.4202 61.0953 31.4202H52.0106C51.5858 31.4202 51.2885 31.1708 51.1187 30.672L51.0932 30.4818C51.0932 30.1605 51.2716 29.89 51.6283 29.6702C51.7642 29.611 51.8916 29.5814 52.0106 29.5814H60.127V25.8658H50.8129V36.0996C50.8129 36.5054 50.575 36.7929 50.0993 36.962L49.8827 37C49.475 37 49.1777 36.776 48.9908 36.3279C48.9568 36.2011 48.9398 36.0362 48.9398 35.8333V25.1683C48.9398 24.3905 49.2924 24.0016 49.9974 24.0016Z" fill="white"/>
<path d="M23.5927 4.94469L23.5652 4.91711H23.0373L14.623 13.2916V13.8169L14.6506 13.8443H15.0474L23.5927 5.33945V4.94469Z" fill="white"/>
<path d="M14.9682 4.91711C14.7775 4.91711 14.623 5.07088 14.623 5.2606V12.3248L22.066 4.91711H14.9682Z" fill="white"/>
<path d="M23.5933 13.5055V6.43518L16.1504 13.8429H23.2542C23.4415 13.8429 23.5933 13.6918 23.5933 13.5055Z" fill="white"/>
</svg>
