<svg width="661" height="646" viewBox="0 0 661 646" fill="none" xmlns="http://www.w3.org/2000/svg">
<mask id="path-1-inside-1" fill="white">
<path fill-rule="evenodd" clip-rule="evenodd" d="M660.061 97.4115V0L611.06 49H13C5.8203 49 0 54.8203 0 62V547.732V584V645.06L48.0603 597H647C654.18 597 660 591.18 660 584V98.1634C660.04 97.9186 660.061 97.6675 660.061 97.4115Z"/>
</mask>
<path fill-rule="evenodd" clip-rule="evenodd" d="M660.061 97.4115V0L611.06 49H13C5.8203 49 0 54.8203 0 62V547.732V584V645.06L48.0603 597H647C654.18 597 660 591.18 660 584V98.1634C660.04 97.9186 660.061 97.6675 660.061 97.4115Z" fill="#050505"/>
<path d="M660.061 0H661.061V-2.41421L659.353 -0.707109L660.061 0ZM611.06 49V50H611.475L611.767 49.7071L611.06 49ZM0 645.06H-1V647.474L0.707105 645.767L0 645.06ZM48.0603 597V596H47.6461L47.3532 596.293L48.0603 597ZM660 98.1634L659.013 98.0027L659 98.0825V98.1634H660ZM659.061 0V97.4115H661.061V0H659.061ZM611.767 49.7071L660.768 0.707109L659.353 -0.707109L610.353 48.2929L611.767 49.7071ZM13 50H611.06V48H13V50ZM1 62C1 55.3726 6.37258 50 13 50V48C5.26801 48 -1 54.268 -1 62H1ZM1 547.732V62H-1V547.732H1ZM1 584V547.732H-1V584H1ZM1 645.06V584H-1V645.06H1ZM47.3532 596.293L-0.707105 644.353L0.707105 645.767L48.7674 597.707L47.3532 596.293ZM647 596H48.0603V598H647V596ZM659 584C659 590.627 653.627 596 647 596V598C654.732 598 661 591.732 661 584H659ZM659 98.1634V584H661V98.1634H659ZM659.061 97.4115C659.061 97.6135 659.044 97.8109 659.013 98.0027L660.987 98.3241C661.035 98.0264 661.061 97.7214 661.061 97.4115H659.061Z" fill="#9A9A9A" mask="url(#path-1-inside-1)"/>
</svg>
