<svg width="1202" height="275" viewBox="0 0 1202 275" fill="none" xmlns="http://www.w3.org/2000/svg">
  <path fill-rule="evenodd" clip-rule="evenodd" d="M172.102 84.9204C152.028 72.4377 127.737 71.8759 107.116 83.4096C87.0582 94.6283 75.0822 114.933 75.0822 137.733C75.0822 160.528 87.0582 180.837 107.116 192.056C127.737 203.594 152.032 203.024 172.102 190.545C202.25 171.793 228.647 146.351 248.429 116.972C274 78.9961 308.089 46.123 347.017 21.9108C347.026 21.9066 347.03 21.9023 347.039 21.8981C368.821 8.35132 393.633 1.12469 418.797 1.00552C442.453 0.856562 465.955 6.98941 486.797 18.6465C530.586 43.1396 556.729 87.657 556.729 137.733C556.729 187.808 530.586 232.326 486.801 256.819C466.15 268.37 442.876 274.464 419.458 274.464C419.238 274.464 419.018 274.464 418.797 274.46C393.637 274.336 368.821 267.114 347.039 253.567L346.996 253.538C322.006 237.991 299.029 218.864 279.001 197.12C290.163 185.004 300.423 172.083 309.572 158.493C314.403 151.322 319.628 144.393 325.201 137.733C342.466 158.366 363.108 176.368 385.899 190.545C405.969 203.028 430.265 203.59 450.886 192.056C470.943 180.837 482.919 160.528 482.919 137.733C482.919 114.933 470.943 94.6283 450.886 83.4053C430.265 71.8716 405.969 72.4377 385.899 84.9204C355.747 103.672 329.354 129.114 309.572 158.493C284.014 196.452 249.934 229.313 211.022 253.525C211.001 253.538 210.984 253.555 210.963 253.567C189.176 267.114 164.364 274.341 139.204 274.46C138.984 274.464 138.764 274.464 138.543 274.464C115.125 274.464 91.8511 268.365 71.2003 256.819C27.4154 232.326 1.27246 187.808 1.27246 137.733C1.27246 87.657 27.4154 43.1396 71.2003 18.6465C92.0461 6.98941 115.511 0.899121 139.204 1.00126C164.364 1.12469 189.181 8.35132 210.963 21.8981C235.966 37.4536 258.96 56.5885 279.001 78.345C267.838 90.4617 257.579 103.383 248.429 116.972C243.602 124.143 238.373 131.076 232.8 137.737C215.535 117.1 194.893 99.0971 172.102 84.9204Z" fill="url(#paint0_linear)" fill-opacity="0.04" stroke="url(#paint1_linear)"/>
  <path fill-rule="evenodd" clip-rule="evenodd" d="M816.83 190.544C796.755 203.027 772.464 203.589 751.843 192.055C731.786 180.837 719.81 160.531 719.81 137.732C719.81 114.937 731.786 94.6277 751.843 83.409C772.464 71.871 796.76 72.4413 816.83 84.9198C846.978 103.672 873.375 129.114 893.157 158.493C918.728 196.469 952.816 229.342 991.745 253.554C991.753 253.558 991.758 253.563 991.766 253.567C1013.55 267.114 1038.36 274.34 1063.52 274.459C1087.18 274.608 1110.68 268.475 1131.52 256.818C1175.31 232.325 1201.46 187.808 1201.46 137.732C1201.46 87.6564 1175.31 43.139 1131.53 18.6459C1110.88 7.09521 1087.6 1.00067 1064.19 1.00067C1063.97 1.00067 1063.75 1.0007 1063.52 1.00494C1038.36 1.12836 1013.55 8.35074 991.766 21.8975L991.724 21.9273C966.733 37.4743 943.756 56.6006 923.728 78.3444C934.891 90.4611 945.15 103.382 954.3 116.972C959.131 124.143 964.356 131.072 969.929 137.732C987.194 117.099 1007.84 99.0965 1030.63 84.9198C1050.7 72.4371 1074.99 71.8753 1095.61 83.409C1115.67 94.6277 1127.65 114.937 1127.65 137.732C1127.65 160.531 1115.67 180.837 1095.61 192.06C1074.99 203.593 1050.7 203.027 1030.63 190.544C1000.47 171.793 974.082 146.35 954.3 116.972C928.742 79.0126 894.661 46.1522 855.75 21.94C855.729 21.9273 855.712 21.9102 855.69 21.8975C833.904 8.35074 809.092 1.12411 783.932 1.00494C783.711 1.0007 783.491 1.00067 783.271 1.00067C759.853 1.00067 736.579 7.09949 715.928 18.6459C672.143 43.139 646 87.6564 646 137.732C646 187.808 672.143 232.325 715.928 256.818C736.774 268.475 760.238 274.566 783.932 274.464C809.092 274.34 833.908 267.114 855.69 253.567C880.693 238.011 903.688 218.876 923.728 197.12C912.566 185.003 902.306 172.082 893.157 158.493C888.33 151.321 883.1 144.388 877.528 137.728C860.263 158.365 839.621 176.368 816.83 190.544Z" fill="url(#paint2_linear)" fill-opacity="0.04" stroke="url(#paint3_linear)"/>
  <defs>
    <linearGradient id="paint0_linear" x1="60.5568" y1="-70.6216" x2="547.199" y2="-61.2081" gradientUnits="userSpaceOnUse">
      <stop stop-color="#00FFA3"/>
      <stop offset="1" stop-color="#DC1FFF"/>
    </linearGradient>
    <linearGradient id="paint1_linear" x1="181.208" y1="104.689" x2="400.484" y2="275.098" gradientUnits="userSpaceOnUse">
      <stop stop-color="#00FFA3"/>
      <stop offset="1" stop-color="#DC1FFF"/>
    </linearGradient>
    <linearGradient id="paint2_linear" x1="705.284" y1="346.086" x2="1191.93" y2="336.673" gradientUnits="userSpaceOnUse">
      <stop stop-color="#00FFA3"/>
      <stop offset="1" stop-color="#DC1FFF"/>
    </linearGradient>
    <linearGradient id="paint3_linear" x1="825.935" y1="170.776" x2="1045.21" y2="0.367049" gradientUnits="userSpaceOnUse">
      <stop stop-color="#00FFA3"/>
      <stop offset="1" stop-color="#DC1FFF"/>
    </linearGradient>
  </defs>
</svg>
