<svg width="102" height="28" viewBox="0 0 102 28" fill="none" xmlns="http://www.w3.org/2000/svg">
  <path d="M6.53559 14.3013L3.26783 17.4795L0 14.3013L3.26783 11.123L6.53559 14.3013Z" fill="#F0B90B"/>
  <path d="M13.4822 6.43004L18.8913 11.9177L22.0602 8.70271L13.4822 0L4.9043 8.70271L8.07325 11.9177L13.4822 6.43004Z" fill="#F0B90B"/>
  <path d="M24.51 11.123L21.2422 14.3011L24.51 17.4792L27.7778 14.3011L24.51 11.123Z" fill="#F0B90B"/>
  <path d="M13.4822 21.3784L8.07325 15.8906L4.9043 19.1058L13.4822 27.8086L22.0602 19.1058L18.8913 15.8906L13.4822 21.3784Z" fill="#F0B90B"/>
  <path d="M13.8869 17.4792L17.1547 14.3011L13.8869 11.123L10.6191 14.3011L13.8869 17.4792Z" fill="#F0B90B"/>
  <path fill-rule="evenodd" clip-rule="evenodd" d="M36.757 3.28125C38.9047 3.28125 40.2422 4.24999 40.2422 5.74558V5.76257C40.2422 6.83332 39.6017 7.44514 38.848 7.81902C40.0726 8.24393 40.8262 8.88972 40.8262 10.1644V10.1984C40.8262 11.9489 39.2624 12.8157 36.87 12.8157H31.8398V3.28125H36.757ZM36.8109 8.87305H34.1168V10.9805H36.8862C37.9035 10.9805 38.5253 10.6576 38.5253 9.94376V9.90978C38.5253 9.26392 37.9978 8.87305 36.8109 8.87305ZM34.0994 5.09961H36.3978C37.3775 5.09961 37.9238 5.45651 37.9238 6.08534V6.11934C37.9238 6.83318 37.2833 7.12207 36.2471 7.12207H34.0994V5.09961Z" fill="#F0B90B"/>
  <path d="M45.7283 12.8157V3.28125H43.2773V12.8157H45.7283Z" fill="#F0B90B"/>
  <path d="M57.1642 12.8157V3.29822H54.9672V9.15116L50.2308 3.28125H48.1777V12.7987H50.3748V6.74216L55.2733 12.7987H57.1642V12.8157Z" fill="#F0B90B"/>
  <path fill-rule="evenodd" clip-rule="evenodd" d="M69.4153 12.8157L65.1209 3.28125H63.0895L58.7949 12.8157H61.0402L61.949 10.6895H66.1722L67.0811 12.8157H69.4153ZM62.7676 8.85059L64.1042 5.7793L65.4228 8.85059H62.7676Z" fill="#F0B90B"/>
  <path d="M80.0392 12.8157V3.29822H77.8421V9.15116L73.1057 3.28125H71.0527V12.7987H73.2498V6.74216L78.1483 12.7987H80.0392V12.8157Z" fill="#F0B90B"/>
  <path d="M91.4767 11.8322L90.106 10.4277C89.3427 11.1388 88.6666 11.601 87.5386 11.601C85.8732 11.601 84.7109 10.1788 84.7109 8.47221V8.43668C84.7109 6.73004 85.8908 5.32564 87.5386 5.32564C88.5101 5.32564 89.2733 5.7523 90.0372 6.4456L91.4073 4.82787C90.5051 3.92123 89.4123 3.28125 87.5737 3.28125C84.5895 3.28125 82.4902 5.61007 82.4902 8.43668V8.47221C82.4902 11.3343 84.6242 13.6098 87.4867 13.6098C89.3603 13.6277 90.4708 12.9344 91.4767 11.8322Z" fill="#F0B90B"/>
  <path d="M101.278 12.8157V10.9495H96.0264V8.94764H100.59V7.08147H96.0264V5.14742H101.209V3.28125H93.9258V12.7987H101.278V12.8157Z" fill="#F0B90B"/>
  <path fill-rule="evenodd" clip-rule="evenodd" d="M34.2365 24.0439C34.8073 24.0439 35.2942 23.9577 35.6968 23.785C36.0996 23.6123 36.4077 23.3719 36.6212 23.0638C36.8346 22.7557 36.9415 22.3985 36.9415 21.9922C36.9415 21.6919 36.8834 21.4302 36.7674 21.2067C36.6514 20.9832 36.4941 20.7925 36.2957 20.6345C36.0972 20.4765 35.8732 20.3456 35.6238 20.2418C35.3743 20.1379 35.1149 20.0556 34.8456 19.9945L34.1772 19.8321C34.031 19.7982 33.8859 19.7565 33.742 19.7068C33.5981 19.6572 33.4671 19.5956 33.3486 19.5222C33.2303 19.4489 33.137 19.3592 33.0684 19.2531C33 19.147 32.9657 19.0217 32.9657 18.8773C32.968 18.7034 33.0203 18.5489 33.1224 18.4134C33.2245 18.2779 33.3719 18.1707 33.5645 18.0918C33.7572 18.0128 33.9881 17.9733 34.2573 17.9733C34.6403 17.9733 34.9518 18.0557 35.1921 18.2205C35.4323 18.3853 35.5686 18.6154 35.6011 18.9111H36.844C36.8369 18.5206 36.7244 18.1747 36.5063 17.8734C36.2881 17.572 35.9881 17.3362 35.6064 17.1657C35.2246 16.9954 34.7807 16.9102 34.2748 16.9102C33.7757 16.9102 33.329 16.9954 32.9344 17.1657C32.5399 17.3362 32.2283 17.5749 31.9997 17.8819C31.771 18.1889 31.6567 18.5466 31.6567 18.9552C31.6567 19.4517 31.8267 19.8496 32.1667 20.1487C32.5067 20.4477 32.9704 20.6706 33.5576 20.8174L34.3687 21.0205C34.624 21.0837 34.8474 21.1553 35.0389 21.2355C35.2304 21.3156 35.3794 21.4149 35.4863 21.5334C35.593 21.6519 35.6475 21.8015 35.6499 21.9821C35.6475 22.1807 35.5861 22.3539 35.4653 22.5018C35.3447 22.6496 35.1782 22.7647 34.9657 22.8471C34.7534 22.9295 34.5068 22.9707 34.2259 22.9707C33.9568 22.9707 33.7136 22.9312 33.4966 22.8522C33.2796 22.7732 33.1038 22.6535 32.9693 22.4933C32.8346 22.333 32.758 22.1322 32.7395 21.8907H31.4688C31.4873 22.351 31.6109 22.7415 31.8396 23.0621C32.0681 23.3826 32.3861 23.6263 32.7934 23.7934C33.2007 23.9604 33.6817 24.0439 34.2365 24.0439ZM39.5726 23.9387V19.1649H39.6388L41.6091 23.9185H42.5352L44.5056 19.1751H44.5718V23.9387H45.8111V17.0049H44.2306L42.114 22.0292H42.0304L39.9137 17.0049H38.3333V23.9387H39.5726ZM48.9623 22.2297L48.373 23.9387H46.9945L49.5045 17.0049H51.0989L53.6124 23.9387H52.2339L51.6427 22.2297H48.9623ZM51.2972 21.2217H49.3136L50.2771 18.4277H50.3328L51.2972 21.2217ZM56.084 21.3995L56.0846 23.9387H54.7931V17.0049H57.4667C58.0144 17.0049 58.4745 17.0974 58.8471 17.2824C59.2195 17.4676 59.5015 17.7266 59.693 18.0595C59.8845 18.3924 59.9802 18.7801 59.9802 19.2224C59.9802 19.6671 59.8833 20.0525 59.6895 20.3787L59.6009 20.5139C59.4124 20.7753 59.1571 20.9819 58.8349 21.1337L58.6982 21.1921L60.2413 23.9387H58.8L57.3984 21.3995H56.084ZM56.0896 18.0542H57.2732C57.5958 18.0542 57.8592 18.1 58.0635 18.1914C58.2678 18.2828 58.4198 18.416 58.5195 18.5909C58.6193 18.7657 58.6692 18.9763 58.6692 19.2223C58.6692 19.4683 58.62 19.6754 58.5213 19.8436C58.4227 20.0117 58.2712 20.1392 58.067 20.2262C57.8628 20.313 57.6005 20.3565 57.2803 20.3565L56.0889 20.3569L56.0896 18.0542ZM64.5858 18.0578V23.9387H63.3047V18.0578H61.101V17.0049H66.7895V18.0578H64.5858ZM73.8819 24.0337C74.3067 24.0337 74.6931 23.9721 75.0412 23.8492C75.3893 23.7262 75.6933 23.5547 75.9533 23.3345C76.2132 23.1145 76.4239 22.8599 76.5851 22.5711C76.7465 22.2821 76.8515 21.9729 76.9002 21.6434L75.5983 21.6366C75.5588 21.8398 75.4874 22.0203 75.3842 22.1784C75.2808 22.3363 75.1544 22.4694 75.0047 22.5778C74.855 22.6862 74.6867 22.768 74.4998 22.8233C74.313 22.8786 74.1129 22.9062 73.8993 22.9062C73.514 22.9062 73.1723 22.8143 72.8741 22.6303C72.5759 22.4464 72.3415 22.1732 72.1708 21.811C72.0003 21.4487 71.915 21.0024 71.915 20.4719C71.915 19.9505 71.9997 19.5086 72.1691 19.1464C72.3385 18.7842 72.5729 18.5087 72.8723 18.3203C73.1717 18.1318 73.5153 18.0376 73.9029 18.0376C74.121 18.0376 74.3247 18.0664 74.5138 18.1239C74.703 18.1815 74.8717 18.2667 75.0204 18.3796C75.1689 18.4924 75.293 18.6295 75.3928 18.7909C75.4926 18.9523 75.5611 19.1368 75.5983 19.3445H76.9002C76.8468 18.9585 76.7337 18.6149 76.5608 18.3136C76.3879 18.0122 76.168 17.7572 75.9011 17.5483C75.6342 17.3396 75.3302 17.181 74.989 17.0726C74.6478 16.9643 74.2788 16.9102 73.8819 16.9102C73.2599 16.9102 72.7029 17.0512 72.2109 17.3334C71.7188 17.6155 71.3302 18.0224 71.0447 18.5539C70.7592 19.0855 70.6165 19.7248 70.6165 20.4719C70.6165 21.2168 70.758 21.8556 71.0412 22.3883C71.3243 22.921 71.7119 23.3283 72.204 23.6104C72.696 23.8926 73.2553 24.0337 73.8819 24.0337ZM79.6215 20.9932V23.9387H78.3299V17.0049H79.6215V19.9403H82.9253V17.0049H84.2204V23.9387H82.9253V20.9932H79.6215ZM86.7802 23.9387L87.3696 22.2297H90.0501L90.641 23.9387H92.0196L89.5062 17.0049H87.9117L85.4016 23.9387H86.7802ZM87.7184 21.2217H89.7019L88.7375 18.4277H88.6818L87.7184 21.2217ZM94.4921 23.9387V17.0049H93.2003V23.9387H94.4921ZM97.4333 19.2157V23.9387H96.1417V17.0049H97.2975L100.653 21.7313H100.716V17.0049H102.001V23.9387H100.852L97.4924 19.2157H97.4333Z" fill="#F0B90B"/>
</svg>
