<svg width="137" height="34" viewBox="0 0 137 34" fill="none" xmlns="http://www.w3.org/2000/svg">
<path d="M11.0563 12.5733V0L0.630859 17.3087L11.0563 12.5733Z" fill="#8891B1"/>
<path d="M11.0563 23.476V12.5733L0.630859 17.3087L11.0563 23.476ZM11.0563 12.5733L21.4942 17.3087L11.0563 0V12.5733Z" fill="#63688E"/>
<path d="M11.0566 12.5723V23.475L21.4946 17.3077L11.0566 12.5723Z" fill="#464A75"/>
<path d="M11.0563 25.4477L0.630859 19.293L11.0563 33.989V25.4477Z" fill="#8891B1"/>
<path d="M21.4946 19.293L11.0566 25.4477V33.989L21.4946 19.293Z" fill="#63688E"/>
<path d="M38.9287 19.6439C38.9287 19.8826 38.7152 20.0961 38.4766 20.0961H30.1362C30.3498 22.0807 31.8947 24.0151 34.0803 24.0151C35.575 24.0151 36.6804 23.4373 37.5219 22.2314C37.6099 22.1058 37.7355 22.0179 37.8862 22.0179C38.1249 22.0179 38.3007 22.1938 38.3007 22.4324C38.3007 22.5203 38.2756 22.5831 38.2379 22.6459C37.3963 24.1155 35.7257 24.8315 34.0803 24.8315C31.2667 24.8315 29.2695 22.3194 29.2695 19.6314C29.2695 16.9434 31.2667 14.4438 34.0803 14.4438C36.8939 14.4438 38.9287 16.9559 38.9287 19.6439ZM38.0244 19.242C37.8485 17.1192 36.2659 15.2979 34.0803 15.2979C31.8947 15.2979 30.3372 17.1192 30.1362 19.242H38.0244ZM49.0653 14.5819C49.3039 14.5819 49.4798 14.7955 49.4798 15.009C49.4798 15.2477 49.3039 15.4361 49.0653 15.4361H46.8294V24.2537C46.8294 24.4672 46.641 24.6682 46.4024 24.6682C46.1637 24.6682 45.9753 24.4547 45.9753 24.2537V15.4361H43.8274C43.5888 15.4361 43.4129 15.2477 43.4129 15.009C43.4129 14.7955 43.5888 14.5819 43.8274 14.5819H45.9753V11.3915C45.9753 11.1529 46.1637 10.977 46.4024 10.977C46.641 10.977 46.8294 11.1529 46.8294 11.3915V14.5819H49.0653ZM62.656 18.8652V24.1909C62.656 24.4296 62.5178 24.6054 62.3043 24.6054C62.0656 24.6054 61.9526 24.4296 61.9526 24.1909V18.8652C61.9526 17.069 60.91 15.2728 58.9003 15.2728C56.3254 15.2728 55.1823 17.5212 55.3205 19.8198C55.3205 19.8826 55.3079 20.1463 55.3079 20.184V24.1909C55.3079 24.4296 55.1949 24.6054 54.9562 24.6054C54.7176 24.6054 54.6045 24.4296 54.6045 24.1909V6.6938C54.6045 6.48027 54.7176 6.2793 54.9562 6.2793C55.1949 6.2793 55.3079 6.49283 55.3079 6.6938V16.5917C56.1621 15.3105 57.3051 14.4438 58.7998 14.4438C61.2492 14.4438 62.656 16.5917 62.656 18.8652ZM77.7037 19.6439C77.7037 19.8826 77.4902 20.0961 77.2516 20.0961H68.9112C69.1248 22.0807 70.6697 24.0151 72.8553 24.0151C74.35 24.0151 75.4554 23.4373 76.2969 22.2314C76.3849 22.1058 76.5105 22.0179 76.6612 22.0179C76.8998 22.0179 77.0757 22.1938 77.0757 22.4324C77.0757 22.5203 77.0506 22.5831 77.0129 22.6459C76.1713 24.1155 74.5008 24.8315 72.8553 24.8315C70.0417 24.8315 68.0445 22.3194 68.0445 19.6314C68.0445 16.9434 70.0417 14.4438 72.8553 14.4438C75.6689 14.4438 77.7037 16.9559 77.7037 19.6439ZM76.8119 19.242C76.6361 17.1192 75.0534 15.2979 72.8679 15.2979C70.6823 15.2979 69.1248 17.1192 68.9238 19.242H76.8119ZM87.9659 15.009C87.9659 15.2728 87.8151 15.4235 87.5639 15.4612C85.1146 15.8255 83.9967 17.8226 83.9967 20.1589V24.1532C83.9967 24.3919 83.8083 24.5677 83.5696 24.5677C83.3309 24.5677 83.1425 24.3919 83.1425 24.1532V15.0341C83.1425 14.7955 83.3309 14.6196 83.5696 14.6196C83.8083 14.6196 83.9967 14.7955 83.9967 15.0341V16.8931C84.7001 15.725 86.0692 14.6196 87.5011 14.6196C87.7146 14.6196 87.9659 14.7704 87.9659 15.009ZM101.682 19.6439C101.682 19.8826 101.469 20.0961 101.23 20.0961H92.8897C93.1032 22.0807 94.6482 24.0151 96.8337 24.0151C98.3285 24.0151 99.4338 23.4373 100.275 22.2314C100.363 22.1058 100.489 22.0179 100.64 22.0179C100.878 22.0179 101.054 22.1938 101.054 22.4324C101.054 22.5203 101.029 22.5831 100.991 22.6459C100.15 24.1155 98.4792 24.8315 96.8337 24.8315C94.0201 24.8315 92.023 22.3194 92.023 19.6314C92.023 16.9434 94.0201 14.4438 96.8337 14.4438C99.6474 14.4312 101.682 16.9559 101.682 19.6439ZM100.79 19.242C100.615 17.1192 99.0319 15.2979 96.8463 15.2979C94.6607 15.2979 93.1032 17.1192 92.9022 19.242H100.79ZM115.235 15.0969V24.2412C115.235 24.4798 115.022 24.6557 114.808 24.6557C114.57 24.6557 114.381 24.4798 114.381 24.2412V22.5203C113.678 23.8895 112.459 24.8818 110.902 24.8818C108.415 24.8818 107.033 22.7339 107.033 20.4604V15.1095C107.033 14.896 107.221 14.695 107.46 14.695C107.699 14.695 107.887 14.9085 107.887 15.1095V20.4604C107.887 22.2566 108.905 24.0527 110.914 24.0527C113.728 24.0527 114.394 21.4275 114.394 18.526V15.1221C114.394 14.9085 114.582 14.7076 114.821 14.7076C115.022 14.6824 115.235 14.896 115.235 15.0969ZM136.287 18.84V24.1909C136.287 24.4296 136.073 24.6054 135.86 24.6054C135.621 24.6054 135.433 24.4296 135.433 24.1909V18.84C135.433 17.0438 134.415 15.2853 132.406 15.2853C129.894 15.2853 128.926 17.9733 128.926 20.071V24.1909C128.926 24.4296 128.713 24.6054 128.499 24.6054C128.261 24.6054 128.072 24.4296 128.072 24.1909V18.84C128.072 17.0438 127.08 15.2853 125.083 15.2853C122.546 15.2853 121.49 17.2825 121.578 19.9454V24.1909C121.578 24.4296 121.39 24.6054 121.151 24.6054C120.913 24.6054 120.724 24.4296 120.724 24.1909V15.0467C120.724 14.808 120.913 14.6322 121.151 14.6322C121.39 14.6322 121.578 14.808 121.578 15.0467V16.5665C122.282 15.2853 123.601 14.4438 125.095 14.4438C126.804 14.4438 128.123 15.524 128.663 17.1067C129.353 15.5491 130.698 14.4438 132.431 14.4438C134.893 14.4438 136.287 16.5665 136.287 18.84Z" fill="#8891B1"/>
</svg>
