<svg width="110" height="23" viewBox="0 0 110 23" fill="none" xmlns="http://www.w3.org/2000/svg">
  <path d="M27.5005 20.6574V9.34113L30.6307 9.34113V7.26913L27.5005 7.26913V5.78154C27.5005 4.09915 28.2344 3.25795 29.7022 3.25795C30.1267 3.25795 30.5776 3.32879 31.0551 3.47046V1.26564C30.4715 1.08855 29.826 1 29.1186 1C27.7569 1 26.7002 1.38961 25.9486 2.16882C25.197 2.94803 24.8212 4.08144 24.8212 5.56903V7.26913L22.248 7.26913V9.34113L24.8212 9.34113L24.8212 20.6574L27.5005 20.6574ZM38.5093 20.8434C39.535 20.8434 40.4325 20.6309 41.2018 20.2058C41.9711 19.7808 42.5503 19.1698 42.9394 18.3729V20.6574H45.5921V7.26913L42.9394 7.26913V9.44738C42.5326 8.65046 41.949 8.03506 41.1886 7.60118C40.4281 7.1673 39.535 6.95036 38.5093 6.95036C37.3598 6.95036 36.3341 7.24256 35.4321 7.82697C34.5302 8.41138 33.8272 9.23487 33.3232 10.2974C32.8192 11.36 32.5672 12.5819 32.5672 13.9633C32.5672 15.3446 32.8148 16.5533 33.3099 17.5893C33.8051 18.6253 34.4992 19.4266 35.3923 19.9933C36.2854 20.56 37.3244 20.8434 38.5093 20.8434ZM39.1459 18.7183C37.9257 18.7183 36.9751 18.3021 36.2943 17.4697C35.6134 16.6374 35.273 15.4686 35.273 13.9633C35.273 12.4403 35.6134 11.2493 36.2943 10.3904C36.9751 9.5315 37.9168 9.10205 39.1194 9.10205C40.3397 9.10205 41.2814 9.51822 41.9446 10.3506C42.6078 11.1829 42.9394 12.3694 42.9394 13.9102C42.9394 15.4332 42.6078 16.6153 41.9446 17.4565C41.2814 18.2977 40.3485 18.7183 39.1459 18.7183ZM52.1709 20.6574V13.0335C52.1709 11.847 52.5113 10.8996 53.1922 10.1912C53.873 9.4828 54.7794 9.12861 55.9112 9.12861C56.9016 9.12861 57.6222 9.39426 58.0732 9.92554C58.5241 10.4568 58.7496 11.3069 58.7496 12.4757V20.6574H61.4289V12.3163C61.4289 8.73901 59.8284 6.95036 56.6274 6.95036C55.6017 6.95036 54.6865 7.17615 53.8819 7.62774C53.0772 8.07933 52.4627 8.73015 52.0382 9.5802L51.7995 7.26913L49.3059 7.26913C49.4474 8.38482 49.5181 9.64219 49.5181 11.0412V20.6574H52.1709ZM70.3951 20.8434C71.1379 20.8434 71.8011 20.746 72.3847 20.5512V18.3729C71.9072 18.5146 71.4385 18.5854 70.9787 18.5854C70.2713 18.5854 69.7187 18.3951 69.3208 18.0143C68.9229 17.6336 68.7239 16.9827 68.7239 16.0618V9.34113L72.4112 9.34113V7.26913L68.7239 7.26913V2.99231L66.0446 3.92205V7.26913L63.445 7.26913V9.34113L66.0446 9.34113V16.2744C66.0446 17.7619 66.4249 18.8953 67.1853 19.6746C67.9458 20.4538 69.0157 20.8434 70.3951 20.8434ZM80.6347 20.8434C81.9257 20.8434 83.0663 20.56 84.0567 19.9933C85.047 19.4266 85.8119 18.6209 86.3513 17.576C86.8907 16.5311 87.1604 15.3092 87.1604 13.9102C87.1604 12.5111 86.8907 11.2847 86.3513 10.231C85.8119 9.17732 85.047 8.36711 84.0567 7.80041C83.0663 7.23371 81.9257 6.95036 80.6347 6.95036C79.326 6.95036 78.1765 7.23371 77.1861 7.80041C76.1958 8.36711 75.4309 9.17732 74.8915 10.231C74.3521 11.2847 74.0824 12.5111 74.0824 13.9102C74.0824 15.3092 74.3521 16.5311 74.8915 17.576C75.4309 18.6209 76.1958 19.4266 77.1861 19.9933C78.1765 20.56 79.326 20.8434 80.6347 20.8434ZM80.6081 18.7183C79.3879 18.7183 78.4462 18.3109 77.783 17.4963C77.1198 16.6817 76.7882 15.4863 76.7882 13.9102C76.7882 12.3694 77.1242 11.1829 77.7962 10.3506C78.4683 9.51822 79.4144 9.10205 80.6347 9.10205C81.8372 9.10205 82.7701 9.51822 83.4333 10.3506C84.0965 11.1829 84.4281 12.3694 84.4281 13.9102C84.4281 15.4863 84.1009 16.6817 83.4466 17.4963C82.7922 18.3109 81.8461 18.7183 80.6081 18.7183ZM92.9433 20.6574V13.0867C92.9433 11.8647 93.244 10.8996 93.8453 10.1912C94.4465 9.4828 95.2601 9.12861 96.2858 9.12861C97.17 9.12861 97.8111 9.39426 98.209 9.92554C98.6069 10.4568 98.8059 11.298 98.8059 12.4491V20.6574H101.485V13.0867C101.485 11.8647 101.781 10.8996 102.374 10.1912C102.966 9.4828 103.775 9.12861 104.801 9.12861C105.685 9.12861 106.326 9.39426 106.724 9.92554C107.122 10.4568 107.321 11.298 107.321 12.4491V20.6574H110V12.3163C110 8.73901 108.515 6.95036 105.544 6.95036C104.553 6.95036 103.665 7.18058 102.878 7.64103C102.091 8.10147 101.494 8.73015 101.087 9.52708C100.451 7.80927 99.0977 6.95036 97.0285 6.95036C96.0559 6.95036 95.207 7.17173 94.4819 7.61446C93.7568 8.0572 93.1998 8.68588 92.8107 9.50051L92.572 7.26913L90.0784 7.26913C90.2199 8.38482 90.2906 9.64219 90.2906 11.0412V20.6574H92.9433Z" fill="#1969FF"/>
  <path fill-rule="evenodd" clip-rule="evenodd" d="M10.1629 1.15958L15.3823 3.92704C15.7737 4.1346 15.7737 4.47113 15.3823 4.6787L10.1629 7.44616C9.77149 7.65372 9.13681 7.65372 8.74535 7.44616L3.52602 4.6787C3.13456 4.47113 3.13456 4.1346 3.52602 3.92704L8.74535 1.15958C9.13681 0.952015 9.77149 0.952015 10.1629 1.15958Z" stroke="#1969FF" stroke-width="2"/>
  <path fill-rule="evenodd" clip-rule="evenodd" d="M10.1669 7.90763L15.3862 10.6751C15.7776 10.8827 15.7776 11.2192 15.3862 11.4267L10.1669 14.1942C9.77539 14.4018 9.14071 14.4018 8.74926 14.1942L3.52992 11.4267C3.13846 11.2192 3.13846 10.8827 3.52992 10.6751L8.74926 7.90763C9.14071 7.70006 9.77539 7.70006 10.1669 7.90763Z" stroke="#1969FF" stroke-width="2"/>
  <mask id="mask0" style="mask-type:alpha" maskUnits="userSpaceOnUse" x="2" y="18" width="15" height="5">
    <rect x="2.42773" y="18.1562" width="14.2758" height="3.95892" fill="white"/>
  </mask>
  <g mask="url(#mask0)">
    <path fill-rule="evenodd" clip-rule="evenodd" d="M10.1825 14.974L15.4018 17.7415C15.7933 17.9491 15.7933 18.2856 15.4018 18.4932L10.1825 21.2606C9.79102 21.4682 9.15634 21.4682 8.76488 21.2606L3.54555 18.4932C3.15409 18.2856 3.15409 17.9491 3.54555 17.7415L8.76488 14.974C9.15634 14.7665 9.79102 14.7665 10.1825 14.974Z" stroke="#1969FF" stroke-width="2"/>
  </g>
  <path d="M16.291 1.9043C17.3129 2.52523 17.8152 2.75808 17.8152 4.3104" stroke="#1969FF" stroke-width="2"/>
  <path d="M2.52344 20.2754C1.5016 19.6545 0.999263 19.4216 0.999263 17.8693" stroke="#1969FF" stroke-width="2"/>
  <path d="M3.19359 18.0423L3.19359 4.375" stroke="#1969FF" stroke-width="2" stroke-linecap="square"/>
  <path d="M15.7229 18.0404L15.7229 4.37305" stroke="#1969FF" stroke-width="2" stroke-linecap="square"/>
  <path d="M9.44943 14.1653L9.44943 7.80078" stroke="#1969FF" stroke-width="2" stroke-linecap="square"/>
</svg>
