<svg width="114" height="34" viewBox="0 0 114 34" fill="none" xmlns="http://www.w3.org/2000/svg">
<path d="M42.9224 8.4716V18.0619H33.3945V9.70998C33.3945 9.02359 32.8377 8.4668 32.1513 8.4668H28.9258V31.4249C28.9258 32.1113 29.4826 32.6681 30.169 32.6681H33.3945V21.9594H42.9272V31.4201C42.9176 32.1065 43.4648 32.6729 44.1512 32.6825H47.396V9.70998C47.396 9.02359 46.8392 8.4668 46.1528 8.4668H42.9224V8.4716ZM61.8438 14.4715V25.977C61.8534 27.0234 61.3062 27.9978 60.4038 28.5354C57.879 29.9945 55.2631 28.1658 55.2631 25.7658V15.7147C55.2631 15.0283 54.7063 14.4715 54.0199 14.4715H50.7943V26.1786C50.8039 29.9513 53.8567 33.0041 57.6294 33.0233H59.463C63.2406 33.0137 66.3029 29.9513 66.3125 26.1738V15.7147C66.3125 15.0283 65.7557 14.4715 65.0694 14.4715H61.8438Z" fill="white"/>
<path d="M110.646 32.6825H113.871V16.3819C113.871 15.6955 113.314 15.1387 112.628 15.1387H109.402V31.4297C109.398 32.1161 109.95 32.6777 110.636 32.6825H110.646Z" fill="white"/>
<path d="M111.991 11.0668C112.072 10.8731 111.98 10.651 111.786 10.5707C111.592 10.4905 111.37 10.5825 111.29 10.7762C111.21 10.9699 111.302 11.192 111.495 11.2722C111.689 11.3525 111.911 11.2605 111.991 11.0668Z" fill="white"/>
<path d="M77.8423 14.4629C73.1624 14.4629 69.332 17.8085 69.332 22.4884V25.018C69.332 29.6979 73.1624 33.0243 77.8423 33.0243C82.5223 33.0243 86.3526 29.6979 86.3526 25.018V22.4884C86.3574 17.8085 82.5271 14.4629 77.8423 14.4629ZM81.8647 25.3204C81.8647 27.5331 80.0551 29.0067 77.8375 29.0067C75.62 29.0067 73.8152 27.5331 73.8152 25.3204V22.162C73.8152 19.9492 75.6248 18.4756 77.8375 18.4756C80.0503 18.4756 81.8647 19.9492 81.8647 22.162V25.3204Z" fill="white"/>
<path d="M97.8823 14.4633C96.4807 14.4537 95.0983 14.7705 93.8359 15.3801V9.73537C93.8359 9.04898 93.2791 8.49219 92.5927 8.49219H89.3672V25.0184C89.3672 29.6983 93.1975 33.0247 97.8775 33.0247C102.557 33.0247 106.388 29.6983 106.388 25.0184V22.4888C106.393 17.8089 102.572 14.4633 97.8823 14.4633ZM101.909 25.3208C101.909 27.5336 100.1 29.0071 97.8823 29.0071C95.6695 29.0071 93.8599 27.5336 93.8599 25.3208V22.1624C93.8599 19.9497 95.6695 18.4761 97.8823 18.4761C100.095 18.4761 101.909 19.9497 101.909 22.1624V25.3208Z" fill="white"/>
<path d="M15.4196 10.4546C15.4196 5.57789 13.0436 1.37794 11.2341 0.0147574C11.2341 0.0147574 11.0949 -0.0620417 11.1093 0.134756C10.9605 9.55704 6.14611 12.1106 3.50135 15.5474C-2.60418 23.4865 3.06935 32.1888 8.85808 33.7968C12.0836 34.6991 8.10929 32.2032 7.5957 26.9376C6.96691 20.5825 15.4196 15.725 15.4196 10.4546Z" fill="white"/>
<path d="M18.1941 13.6654C18.1557 13.6414 18.1029 13.6222 18.0693 13.6846C17.9685 14.8702 16.759 17.4045 15.223 19.7373C10.015 27.638 12.9814 31.4492 14.6518 33.4987C15.6214 34.6843 14.6518 33.4987 17.071 32.2844C20.0613 30.47 22.0005 27.3308 22.2885 23.8461C22.7637 18.2301 19.3941 14.6926 18.1941 13.6654Z" fill="white"/>
</svg>
