<svg width="128" height="34" viewBox="0 0 128 34" fill="none" xmlns="http://www.w3.org/2000/svg">
<g clip-path="url(#clip0)">
<path fill-rule="evenodd" clip-rule="evenodd" d="M17.166 14.1349L21.9839 24.8197L29.1546 20.6861L29.16 20.6839V12.4102L17.166 14.1349Z" fill="#2BBDF7"/>
<path fill-rule="evenodd" clip-rule="evenodd" d="M38.4368 6.20503L33.9611 4.5192L29.1777 4.13281V29.8445L36.3538 33.9803L42.0178 22.3888L38.4455 11.1805L38.4368 6.20503Z" fill="#2891F9"/>
<path fill-rule="evenodd" clip-rule="evenodd" d="M37.9865 4.14258L36.3244 8.2773H36.3223V33.9858L43.4995 29.851V4.14258H37.9865Z" fill="#2BBDF7"/>
<path fill-rule="evenodd" clip-rule="evenodd" d="M36.3549 0L29.1777 4.13796L36.3549 8.27484L43.5321 4.13796L36.3549 0Z" fill="#2B6DEF"/>
<path fill-rule="evenodd" clip-rule="evenodd" d="M21.9885 16.5424V16.5402L14.8123 8.51038L0.458984 4.13281V29.8413L7.63404 33.9781L9.68464 19.7511L14.8123 20.6825V20.6782L21.9896 24.8139V16.5424H21.9885Z" fill="#2891F9"/>
<path fill-rule="evenodd" clip-rule="evenodd" d="M7.63835 0L0.458984 4.13688L21.9863 16.5508L25.2393 14.6761L29.1624 12.4128L7.63835 0Z" fill="#2B6DEF"/>
<path fill-rule="evenodd" clip-rule="evenodd" d="M7.63975 16.543H7.63867V33.9776L14.8158 29.8418V20.6798L7.63975 16.543Z" fill="#2BBDF7"/>
</g>
<path d="M69.6857 8.49973H73.3697V27.6943H69.9368V14.5281L64.2852 23.9684H62.5479L56.8963 14.4863V27.6943H53.4844V8.49973H57.1265L63.3852 18.9866L69.6857 8.49973ZM115.359 25.8104C113.894 24.3243 113.077 22.2939 113.14 20.2007C113.077 18.0865 113.894 16.0562 115.359 14.5909C116.845 13.0838 118.855 12.2675 120.948 12.3093C123.69 12.2465 126.244 13.7327 127.562 16.1817L124.82 17.7935C124.109 16.3073 122.581 15.3654 120.927 15.4491C119.692 15.4073 118.499 15.9096 117.62 16.7888C116.762 17.6888 116.301 18.9029 116.322 20.1379C116.301 21.3938 116.762 22.6078 117.62 23.5079C118.499 24.387 119.692 24.8685 120.927 24.8475C122.581 24.8894 124.109 23.9893 124.862 22.5032L127.625 24.094C126.286 26.543 123.732 28.0501 120.969 28.0083C118.876 28.0501 116.866 27.2757 115.359 25.8104ZM107.049 27.7152V12.6861H110.252V27.6943L107.049 27.7152ZM107.196 9.86031C106.798 9.48353 106.589 8.96024 106.589 8.41601C106.589 7.87178 106.798 7.34848 107.196 6.97171C107.572 6.574 108.096 6.34375 108.64 6.34375C109.184 6.34375 109.707 6.574 110.084 6.97171C110.88 7.78805 110.88 9.08583 110.063 9.90217C109.289 10.6767 107.991 10.6767 107.196 9.86031ZM104.14 15.805H100.456V23.0055C100.456 24.9103 101.691 24.8894 104.14 24.7638V27.6943C99.2415 28.3013 97.2739 26.9407 97.2739 23.0055V15.805H94.5318V12.6861H97.2739V8.49973H100.476V12.6861H104.161L104.14 15.805ZM83.8984 24.9941C85.1543 25.015 86.3475 24.5336 87.2475 23.6544C88.1476 22.7334 88.629 21.4775 88.5872 20.2007C88.6081 18.9238 88.1267 17.6888 87.2475 16.7888C85.3846 14.9468 82.4123 14.9468 80.5493 16.7888C79.6492 17.6888 79.1678 18.9238 79.2097 20.2007C79.1678 21.4984 79.6492 22.7334 80.5493 23.6544C81.4285 24.5336 82.6006 25.015 83.8356 24.9941H83.8984ZM88.5244 12.6861H91.727V27.6943H88.5244V25.5383C87.3313 27.2129 85.3846 28.1757 83.3542 28.092C81.3657 28.1129 79.4818 27.2966 78.1422 25.8104C76.7188 24.3033 75.9443 22.2729 75.9862 20.2007C75.9234 18.1075 76.6978 16.098 78.1212 14.5909C79.4609 13.1048 81.3657 12.2884 83.3542 12.3303C85.4055 12.2256 87.3522 13.1676 88.5453 14.8421L88.5244 12.6861Z" fill="white"/>
<defs>
<clipPath id="clip0">
<rect width="43.1542" height="33.9895" fill="white" transform="translate(0.458984)"/>
</clipPath>
</defs>
</svg>
