<svg width="250" height="48" viewBox="0 0 250 48" fill="none" xmlns="http://www.w3.org/2000/svg">
<path d="M78.5343 25.7589H88.1221C89.47 25.7589 90.5626 26.8677 90.5626 28.2214C90.5626 29.587 89.47 30.684 88.1221 30.684H76.5585C76.3724 30.684 76.198 30.7541 76.0704 30.8707L72.5837 33.8936C72.0494 34.3604 72.3746 35.2356 73.072 35.2356H87.5408C87.5408 35.2356 87.5524 35.2356 87.5524 35.224C87.5524 35.2123 87.5642 35.2123 87.5642 35.2123C87.75 35.224 87.9246 35.2356 88.1102 35.2356C91.9456 35.2356 95.0603 32.0961 95.0603 28.2214C95.0603 24.545 92.2593 21.5223 88.68 21.2306C88.68 21.2306 88.6681 21.2306 88.6681 21.2189C88.6681 21.2072 88.6681 21.2072 88.6566 21.2072H78.3366C76.9884 21.2072 75.8958 20.0985 75.8958 18.7447C75.8958 17.3791 76.9884 16.2821 78.3366 16.2821H89.8767C90.0628 16.2821 90.2489 16.2121 90.3881 16.0838L93.6306 13.061C94.1419 12.5825 93.8051 11.7305 93.1193 11.7305H78.5343C78.4759 11.7305 78.4063 11.7305 78.3482 11.7305C74.5129 11.7305 71.3984 14.8699 71.3984 18.7447C71.3984 22.6195 74.5129 25.7589 78.3482 25.7589C78.4063 25.7589 78.4643 25.7589 78.5343 25.7589Z" fill="white"/>
<path d="M134.969 11.7421C134.539 11.7421 134.193 12.0801 134.193 12.5112V34.4665C134.193 34.8863 134.539 35.2356 134.969 35.2356H152.993C153.207 35.2356 153.412 35.1427 153.567 34.9911L155.821 32.6253C156.287 32.1359 155.942 31.3318 155.249 31.3318H139.517C139.087 31.3318 138.741 30.9938 138.741 30.5627V12.4996C138.741 12.0801 138.395 11.7305 137.965 11.7305H134.969V11.7421Z" fill="white"/>
<path fill-rule="evenodd" clip-rule="evenodd" d="M106.569 11.7891C106.569 11.8008 106.569 11.8008 106.569 11.7891C104.293 11.8942 102.465 13.704 102.359 15.9576V30.7518C102.359 30.8103 102.359 30.8804 102.359 30.9387C102.359 33.2857 104.222 35.2008 106.569 35.2942H122.722C125.057 35.1891 126.931 33.274 126.931 30.9387C126.931 30.8804 126.931 30.8103 126.931 30.7518V15.9693C126.837 13.7157 125.01 11.8942 122.734 11.8008H106.569V11.7891ZM109.57 15.998C109.558 15.998 109.558 15.998 109.57 15.998C108.143 16.0564 106.999 17.2006 106.94 18.6251V27.9314C106.94 27.9665 106.94 28.0132 106.94 28.0481C106.94 29.5195 108.107 30.7338 109.57 30.7922H119.698C121.16 30.7338 122.327 29.5195 122.327 28.0481C122.327 28.0132 122.327 27.9665 122.327 27.9314V18.6251C122.268 17.2006 121.124 16.0681 119.698 15.998H109.57Z" fill="white"/>
<path fill-rule="evenodd" clip-rule="evenodd" d="M182.391 35.3721C182.391 35.7919 182.738 36.142 183.169 36.142H186.233C186.665 36.142 187.011 35.8039 187.011 35.3721V17.1862C187.011 17.1279 187.011 17.0579 187.011 16.9996C187.011 14.6548 185.132 12.7418 182.785 12.6484H167.048C166.987 12.6484 166.916 12.6484 166.855 12.6484C164.414 12.6484 162.439 14.5965 162.439 17.0113C162.439 17.0695 162.439 17.1396 162.439 17.1978V35.3838C162.439 35.8039 162.786 36.1535 163.217 36.1535H166.281C166.711 36.1535 167.059 35.8155 167.059 35.3838V27.8131C167.059 27.3931 167.406 27.0432 167.837 27.0432H181.649C182.079 27.0432 182.427 27.3816 182.427 27.8131V35.3721H182.391ZM167.048 22.7446V18.9651C167.048 17.4953 168.257 16.3054 169.741 16.3054H179.723C181.208 16.3054 182.416 17.4953 182.416 18.9651V22.7446C182.416 23.1645 182.069 23.5144 181.638 23.5144H167.826C167.396 23.5144 167.048 23.1762 167.048 22.7446Z" fill="white"/>
<path fill-rule="evenodd" clip-rule="evenodd" d="M245.937 36.1535C245.51 36.1535 245.166 35.8155 245.166 35.3838V27.8131C245.166 27.3931 244.823 27.0432 244.397 27.0432H230.578C230.151 27.0432 229.807 27.3816 229.807 27.8131V35.3838C229.807 35.8039 229.465 36.1535 229.038 36.1535H225.982C225.557 36.1535 225.213 35.8155 225.213 35.3838V17.1979C225.213 17.1396 225.213 17.0696 225.213 17.0113C225.213 14.6082 227.19 12.6484 229.63 12.6484C229.689 12.6484 229.759 12.6484 229.82 12.6484H245.557C247.902 12.7534 249.785 14.6665 249.785 16.9996C249.785 17.0579 249.785 17.1279 249.785 17.1862V35.3721C249.785 35.7919 249.441 36.142 249.015 36.142H245.937V36.1535ZM229.808 18.9818V22.7613C229.808 23.1813 230.152 23.5313 230.578 23.5313H244.397C244.824 23.5313 245.168 23.1929 245.168 22.7613V18.9818C245.168 17.512 243.96 16.3221 242.479 16.3221H232.496C231.005 16.3221 229.808 17.512 229.808 18.9818Z" fill="white"/>
<path d="M197.644 12.666C197.871 12.666 198.086 12.7593 198.229 12.9341L211.949 28.8876C212.415 29.4236 213.313 29.0974 213.313 28.3865V13.4352C213.313 13.0156 213.659 12.666 214.089 12.666H217.149C217.579 12.666 217.925 13.004 217.925 13.4352V35.3902C217.925 35.8096 217.579 36.1592 217.149 36.1592H213.348C213.336 36.1592 213.324 36.1477 213.324 36.1361C213.324 36.1244 213.324 36.1244 213.313 36.1126L199.352 20.2757C198.886 19.7396 197.991 20.0777 197.991 20.7768V35.4017C197.991 35.8214 197.644 36.1711 197.213 36.1711H194.13C193.7 36.1711 193.354 35.833 193.354 35.4017V13.4352C193.354 13.0156 193.7 12.666 194.13 12.666H197.644Z" fill="white"/>
<path d="M10.0596 36.7122C10.439 36.3428 10.9489 36.1348 11.4825 36.1348H60.8703C61.7713 36.1348 62.2221 37.1971 61.5818 37.8089L51.8227 47.3094C51.4434 47.6792 50.9335 47.8868 50.4001 47.8868H1.01208C0.110886 47.8868 -0.339711 46.8249 0.300611 46.2131L10.0596 36.7122Z" fill="url(#paint0_linear_7253:32392)"/>
<path d="M10.0596 0.577783C10.439 0.208001 10.9489 0 11.4825 0H60.8703C61.7713 0 62.2221 1.06312 61.5818 1.67556L51.8227 11.1743C51.4434 11.5441 50.9335 11.7521 50.4001 11.7521H1.01208C0.110886 11.7521 -0.339711 10.6889 0.300611 10.0765L10.0596 0.577783Z" fill="url(#paint1_linear_7253:32392)"/>
<path d="M51.8227 18.9743C51.4434 18.6046 50.9335 18.3965 50.4001 18.3965H1.01208C0.110886 18.3965 -0.339711 19.4597 0.300611 20.072L10.0596 29.5708C10.439 29.9406 10.9489 30.1485 11.4825 30.1485H60.8703C61.7713 30.1485 62.2221 29.0855 61.5818 28.4731L51.8227 18.9743Z" fill="url(#paint2_linear_7253:32392)"/>
<defs>
<linearGradient id="paint0_linear_7253:32392" x1="41.8361" y1="39.8953" x2="34.0907" y2="55.4999" gradientUnits="userSpaceOnUse">
<stop stop-color="#00FFA3"/>
<stop offset="1" stop-color="#DC1FFF"/>
</linearGradient>
<linearGradient id="paint1_linear_7253:32392" x1="41.8361" y1="5.14256" x2="34.0906" y2="20.7471" gradientUnits="userSpaceOnUse">
<stop stop-color="#00FFA3"/>
<stop offset="1" stop-color="#DC1FFF"/>
</linearGradient>
<linearGradient id="paint2_linear_7253:32392" x1="41.8361" y1="22.8525" x2="34.0907" y2="38.457" gradientUnits="userSpaceOnUse">
<stop stop-color="#00FFA3"/>
<stop offset="1" stop-color="#DC1FFF"/>
</linearGradient>
</defs>
</svg>
