<svg width="30" height="30" viewBox="0 0 30 30" fill="none" xmlns="http://www.w3.org/2000/svg">
<path d="M15 30C23.2843 30 30 23.2843 30 15C30 6.71573 23.2843 0 15 0C6.71573 0 0 6.71573 0 15C0 23.2843 6.71573 30 15 30Z" fill="url(#paint0_linear)"/>
<path d="M25.7385 15.182H23.0942C23.0942 9.79313 18.7104 5.4248 13.3022 5.4248C7.96114 5.4248 3.61875 9.68619 3.51247 14.9828C3.40252 20.4578 8.55734 25.2121 14.0525 25.2121H14.7437C19.5884 25.2121 26.0817 21.433 27.0962 16.8286C27.2836 15.9798 26.6108 15.182 25.7385 15.182ZM9.37269 15.4221C9.37269 16.1427 8.78118 16.7321 8.05797 16.7321C7.33476 16.7321 6.74328 16.1425 6.74328 15.4221V13.3028C6.74328 12.5822 7.33476 11.9927 8.05797 11.9927C8.78118 11.9927 9.37269 12.5822 9.37269 13.3028V15.4221ZM13.9378 15.4221C13.9378 16.1427 13.3464 16.7321 12.6232 16.7321C11.8999 16.7321 11.3085 16.1425 11.3085 15.4221V13.3028C11.3085 12.5822 11.9002 11.9927 12.6232 11.9927C13.3464 11.9927 13.9378 12.5822 13.9378 13.3028V15.4221Z" fill="url(#paint1_linear)"/>
<defs>
<linearGradient id="paint0_linear" x1="15" y1="0" x2="15" y2="30" gradientUnits="userSpaceOnUse">
<stop stop-color="#534BB1"/>
<stop offset="1" stop-color="#551BF9"/>
</linearGradient>
<linearGradient id="paint1_linear" x1="15.3192" y1="5.4248" x2="15.3192" y2="25.2121" gradientUnits="userSpaceOnUse">
<stop stop-color="white"/>
<stop offset="1" stop-color="white" stop-opacity="0.82"/>
</linearGradient>
</defs>
</svg>
