<svg width="30" height="30" viewBox="0 0 30 30" fill="none" xmlns="http://www.w3.org/2000/svg">
<path d="M15 29C22.732 29 29 22.732 29 15C29 7.26803 22.732 1 15 1C7.26801 1 1 7.26803 1 15C1 22.732 7.26801 29 15 29Z" fill="transparent" stroke="#FF32AB"/>
<path d="M20.8514 14.688V20.1533L15.0001 23.6623L9.14559 20.1533V13.1318L15.0001 9.61936L19.4971 12.3181L20.1759 11.9113L15.0001 8.80566L8.4668 12.725V20.5602L15.0001 24.4794L21.5335 20.5602V14.2811L20.8514 14.688Z" fill="url(#paint0_linear)"/>
<path d="M13.3618 20.1565H12.3828V16.7458H15.6462C15.955 16.7422 16.25 16.6125 16.4674 16.3847C16.6848 16.157 16.8072 15.8494 16.808 15.5286C16.8097 15.37 16.7803 15.2127 16.7214 15.0663C16.6624 14.92 16.5753 14.7877 16.4653 14.6776C16.3589 14.564 16.2315 14.4739 16.0908 14.4128C15.95 14.3516 15.7988 14.3206 15.6462 14.3216H12.3828V13.2842H15.6495C16.2214 13.2877 16.7689 13.5253 17.1733 13.9455C17.5777 14.3656 17.8064 14.9345 17.8098 15.5286C17.8133 15.9834 17.6799 16.428 17.428 16.8C17.1963 17.156 16.8697 17.434 16.4882 17.6001C16.1104 17.7246 15.7162 17.7864 15.3199 17.7832H13.3618V20.1565Z" fill="url(#paint1_linear)"/>
<path d="M17.7865 20.0726H16.6443L15.7632 18.4758C16.1118 18.4536 16.4556 18.3805 16.7846 18.2588L17.7865 20.0726Z" fill="url(#paint2_linear)"/>
<path d="M20.1694 13.552L20.8449 13.9419L21.5205 13.552V12.7281L20.8449 12.3213L20.1694 12.7281V13.552Z" fill="url(#paint3_linear)"/>
<path fill-rule="evenodd" clip-rule="evenodd" d="M18.0259 5.84991C18.0259 5.84991 15.8903 6.29461 14.3038 5.36427C12.7174 4.43392 12.3207 3.54591 12.2894 3.43692C12.2246 3.21083 13.6764 3.86262 14.4491 3.98398C15.2217 4.10535 18.1729 4.09325 20.3609 4.12833C21.8741 4.1526 22.2169 4.97107 22.3378 5.39237C22.5002 5.95808 22.0603 6.48242 21.5668 6.68613C21.0733 6.88985 20.2451 7.63491 20.8012 8.30421C21.3572 8.97352 23.8784 8.97412 23.3199 10.258C22.9172 11.1839 20.2964 9.88834 19.5609 10.0723C18.8254 10.2563 17.6649 10.7489 16.2358 10.7592C14.8067 10.7695 13.6961 9.9392 13.2598 10.0484C12.8235 10.1575 12.6755 10.6408 11.6095 11.0878C10.5435 11.5348 9.06811 11.097 8.74043 11.179C8.41275 11.261 8.69929 11.3671 8.70812 12.2929C8.71696 13.2188 7.65447 14.0497 6.87256 13.4571C6.09064 12.8646 7.22973 10.2381 7.3338 10.076C7.43786 9.91381 7.75935 9.45768 8.15322 9.58876C8.5471 9.71995 8.83279 9.78588 9.15785 9.53674C9.4829 9.28759 8.92982 7.36048 10.9755 6.94038C13.0212 6.52029 14.4562 7.16036 16.0233 6.8985C17.5903 6.63664 18.0259 5.84991 18.0259 5.84991Z" fill="url(#paint4_linear)"/>
<path fill-rule="evenodd" clip-rule="evenodd" d="M21.3083 5.39324C21.3083 5.39324 21.1814 5.38101 21.0104 5.30176C20.8394 5.22252 20.7507 4.99088 20.5426 5.0088C20.3344 5.02671 20.0512 5.1706 19.9765 5.19004C19.9016 5.20949 20.306 5.24103 20.378 5.34991C20.4502 5.4588 20.5591 5.61846 20.8539 5.61043C21.1488 5.6024 21.3083 5.39324 21.3083 5.39324Z" fill="white"/>
<defs>
<linearGradient id="paint0_linear" x1="19.8116" y1="12.7293" x2="8.99471" y2="16.9628" gradientUnits="userSpaceOnUse">
<stop stop-color="#C200FB"/>
<stop offset="0.489658" stop-color="#3772FF"/>
<stop offset="0.489758" stop-color="#3773FE"/>
<stop offset="1" stop-color="#5AC4BE"/>
</linearGradient>
<linearGradient id="paint1_linear" x1="19.35" y1="12.7291" x2="9.4433" y2="16.6063" gradientUnits="userSpaceOnUse">
<stop stop-color="#C200FB"/>
<stop offset="0.489658" stop-color="#3772FF"/>
<stop offset="0.489758" stop-color="#3773FE"/>
<stop offset="1" stop-color="#5AC4BE"/>
</linearGradient>
<linearGradient id="paint2_linear" x1="21.5213" y1="14.2933" x2="8.02838" y2="19.5742" gradientUnits="userSpaceOnUse">
<stop stop-color="#C200FB"/>
<stop offset="0.489658" stop-color="#3772FF"/>
<stop offset="0.489758" stop-color="#3773FE"/>
<stop offset="1" stop-color="#5AC4BE"/>
</linearGradient>
<linearGradient id="paint3_linear" x1="21.3444" y1="12.7291" x2="10.5274" y2="16.9626" gradientUnits="userSpaceOnUse">
<stop stop-color="#C200FB"/>
<stop offset="0.489658" stop-color="#3772FF"/>
<stop offset="0.489758" stop-color="#3773FE"/>
<stop offset="1" stop-color="#5AC4BE"/>
</linearGradient>
<linearGradient id="paint4_linear" x1="21.1312" y1="1.18803" x2="23.4433" y2="10.4306" gradientUnits="userSpaceOnUse">
<stop stop-color="#FFA9DC"/>
<stop offset="1" stop-color="#FF0097"/>
</linearGradient>
</defs>
</svg>
