<svg width="30" height="30" viewBox="0 0 30 30" fill="none" xmlns="http://www.w3.org/2000/svg">
<path d="M22.9209 16.0003V23.2565L15.1522 27.9154L7.37925 23.2565V13.9342L15.1522 9.27076L21.1228 12.8539L22.024 12.3137L15.1522 8.19043L6.47803 13.394V23.7967L15.1522 29.0003L23.8264 23.7967V15.4601L22.9209 16.0003Z" fill="url(#paint0_linear)"/>
<path d="M12.9776 23.261H11.6777V18.7326H16.0105C16.4205 18.7279 16.8121 18.5557 17.1008 18.2533C17.3894 17.9509 17.5519 17.5425 17.553 17.1166C17.5553 16.906 17.5162 16.6971 17.438 16.5029C17.3597 16.3085 17.2441 16.1329 17.098 15.9868C16.9567 15.836 16.7876 15.7163 16.6007 15.6351C16.4138 15.5539 16.2131 15.5127 16.0105 15.5141H11.6777V14.1367H16.0148C16.7741 14.1414 17.5011 14.4569 18.038 15.0147C18.5749 15.5726 18.8786 16.3278 18.8831 17.1166C18.8878 17.7205 18.7106 18.3107 18.3762 18.8046C18.0685 19.2772 17.6349 19.6464 17.1284 19.8669C16.6268 20.0322 16.1034 20.1142 15.5772 20.1101H12.9776V23.261Z" fill="url(#paint1_linear)"/>
<path d="M18.8518 23.1475H17.3353L16.1655 21.0273C16.6283 20.9979 17.0849 20.9009 17.5217 20.7393L18.8518 23.1475Z" fill="url(#paint2_linear)"/>
<path d="M22.0156 14.4914L22.9125 15.0091L23.8094 14.4914V13.3976L22.9125 12.8574L22.0156 13.3976V14.4914Z" fill="url(#paint3_linear)"/>
<path fill-rule="evenodd" clip-rule="evenodd" d="M19.1699 4.26645C19.1699 4.26645 16.3344 4.85688 14.2281 3.62167C12.1218 2.38647 11.5952 1.20747 11.5536 1.06276C11.4675 0.762582 13.3952 1.62796 14.4209 1.78909C15.4467 1.95022 19.365 1.93416 22.27 1.98074C24.279 2.01296 24.7341 3.09962 24.8947 3.65898C25.1103 4.41007 24.5263 5.10623 23.8711 5.37669C23.2159 5.64716 22.1163 6.63637 22.8545 7.52499C23.5927 8.41362 26.9402 8.41442 26.1986 10.119C25.664 11.3483 22.1844 9.62821 21.2079 9.87251C20.2314 10.1168 18.6906 10.7708 16.7932 10.7844C14.8958 10.7981 13.4213 9.69574 12.842 9.84066C12.2627 9.98558 12.0662 10.6273 10.6509 11.2208C9.23557 11.8142 7.27675 11.2329 6.84169 11.3418C6.40663 11.4506 6.78706 11.5915 6.79879 12.8208C6.81053 14.05 5.39987 15.1532 4.36174 14.3664C3.32361 13.5797 4.83595 10.0926 4.97412 9.87732C5.11229 9.66204 5.53912 9.05644 6.06206 9.23047C6.585 9.40465 6.96432 9.49217 7.39589 9.1614C7.82745 8.83061 7.09314 6.27202 9.80917 5.71426C12.5252 5.1565 14.4304 6.00631 16.511 5.65864C18.5916 5.31098 19.1699 4.26645 19.1699 4.26645Z" fill="url(#paint4_linear)"/>
<path fill-rule="evenodd" clip-rule="evenodd" d="M23.5279 3.66114C23.5279 3.66114 23.3595 3.6449 23.1325 3.53969C22.9054 3.43447 22.7877 3.12694 22.5113 3.15072C22.235 3.17451 21.859 3.36554 21.7598 3.39136C21.6604 3.41717 22.1972 3.45905 22.2929 3.60361C22.3887 3.74818 22.5333 3.96016 22.9247 3.9495C23.3163 3.93884 23.5279 3.66114 23.5279 3.66114Z" fill="white"/>
<defs>
<linearGradient id="paint0_linear" x1="21.5404" y1="13.3997" x2="7.17893" y2="19.0205" gradientUnits="userSpaceOnUse">
<stop stop-color="#C200FB"/>
<stop offset="0.489658" stop-color="#3772FF"/>
<stop offset="0.489758" stop-color="#3773FE"/>
<stop offset="1" stop-color="#5AC4BE"/>
</linearGradient>
<linearGradient id="paint1_linear" x1="20.928" y1="13.3997" x2="7.77498" y2="18.5475" gradientUnits="userSpaceOnUse">
<stop stop-color="#C200FB"/>
<stop offset="0.489658" stop-color="#3772FF"/>
<stop offset="0.489758" stop-color="#3773FE"/>
<stop offset="1" stop-color="#5AC4BE"/>
</linearGradient>
<linearGradient id="paint2_linear" x1="23.8105" y1="15.4744" x2="5.89615" y2="22.4857" gradientUnits="userSpaceOnUse">
<stop stop-color="#C200FB"/>
<stop offset="0.489658" stop-color="#3772FF"/>
<stop offset="0.489758" stop-color="#3773FE"/>
<stop offset="1" stop-color="#5AC4BE"/>
</linearGradient>
<linearGradient id="paint3_linear" x1="23.5757" y1="13.3988" x2="9.21402" y2="19.0196" gradientUnits="userSpaceOnUse">
<stop stop-color="#C200FB"/>
<stop offset="0.489658" stop-color="#3772FF"/>
<stop offset="0.489758" stop-color="#3773FE"/>
<stop offset="1" stop-color="#5AC4BE"/>
</linearGradient>
<linearGradient id="paint4_linear" x1="23.2927" y1="-1.92306" x2="26.3625" y2="10.3481" gradientUnits="userSpaceOnUse">
<stop stop-color="#FFA9DC"/>
<stop offset="1" stop-color="#FF0097"/>
</linearGradient>
</defs>
</svg>
