<svg width="30" height="30" viewBox="0 0 30 30" fill="none" xmlns="http://www.w3.org/2000/svg">
<path d="M26.2765 11.1915V21.5896L14.8067 28.2658L3.33058 21.5896V8.23074L14.8067 1.5481L23.6218 6.68265L24.9524 5.90859L14.8067 0L2 7.45669V22.3636L14.8067 29.8203L27.6135 22.3636V10.4174L26.2765 11.1915Z" fill="url(#paint0_linear)"/>
<path d="M11.5959 21.5995H9.67676V15.1103H16.0738C16.679 15.1036 17.2572 14.8568 17.6834 14.4234C18.1096 13.9901 18.3495 13.4049 18.3511 12.7946C18.3545 12.4928 18.2968 12.1935 18.1813 11.9151C18.0657 11.6366 17.895 11.385 17.6793 11.1756C17.4708 10.9594 17.2211 10.788 16.9452 10.6716C16.6692 10.5552 16.3728 10.4962 16.0738 10.4982H9.67676V8.52441H16.0801C17.2012 8.53118 18.2745 8.98326 19.0672 9.78258C19.8599 10.582 20.3082 11.6642 20.3149 12.7946C20.3218 13.6599 20.0601 14.5057 19.5665 15.2135C19.1122 15.8907 18.472 16.4197 17.7242 16.7358C16.9837 16.9726 16.2109 17.0902 15.434 17.0842H11.5959V21.5995Z" fill="url(#paint1_linear)"/>
<path d="M20.2698 21.4334H18.0308L16.3037 18.3952C16.987 18.353 17.661 18.2141 18.3059 17.9824L20.2698 21.4334Z" fill="url(#paint2_linear)"/>
<path d="M24.9395 9.02998L26.2636 9.77181L27.5878 9.02998V7.46253L26.2636 6.68848L24.9395 7.46253V9.02998Z" fill="url(#paint3_linear)"/>
<defs>
<linearGradient id="paint0_linear" x1="24.2383" y1="7.46489" x2="3.20671" y2="15.9456" gradientUnits="userSpaceOnUse">
<stop stop-color="#C200FB"/>
<stop offset="0.489658" stop-color="#3772FF"/>
<stop offset="0.489758" stop-color="#3773FE"/>
<stop offset="1" stop-color="#5AC4BE"/>
</linearGradient>
<linearGradient id="paint1_linear" x1="23.334" y1="7.4683" x2="4.07209" y2="15.2354" gradientUnits="userSpaceOnUse">
<stop stop-color="#C200FB"/>
<stop offset="0.489658" stop-color="#3772FF"/>
<stop offset="0.489758" stop-color="#3773FE"/>
<stop offset="1" stop-color="#5AC4BE"/>
</linearGradient>
<linearGradient id="paint2_linear" x1="27.5909" y1="10.4379" x2="1.35621" y2="21.0167" gradientUnits="userSpaceOnUse">
<stop stop-color="#C200FB"/>
<stop offset="0.489658" stop-color="#3772FF"/>
<stop offset="0.489758" stop-color="#3773FE"/>
<stop offset="1" stop-color="#5AC4BE"/>
</linearGradient>
<linearGradient id="paint3_linear" x1="27.2427" y1="7.46428" x2="6.21082" y2="15.9452" gradientUnits="userSpaceOnUse">
<stop stop-color="#C200FB"/>
<stop offset="0.489658" stop-color="#3772FF"/>
<stop offset="0.489758" stop-color="#3773FE"/>
<stop offset="1" stop-color="#5AC4BE"/>
</linearGradient>
</defs>
</svg>
