<svg width="30" height="30" viewBox="0 0 30 30" fill="none" xmlns="http://www.w3.org/2000/svg">
<path d="M5.55035 20.9413C5.72169 20.7682 5.95397 20.6709 6.19618 20.6709H28.5423C28.9493 20.6709 29.1531 21.1688 28.8652 21.4598L24.4497 25.9225C24.2783 26.0957 24.046 26.193 23.8038 26.193H1.45775C1.05064 26.193 0.846904 25.695 1.13484 25.404L5.55035 20.9413Z" fill="url(#paint0_linear)"/>
<path d="M5.55035 4.27044C5.72169 4.09725 5.95397 4 6.19618 4H28.5423C28.9493 4 29.1531 4.49789 28.8652 4.78897L24.4497 9.25155C24.2783 9.42468 24.046 9.52197 23.8038 9.52197H1.45775C1.05064 9.52197 0.846904 9.02412 1.13484 8.73307L5.55035 4.27044Z" fill="url(#paint1_linear)"/>
<path d="M24.4497 12.5517C24.2783 12.3785 24.046 12.2812 23.8038 12.2812H1.45775C1.05064 12.2812 0.846904 12.7792 1.13484 13.0702L5.55035 17.5328C5.72169 17.706 5.95397 17.8032 6.19618 17.8032H28.5423C28.9493 17.8032 29.1531 17.3054 28.8652 17.0143L24.4497 12.5517Z" fill="url(#paint2_linear)"/>
<defs>
<linearGradient id="paint0_linear" x1="19.9296" y1="22.4379" x2="16.2079" y2="29.6582" gradientUnits="userSpaceOnUse">
<stop stop-color="#00FFA3"/>
<stop offset="1" stop-color="#DC1FFF"/>
</linearGradient>
<linearGradient id="paint1_linear" x1="19.9296" y1="6.41635" x2="16.208" y2="13.6366" gradientUnits="userSpaceOnUse">
<stop stop-color="#00FFA3"/>
<stop offset="1" stop-color="#DC1FFF"/>
</linearGradient>
<linearGradient id="paint2_linear" x1="19.9296" y1="14.375" x2="16.208" y2="21.5952" gradientUnits="userSpaceOnUse">
<stop stop-color="#00FFA3"/>
<stop offset="1" stop-color="#DC1FFF"/>
</linearGradient>
</defs>
</svg>
