<svg width="30" height="30" viewBox="0 0 30 30" fill="none" xmlns="http://www.w3.org/2000/svg">
<path fill-rule="evenodd" clip-rule="evenodd" d="M24.3495 23.5443L24.3491 12.6474L14.7751 7.19336L14.7755 18.0946L5.2041 23.5462L14.7785 28.9995L24.3437 23.5515L24.3495 23.5548V23.5482L24.3529 23.5462L24.3495 23.5443Z" fill="#64C557"/>
<path d="M5.20695 12.6474L14.7809 7.19336L14.7805 18.1007L5.20654 23.5548L5.20695 12.6474Z" fill="#118AB2"/>
<path d="M14.7823 7.18262L24.3567 12.636L21.1653 14.4537L11.5908 9.0004L14.7823 7.18262Z" fill="#00F8B7"/>
<path d="M21.1579 14.4511L21.1581 18.0869L11.5841 12.6329L11.584 8.99707L21.1579 14.4511Z" fill="#09BD8E"/>
<path d="M11.5777 12.6387L21.1521 18.092L17.9607 19.9098L8.38623 14.4565L11.5777 12.6387Z" fill="#FFE3A3"/>
<path d="M17.9988 19.9268L17.9989 23.5626L8.42492 18.1085L8.4248 14.4727L17.9988 19.9268Z" fill="#FFBB1D"/>
<path d="M8.39558 18.0938L17.97 23.5471L14.7785 25.3649L5.2041 19.9115L8.39558 18.0938Z" fill="#FF965E"/>
<path d="M14.7712 25.3594L14.7714 28.9952L5.19741 23.5411L5.19727 19.9053L14.7712 25.3594Z" fill="#D94C00"/>
<path d="M21.1625 14.4538L24.3538 12.6357L24.3534 23.5432L21.1621 25.3612L21.1625 14.4538Z" fill="#06D6A0"/>
<path d="M17.9637 19.9059L21.155 18.0879L21.1547 25.3595L17.9634 27.1775L17.9637 19.9059Z" fill="#FFD166"/>
<path d="M14.7663 25.3639L17.9576 23.5459L17.9575 27.1817L14.7661 28.9997L14.7663 25.3639Z" fill="#F3722C"/>
<path fill-rule="evenodd" clip-rule="evenodd" d="M18.6589 4.11421C18.6589 4.11421 15.919 4.67711 13.8836 3.49948C11.8483 2.32185 11.3394 1.1978 11.2992 1.05984C11.216 0.773648 13.0787 1.59869 14.07 1.75231C15.0612 1.90594 18.8475 1.89062 21.6547 1.93503C23.5961 1.96575 24.0358 3.00176 24.1909 3.53505C24.3993 4.25113 23.835 4.91484 23.2019 5.1727C22.5687 5.43056 21.5062 6.37366 22.2195 7.22086C22.9329 8.06808 26.1675 8.06884 25.451 9.694C24.9343 10.866 21.572 9.22606 20.6283 9.45897C19.6847 9.69188 18.1959 10.3154 16.3624 10.3284C14.5289 10.3414 13.104 9.29043 12.5442 9.4286C11.9844 9.56677 11.7946 10.1785 10.4269 10.7444C9.05924 11.3101 7.16639 10.7559 6.74598 10.8597C6.32558 10.9635 6.69319 11.0978 6.70453 12.2698C6.71587 13.4418 5.35272 14.4936 4.34956 13.7434C3.34639 12.9934 4.8078 9.66881 4.94131 9.46356C5.07483 9.25831 5.48728 8.68093 5.99261 8.84686C6.49794 9.01292 6.86448 9.09636 7.28152 8.78101C7.69854 8.46563 6.98897 6.02629 9.61352 5.49453C12.238 4.96277 14.0791 5.77297 16.0896 5.44151C18.1001 5.11005 18.6589 4.11421 18.6589 4.11421Z" fill="url(#paint0_linear)"/>
<path fill-rule="evenodd" clip-rule="evenodd" d="M22.8703 3.53573C22.8703 3.53573 22.7076 3.52025 22.4882 3.41993C22.2687 3.31962 22.155 3.02642 21.888 3.0491C21.6209 3.07177 21.2576 3.25391 21.1617 3.27852C21.0657 3.30313 21.5844 3.34306 21.6768 3.48088C21.7694 3.61871 21.9091 3.82081 22.2874 3.81065C22.6658 3.80049 22.8703 3.53573 22.8703 3.53573Z" fill="white"/>
<defs>
<linearGradient id="paint0_linear" x1="22.6429" y1="-1.78682" x2="25.535" y2="9.93078" gradientUnits="userSpaceOnUse">
<stop stop-color="#FFA9DC"/>
<stop offset="1" stop-color="#FF0097"/>
</linearGradient>
</defs>
</svg>
