<svg width="30" height="30" viewBox="0 0 30 30" fill="none" xmlns="http://www.w3.org/2000/svg">
<path d="M15 29C22.732 29 29 22.732 29 15C29 7.26803 22.732 1 15 1C7.26801 1 1 7.26803 1 15C1 22.732 7.26801 29 15 29Z" fill="transparent" stroke="#FF32AB"/>
<path fill-rule="evenodd" clip-rule="evenodd" d="M22.4613 20.4594L22.461 11.8507L14.9986 7.54199L14.999 16.1541L7.53857 20.4609L15.0013 24.7692L22.4568 20.4651L22.4613 20.4677V20.4625L22.464 20.4609L22.4613 20.4594Z" fill="#64C557"/>
<path d="M7.54085 11.8507L15.0032 7.54199L15.0029 16.159L7.54053 20.4678L7.54085 11.8507Z" fill="#118AB2"/>
<path d="M15.0037 7.5332L22.4664 11.8414L19.9788 13.2775L12.5161 8.96927L15.0037 7.5332Z" fill="#00F8B7"/>
<path d="M19.9736 13.2746L19.9737 16.1469L12.5113 11.8382L12.5112 8.96582L19.9736 13.2746Z" fill="#09BD8E"/>
<path d="M12.5066 11.8438L19.9693 16.152L17.4818 17.588L10.019 13.2798L12.5066 11.8438Z" fill="#FFE3A3"/>
<path d="M17.5107 17.6028L17.5108 20.4751L10.0484 16.1663L10.0483 13.2939L17.5107 17.6028Z" fill="#FFBB1D"/>
<path d="M10.0261 16.1523L17.4888 20.4606L15.0013 21.8966L7.53857 17.5884L10.0261 16.1523Z" fill="#FF965E"/>
<path d="M14.9956 21.8938L14.9957 24.7661L7.53331 20.4573L7.5332 17.585L14.9956 21.8938Z" fill="#D94C00"/>
<path d="M19.9769 13.2761L22.4643 11.8398L22.464 20.4569L19.9766 21.8931L19.9769 13.2761Z" fill="#06D6A0"/>
<path d="M17.4846 17.5857L19.972 16.1494L19.9718 21.8941L17.4844 23.3303L17.4846 17.5857Z" fill="#FFD166"/>
<path d="M14.9913 21.8952L17.4788 20.459L17.4787 23.3313L14.9912 24.7676L14.9913 21.8952Z" fill="#F3722C"/>
<path fill-rule="evenodd" clip-rule="evenodd" d="M18.0259 5.84991C18.0259 5.84991 15.8903 6.29461 14.3038 5.36427C12.7174 4.43392 12.3207 3.54591 12.2894 3.43692C12.2246 3.21083 13.6764 3.86262 14.4491 3.98398C15.2217 4.10535 18.1729 4.09325 20.3609 4.12833C21.8741 4.1526 22.2169 4.97107 22.3378 5.39237C22.5002 5.95808 22.0603 6.48242 21.5668 6.68613C21.0733 6.88985 20.2451 7.63491 20.8012 8.30421C21.3572 8.97352 23.8784 8.97412 23.3199 10.258C22.9172 11.1839 20.2964 9.88834 19.5609 10.0723C18.8254 10.2563 17.6649 10.7489 16.2358 10.7592C14.8067 10.7695 13.6961 9.9392 13.2598 10.0484C12.8235 10.1575 12.6755 10.6408 11.6095 11.0878C10.5435 11.5348 9.06811 11.097 8.74043 11.179C8.41275 11.261 8.69929 11.3671 8.70812 12.2929C8.71696 13.2188 7.65447 14.0497 6.87256 13.4571C6.09064 12.8646 7.22973 10.2381 7.3338 10.076C7.43786 9.91381 7.75935 9.45768 8.15322 9.58876C8.5471 9.71995 8.83279 9.78588 9.15785 9.53674C9.4829 9.28759 8.92982 7.36048 10.9755 6.94038C13.0212 6.52029 14.4562 7.16036 16.0233 6.8985C17.5903 6.63664 18.0259 5.84991 18.0259 5.84991Z" fill="url(#paint0_linear)"/>
<path fill-rule="evenodd" clip-rule="evenodd" d="M21.3083 5.39324C21.3083 5.39324 21.1814 5.38101 21.0104 5.30176C20.8394 5.22252 20.7507 4.99088 20.5426 5.0088C20.3344 5.02671 20.0512 5.1706 19.9765 5.19004C19.9016 5.20949 20.306 5.24103 20.378 5.34991C20.4502 5.4588 20.5591 5.61846 20.8539 5.61043C21.1488 5.6024 21.3083 5.39324 21.3083 5.39324Z" fill="white"/>
<defs>
<linearGradient id="paint0_linear" x1="21.1312" y1="1.18803" x2="23.4433" y2="10.4306" gradientUnits="userSpaceOnUse">
<stop stop-color="#FFA9DC"/>
<stop offset="1" stop-color="#FF0097"/>
</linearGradient>
</defs>
</svg>
