<svg width="30" height="30" viewBox="0 0 30 30" fill="none" xmlns="http://www.w3.org/2000/svg">
  <mask id="path-1-inside-1" fill="white">
    <path fill-rule="evenodd" clip-rule="evenodd" d="M1 7L14.8815 24L29 7"/>
  </mask>
  <path d="M2.54915 5.73503C1.85052 4.87946 0.590601 4.75223 -0.264969 5.45085C-1.12054 6.14948 -1.24777 7.4094 -0.549146 8.26497L2.54915 5.73503ZM14.8815 24L13.3324 25.265C13.7103 25.7279 14.2756 25.9975 14.8732 26C15.4708 26.0025 16.0383 25.7376 16.4201 25.2778L14.8815 24ZM30.5386 8.27779C31.2443 7.42806 31.1275 6.16712 30.2778 5.46142C29.4281 4.75571 28.1671 4.87247 27.4614 5.72221L30.5386 8.27779ZM-0.549146 8.26497L13.3324 25.265L16.4306 22.735L2.54915 5.73503L-0.549146 8.26497ZM16.4201 25.2778L30.5386 8.27779L27.4614 5.72221L13.3429 22.7222L16.4201 25.2778Z" fill="white" mask="url(#path-1-inside-1)"/>
</svg>
