<svg width="30" height="30" viewBox="0 0 30 30" xmlns="http://www.w3.org/2000/svg">
  <path d="M0.482671 29.2372C-0.16089 28.5925 -0.16089 27.5472 0.482671 26.9025L26.8538 0.483557C27.4973 -0.161171 28.5408 -0.161172 29.1843 0.483556L29.463 0.762761C30.1066 1.40749 30.1066 2.4528 29.463 3.09753L3.09191 29.5165C2.44835 30.1612 1.40493 30.1612 0.76137 29.5165L0.482671 29.2372Z"/>
  <path d="M29.5173 29.2372C30.1609 28.5925 30.1609 27.5472 29.5173 26.9025L3.14621 0.483547C2.50265 -0.161182 1.45923 -0.161183 0.815671 0.483546L0.536972 0.762751C-0.106589 1.40748 -0.10659 2.45279 0.536972 3.09752L26.9081 29.5165C27.5516 30.1612 28.5951 30.1612 29.2386 29.5165L29.5173 29.2372Z"/>
</svg>
