<svg width="30" height="30" viewBox="0 0 30 30" xmlns="http://www.w3.org/2000/svg">
<path d="M20.7964 30.0003H3.75026C1.68149 30.0003 0 28.4589 0 26.5625V9.68656C0 7.79017 1.68149 6.24902 3.75026 6.24902H4.43195C4.99652 6.24902 5.45472 6.66905 5.45472 7.18658C5.45472 7.70411 4.99652 8.12413 4.43195 8.12413H3.75026C2.81064 8.12413 2.04555 8.82523 2.04555 9.68656V26.5625C2.04555 27.4238 2.81064 28.1252 3.75026 28.1252H20.7964C21.736 28.1252 22.5011 27.4238 22.5011 26.5625V25.9376C22.5011 25.4201 22.9593 25.0001 23.5239 25.0001C24.0884 25.0001 24.5466 25.4201 24.5466 25.9376V26.5625C24.5466 28.4589 22.8651 30.0003 20.7964 30.0003Z"/>
<path fill-rule="evenodd" clip-rule="evenodd" d="M11.9317 22.5003H26.25C28.3187 22.5003 29.9998 20.959 29.9998 19.0627V3.43762C29.9998 1.54131 28.3187 0 26.25 0H11.9317C9.86306 0 8.18164 1.54131 8.18164 3.43762V19.0627C8.18164 20.959 9.86306 22.5003 11.9317 22.5003ZM10.2272 3.4376C10.2272 2.57631 10.9923 1.875 11.9319 1.875H26.2501C27.1897 1.875 27.9545 2.57631 27.9545 3.4376V19.0626C27.9545 19.9239 27.1897 20.6252 26.2501 20.6252H11.9319C10.9923 20.6252 10.2272 19.9239 10.2272 19.0626V3.4376Z"/>
</svg>
