<svg width="30" height="31" viewBox="0 0 30 31" xmlns="http://www.w3.org/2000/svg">
<path d="M14.0826 0.18308C13.799 -0.0671714 13.3469 -0.0599567 13.0729 0.199099C12.8057 0.451857 12.8057 0.852517 13.0729 1.10521L28.2771 14.9926L13.0715 28.8787C12.7879 29.129 12.78 29.5418 13.054 29.8009C13.328 30.06 13.78 30.0671 14.0637 29.8169C14.0697 29.8117 14.0755 29.8064 14.0812 29.8009L29.791 15.4531C30.0698 15.1984 30.0698 14.7856 29.791 14.5309L14.0826 0.18308Z"/>
<path d="M16.9389 14.5309L1.22911 0.18308C0.945463 -0.0671714 0.493384 -0.0599567 0.219378 0.199099C-0.0478662 0.451857 -0.0478662 0.852517 0.219378 1.10527L15.4236 14.9927L0.217972 28.8787C-0.0656736 29.129 -0.0735061 29.5418 0.200433 29.8009C0.474438 30.06 0.926451 30.0671 1.21016 29.8169C1.21612 29.8117 1.22195 29.8064 1.2277 29.8009L16.9375 15.4531C17.2166 15.1988 17.2172 14.786 16.9389 14.5309Z"/>
</svg>
