<svg width="30" height="30" viewBox="0 0 30 30" xmlns="http://www.w3.org/2000/svg">
  <path fill-rule="evenodd" clip-rule="evenodd" d="M7.90433 27.9887C8.47086 28.549 9.38279 28.549 9.94932 27.9887L10.0154 27.9234C10.5554 27.3893 10.5544 26.5169 10.0133 25.984V25.984C9.14483 25.1288 9.75036 23.6509 10.9692 23.6509H23.0824C24.6926 23.6509 25.998 22.3598 25.998 20.7673V17.8996C25.998 17.0945 25.3454 16.4418 24.5402 16.4418V16.4418C23.7351 16.4418 23.0824 17.0945 23.0824 17.8996V18.6045C23.0824 19.799 22.1141 20.7673 20.9197 20.7673H10.961C9.74281 20.7673 9.13624 19.2913 10.0023 18.4348V18.4348C10.5418 17.9012 10.5418 17.0298 10.0023 16.4962L9.94324 16.4378C9.38008 15.8808 8.47357 15.8808 7.91041 16.4378L3.09549 21.1998C2.53022 21.7622 2.53022 22.6704 3.09549 23.2327L7.90433 27.9887Z"/>
  <path fill-rule="evenodd" clip-rule="evenodd" d="M5.58916 11.3954C5.58916 10.201 6.55744 9.23268 7.75188 9.23268L17.7106 9.23268C18.9287 9.23268 19.5353 10.7086 18.6692 11.5652V11.5652C18.1297 12.0987 18.1297 12.9701 18.6692 13.5037L18.7283 13.5621C19.2915 14.1191 20.198 14.1191 20.7611 13.5621L25.576 8.80013C26.1413 8.23774 26.1413 7.32957 25.576 6.76718L20.7622 2.00628C20.1985 1.4487 19.291 1.4487 18.7272 2.00628L18.672 2.0609C18.1306 2.59631 18.1296 3.47042 18.6698 4.00701V4.00701C19.5374 4.86875 18.9271 6.34905 17.7043 6.34905H5.58916C3.97889 6.34905 2.67349 7.6401 2.67349 9.23268V12.1003C2.67349 12.9054 3.32619 13.5581 4.13132 13.5581V13.5581C4.93646 13.5581 5.58916 12.9054 5.58916 12.1003V11.3954Z"/>
</svg>
