<svg width="30" height="30" viewBox="0 0 30 30" xmlns="http://www.w3.org/2000/svg">
  <path d="M15.0001 1C7.31047 1 1 7.31047 1 15.0001C1 21.562 5.60447 27.5228 11.7188 29.0002V24.3684C11.113 24.5011 10.5554 24.5049 9.9387 24.3231C9.11133 24.0789 8.43905 23.5278 7.94003 22.6874C7.62194 22.1508 7.05818 21.5689 6.47007 21.6116L6.32588 19.9773C7.59758 19.8684 8.69775 20.7522 9.3508 21.8493C9.6409 22.3373 9.9748 22.6233 10.4033 22.7498C10.8175 22.8718 11.2623 22.8132 11.7806 22.6301C11.9107 21.5926 12.386 21.2042 12.7451 20.6573V20.6565C9.09851 20.1126 7.64522 18.178 7.06844 16.651C6.30409 14.6235 6.71425 12.0905 8.06585 10.4898C8.09213 10.4587 8.13955 10.3771 8.12118 10.32C7.50145 8.44802 8.25662 6.89946 8.28439 6.73518C8.9996 6.94667 9.11582 6.52241 11.3911 7.90478L11.7844 8.14105C11.9489 8.2391 11.8972 8.18313 12.0617 8.17074C13.0117 7.91268 14.0132 7.77019 14.9999 7.75738C15.9941 7.77019 16.9892 7.91268 17.9785 8.18121L18.1058 8.19402C18.0947 8.19232 18.1404 8.18591 18.2171 8.14019C21.0594 6.41859 20.9572 6.98128 21.7195 6.73347C21.747 6.89796 22.4921 8.47174 21.879 10.32C21.7964 10.5747 24.3432 12.9068 22.9316 16.6504C22.3548 18.178 20.9017 20.1126 17.2551 20.6565V20.6573C17.7225 21.3698 18.2842 21.7487 18.2812 23.2185V29.0002C24.3957 27.5228 29 21.562 29 15.0001C29.0002 7.31047 22.6897 1 15.0001 1Z"/>
</svg>
