<svg width="30" height="30" viewBox="0 0 30 30" xmlns="http://www.w3.org/2000/svg">
<path d="M19.6001 17.6195C18.8482 18.9765 17.2943 19.7487 15.6923 19.4235C13.6871 19.0164 12.366 17.0435 12.7415 15.0171C13.1171 12.9907 15.0472 11.678 17.0524 12.0851C18.5006 12.3792 19.5918 13.4895 19.9451 14.847L27.1243 14.8482L27.1258 22.0236C28.4619 22.8075 29.2347 24.3838 28.9362 25.9939C28.5607 28.0204 26.6306 29.333 24.6252 28.926C23.779 28.7541 23.0545 28.3034 22.528 27.6875L8.06747 27.6871C7.00868 27.6871 6.10875 27.2929 5.36769 26.5045C4.62663 25.7161 4.2561 24.7589 4.2561 23.6327L4.25595 11.6992C1.98207 10.6281 0.615935 8.09778 1.09568 5.5091C1.65908 2.46947 4.55412 0.500386 7.56215 1.11106C9.00516 1.40401 10.212 2.23755 11.0149 3.36106L23.3129 3.36091C24.3717 3.36091 25.2715 3.7551 26.0127 4.54347C26.7538 5.33169 27.1243 6.28898 27.1243 7.41532V8.39512H24.5517V7.41532C24.5517 7.05483 24.4299 6.74518 24.1864 6.48607C23.9428 6.2271 23.6517 6.09755 23.3129 6.09755L12.0538 6.09684C12.1089 6.62652 12.0901 7.17221 11.9884 7.72059C11.5076 10.3151 9.32784 12.1297 6.82921 12.2257L6.82876 23.6327C6.82876 23.9931 6.95046 24.3028 7.19402 24.5618C7.43743 24.8209 7.72868 24.9503 8.06747 24.9503L21.6196 24.9507C21.6295 24.8076 21.6477 24.6637 21.6744 24.5196C21.9582 22.9881 23.1299 21.8644 24.5507 21.5824L24.5517 17.6187L19.6001 17.6195Z"/>
</svg>
