<svg width="12" height="12" viewBox="0 0 12 12" xmlns="http://www.w3.org/2000/svg">
  <path d="M11.4541 0H7.0905C6.78926 0 6.54504 0.244219 6.54504 0.545461C6.54504 0.846703 6.78926 1.09092 7.0905 1.09092H10.1373L4.52301 6.70523C4.31004 6.91821 4.31004 7.26359 4.52301 7.47661C4.62949 7.58309 4.76908 7.63636 4.90868 7.63636C5.04827 7.63636 5.18789 7.58308 5.29434 7.47658L10.9087 1.8623V4.9091C10.9087 5.21034 11.1529 5.45456 11.4542 5.45456C11.7554 5.45456 11.9996 5.21034 11.9996 4.9091V0.545461C11.9996 0.244219 11.7554 0 11.4541 0Z" />
  <path d="M9.27272 5.45436C8.97148 5.45436 8.72726 5.69858 8.72726 5.99982V10.9089H1.0909V3.27254H6C6.30124 3.27254 6.54546 3.02832 6.54546 2.72708C6.54546 2.42584 6.30124 2.18164 6 2.18164H0.545461C0.244219 2.18164 0 2.42586 0 2.7271V11.4544C0 11.7556 0.244219 11.9998 0.545461 11.9998H9.27274C9.57398 11.9998 9.8182 11.7556 9.8182 11.4544V5.99982C9.81818 5.69858 9.57396 5.45436 9.27272 5.45436Z" />
</svg>
