<svg width="30" height="30" viewBox="0 0 30 30" xmlns="http://www.w3.org/2000/svg">
<path d="M14.9509 30H3.73769C1.67697 30 0 28.3175 0 26.25V3.75003C0 1.68254 1.67697 0 3.73769 0H14.9509C15.6386 0 16.1968 0.560024 16.1968 1.24997C16.1968 1.93992 15.6386 2.49994 14.9509 2.49994H3.73769C3.05118 2.49994 2.49182 3.0612 2.49182 3.74991V26.2499C2.49182 26.9399 3.05124 27.4998 3.73769 27.4998H14.9509C15.6386 27.4998 16.1968 28.0586 16.1968 28.7498C16.1968 29.4412 15.6386 30 14.9509 30Z"/>
<path d="M26.164 16.2484H11.2131C10.5254 16.2484 9.96726 15.6897 9.96726 14.9984C9.96726 14.3084 10.5255 13.7484 11.2131 13.7484H26.164C26.853 13.7484 27.4099 14.3085 27.4099 14.9984C27.4099 15.6897 26.853 16.2484 26.164 16.2484Z"/>
<path d="M21.179 23.7481C20.8575 23.7481 20.5361 23.6232 20.2919 23.3757C19.8085 22.8844 19.8135 22.0932 20.3044 21.6082L26.9799 14.9982L20.3044 8.38818C19.8135 7.90317 19.8098 7.11193 20.2919 6.61946C20.7741 6.12698 21.5652 6.12322 22.0536 6.60823L29.6287 14.1082C29.8655 14.3432 30 14.6633 30 14.9982C30 15.3332 29.8667 15.652 29.6287 15.8882L22.0536 23.3882C21.8119 23.6282 21.4954 23.7481 21.179 23.7481Z"/>
</svg>
