<svg width="30" height="30" viewBox="0 0 30 30" xmlns="http://www.w3.org/2000/svg">
  <path d="M16.8095 14.6458C16.8095 18.8747 13.2611 22.2916 8.90474 22.2916C4.54835 22.2916 1 18.9085 1 14.6458C1 10.3831 4.54835 7 8.90474 7C13.2611 7 16.8095 10.4169 16.8095 14.6458"/>
  <path d="M25.4873 14.6445C25.4873 18.6365 23.7307 21.8505 21.5525 21.8505C19.3743 21.8505 17.6177 18.6365 17.6177 14.6445C17.6177 10.6524 19.3743 7.43848 21.5525 7.43848C23.6955 7.43848 25.4873 10.6863 25.4873 14.6445"/>
  <path d="M29 14.6443C29 18.1966 28.3676 21.1061 27.5947 21.1061C26.8218 21.1061 26.1895 18.1966 26.1895 14.6443C26.1895 11.0921 26.8218 8.18262 27.5947 8.18262C28.4028 8.18262 29 11.0921 29 14.6443"/>
</svg>
