<svg width="30" height="30" viewBox="0 0 30 30" xmlns="http://www.w3.org/2000/svg">
<path d="M22.13 10.1281C21.8616 9.9825 21.5592 9.90603 21.2517 9.90603C20.9443 9.90603 20.6419 9.9825 20.3735 10.1281L16.3437 12.3974L13.6057 13.8774L9.57613 16.1466C9.30769 16.2921 9.00535 16.3685 8.6979 16.3685C8.39045 16.3685 8.08812 16.2921 7.81968 16.1466L4.61649 14.3707C4.35587 14.2256 4.13819 14.0177 3.98445 13.7671C3.83072 13.5165 3.74613 13.2316 3.73884 12.9401V9.4375C3.73524 9.14369 3.81528 8.85462 3.97015 8.60218C4.12501 8.34974 4.34868 8.14373 4.61649 8.00687L7.76794 6.28026C8.03638 6.13474 8.33872 6.05835 8.64617 6.05835C8.95362 6.05835 9.25595 6.13474 9.5244 6.28026L12.6758 8.00687C12.9365 8.15197 13.1541 8.35986 13.3079 8.61046C13.4616 8.86105 13.5462 9.1459 13.5535 9.4375V11.7068L16.2915 10.1775V7.90821C16.2951 7.6144 16.2151 7.32534 16.0602 7.0729C15.9054 6.82045 15.6817 6.61444 15.4139 6.47759L9.57613 3.22191C9.30769 3.07639 9.00535 3 8.6979 3C8.39045 3 8.08812 3.07639 7.81968 3.22191L1.87777 6.47781C1.60999 6.61465 1.38635 6.82063 1.23148 7.07302C1.07662 7.32542 0.996553 7.61444 1.00012 7.90821V14.4693C0.99651 14.7631 1.07655 15.0522 1.23142 15.3047C1.38629 15.5571 1.60996 15.7631 1.87777 15.9L7.81899 19.1559C8.08743 19.3014 8.38976 19.3778 8.69721 19.3778C9.00466 19.3778 9.307 19.3014 9.57544 19.1559L13.605 16.9359L16.343 15.4066L20.3728 13.1867C20.6412 13.0411 20.9436 12.9646 21.2511 12.9646C21.5585 12.9646 21.8609 13.0411 22.1293 13.1867L25.2807 14.9133C25.5413 15.0584 25.759 15.2663 25.9127 15.5169C26.0665 15.7675 26.1511 16.0524 26.1584 16.3439V19.8465C26.162 20.1403 26.0819 20.4294 25.9271 20.6818C25.7722 20.9343 25.5485 21.1403 25.2807 21.2771L22.1293 23.0531C21.8608 23.1986 21.5585 23.275 21.2511 23.275C20.9436 23.275 20.6413 23.1986 20.3728 23.0531L17.2214 21.3265C16.9608 21.1813 16.7431 20.9735 16.5894 20.7229C16.4356 20.4723 16.351 20.1874 16.3437 19.8958V17.6264L13.6057 19.1556V21.4249C13.6021 21.7187 13.6821 22.0078 13.837 22.2602C13.9919 22.5127 14.2155 22.7187 14.4833 22.8555L20.4246 26.1114C20.693 26.2569 20.9953 26.3333 21.3028 26.3333C21.6102 26.3333 21.9126 26.2569 22.181 26.1114L28.1222 22.8555C28.3828 22.7104 28.6005 22.5025 28.7542 22.2519C28.908 22.0013 28.9926 21.7165 28.9999 21.4249V14.864C29.0035 14.5702 28.9234 14.2811 28.7686 14.0287C28.6137 13.7762 28.39 13.5702 28.1222 13.4334L22.13 10.1281Z"/>
</svg>
