<svg width="30" height="30" viewBox="0 0 30 30" xmlns="http://www.w3.org/2000/svg">
<path fill-rule="evenodd" clip-rule="evenodd" d="M22.8516 11.4258C22.8516 5.12561 17.726 0 11.4258 0C5.12561 0 0 5.12561 0 11.4258C0 17.726 5.12561 22.8516 11.4258 22.8516C13.943 22.8516 16.2722 22.0327 18.1624 20.6483L27.5141 30L30 27.514L20.6483 18.1624C22.0327 16.2722 22.8516 13.943 22.8516 11.4258ZM21.0953 11.4509C21.0953 16.7701 16.7678 21.0976 11.4486 21.0976C6.12946 21.0976 1.80198 16.7701 1.80198 11.4509C1.80198 6.13177 6.12946 1.80428 11.4486 1.80428C16.7678 1.80428 21.0953 6.13177 21.0953 11.4509Z"/>
</svg>
