<svg width="30" height="30" viewBox="0 0 30 30" xmlns="http://www.w3.org/2000/svg">
  <path d="M29 6.67731C27.9588 7.13136 26.8493 7.43232 25.6925 7.57845C26.8825 6.87215 27.7908 5.76226 28.2178 4.42447C27.1083 5.08206 25.8832 5.54654 24.5777 5.80575C23.5242 4.69064 22.0227 4 20.3847 4C17.2067 4 14.6482 6.56424 14.6482 9.70777C14.6482 10.1601 14.6868 10.595 14.7813 11.009C10.009 10.7777 5.78625 8.50394 2.9495 5.04031C2.45425 5.89447 2.16375 6.87215 2.16375 7.92464C2.16375 9.90088 3.1875 11.6527 4.7135 12.6669C3.79125 12.6495 2.8865 12.3833 2.12 11.9641C2.12 11.9815 2.12 12.0041 2.12 12.0267C2.12 14.7997 4.10975 17.103 6.719 17.6336C6.25175 17.7606 5.7425 17.8215 5.214 17.8215C4.8465 17.8215 4.4755 17.8006 4.12725 17.7241C4.871 19.9839 6.9815 21.6452 9.491 21.6991C7.538 23.2179 5.05825 24.1329 2.37375 24.1329C1.903 24.1329 1.4515 24.112 1 24.0546C3.54275 25.6847 6.55625 26.6154 9.806 26.6154C20.369 26.6154 26.144 17.9172 26.144 10.3775C26.144 10.1253 26.1353 9.88174 26.123 9.63993C27.2623 8.83621 28.2195 7.83244 29 6.67731Z"/>
</svg>
